<?xml version="1.0" encoding="UTF-8" standalone="no"?>
<!DOCTYPE svg PUBLIC "-//W3C//DTD SVG 1.1//EN" "http://www.w3.org/Graphics/SVG/1.1/DTD/svg11.dtd">
<svg width="100%" height="100%" viewBox="0 0 27 25" version="1.1" xmlns="http://www.w3.org/2000/svg" xmlns:xlink="http://www.w3.org/1999/xlink" xml:space="preserve" xmlns:serif="http://www.serif.com/" style="fill-rule:evenodd;clip-rule:evenodd;stroke-linejoin:round;stroke-miterlimit:2;">
    <g transform="matrix(1,0,0,1,-599.528015,-246.827418)">
        <g transform="matrix(2,0,0,2,0,0)">
            <path d="M310.719,125.919C311.076,125.919 311.255,125.727 311.255,125.344C311.255,124.987 310.897,124.667 310.183,124.387C309.442,124.081 309.072,124.234 309.072,124.846C309.072,124.872 309.136,125.05 309.264,125.382C309.544,125.74 310.029,125.919 310.719,125.919ZM303.479,131.435C303.479,131.843 303.263,132.047 302.828,132.047C302.471,132.047 302.241,131.907 302.139,131.626L302.063,131.282C302.063,130.771 302.305,130.58 302.79,130.707C303.25,130.834 303.479,131.078 303.479,131.435ZM308.191,133.618C308.191,133.848 308.102,134.078 307.923,134.307C307.693,134.614 307.349,134.767 306.889,134.767C305.97,134.767 305.28,134.5 304.82,133.962C304.514,133.452 304.36,133.184 304.36,133.159C304.36,131.984 304.999,131.601 306.275,132.009C307.553,132.444 308.191,132.98 308.191,133.618ZM312.94,126.34L310.949,126.992C310.897,127.017 310.617,127.464 310.106,128.333C309.672,129.047 309.213,129.405 308.728,129.405C308.038,129.405 307.693,129.162 307.693,128.677C307.872,128.039 307.961,127.617 307.961,127.413C307.961,127.259 307.897,126.941 307.77,126.456C307.642,125.97 307.578,125.523 307.578,125.115C307.578,124.736 307.655,124.173 307.808,123.429C305.29,123.346 303.644,123.601 302.867,124.195C301.641,125.14 300.824,125.88 300.415,126.417C299.981,127.004 299.764,127.732 299.764,128.6C299.764,130.031 300.812,131.576 302.905,133.235C304.82,134.716 306.327,135.457 307.425,135.457C309.238,135.457 310.592,134.946 311.485,133.924C312.379,132.877 312.915,130.937 313.094,128.102C313.129,127.453 313.078,126.865 312.94,126.34Z" style="fill:rgb(117,122,126);fill-rule:nonzero;"/>
        </g>
        <g transform="matrix(2,0,0,2,0,0)">
            <path d="M307.923,134.307C308.102,134.078 308.191,133.848 308.191,133.618C308.191,132.98 307.553,132.444 306.275,132.009C304.999,131.601 304.36,131.984 304.36,133.159C304.36,133.184 304.514,133.452 304.82,133.962C305.28,134.5 305.97,134.767 306.889,134.767C307.349,134.767 307.693,134.614 307.923,134.307ZM302.828,132.047C303.263,132.047 303.479,131.843 303.479,131.435C303.479,131.078 303.25,130.834 302.79,130.707C302.305,130.58 302.063,130.771 302.063,131.282L302.139,131.626C302.241,131.907 302.471,132.047 302.828,132.047Z" style="fill:rgb(104,108,109);fill-rule:nonzero;"/>
        </g>
        <g transform="matrix(2,0,0,2,0,0)">
            <path d="M311.255,125.344C311.255,125.727 311.076,125.919 310.719,125.919C310.029,125.919 309.544,125.74 309.264,125.382C309.136,125.05 309.072,124.872 309.072,124.846C309.072,124.234 309.442,124.081 310.183,124.387C310.897,124.667 311.255,124.987 311.255,125.344ZM310.949,126.992L312.94,126.34C312.506,124.609 311.114,123.664 308.766,123.505C308.442,123.484 308.123,123.458 307.808,123.429C307.655,124.173 307.578,124.736 307.578,125.115C307.578,125.523 307.642,125.97 307.77,126.456C307.897,126.941 307.961,127.259 307.961,127.413C307.961,127.617 307.872,128.039 307.693,128.677C307.693,129.162 308.038,129.405 308.728,129.405C309.213,129.405 309.672,129.047 310.106,128.333C310.617,127.464 310.897,127.017 310.949,126.992Z" style="fill:rgb(130,139,145);fill-rule:nonzero;"/>
        </g>
    </g>
</svg>
