<?xml version="1.0" encoding="UTF-8" standalone="no"?>
<!DOCTYPE svg PUBLIC "-//W3C//DTD SVG 1.1//EN" "http://www.w3.org/Graphics/SVG/1.1/DTD/svg11.dtd">
<svg width="100%" height="100%" viewBox="0 0 79 65" version="1.1" xmlns="http://www.w3.org/2000/svg" xmlns:xlink="http://www.w3.org/1999/xlink" xml:space="preserve" xmlns:serif="http://www.serif.com/" style="fill-rule:evenodd;clip-rule:evenodd;stroke-linejoin:round;stroke-miterlimit:2;">
    <g transform="matrix(1,0,0,1,-563.679993,-124.276955)">
        <g transform="matrix(2,0,0,2,0,0)">
            <path d="M302.569,76.318C302.983,76.093 303.19,76.243 303.19,76.77C303.19,76.921 303.115,77.128 302.965,77.392C302.776,77.692 302.606,77.844 302.456,77.844C302.079,77.844 301.892,77.655 301.892,77.278C301.892,76.864 302.117,76.544 302.569,76.318ZM304.377,76.657C303.887,76.657 303.604,76.488 303.529,76.149L303.529,75.641C303.529,74.511 304.019,73.776 304.998,73.437C305.939,73.137 306.41,73.532 306.41,74.624C306.41,75.038 306.315,75.415 306.128,75.754C305.788,76.356 305.205,76.657 304.377,76.657ZM299.35,69.653C299.35,69.277 299.538,69.107 299.914,69.145C300.253,69.183 300.423,69.353 300.423,69.653C300.423,70.067 300.272,70.274 299.971,70.274C299.67,70.274 299.481,70.181 299.406,69.992C299.368,69.917 299.35,69.804 299.35,69.653ZM303.077,73.381C303.077,74.285 302.776,74.737 302.174,74.737C301.496,74.737 301.101,74.511 300.987,74.059L300.987,73.325C300.987,72.459 301.346,72.082 302.061,72.195C302.738,72.308 303.077,72.703 303.077,73.381ZM311.493,75.302C311.456,75.227 311.437,75.113 311.437,74.963C311.437,74.624 311.606,74.436 311.945,74.397C312.284,74.36 312.453,74.549 312.453,74.963C312.453,75.377 312.303,75.584 312.002,75.584C311.738,75.584 311.568,75.49 311.493,75.302ZM307.878,76.883C307.878,76.356 308.273,75.941 309.064,75.641C309.817,75.377 310.194,75.641 310.194,76.432C310.194,77.222 309.724,77.617 308.782,77.617C308.33,77.617 308.048,77.505 307.935,77.278C307.897,77.053 307.878,76.921 307.878,76.883ZM318.384,67.959C318.384,68.373 318.233,68.58 317.933,68.58C317.556,68.58 317.235,68.373 316.972,67.959L316.689,67.394C316.689,66.829 316.972,66.697 317.537,66.999C318.102,67.338 318.384,67.657 318.384,67.959ZM312.905,64.287C312.905,64.4 312.849,64.514 312.736,64.626C312.623,64.739 312.51,64.796 312.397,64.796C312.021,64.796 311.531,64.683 310.929,64.457C310.288,64.231 309.648,64.118 309.008,64.118C307.577,64.08 306.654,63.968 306.24,63.779C305.977,63.704 305.845,63.534 305.845,63.27C305.845,62.744 307.031,62.668 309.403,63.045C311.738,63.384 312.905,63.798 312.905,64.287ZM303.304,62.819C301.551,62.593 299.856,62.48 298.22,62.48C296.856,62.48 295.595,62.631 294.436,62.932C294.146,63.095 293.863,63.245 293.588,63.384C296.968,65.567 299.151,68.862 300.141,73.269C300.441,74.661 300.837,76.488 301.326,78.747C301.892,80.329 302.908,81.119 304.377,81.119C306.297,81.119 309.14,79.5 312.905,76.262C315.62,73.9 318.35,72.394 321.096,71.743C320.909,70.838 320.457,69.973 319.74,69.145C319.635,68.794 319.466,68.267 319.231,67.563C318.779,66.547 318.045,66.133 317.028,66.321C316.691,66.386 316.409,66.461 316.182,66.547C315.565,66.244 314.888,65.942 314.148,65.644L314.148,65.474C314.148,63.327 312.021,62.217 307.766,62.142C305.837,62.107 304.35,62.333 303.304,62.819Z" style="fill:rgb(130,139,145);fill-rule:nonzero;"/>
        </g>
        <g transform="matrix(2,0,0,2,0,0)">
            <path d="M295.17,70.613C295.17,71.141 295.113,71.518 295,71.743C294.736,72.232 294.209,72.478 293.419,72.478C292.59,72.478 292.102,72.195 291.95,71.63L291.95,70.783C291.95,69.051 292.496,68.316 293.588,68.58C294.643,68.882 295.17,69.56 295.17,70.613ZM293.701,82.588C293.701,83.266 293.362,83.604 292.685,83.604C292.007,83.604 291.479,83.247 291.104,82.531C290.881,81.864 290.768,81.582 290.764,81.685C290.766,80.631 291.256,80.367 292.232,80.894C293.212,81.421 293.701,81.985 293.701,82.588ZM293.25,89.705C292.534,88.801 292.176,88.086 292.176,87.559C292.176,85.299 293.212,84.885 295.283,86.315C297.354,87.747 298.39,88.895 298.39,89.762C298.39,90.288 298.37,90.608 298.333,90.722C298.145,91.249 297.617,91.513 296.752,91.513C295.396,91.513 294.229,90.91 293.25,89.705ZM283.082,83.491C282.781,83.04 282.631,82.626 282.631,82.249C282.631,81.232 282.932,81.157 283.534,82.023C283.836,82.437 284.156,82.965 284.494,83.604C284.532,83.643 285.172,84.32 286.415,85.638C286.641,85.864 286.754,86.259 286.754,86.824C286.754,87.163 286.565,87.332 286.189,87.332C286.151,87.332 285.869,87.031 285.342,86.429C284.739,85.751 284.307,85.205 284.043,84.791C283.591,84.188 283.271,83.755 283.082,83.491ZM316.182,81.91L316.238,82.306C313.188,86.297 311.55,88.293 311.324,88.293C310.834,88.293 310.59,88.123 310.59,87.784C310.59,87.52 310.985,86.956 311.775,86.09C312.604,85.224 313.037,84.771 313.075,84.734C313.564,84.057 313.979,83.529 314.317,83.152C314.92,82.475 315.541,82.061 316.182,81.91ZM293.588,63.384C290.542,65.186 288.264,66.957 286.754,68.693C284.645,71.065 283.591,73.946 283.591,77.335C283.591,78.013 283.629,78.672 283.703,79.311C282.461,80.337 281.84,81.26 281.84,82.08C281.84,82.117 282.48,83.266 283.76,85.525C285.342,87.784 286.886,88.914 288.393,88.914C288.632,88.914 288.857,88.895 289.07,88.857C289.709,89.411 290.387,89.938 291.104,90.439C294.943,93.112 298.276,94.449 301.101,94.449C304.753,94.449 307.05,93.79 307.991,92.473C308.396,91.599 308.867,90.714 309.403,89.817C311.531,89.421 313.509,88.046 315.334,85.694C317.104,83.397 317.989,81.646 317.989,80.441C317.989,80.265 317.97,80.095 317.933,79.934C318.246,79.622 318.51,79.34 318.723,79.086C320.418,77.09 321.265,75.019 321.265,72.873C321.265,72.483 321.208,72.106 321.096,71.743C318.35,72.394 315.62,73.9 312.905,76.262C309.14,79.5 306.297,81.119 304.377,81.119C302.908,81.119 301.892,80.329 301.326,78.747C300.837,76.488 300.441,74.661 300.141,73.269C299.151,68.862 296.968,65.567 293.588,63.384ZM309.064,75.641C308.273,75.941 307.878,76.356 307.878,76.883C307.878,76.921 307.897,77.053 307.935,77.278C308.048,77.505 308.33,77.617 308.782,77.617C309.724,77.617 310.194,77.222 310.194,76.432C310.194,75.641 309.817,75.377 309.064,75.641ZM311.437,74.963C311.437,75.113 311.456,75.227 311.493,75.302C311.568,75.49 311.738,75.584 312.002,75.584C312.303,75.584 312.453,75.377 312.453,74.963C312.453,74.549 312.284,74.36 311.945,74.397C311.606,74.436 311.437,74.624 311.437,74.963ZM302.174,74.737C302.776,74.737 303.077,74.285 303.077,73.381C303.077,72.703 302.738,72.308 302.061,72.195C301.346,72.082 300.987,72.459 300.987,73.325L300.987,74.059C301.101,74.511 301.496,74.737 302.174,74.737ZM299.914,69.145C299.538,69.107 299.35,69.277 299.35,69.653C299.35,69.804 299.368,69.917 299.406,69.992C299.481,70.181 299.67,70.274 299.971,70.274C300.272,70.274 300.423,70.067 300.423,69.653C300.423,69.353 300.253,69.183 299.914,69.145ZM303.529,76.149C303.604,76.488 303.887,76.657 304.377,76.657C305.205,76.657 305.788,76.356 306.128,75.754C306.315,75.415 306.41,75.038 306.41,74.624C306.41,73.532 305.939,73.137 304.998,73.437C304.019,73.776 303.529,74.511 303.529,75.641L303.529,76.149ZM303.19,76.77C303.19,76.243 302.983,76.093 302.569,76.318C302.117,76.544 301.892,76.864 301.892,77.278C301.892,77.655 302.079,77.844 302.456,77.844C302.606,77.844 302.776,77.692 302.965,77.392C303.115,77.128 303.19,76.921 303.19,76.77Z" style="fill:rgb(117,122,126);fill-rule:nonzero;"/>
        </g>
        <g transform="matrix(2,0,0,2,0,0)">
            <path d="M312.736,64.626C312.849,64.514 312.905,64.4 312.905,64.287C312.905,63.798 311.738,63.384 309.403,63.045C307.031,62.668 305.845,62.744 305.845,63.27C305.845,63.534 305.977,63.704 306.24,63.779C306.654,63.968 307.577,64.08 309.008,64.118C309.648,64.118 310.288,64.231 310.929,64.457C311.531,64.683 312.021,64.796 312.397,64.796C312.51,64.796 312.623,64.739 312.736,64.626ZM317.933,68.58C318.233,68.58 318.384,68.373 318.384,67.959C318.384,67.657 318.102,67.338 317.537,66.999C316.972,66.697 316.689,66.829 316.689,67.394L316.972,67.959C317.235,68.373 317.556,68.58 317.933,68.58Z" style="fill:rgb(116,121,123);fill-rule:nonzero;"/>
        </g>
        <g transform="matrix(2,0,0,2,0,0)">
            <path d="M292.176,87.559C292.176,88.086 292.534,88.801 293.25,89.705C294.229,90.91 295.396,91.513 296.752,91.513C297.617,91.513 298.145,91.249 298.333,90.722C298.37,90.608 298.39,90.288 298.39,89.762C298.39,88.895 297.354,87.747 295.283,86.315C293.212,84.885 292.176,85.299 292.176,87.559ZM292.685,83.604C293.362,83.604 293.701,83.266 293.701,82.588C293.701,81.985 293.212,81.421 292.232,80.894C291.256,80.367 290.766,80.631 290.764,81.685C290.768,81.582 290.881,81.864 291.104,82.531C291.479,83.247 292.007,83.604 292.685,83.604ZM295,71.743C295.113,71.518 295.17,71.141 295.17,70.613C295.17,69.56 294.643,68.882 293.588,68.58C292.496,68.316 291.95,69.051 291.95,70.783L291.95,71.63C292.102,72.195 292.59,72.478 293.419,72.478C294.209,72.478 294.736,72.232 295,71.743Z" style="fill:rgb(104,108,109);fill-rule:nonzero;"/>
        </g>
        <g transform="matrix(2,0,0,2,0,0)">
            <path d="M316.238,82.306L316.182,81.91C315.541,82.061 314.92,82.475 314.317,83.152C313.979,83.529 313.564,84.057 313.075,84.734C313.037,84.771 312.604,85.224 311.775,86.09C310.985,86.956 310.59,87.52 310.59,87.784C310.59,88.123 310.834,88.293 311.324,88.293C311.55,88.293 313.188,86.297 316.238,82.306ZM282.631,82.249C282.631,82.626 282.781,83.04 283.082,83.491C283.271,83.755 283.591,84.188 284.043,84.791C284.307,85.205 284.739,85.751 285.342,86.429C285.869,87.031 286.151,87.332 286.189,87.332C286.565,87.332 286.754,87.163 286.754,86.824C286.754,86.259 286.641,85.864 286.415,85.638C285.172,84.32 284.532,83.643 284.494,83.604C284.156,82.965 283.836,82.437 283.534,82.023C282.932,81.157 282.631,81.232 282.631,82.249Z" style="fill:rgb(87,91,93);fill-rule:nonzero;"/>
        </g>
    </g>
</svg>
