<?xml version="1.0" encoding="UTF-8" standalone="no"?>
<!DOCTYPE svg PUBLIC "-//W3C//DTD SVG 1.1//EN" "http://www.w3.org/Graphics/SVG/1.1/DTD/svg11.dtd">
<svg width="100%" height="100%" viewBox="0 0 407 331" version="1.1" xmlns="http://www.w3.org/2000/svg" xmlns:xlink="http://www.w3.org/1999/xlink" xml:space="preserve" xmlns:serif="http://www.serif.com/" style="fill-rule:evenodd;clip-rule:evenodd;stroke-linejoin:round;stroke-miterlimit:2;">
    <g transform="matrix(1,0,0,1,-627.762153,-156.038889)">
        <g transform="matrix(2.344972,0,0,2.344972,-1139.788758,-532.930225)">
            <path d="M781.726,351.815C800.715,307.058 939.154,295.246 908.913,362.867C898.124,386.991 867.986,402.23 843.084,407.426C814.047,413.484 766.617,387.432 781.726,351.815C791.206,329.472 777.367,362.091 781.726,351.815Z" style="fill:rgb(247,177,30);fill-rule:nonzero;"/>
        </g>
        <g transform="matrix(3.094885,-0.339623,0.296587,2.702715,-1882.56054,-379.423139)">
            <path d="M880.978,367.153C870.653,391.488 795.383,397.91 811.825,361.144C817.691,348.028 834.078,339.742 847.617,336.917C863.404,333.623 889.192,347.788 880.978,367.153C875.823,379.301 883.347,361.566 880.978,367.153Z" style="fill:rgb(3,1,2);fill-rule:nonzero;"/>
        </g>
        <g transform="matrix(2.344972,0,0,2.344972,-1139.788758,-532.930225)">
            <path d="M754.015,377.995C761.99,389.929 771.52,398.084 781.68,403.229C791.841,408.377 802.615,410.516 813.082,410.515C822.274,410.515 831.235,408.87 839.387,406.163C849.929,402.658 859.051,396.93 865.56,392.081C872.068,387.23 875.961,383.25 876.002,383.21C876.581,382.618 876.57,381.668 875.978,381.089C875.385,380.51 874.436,380.52 873.856,381.113L873.819,381.15C873.399,381.574 869.459,385.497 863.166,390.121C856.875,394.746 848.23,400.066 838.441,403.315C830.568,405.931 821.915,407.515 813.082,407.515C803.019,407.514 792.73,405.463 783.036,400.553C773.342,395.64 764.227,387.868 756.509,376.328C756.049,375.639 755.117,375.454 754.429,375.914C753.74,376.375 753.555,377.306 754.015,377.995Z" style="fill:rgb(247,147,105);fill-rule:nonzero;"/>
        </g>
        <g transform="matrix(2.344972,0,0,2.344972,-1139.788758,-532.930225)">
            <path d="M775.091,332.558C775.044,332.617 772.908,335.292 770.763,339.624C768.622,343.955 766.456,349.954 766.452,356.68C766.444,362.727 768.247,369.366 773.351,375.633C778.451,381.905 786.775,387.794 799.736,392.654C806.305,395.117 812.964,396.18 819.441,396.179C833.885,396.173 847.411,390.926 857.391,384.122C862.382,380.715 866.491,376.916 869.393,373.124C872.282,369.328 874.023,365.538 874.04,361.983C874.04,360.754 873.818,359.554 873.341,358.444C872.629,356.773 871.339,355.344 869.575,354.288C867.809,353.226 865.575,352.504 862.84,352.117C859.645,351.666 856.444,351.448 853.354,351.448C846.997,351.452 841.125,352.356 836.688,354.125C834.469,355.014 832.596,356.12 831.21,357.53C830.518,358.235 829.951,359.022 829.557,359.892C829.162,360.761 828.947,361.712 828.948,362.694C828.948,363.816 829.224,364.966 829.753,366.107C830.283,367.25 831.061,368.392 832.093,369.55C832.644,370.168 833.592,370.223 834.21,369.672C834.829,369.121 834.884,368.173 834.333,367.554C833.455,366.569 832.851,365.659 832.476,364.847C832.1,364.033 831.949,363.325 831.948,362.694C831.95,362.14 832.062,361.635 832.29,361.13C832.684,360.254 833.469,359.364 834.67,358.538C836.463,357.297 839.15,356.246 842.378,355.539C845.607,354.828 849.375,354.447 853.354,354.448C856.303,354.448 859.368,354.656 862.421,355.087C865.687,355.546 867.871,356.522 869.174,357.697C869.83,358.286 870.281,358.924 870.584,359.627C870.886,360.33 871.039,361.108 871.04,361.983C871.057,364.498 869.678,367.829 867.01,371.302C863.026,376.52 856.268,382.035 847.941,386.193C839.612,390.358 829.72,393.181 819.441,393.179C813.29,393.179 807,392.173 800.789,389.845C788.17,385.114 780.34,379.477 775.679,373.74C771.022,367.999 769.461,362.149 769.452,356.68C769.448,350.611 771.438,345.017 773.452,340.955C774.457,338.924 775.463,337.278 776.214,336.147C776.589,335.582 776.9,335.146 777.114,334.855C777.221,334.709 777.304,334.6 777.358,334.528L777.419,334.451L777.432,334.434L777.434,334.432C777.951,333.785 777.846,332.841 777.199,332.323C776.552,331.806 775.608,331.911 775.091,332.558Z" style="fill:rgb(247,147,105);fill-rule:nonzero;"/>
        </g>
        <g transform="matrix(2.344972,0,0,2.344972,-1139.788758,-532.930225)">
            <path d="M848.765,318.865C848.699,318.88 843.854,319.976 837.392,322.817C830.932,325.661 822.842,330.243 816.326,337.312C810.198,343.957 807.463,350.961 807.465,357.355C807.461,363.584 810.068,369.175 814.4,373.155C818.73,377.141 824.773,379.535 831.631,379.533C834.038,379.533 836.544,379.239 839.114,378.62C847.753,376.534 854.15,373.463 858.462,370.09C860.618,368.402 862.254,366.636 863.374,364.849C864.491,363.064 865.098,361.242 865.1,359.473C865.101,358.307 864.826,357.172 864.278,356.163C863.456,354.642 862.048,353.449 860.244,352.666C858.434,351.88 856.216,351.473 853.602,351.472C853.491,351.472 853.379,351.473 853.266,351.474C852.438,351.486 851.776,352.167 851.788,352.996C851.8,353.824 852.481,354.486 853.309,354.474C853.407,354.473 853.505,354.472 853.602,354.472C856.672,354.468 858.878,355.13 860.207,356.053C860.876,356.515 861.336,357.032 861.64,357.592C861.943,358.153 862.098,358.766 862.1,359.473C862.102,360.538 861.723,361.833 860.831,363.257C859.5,365.392 857.023,367.773 853.306,369.972C849.59,372.173 844.645,374.2 838.411,375.703C836.063,376.269 833.793,376.533 831.631,376.533C825.469,376.532 820.179,374.395 816.431,370.948C812.686,367.494 810.469,362.746 810.465,357.355C810.467,351.827 812.81,345.561 818.532,339.344C824.638,332.712 832.381,328.295 838.599,325.563C841.707,324.197 844.431,323.249 846.369,322.646C847.338,322.344 848.11,322.129 848.636,321.99C848.9,321.92 849.101,321.869 849.235,321.837L849.384,321.801L849.426,321.791C850.234,321.609 850.741,320.806 850.559,319.998C850.376,319.19 849.573,318.682 848.765,318.865Z" style="fill:rgb(247,147,105);fill-rule:nonzero;"/>
        </g>
        <g transform="matrix(2.344972,0,0,2.344972,-1139.788758,-532.930225)">
            <path d="M858.511,365.919C857.339,366.641 855.058,367.945 852.277,369.055C849.497,370.167 846.218,371.073 843.095,371.069C840.915,371.068 838.827,370.64 836.945,369.588C835.065,368.531 833.346,366.845 831.925,364.134C831.019,362.397 830.59,360.623 830.589,358.856C830.59,356.87 831.134,354.882 832.233,352.974C833.88,350.116 836.798,347.445 840.972,345.45C845.143,343.455 850.561,342.143 857.13,341.994C857.601,341.984 858.085,341.978 858.582,341.978C866.672,341.972 877.941,343.453 886.993,347.257C891.522,349.154 895.483,351.625 898.257,354.688C901.03,357.761 902.655,361.361 902.665,365.835C902.665,369.133 901.756,372.941 899.603,377.323C897.451,381.703 894.056,386.645 889.142,392.164L890.262,393.161L889.181,392.122C876.108,405.722 860.902,413.495 846.714,417.878C832.529,422.26 819.374,423.237 810.508,423.237C806.968,423.237 804.112,423.081 802.148,422.927C801.166,422.85 800.407,422.773 799.897,422.716C799.642,422.687 799.45,422.663 799.323,422.647L799.181,422.629L799.141,422.623C798.32,422.506 797.561,423.076 797.444,423.896C797.327,424.717 797.897,425.476 798.717,425.593C798.774,425.601 803.252,426.236 810.508,426.237C819.593,426.236 833.034,425.242 847.599,420.744C862.16,416.248 877.856,408.234 891.344,394.201L891.383,394.159C896.43,388.488 899.986,383.344 902.295,378.646C904.603,373.951 905.665,369.69 905.665,365.835C905.675,360.598 903.669,356.174 900.479,352.672C895.686,347.409 888.35,344.054 880.667,341.934C872.977,339.824 864.914,338.98 858.582,338.978C858.063,338.978 857.556,338.984 857.062,338.995C847.824,339.207 840.528,341.59 835.469,345.214C832.941,347.027 830.974,349.153 829.635,351.475C828.295,353.795 827.588,356.315 827.589,358.856C827.588,361.116 828.148,363.384 829.266,365.523C830.907,368.674 833.064,370.858 835.48,372.206C837.896,373.558 840.527,374.07 843.095,374.069C846.786,374.065 850.383,373.038 853.389,371.841C856.394,370.641 858.807,369.259 860.084,368.473C860.79,368.039 861.009,367.115 860.575,366.409C860.141,365.704 859.216,365.484 858.511,365.919Z" style="fill:rgb(247,147,105);fill-rule:nonzero;"/>
        </g>
        <g transform="matrix(2.344972,0,0,2.344972,-1139.788758,-532.930225)">
            <path d="M800.274,371.33L800.268,371.319C800.096,370.975 796.594,363.571 796.602,353.917C796.603,349.318 797.386,344.214 799.667,339.067C803.094,331.354 809.878,323.474 822.776,317.028C835.671,310.59 854.687,305.646 882.352,303.992C883.179,303.943 883.809,303.232 883.76,302.405C883.71,301.578 883,300.948 882.173,300.997C844.934,303.231 822.842,311.345 809.951,321.541C803.512,326.637 799.4,332.262 796.925,337.852C794.447,343.441 793.602,348.979 793.602,353.917C793.611,364.625 797.531,372.539 797.584,372.659C797.951,373.402 798.851,373.707 799.594,373.339C800.336,372.972 800.641,372.073 800.274,371.33Z" style="fill:rgb(247,147,105);fill-rule:nonzero;"/>
        </g>
        <g transform="matrix(2.344972,0,0,2.344972,-1139.788758,-532.930225)">
            <path d="M865.197,332.493C865.197,332.493 865.24,332.495 865.336,332.5C866.826,332.575 880.066,333.406 892.761,337.896C899.109,340.135 905.301,343.291 909.824,347.611C912.089,349.771 913.94,352.215 915.228,354.992C916.516,357.77 917.251,360.885 917.252,364.445C917.253,368.985 916.045,374.264 913.167,380.394C910.29,386.521 905.742,393.488 899.115,401.362C898.581,401.996 898.663,402.942 899.297,403.476C899.93,404.009 900.877,403.928 901.41,403.294C908.162,395.27 912.859,388.104 915.882,381.669C918.904,375.236 920.252,369.522 920.252,364.445C920.254,360.34 919.365,356.662 917.806,353.424C915.074,347.749 910.349,343.458 904.907,340.198C896.732,335.309 886.874,332.668 879.034,331.208C871.195,329.753 865.376,329.499 865.328,329.496C864.5,329.46 863.8,330.102 863.764,330.929C863.728,331.757 864.369,332.457 865.197,332.493Z" style="fill:rgb(247,147,105);fill-rule:nonzero;"/>
        </g>
        <g transform="matrix(2.344972,0,0,2.344972,-1139.788758,-532.930225)">
            <path d="M832.415,360.877C834.55,356.89 843.128,354.433 853.307,354.44L853.307,354.474C858.467,354.423 861.707,356.073 862.067,358.933C862.283,360.656 861.377,363.082 858.947,365.644C856.868,366.969 847.435,372.585 839.724,370.679C837.577,370.146 835.731,369.038 834.195,367.387C832.039,364.901 831.433,362.711 832.415,360.877Z" style="fill:rgb(3,1,2);fill-rule:nonzero;"/>
        </g>
        <g transform="matrix(2.344972,0,0,2.344972,-1139.788758,-532.930225)">
            <path d="M839.478,360.898C840.958,358.475 846.901,356.981 853.954,356.985L853.954,357.006C857.529,356.975 859.774,357.978 860.023,359.716C860.173,360.764 859.545,362.239 857.862,363.796C856.421,364.602 849.886,368.016 844.543,366.857C843.055,366.533 841.776,365.86 840.712,364.856C839.218,363.345 838.798,362.013 839.478,360.898Z" style="fill:rgb(3,1,2);fill-rule:nonzero;"/>
        </g>
        <g transform="matrix(2.344972,0,0,2.344972,-1139.788758,-532.930225)">
            <path d="M847.19,360.922C848.003,359.589 851.271,358.768 855.147,358.77L855.147,358.782C857.113,358.765 858.347,359.316 858.484,360.272C858.566,360.848 858.221,361.658 857.295,362.515C856.504,362.957 852.911,364.834 849.974,364.197C849.156,364.019 848.453,363.649 847.868,363.097C847.047,362.266 846.816,361.534 847.19,360.922Z" style="fill:rgb(3,1,2);fill-rule:nonzero;"/>
        </g>
        <g transform="matrix(2.344972,0,0,2.344972,-1139.788758,-532.930225)">
            <path d="M778.378,351.175C778.379,351.199 778.546,359.967 783.953,368.76C789.356,377.555 800.04,386.344 820.923,386.337C822.248,386.337 823.613,386.302 825.02,386.23C835.362,385.696 843.467,383.48 849.757,380.532L849.545,380.08C843.317,382.998 835.278,385.199 824.994,385.73C823.595,385.802 822.239,385.837 820.923,385.837C800.181,385.83 789.717,377.161 784.379,368.498C781.712,364.164 780.336,359.826 779.627,356.572C779.272,354.946 779.085,353.591 778.986,352.644C778.937,352.171 778.91,351.799 778.895,351.547C778.88,351.295 778.878,351.165 778.877,351.165L778.378,351.175Z" style="fill:rgb(242,242,158);fill-rule:nonzero;"/>
        </g>
        <g transform="matrix(2.344972,0,0,2.344972,-1139.788758,-532.930225)">
            <path d="M875.823,385.805C875.184,386.463 859.562,402.264 838.309,409.321C833.164,411.03 823.097,413.728 810.993,413.728C794.026,413.725 773.068,408.446 755.907,387.731L755.522,388.05C772.785,408.896 793.928,414.231 810.993,414.228C823.172,414.228 833.286,411.516 838.466,409.795C859.858,402.686 875.51,386.839 876.181,386.155L875.823,385.805Z" style="fill:rgb(242,242,158);fill-rule:nonzero;"/>
        </g>
        <g transform="matrix(2.344972,0,0,2.344972,-1139.788758,-532.930225)">
            <path d="M866.425,379.213C855.4,389.721 837.299,398.422 818.099,398.419C811.126,398.419 804.011,397.274 797.028,394.656C777.62,387.379 766.018,377.092 762.446,364.113C761.632,361.16 761.291,358.259 761.291,355.468C761.285,341.2 770.245,329.785 770.688,329.237L770.298,328.924C769.828,329.516 760.797,340.988 760.791,355.468C760.791,358.3 761.138,361.246 761.964,364.246C765.599,377.443 777.372,387.823 796.853,395.124C803.895,397.765 811.072,398.919 818.099,398.919C837.452,398.917 855.648,390.17 866.77,379.575L866.425,379.213Z" style="fill:rgb(242,242,158);fill-rule:nonzero;"/>
        </g>
        <g transform="matrix(2.344972,0,0,2.344972,-1139.788758,-532.930225)">
            <path d="M772.565,363.124C775.407,373.336 785.202,381.597 801.579,387.738C807.53,389.97 813.604,390.946 819.556,390.946C824.776,390.946 829.903,390.195 834.775,388.882L834.645,388.399C829.811,389.702 824.728,390.446 819.556,390.446C813.658,390.446 807.646,389.479 801.754,387.27C785.441,381.153 775.815,372.966 773.047,362.99L772.565,363.124Z" style="fill:rgb(242,242,158);fill-rule:nonzero;"/>
        </g>
        <g transform="matrix(2.344972,0,0,2.344972,-1139.788758,-532.930225)">
            <path d="M839.642,380.807C836.987,381.447 834.343,381.757 831.771,381.757C821.911,381.756 813.079,377.217 808.447,369.337C806.286,365.662 805.229,361.626 805.229,357.461C805.229,350.2 808.446,342.544 814.671,335.788C827.916,321.403 847.465,316.849 848.27,316.671L848.16,316.183C847.311,316.378 827.686,320.93 814.303,335.449C808.01,342.279 804.729,350.05 804.729,357.461C804.729,361.71 805.81,365.839 808.016,369.591C812.75,377.642 821.761,382.258 831.771,382.257C834.383,382.257 837.067,381.942 839.759,381.293L839.642,380.807Z" style="fill:rgb(242,242,158);fill-rule:nonzero;"/>
        </g>
        <g transform="matrix(2.344972,0,0,2.344972,-1139.788758,-532.930225)">
            <path d="M889.701,401.412L889.597,401.525L889.781,401.695L889.601,401.521C862.14,430.094 826.248,434.296 807.534,434.295C800.32,434.295 795.663,433.671 795.034,433.582L794.964,434.077C795.612,434.169 800.291,434.795 807.534,434.795C826.314,434.795 862.356,430.585 889.961,401.868L889.963,401.866L890.068,401.752L889.701,401.413L889.701,401.412Z" style="fill:rgb(242,242,158);fill-rule:nonzero;"/>
        </g>
        <g transform="matrix(2.344972,0,0,2.344972,-1139.788758,-532.930225)">
            <path d="M825.482,356.775C825.774,354.518 826.541,352.287 827.783,350.184C832.546,342.107 843.464,337.052 857.011,336.745C857.469,336.736 857.943,336.731 858.432,336.731C865.442,336.73 875.495,337.757 884.71,340.799C893.929,343.839 902.287,348.892 905.982,356.891L906.436,356.681C902.643,348.488 894.147,343.388 884.866,340.324C875.581,337.26 865.49,336.231 858.432,336.231C857.94,336.231 857.462,336.236 857,336.245C843.344,336.558 832.252,341.641 827.352,349.93C826.078,352.088 825.287,354.384 824.986,356.711L825.482,356.775Z" style="fill:rgb(242,242,158);fill-rule:nonzero;"/>
        </g>
        <g transform="matrix(2.344972,0,0,2.344972,-1139.788758,-532.930225)">
            <path d="M899.174,360.039C896.091,353.399 887.865,349.661 881.524,347.658C874.604,345.48 866.162,344.228 858.626,344.228C858.141,344.228 857.659,344.233 857.181,344.243L857.192,344.743C857.666,344.733 858.144,344.728 858.626,344.728C866.107,344.727 874.513,345.974 881.374,348.135C887.672,350.111 895.776,353.854 898.72,360.249L899.174,360.039Z" style="fill:rgb(242,242,158);fill-rule:nonzero;"/>
        </g>
        <g transform="matrix(2.344972,0,0,2.344972,-1139.788758,-532.930225)">
            <path d="M810.944,418.741L811.109,418.741C828.316,418.74 862.8,415.041 888.442,388.411L888.082,388.064C862.592,414.546 828.252,418.242 811.109,418.241L810.945,418.241L810.944,418.741Z" style="fill:rgb(242,242,158);fill-rule:nonzero;"/>
        </g>
        <g transform="matrix(2.344972,0,0,2.344972,-1139.788758,-532.930225)">
            <path d="M870.79,307.188C835.846,310.83 812.651,320.891 803.418,336.673L803.849,336.925C812.918,321.383 835.957,311.313 870.842,307.685L870.79,307.188Z" style="fill:rgb(242,242,158);fill-rule:nonzero;"/>
        </g>
        <g transform="matrix(2.344972,0,0,2.344972,-1139.788758,-532.930225)">
            <path d="M791.844,360.838C791.531,358.554 791.33,356.063 791.33,353.425C791.331,346.582 792.677,338.755 796.886,330.987C808.484,309.568 837.104,297.185 882.04,294.306L882.008,293.807C837.013,296.693 808.197,309.082 796.447,330.749C792.191,338.602 790.83,346.518 790.83,353.425C790.83,356.088 791.033,358.602 791.349,360.907L791.844,360.839L791.844,360.838Z" style="fill:rgb(242,242,158);fill-rule:nonzero;"/>
        </g>
        <g transform="matrix(2.344972,0,0,2.344972,-1139.788758,-532.930225)">
            <path d="M869.426,326.248C870.32,326.287 881.425,326.839 893.604,330.371C905.788,333.9 919.013,340.414 924.219,352.286C925.74,355.751 926.5,359.454 926.5,363.397C926.503,374.875 920.044,388.403 907.132,403.742L907.514,404.064C920.461,388.678 926.997,375.068 927,363.397C927,359.39 926.227,355.614 924.677,352.085C919.353,339.981 905.979,333.441 893.743,329.89C881.501,326.342 870.366,325.789 869.448,325.748L869.426,326.248Z" style="fill:rgb(242,242,158);fill-rule:nonzero;"/>
        </g>
        <g transform="matrix(1,0,0,1,440,216)">
            <path d="M354.107,65.666L354.052,65.666L354.085,65.61L354.107,65.666Z" style="fill:rgb(188,185,115);fill-rule:nonzero;"/>
        </g>
        <g transform="matrix(0.242005,0,0,0.242005,669.752112,243.880658)">
            <path d="M800.363,29.616L802.469,25.286L804.575,29.616L808.426,31.984L804.575,34.353L802.469,38.683L800.363,34.353L796.512,31.984L800.363,29.616Z" style="fill:rgb(252,238,33);fill-rule:nonzero;"/>
        </g>
        <g transform="matrix(0.253564,0,0,0.253564,577.544924,292.874378)">
            <path d="M800.363,29.616L802.469,25.286L804.575,29.616L808.426,31.984L804.575,34.353L802.469,38.683L800.363,34.353L796.512,31.984L800.363,29.616Z" style="fill:rgb(216,217,218);fill-rule:nonzero;"/>
        </g>
        <g transform="matrix(0.402852,0,0,0.402852,593.63594,329.099503)">
            <path d="M800.363,29.616L802.469,25.286L804.575,29.616L808.426,31.984L804.575,34.353L802.469,38.683L800.363,34.353L796.512,31.984L800.363,29.616Z" style="fill:rgb(216,217,218);fill-rule:nonzero;"/>
        </g>
        <g transform="matrix(0.402852,0,0,0.402852,597.63594,301.656958)">
            <path d="M800.363,29.616L802.469,25.286L804.575,29.616L808.426,31.984L804.575,34.353L802.469,38.683L800.363,34.353L796.512,31.984L800.363,29.616Z" style="fill:rgb(216,217,218);fill-rule:nonzero;"/>
        </g>
        <g transform="matrix(0.402852,0,0,0.402852,534.224057,307.053961)">
            <path d="M800.363,29.616L802.469,25.286L804.575,29.616L808.426,31.984L804.575,34.353L802.469,38.683L800.363,34.353L796.512,31.984L800.363,29.616Z" style="fill:rgb(216,217,218);fill-rule:nonzero;"/>
        </g>
        <g transform="matrix(0.178921,0,0,0.178921,622.999417,357.761816)">
            <path d="M800.363,29.616L802.469,25.286L804.575,29.616L808.426,31.984L804.575,34.353L802.469,38.683L800.363,34.353L796.512,31.984L800.363,29.616Z" style="fill:rgb(216,217,218);fill-rule:nonzero;"/>
        </g>
    </g>
</svg>
