<?xml version="1.0" encoding="UTF-8" standalone="no"?>
<!DOCTYPE svg PUBLIC "-//W3C//DTD SVG 1.1//EN" "http://www.w3.org/Graphics/SVG/1.1/DTD/svg11.dtd">
<svg width="100%" height="100%" viewBox="0 0 338 338" version="1.1" xmlns="http://www.w3.org/2000/svg" xmlns:xlink="http://www.w3.org/1999/xlink" xml:space="preserve" xmlns:serif="http://www.serif.com/" style="fill-rule:evenodd;clip-rule:evenodd;stroke-linejoin:round;stroke-miterlimit:2;">
    <g transform="matrix(1,0,0,1,-160.209,-156.428955)">
        <path d="M498.076,325.363C498.076,418.662 422.442,494.296 329.142,494.296C235.843,494.296 160.209,418.662 160.209,325.363C160.209,232.063 235.843,156.429 329.142,156.429C422.442,156.429 498.076,232.063 498.076,325.363Z" style="fill:rgb(125,13,152);fill-rule:nonzero;"/>
        <path d="M450.457,369.572C458.348,359.361 474.715,333.536 489.006,331.04C493.155,330.315 496.065,330.524 497.954,331.473C498.027,329.444 498.076,327.409 498.076,325.363C498.076,298.931 492.001,273.919 481.177,251.64C458.262,259.189 423.531,257.941 410.21,274.912C400.581,287.179 402.207,302.719 392.114,315.611C380.039,331.034 362.396,337.006 346.032,346.336C337.222,351.358 300.041,367.611 300.584,378.703C301.556,398.607 341.229,386.81 350.684,381.539C370.754,370.354 420.881,292.73 443.707,299.746C487.38,313.17 408.854,371.134 396.152,378.59C362.772,398.185 326.03,415.84 287.192,410.449C253.526,405.775 220.915,408.263 202.019,436.611C217.507,454.295 236.625,468.715 258.211,478.716C264.042,476.169 269.188,473.515 273.083,471.117C312.581,446.784 360.887,443.303 400.571,417.192C420.185,404.285 436.418,387.737 450.457,369.572Z" style="fill:rgb(190,42,178);fill-rule:nonzero;"/>
        <path d="M244.937,347.08C276.866,332.435 315.165,343.589 346.706,327.054C377.795,310.755 380.938,268.778 405.053,244.739C411.959,237.855 434.148,222.581 455.641,213.41C447.778,204.532 438.998,196.487 429.445,189.426C428.109,189.59 426.793,189.756 425.513,189.938C402.054,193.271 380.337,201.632 361.473,217.601C342.126,233.979 332.947,260.006 312.135,274.342C279.544,296.793 233.732,282.348 206.777,315.428C192.272,333.23 183.834,356.609 169.383,375.11C168.978,375.628 168.556,376.135 168.146,376.651C171.291,386.532 175.318,396.018 180.14,405.018C180.824,404.724 181.506,404.434 182.192,404.12C209.814,391.476 217.522,359.654 244.937,347.08Z" style="fill:rgb(190,42,178);fill-rule:nonzero;"/>
        <path d="M444.159,408.246C416.43,425.595 387.71,447.213 357.487,464.249C336.406,476.132 314.704,482.417 293.573,490.533C305.043,492.99 316.939,494.296 329.142,494.296C414.476,494.296 485.019,431.021 496.445,348.833C484.873,369.936 453.277,402.541 444.159,408.246Z" style="fill:rgb(190,42,178);fill-rule:nonzero;"/>
        <path d="M167.625,317.478C179.913,299.267 181.859,278.614 196.437,260.854C232.625,216.769 285.215,236.469 328.009,203.551C346.079,189.652 357.869,174.076 371.789,161.863C358.165,158.319 343.875,156.429 329.142,156.429C235.843,156.429 160.209,232.063 160.209,325.363C160.209,325.651 160.218,325.937 160.22,326.225C163.062,323.422 165.586,320.5 167.625,317.478Z" style="fill:rgb(190,42,178);fill-rule:nonzero;"/>
        <path d="M498.076,325.135L498.076,324.974C498.075,324.911 498.075,324.838 498.075,324.775L498.075,324.668C498.074,324.606 498.074,324.544 498.074,324.482C498.074,324.443 498.073,324.406 498.073,324.367C498.073,324.305 498.072,324.251 498.072,324.188C498.072,324.148 498.071,324.109 498.071,324.069C498.071,324.006 498.07,323.948 498.07,323.886C498.069,323.852 498.069,323.814 498.069,323.78C498.068,323.712 498.067,323.643 498.067,323.575C498.066,323.546 498.066,323.515 498.066,323.486C498.065,323.395 498.064,323.298 498.063,323.207C498.063,323.204 498.062,323.2 498.062,323.197C498.061,323.095 498.06,322.994 498.058,322.892L498.058,322.874C498.057,322.784 498.055,322.684 498.054,322.593C498.053,322.576 498.053,322.559 498.053,322.541C498.052,322.461 498.05,322.375 498.049,322.296C498.048,322.275 498.048,322.253 498.048,322.232C498.046,322.152 498.045,322.07 498.043,321.991C498.043,321.971 498.042,321.952 498.042,321.933C498.04,321.848 498.039,321.773 498.037,321.688C498.036,321.67 498.036,321.652 498.036,321.634C498.034,321.544 498.031,321.444 498.029,321.353L498.029,321.345C496.236,244.546 443.185,180.421 371.767,161.853C371.788,161.708 371.811,161.564 371.835,161.42C444.463,180.333 498.076,246.356 498.076,324.907L498.076,325.135Z" style="fill:rgb(92,120,149);fill-rule:nonzero;"/>
        <path d="M294.319,490.248C281.887,487.643 269.966,483.674 258.703,478.5C264.331,476.019 269.298,473.448 273.083,471.117C292.031,459.443 313.01,452.568 334.088,445.692C336.36,445.808 338.632,445.867 340.901,445.867C351.76,445.867 362.516,444.533 372.569,441.889C411.468,431.658 433.515,408.244 442.634,379.238C445.318,376.077 447.924,372.851 450.457,369.572C458.348,359.361 474.715,333.536 489.006,331.04C490.687,330.746 492.164,330.606 493.453,330.606C495.343,330.606 496.827,330.908 497.951,331.471C497.725,337.384 497.196,343.215 496.377,348.957C484.75,370.064 453.259,402.552 444.159,408.246C416.43,425.595 387.71,447.213 357.487,464.249C336.654,475.992 315.214,482.268 294.319,490.248ZM202.187,436.36C193.775,426.785 186.425,416.244 180.33,404.936C180.95,404.67 181.57,404.405 182.192,404.12C209.814,391.476 217.522,359.654 244.937,347.08C246.648,346.296 248.379,345.584 250.124,344.939C246.791,367.551 245.777,390.234 257.216,408.694C235.108,409.656 215.355,416.798 202.187,436.36ZM447.245,334.168C446.382,322.674 444.152,310.94 440.724,299.299C441.765,299.309 442.757,299.454 443.707,299.746C462.468,305.512 458.678,319.498 447.245,334.168ZM498.076,325.148L498.076,325.072L498.076,325.148ZM498.076,324.974C498.075,324.906 498.075,324.843 498.075,324.775C498.075,324.838 498.075,324.911 498.076,324.974ZM498.075,324.668C498.074,324.607 498.074,324.543 498.074,324.482C498.074,324.544 498.074,324.606 498.075,324.668ZM498.073,324.367C498.073,324.308 498.072,324.248 498.072,324.188C498.072,324.251 498.073,324.305 498.073,324.367ZM498.071,324.069C498.071,324.007 498.07,323.947 498.07,323.886C498.07,323.948 498.071,324.006 498.071,324.069ZM498.069,323.78C498.068,323.711 498.067,323.644 498.067,323.575C498.067,323.643 498.068,323.712 498.069,323.78ZM498.066,323.486C498.065,323.393 498.064,323.3 498.063,323.207C498.064,323.298 498.065,323.395 498.066,323.486ZM498.062,323.197C498.061,323.094 498.06,322.994 498.058,322.892C498.06,322.994 498.061,323.095 498.062,323.197ZM498.058,322.874C498.057,322.781 498.055,322.686 498.054,322.593C498.055,322.684 498.057,322.784 498.058,322.874ZM498.053,322.541C498.052,322.459 498.05,322.378 498.049,322.296C498.05,322.375 498.052,322.461 498.053,322.541ZM498.048,322.232C498.046,322.151 498.045,322.071 498.043,321.991C498.045,322.07 498.046,322.152 498.048,322.232ZM498.042,321.933C498.04,321.851 498.039,321.77 498.037,321.688C498.039,321.773 498.04,321.848 498.042,321.933ZM498.036,321.634C498.034,321.54 498.032,321.448 498.029,321.353C498.031,321.444 498.034,321.544 498.036,321.634ZM498.029,321.345C497.447,296.395 491.451,272.787 481.177,251.64C464.894,257.004 442.647,257.926 426.353,264.099C421.752,255.765 416.358,247.757 410.742,239.843C420.615,232.112 438.353,220.787 455.641,213.41C447.778,204.532 438.998,196.487 429.445,189.426C428.109,189.59 426.793,189.756 425.513,189.938C411.203,191.971 397.543,195.874 384.782,202.235C381.243,196.319 378.049,190.252 375.414,183.951C371.859,175.448 370.851,168.088 371.762,161.887C371.771,161.879 371.78,161.871 371.789,161.863C371.781,161.861 371.774,161.859 371.766,161.857C371.767,161.856 371.767,161.854 371.767,161.853C443.185,180.421 496.236,244.546 498.029,321.345Z" style="fill:rgb(134,79,176);fill-rule:nonzero;"/>
        <path d="M258.703,478.5C236.995,468.527 217.763,454.089 202.187,436.36C215.355,416.798 235.108,409.656 257.216,408.694C260.866,414.584 265.785,420.045 272.301,424.935C289.296,437.689 311.647,444.54 334.088,445.692C313.01,452.568 292.031,459.443 273.083,471.117C269.298,473.448 264.331,476.019 258.703,478.5ZM442.634,379.238C447.038,365.232 448.427,349.928 447.245,334.168C458.678,319.498 462.468,305.512 443.707,299.746C442.757,299.454 441.765,299.309 440.724,299.299C438.274,290.976 435.21,282.697 431.598,274.589C430.01,271.024 428.25,267.535 426.353,264.099C442.647,257.926 464.894,257.004 481.177,251.64C491.451,272.787 497.447,296.395 498.029,321.345L498.029,321.353C498.032,321.448 498.034,321.54 498.036,321.634C498.036,321.652 498.036,321.67 498.037,321.688C498.039,321.77 498.04,321.851 498.042,321.933C498.042,321.952 498.043,321.971 498.043,321.991C498.045,322.071 498.046,322.151 498.048,322.232C498.048,322.253 498.048,322.275 498.049,322.296C498.05,322.378 498.052,322.459 498.053,322.541C498.053,322.559 498.053,322.576 498.054,322.593C498.055,322.686 498.057,322.781 498.058,322.874L498.058,322.892C498.06,322.994 498.061,323.094 498.062,323.197C498.062,323.2 498.063,323.204 498.063,323.207C498.064,323.3 498.065,323.393 498.066,323.486C498.066,323.515 498.066,323.546 498.067,323.575C498.067,323.644 498.068,323.711 498.069,323.78C498.069,323.814 498.069,323.852 498.07,323.886C498.07,323.947 498.071,324.007 498.071,324.069C498.071,324.109 498.072,324.148 498.072,324.188C498.072,324.248 498.073,324.308 498.073,324.367C498.073,324.406 498.074,324.443 498.074,324.482C498.074,324.543 498.074,324.607 498.075,324.668L498.075,324.775C498.075,324.843 498.075,324.906 498.076,324.974L498.076,325.148C498.073,327.266 498.031,329.372 497.951,331.471C496.827,330.908 495.343,330.606 493.453,330.606C492.164,330.606 490.687,330.746 489.006,331.04C474.715,333.536 458.348,359.361 450.457,369.572C447.924,372.851 445.318,376.077 442.634,379.238Z" style="fill:rgb(180,99,194);fill-rule:nonzero;"/>
        <path d="M168.242,376.531C163.087,360.453 160.277,343.335 160.21,325.561C160.212,325.782 160.218,326.003 160.22,326.225C163.062,323.422 165.586,320.5 167.625,317.478C174.103,307.877 177.707,297.596 181.803,287.419C181.672,288.717 181.599,289.947 181.586,291.097C181.421,305.933 181.514,324.353 191.243,336.672C191.531,337.037 191.824,337.383 192.123,337.712C184.939,350.397 178.308,363.683 169.383,375.11C169.01,375.588 168.622,376.056 168.242,376.531Z" style="fill:rgb(134,79,176);fill-rule:nonzero;"/>
        <path d="M160.209,325.135L160.209,324.907C160.209,271.009 185.45,223.008 224.755,192.077C225.32,191.767 225.885,191.48 226.446,191.217C186.228,222.052 160.279,270.557 160.209,325.135Z" style="fill:rgb(92,120,149);fill-rule:nonzero;"/>
        <path d="M228.192,299.02C226.597,287.699 224.558,276.459 229.956,267.102C237.426,254.154 242.592,241.307 242.658,232.037C252.48,229.269 262.618,227.471 272.797,225.415C275.916,245.017 270.009,268.179 263.601,289.834C251.328,291.878 239.165,293.993 228.192,299.02Z" style="fill:rgb(134,79,176);fill-rule:nonzero;"/>
        <path d="M180.33,404.936C175.475,395.928 171.415,386.427 168.242,376.531C168.622,376.056 169.01,375.588 169.383,375.11C178.308,363.683 184.939,350.397 192.123,337.712C195.466,341.396 199.495,342.941 203.632,342.941C212.968,342.943 222.87,335.088 226.785,326.241C230.525,317.79 229.51,308.377 228.192,299.02C239.165,293.993 251.328,291.878 263.601,289.834C259.118,304.98 254.392,319.39 252.336,331.335C251.56,335.842 250.795,340.391 250.124,344.939C248.379,345.584 246.648,346.296 244.937,347.08C217.522,359.654 209.814,391.476 182.192,404.12C181.57,404.405 180.95,404.67 180.33,404.936ZM410.742,239.843C401.907,227.393 392.518,215.169 384.782,202.235C397.543,195.874 411.203,191.971 425.513,189.938C426.793,189.756 428.109,189.59 429.445,189.426C438.998,196.487 447.778,204.532 455.641,213.41C438.353,220.787 420.615,232.112 410.742,239.843Z" style="fill:rgb(180,99,194);fill-rule:nonzero;"/>
        <path d="M329.142,493.841C317.207,493.841 305.555,492.602 294.319,490.248C315.214,482.268 336.654,475.992 357.487,464.249C387.71,447.213 416.43,425.595 444.159,408.246C453.259,402.552 484.75,370.064 496.377,348.957C484.701,430.863 414.276,493.841 329.142,493.841Z" style="fill:rgb(180,99,194);fill-rule:nonzero;"/>
        <path d="M160.22,326.225C160.218,326.003 160.212,325.782 160.21,325.561C160.209,325.419 160.209,325.277 160.209,325.135C160.279,270.557 186.228,222.052 226.446,191.217C230.131,189.492 233.724,188.756 237.165,188.756C252.045,188.756 264.03,202.532 267.746,209.662C270.292,214.548 271.91,219.836 272.797,225.415C262.618,227.471 252.48,229.269 242.658,232.037C242.692,227.238 241.358,223.397 238.27,220.999C234.802,218.307 231.265,217.104 227.738,217.104C205.78,217.104 184.195,263.704 181.803,287.419C177.707,297.596 174.103,307.877 167.625,317.478C165.586,320.5 163.062,323.422 160.22,326.225ZM371.762,161.887C371.763,161.877 371.765,161.867 371.766,161.857C371.774,161.859 371.781,161.861 371.789,161.863C371.78,161.871 371.771,161.879 371.762,161.887Z" style="fill:rgb(180,99,194);fill-rule:nonzero;"/>
        <path d="M192.123,337.712C191.824,337.383 191.531,337.037 191.243,336.672C181.514,324.353 181.421,305.933 181.586,291.097C181.599,289.947 181.672,288.717 181.803,287.419C185.476,278.293 189.545,269.251 196.437,260.854C209.999,244.333 225.868,236.769 242.658,232.037C242.592,241.307 237.426,254.154 229.956,267.102C224.558,276.459 226.597,287.699 228.192,299.02C220.304,302.633 213.034,307.75 206.777,315.428C201.23,322.235 196.571,329.859 192.123,337.712Z" style="fill:rgb(141,125,192);fill-rule:nonzero;"/>
        <path d="M203.632,342.941C199.495,342.941 195.466,341.396 192.123,337.712C196.571,329.859 201.23,322.235 206.777,315.428C213.034,307.75 220.304,302.633 228.192,299.02C229.51,308.377 230.525,317.79 226.785,326.241C222.87,335.088 212.968,342.943 203.632,342.941Z" style="fill:rgb(173,139,205);fill-rule:nonzero;"/>
        <path d="M181.803,287.419C184.195,263.704 205.78,217.104 227.738,217.104C231.265,217.104 234.802,218.307 238.27,220.999C241.358,223.397 242.692,227.238 242.658,232.037C225.868,236.769 209.999,244.333 196.437,260.854C189.545,269.251 185.476,278.293 181.803,287.419Z" style="fill:rgb(173,139,205);fill-rule:nonzero;"/>
    </g>
</svg>
