<?xml version="1.0" encoding="UTF-8" standalone="no"?>
<!DOCTYPE svg PUBLIC "-//W3C//DTD SVG 1.1//EN" "http://www.w3.org/Graphics/SVG/1.1/DTD/svg11.dtd">
<svg width="100%" height="100%" viewBox="0 0 482 338" version="1.1" xmlns="http://www.w3.org/2000/svg" xmlns:xlink="http://www.w3.org/1999/xlink" xml:space="preserve" xmlns:serif="http://www.serif.com/" style="fill-rule:evenodd;clip-rule:evenodd;stroke-linejoin:round;stroke-miterlimit:2;">
    <g transform="matrix(1,0,0,1,-1256.772116,-780.702026)">
        <path d="M1637.19,949.635C1637.19,1042.931 1561.56,1118.57 1468.26,1118.57C1374.96,1118.57 1299.32,1042.931 1299.32,949.635C1299.32,856.336 1374.96,780.702 1468.26,780.702C1561.56,780.702 1637.19,856.336 1637.19,949.635Z" style="fill:rgb(32,78,132);fill-rule:nonzero;"/>
        <path d="M1360.93,900.547C1354.6,900.347 1349.52,898.411 1346.3,894.563C1335.09,881.187 1350.57,849.765 1380.87,824.379C1401.95,806.72 1424.65,796.633 1440.29,796.633C1447.13,796.633 1452.61,798.563 1456.02,802.634C1457.47,804.359 1458.47,806.384 1459.05,808.657C1430.96,814.811 1411.32,828.064 1412.3,841.994C1412.88,850.305 1420.69,857.353 1433,862.151C1429.44,865.779 1425.59,869.354 1421.45,872.818C1419.27,874.65 1417.06,876.399 1414.85,878.065C1414.71,863.001 1410.57,852.036 1402.84,849.649C1401.8,849.327 1400.73,849.171 1399.62,849.171C1386.75,849.171 1370.18,870.571 1361.13,899.89C1361.06,900.109 1360.99,900.327 1360.93,900.547Z" style="fill:rgb(26,119,157);fill-rule:nonzero;"/>
        <path d="M1376.42,1045.85C1359.6,1041.75 1341.41,1028.76 1327.75,1009.27C1305.04,976.913 1303.4,938.924 1324.07,924.421C1329.52,920.6 1335.97,918.79 1342.94,918.79C1347.25,918.79 1351.77,919.484 1356.36,920.824C1353.07,943.612 1357.02,961.748 1367.24,964.905C1368.28,965.227 1369.35,965.383 1370.46,965.383C1377.93,965.383 1386.64,958.18 1394.4,946.41C1397.27,949.615 1400.02,953.068 1402.61,956.753C1418.28,979.099 1423.92,1004.13 1419.1,1022.26C1416.5,1017.36 1413.45,1012.36 1409.98,1007.41C1394.21,984.944 1374.68,970.352 1361.96,970.352C1359.24,970.352 1356.84,971.018 1354.84,972.415C1343.53,980.355 1349.86,1008.9 1369,1036.161C1371.39,1039.58 1373.88,1042.82 1376.42,1045.85Z" style="fill:rgb(26,119,157);fill-rule:nonzero;"/>
        <path d="M1540.95,1084.62C1534.83,1084.62 1529.42,1082.99 1525.14,1079.55C1507.75,1065.57 1515.55,1026.98 1542.56,993.361C1562.93,968.012 1588.41,952.72 1607.17,952.72C1613.29,952.72 1618.69,954.348 1622.98,957.788C1640.37,971.765 1632.57,1010.35 1605.55,1043.98C1585.19,1069.32 1559.71,1084.62 1540.95,1084.62Z" style="fill:rgb(30,92,140);fill-rule:nonzero;"/>
        <path d="M1417.01,1073.23C1406.23,1073.23 1390.55,1062.74 1376.42,1045.85C1380.17,1046.77 1383.86,1047.24 1387.41,1047.24C1394.38,1047.24 1400.84,1045.431 1406.28,1041.61C1412.68,1037.12 1416.94,1030.38 1419.1,1022.26C1430.82,1044.37 1433.39,1064.67 1424.13,1071.17C1422.14,1072.56 1419.73,1073.23 1417.01,1073.23Z" style="fill:rgb(26,119,157);fill-rule:nonzero;"/>
        <path d="M1387.41,1047.24C1383.86,1047.24 1380.17,1046.77 1376.42,1045.85C1373.88,1042.82 1371.39,1039.58 1369,1036.161C1349.86,1008.9 1343.53,980.355 1354.84,972.415C1356.84,971.018 1359.24,970.352 1361.96,970.352C1374.68,970.352 1394.21,984.944 1409.98,1007.41C1413.45,1012.36 1416.5,1017.36 1419.1,1022.26C1416.94,1030.38 1412.68,1037.12 1406.28,1041.61C1400.84,1045.431 1394.38,1047.24 1387.41,1047.24Z" style="fill:rgb(21,148,174);fill-rule:nonzero;"/>
        <path d="M1394.4,946.41C1382.83,933.483 1369.28,924.595 1356.36,920.824C1357.29,914.361 1358.81,907.522 1360.93,900.547C1361.29,900.558 1361.66,900.564 1362.04,900.564C1376.05,900.564 1395.74,892.46 1414.85,878.065C1414.95,888.737 1413.03,901.466 1408.96,914.663C1405.15,926.975 1400.03,937.889 1394.4,946.41Z" style="fill:rgb(26,119,157);fill-rule:nonzero;"/>
        <path d="M1362.04,900.564C1361.66,900.564 1361.29,900.558 1360.93,900.547C1360.99,900.327 1361.06,900.109 1361.13,899.89C1370.18,870.571 1386.75,849.171 1399.62,849.171C1400.73,849.171 1401.8,849.327 1402.84,849.649C1410.57,852.036 1414.71,863.001 1414.85,878.065C1395.74,892.46 1376.05,900.564 1362.04,900.564Z" style="fill:rgb(21,148,174);fill-rule:nonzero;"/>
        <path d="M1370.46,965.383C1369.35,965.383 1368.28,965.227 1367.24,964.905C1357.02,961.748 1353.07,943.612 1356.36,920.824C1369.28,924.595 1382.83,933.483 1394.4,946.41C1386.64,958.18 1377.93,965.383 1370.46,965.383Z" style="fill:rgb(21,148,174);fill-rule:nonzero;"/>
        <path d="M1474.6,868.909C1458.47,868.909 1443.95,866.423 1433,862.151C1452.12,842.621 1462.38,821.607 1459.05,808.657C1466.07,807.12 1473.61,806.026 1481.49,805.474C1485.33,805.205 1489.11,805.075 1492.8,805.075C1527.04,805.075 1554,816.277 1555.1,831.991C1556.32,849.398 1525.34,865.748 1485.9,868.51C1482.07,868.779 1478.29,868.909 1474.6,868.909Z" style="fill:rgb(26,119,157);fill-rule:nonzero;"/>
        <path d="M1433,862.151C1420.69,857.353 1412.88,850.305 1412.3,841.994C1411.32,828.064 1430.96,814.811 1459.05,808.657C1462.38,821.607 1452.12,842.621 1433,862.151Z" style="fill:rgb(21,148,174);fill-rule:nonzero;"/>
        <path d="M1306.95,999.969C1306.95,999.969 1264.47,1031.47 1275.05,1047.24C1285.63,1063 1390.43,1047.13 1509.34,976.338C1638.83,899.249 1699.23,839.395 1686.7,827.197C1668.06,809.059 1597.01,840.801 1597.01,840.801L1592.98,836.267C1592.98,836.267 1692.99,798.114 1726.5,818.632C1751.19,833.748 1754.45,892.527 1574.34,994.477C1440.82,1070.05 1300.24,1091.72 1261.95,1066.53C1238.02,1050.78 1304.8,992.455 1304.8,992.455L1306.95,999.969Z" style="fill:rgb(16,252,245);fill-rule:nonzero;"/>
        <path d="M1279.84,1059.73C1279.84,1059.73 1328.53,1066.92 1402.27,1039.7C1451.4,1021.56 1519.18,991.941 1561.74,966.009C1642.99,916.505 1698.54,844.706 1703.07,831.858C1707.61,819.01 1683.42,815.609 1683.42,815.609C1683.42,815.609 1724.61,812.208 1717.05,834.125C1709.5,856.043 1685.31,896.855 1575.35,967.143C1486.01,1024.25 1413.23,1049.14 1325.94,1061.99C1299.73,1065.85 1279.84,1059.73 1279.84,1059.73Z" style="fill:white;fill-rule:nonzero;"/>
        <path d="M1472.94,1033.65C1472.94,1033.65 1621.07,962.23 1675.87,900.634C1711.99,860.022 1718.57,843.195 1721.21,835.637C1723.86,828.079 1717.43,819.388 1717.43,819.388C1717.43,819.388 1730.04,826.188 1727.64,838.66C1723.48,860.2 1690.6,906.68 1630.14,948.248C1561.9,995.164 1472.94,1033.65 1472.94,1033.65Z" style="fill:rgb(251,255,105);fill-rule:nonzero;"/>
    </g>
</svg>
