<?xml version="1.0" encoding="UTF-8" standalone="no"?>
<!DOCTYPE svg PUBLIC "-//W3C//DTD SVG 1.1//EN" "http://www.w3.org/Graphics/SVG/1.1/DTD/svg11.dtd">
<svg width="100%" height="100%" viewBox="0 0 440 340" version="1.1" xmlns="http://www.w3.org/2000/svg" xmlns:xlink="http://www.w3.org/1999/xlink" xml:space="preserve" xmlns:serif="http://www.serif.com/" style="fill-rule:evenodd;clip-rule:evenodd;stroke-linejoin:round;stroke-miterlimit:2;">
    <g transform="matrix(1,0,0,1,-1064.342374,-155.625977)">
        <path d="M1479.04,210.513L1468.96,204.97C1468.96,204.97 1450.44,202.199 1426.63,209.002C1402.83,215.803 1379.27,227.14 1379.27,227.14L1409.28,269.761L1438.75,286.765L1479.56,226.684L1479.04,210.513Z" style="fill:rgb(125,13,152);fill-rule:nonzero;"/>
        <path d="M1149.68,296.968C1149.68,296.968 1113.74,319.849 1094.59,337.987C1079.96,351.849 1067.89,376.784 1067.89,376.784L1125.87,404.661L1172.35,377.454L1149.68,296.968Z" style="fill:rgb(125,13,152);fill-rule:nonzero;"/>
        <path d="M1459.77,326.165C1459.77,419.465 1384.13,495.099 1290.83,495.099C1197.53,495.099 1121.9,419.465 1121.9,326.165C1121.9,232.866 1197.53,157.231 1290.83,157.231C1384.13,157.231 1459.77,232.866 1459.77,326.165Z" style="fill:rgb(237,99,38);fill-rule:nonzero;"/>
        <path d="M1315.37,450.885C1309.52,424.535 1300.59,410.752 1280.73,392.441C1265.63,378.519 1252.97,373.403 1253.02,351.436C1253.05,337.553 1258.47,328.793 1262.4,316.015C1267.84,298.368 1256.75,278.631 1258.69,259.331C1259.83,248.013 1265.98,238.531 1268.58,227.563C1271.34,215.917 1269.13,204.991 1266.38,193.332C1264.01,183.32 1260.52,171.79 1258.58,160.243C1247.55,162.376 1236.91,165.58 1226.75,169.745C1232.72,175.696 1236.26,185.461 1234.91,194.714C1233.1,207.149 1222.29,218.159 1217.88,229.83C1212.91,243.018 1209.78,256.75 1211.05,270.918C1212.38,285.765 1217.38,299.912 1216.75,315.192C1216.13,329.851 1212.91,343.121 1216.75,357.702C1220.96,373.698 1228.39,380.616 1238.28,393.034C1246.51,403.364 1246.88,415.852 1252.71,427.101C1263.67,448.221 1287.48,452.035 1291.82,479.188C1292.53,483.667 1292.4,489.355 1292.55,495C1301.4,494.912 1310.09,494.143 1318.57,492.743C1320.21,479.037 1318.25,463.876 1315.37,450.885Z" style="fill:rgb(239,138,52);fill-rule:nonzero;"/>
        <path d="M1238.29,438.433C1229.89,422.448 1222.89,412.755 1207.93,402.388C1199.81,396.752 1193.27,393.38 1187.52,384.909C1176.85,369.176 1177.07,350.626 1177.07,331.908C1177.07,311.05 1170.26,292.794 1171.4,271.8C1172.42,253.055 1180.91,239.595 1185.25,221.917C1187.62,212.281 1188.03,200.659 1190.61,190.092C1174.02,202.338 1159.75,217.54 1148.58,234.931C1151.64,249.47 1159.56,262.59 1156.91,278.35C1153.07,301.253 1138.5,319.392 1147.6,343.218C1152,354.743 1157.96,362.26 1159.18,374.706C1160.06,383.64 1160.19,393.806 1164.85,401.913C1169.16,409.395 1176.88,412.973 1182.79,418.948C1189.5,425.736 1192.31,433.337 1196.34,441.842C1203.27,456.471 1213.98,467.583 1222.6,480.662C1233.27,485.382 1244.53,489.032 1256.22,491.468C1254.54,472.664 1248.49,457.86 1238.29,438.433Z" style="fill:rgb(239,138,52);fill-rule:nonzero;"/>
        <path d="M1413.15,401.909C1406.1,384.967 1412.59,366.083 1404.62,348.522C1402.24,343.289 1399.6,337.342 1394.78,333.838C1390.56,330.773 1386.69,332.88 1383.39,328.535C1378.47,322.039 1379.98,305.884 1379.99,297.873C1380.02,273.541 1383.88,249.683 1394.44,227.589C1397.02,222.2 1400.43,211.276 1405.17,201.734C1396.15,193.442 1386.24,186.117 1375.58,179.925C1377.13,206.007 1366.32,232.49 1357.62,256.752C1347.92,283.823 1337.67,331.926 1361.6,354.861C1369.51,362.448 1377.85,365.105 1381.09,376.092C1384.04,386.127 1380.05,395.602 1379.99,405.567C1379.93,414.876 1381.39,427.708 1388.15,435.032C1393.36,440.679 1401.4,443.332 1409.08,446.726C1418.61,437.379 1427.04,426.912 1434.16,415.536C1425.61,413.648 1417.49,412.34 1413.15,401.909Z" style="fill:rgb(239,138,52);fill-rule:nonzero;"/>
        <path d="M1330.11,167.482C1330.12,165.637 1330.14,163.719 1330.22,161.782C1319.94,159.326 1309.29,157.809 1298.37,157.331C1298.4,196.589 1297.93,237.861 1290.43,276.282C1287.11,293.301 1285.9,309.746 1285.9,327.094C1285.9,344.684 1286.87,349.948 1298.11,362.741C1306.37,372.136 1310.87,383.037 1313.13,395.356C1315.43,407.929 1317.03,409.259 1324.15,419.485C1327.98,424.982 1329.37,431.761 1331.43,438.265C1350.99,437.64 1323.23,371.804 1322.11,362.463C1320.22,346.606 1317.88,340.48 1306.78,327.547C1296.99,316.139 1292.34,312.795 1299.47,298.476C1305.68,286.018 1311.11,275.786 1312,261.846C1312.73,250.285 1307.32,240.237 1308.57,228.664C1311.1,205.264 1329.92,191.579 1330.11,167.482Z" style="fill:rgb(239,138,52);fill-rule:nonzero;"/>
        <path d="M1428.87,228.678C1426.99,232.202 1425.29,235.32 1424.2,237.733C1412.44,263.757 1415.53,291.134 1423.29,318.219C1427.48,332.844 1438.73,365.364 1453.26,372.671C1457.49,357.874 1459.77,342.247 1459.77,326.088C1459.77,289.81 1448.33,256.206 1428.87,228.678Z" style="fill:rgb(239,138,52);fill-rule:nonzero;"/>
        <path d="M1290.34,493.491C1278.86,493.49 1267.37,492.326 1256.08,490C1254.22,471.887 1248.22,457.351 1238.29,438.433C1229.89,422.448 1222.89,412.755 1207.93,402.388C1199.81,396.752 1193.27,393.38 1187.52,384.909C1178.1,371.029 1177.17,354.957 1177.08,338.511C1181.31,340.094 1185.88,340.863 1190.65,340.863C1198.06,340.863 1205.92,339.005 1213.64,335.461C1214.1,336.285 1214.55,337.112 1215,337.938C1214.71,344.424 1214.96,350.92 1216.75,357.702C1220.96,373.698 1228.39,380.616 1238.28,393.034C1246.51,403.364 1246.88,415.852 1252.71,427.101C1263.67,448.221 1287.48,452.035 1291.82,479.188C1292.47,483.264 1292.41,488.342 1292.51,493.477C1291.79,493.486 1291.06,493.491 1290.34,493.491ZM1318.75,491.1C1320.05,477.834 1318.14,463.359 1315.37,450.885C1314.2,445.592 1312.9,440.808 1311.41,436.391C1314.04,436.378 1316.76,436.196 1319.57,435.829C1323.09,435.369 1326.61,434.686 1330.09,433.799C1330.53,435.29 1330.96,436.785 1331.43,438.265C1335.23,438.144 1337.24,435.568 1338.01,431.423C1353.24,426.162 1367.72,417.158 1379.98,405.963C1379.97,415.237 1381.48,427.811 1388.15,435.032C1393.04,440.331 1400.42,442.994 1407.65,446.105C1382.26,470.622 1351.14,485.603 1318.75,491.1Z" style="fill:rgb(221,126,76);fill-rule:nonzero;"/>
        <path d="M1292.51,493.477C1292.41,488.342 1292.47,483.264 1291.82,479.188C1287.48,452.035 1263.67,448.221 1252.71,427.101C1246.88,415.852 1246.51,403.364 1238.28,393.034C1228.39,380.616 1220.96,373.698 1216.75,357.702C1214.96,350.92 1214.71,344.424 1215,337.938C1223.99,354.372 1231.8,371.105 1239.88,382.829C1258.01,409.141 1277.83,436.392 1311.12,436.391L1311.41,436.391C1312.9,440.808 1314.2,445.592 1315.37,450.885C1318.14,463.359 1320.05,477.834 1318.75,491.1C1310.06,492.573 1301.3,493.366 1292.51,493.477Z" style="fill:rgb(222,157,88);fill-rule:nonzero;"/>
        <path d="M1121.6,316.187C1121.83,311.61 1122.24,307.044 1122.84,302.494C1123.18,301.354 1123.58,300.277 1124.03,299.259C1123.17,304.669 1122.56,310.173 1122.22,315.742C1122.01,315.891 1121.81,316.038 1121.6,316.187Z" style="fill:rgb(65,74,115);fill-rule:nonzero;"/>
        <path d="M1129.09,375.085C1123.12,355.967 1120.63,336.001 1121.6,316.187C1121.81,316.038 1122.01,315.891 1122.22,315.742C1122.01,319.191 1121.9,322.663 1121.9,326.165C1121.9,343.175 1124.41,359.601 1129.09,375.085Z" style="fill:rgb(131,57,168);fill-rule:nonzero;"/>
        <path d="M1221.36,478.821C1202.48,470.383 1184.83,458.307 1169.49,442.613C1150.24,422.906 1136.78,399.695 1129.09,375.085C1124.41,359.601 1121.9,343.175 1121.9,326.165C1121.9,322.663 1122.01,319.191 1122.22,315.742C1122.56,310.173 1123.17,304.669 1124.03,299.259C1129.57,286.664 1142.39,283.211 1152.99,283.211C1153.99,283.211 1154.96,283.241 1155.91,283.298C1151.06,303.934 1139.16,321.133 1147.6,343.218C1152,354.743 1157.96,362.26 1159.18,374.706C1160.06,383.64 1160.19,393.806 1164.85,401.913C1169.16,409.395 1176.88,412.973 1182.79,418.948C1189.5,425.736 1192.31,433.337 1196.34,441.842C1202.94,455.78 1212.97,466.525 1221.36,478.821Z" style="fill:rgb(221,126,76);fill-rule:nonzero;"/>
        <path d="M1450.87,271.861C1450.65,271.209 1450.43,270.559 1450.2,269.911L1450.21,269.889C1450.44,270.546 1450.66,271.202 1450.87,271.861ZM1415.73,212.412C1412.36,208.713 1408.83,205.165 1405.14,201.778C1405.15,201.764 1405.16,201.748 1405.17,201.734C1396.15,193.442 1386.24,186.117 1375.58,179.925L1375.58,179.995C1361.61,171.877 1346.36,165.703 1330.22,161.847L1330.22,161.782C1319.94,159.326 1309.29,157.809 1298.37,157.331L1298.37,157.396C1295.87,157.287 1293.36,157.231 1290.83,157.231C1279.81,157.231 1269.03,158.288 1258.59,160.305C1258.59,160.284 1258.58,160.264 1258.58,160.243C1247.55,162.376 1236.91,165.58 1226.75,169.745C1226.77,169.76 1226.78,169.775 1226.8,169.79C1220.18,172.501 1213.78,175.623 1207.61,179.118C1207.26,178.677 1206.93,178.231 1206.62,177.781C1232.49,162.999 1261.42,155.626 1290.32,155.626C1334.21,155.626 1378.07,172.626 1411.16,206.501C1412.98,208.359 1414.74,210.25 1416.46,212.168C1416.21,212.249 1415.97,212.33 1415.73,212.412Z" style="fill:rgb(65,74,115);fill-rule:nonzero;"/>
        <path d="M1450.2,269.911C1444.98,255.114 1437.76,241.261 1428.87,228.678C1428.86,228.691 1428.85,228.704 1428.84,228.717C1424.81,223.009 1420.43,217.566 1415.73,212.412C1415.97,212.33 1416.21,212.249 1416.46,212.168C1431.89,229.455 1443.13,249.122 1450.21,269.889L1450.2,269.911Z" style="fill:rgb(131,57,168);fill-rule:nonzero;"/>
        <path d="M1432.89,415.26C1424.82,413.497 1417.28,411.825 1413.15,401.909C1408.56,390.889 1409.71,379.047 1408.87,367.283C1430.52,322.341 1416.45,281.986 1385.41,252.432C1387.62,243.957 1390.58,235.655 1394.44,227.589C1397.01,222.208 1400.42,211.31 1405.14,201.778C1408.83,205.165 1412.36,208.713 1415.73,212.412C1420.43,217.566 1424.81,223.009 1428.84,228.717C1426.98,232.225 1425.28,235.329 1424.2,237.733C1412.44,263.757 1415.53,291.134 1423.29,318.219C1427.4,332.565 1438.3,364.128 1452.43,372.225C1448.03,387.223 1441.52,401.726 1432.89,415.26ZM1365.03,236.131C1353.87,228.595 1341.5,222.147 1328.45,216.965C1323.51,215.005 1318.44,213.366 1313.27,211.95C1319.67,197.401 1329.97,185.281 1330.11,167.482C1330.12,165.658 1330.14,163.762 1330.22,161.847C1346.36,165.703 1361.61,171.877 1375.58,179.995C1376.69,198.828 1371.35,217.87 1365.03,236.131ZM1297.63,208.288C1288,206.341 1278.2,204.796 1268.48,203.055C1267.89,199.85 1267.15,196.62 1266.38,193.332C1264.01,183.338 1260.53,171.831 1258.59,160.305C1269.03,158.288 1279.81,157.231 1290.83,157.231C1293.36,157.231 1295.87,157.287 1298.37,157.396C1298.38,174.12 1298.3,191.21 1297.63,208.288ZM1234.85,195.112C1231.49,194.003 1228.17,192.775 1224.92,191.397C1216.97,188.026 1211.32,183.809 1207.61,179.118C1213.78,175.623 1220.18,172.501 1226.8,169.79C1232.74,175.745 1236.25,185.484 1234.91,194.714C1234.89,194.847 1234.87,194.979 1234.85,195.112Z" style="fill:rgb(221,126,76);fill-rule:nonzero;"/>
        <path d="M1268.48,203.055C1257.02,201.004 1245.68,198.681 1234.85,195.112C1234.87,194.979 1234.89,194.847 1234.91,194.714C1236.25,185.484 1232.74,175.745 1226.8,169.79C1226.78,169.775 1226.77,169.76 1226.75,169.745C1236.91,165.58 1247.55,162.376 1258.58,160.243C1258.58,160.264 1258.59,160.284 1258.59,160.305C1260.53,171.831 1264.01,183.338 1266.38,193.332C1267.15,196.62 1267.89,199.85 1268.48,203.055Z" style="fill:rgb(222,157,88);fill-rule:nonzero;"/>
        <path d="M1256.08,490C1244.22,487.555 1232.57,483.829 1221.36,478.821C1212.97,466.525 1202.94,455.78 1196.34,441.842C1192.31,433.337 1189.5,425.736 1182.79,418.948C1176.88,412.973 1169.16,409.395 1164.85,401.913C1160.19,393.806 1160.06,383.64 1159.18,374.706C1157.96,362.26 1152,354.743 1147.6,343.218C1139.16,321.133 1151.06,303.934 1155.91,283.298C1156.34,283.323 1156.77,283.354 1157.19,283.39C1151.24,303.404 1154.73,322.874 1168.07,333.434C1170.82,335.616 1173.85,337.301 1177.08,338.511C1177.17,354.957 1178.1,371.029 1187.52,384.909C1193.27,393.38 1199.81,396.752 1207.93,402.388C1222.89,412.755 1229.89,422.448 1238.29,438.433C1248.22,457.351 1254.22,471.887 1256.08,490Z" style="fill:rgb(222,157,88);fill-rule:nonzero;"/>
        <path d="M1407.65,446.105C1400.42,442.994 1393.04,440.331 1388.15,435.032C1381.48,427.811 1379.97,415.237 1379.98,405.963C1389.14,397.61 1397.06,388.037 1403.14,377.885C1405.27,374.325 1407.18,370.789 1408.87,367.283C1409.71,379.047 1408.56,390.889 1413.15,401.909C1417.28,411.825 1424.82,413.497 1432.89,415.26C1426.05,425.99 1417.88,436.117 1408.39,445.394C1408.14,445.633 1407.9,445.868 1407.65,446.105ZM1385.41,252.432C1379.24,246.553 1372.4,241.107 1365.03,236.131C1371.35,217.87 1376.69,198.828 1375.58,179.995L1375.58,179.925C1386.24,186.117 1396.15,193.442 1405.17,201.734C1405.16,201.748 1405.15,201.764 1405.14,201.778C1400.42,211.31 1397.01,222.208 1394.44,227.589C1390.58,235.655 1387.62,243.957 1385.41,252.432Z" style="fill:rgb(222,157,88);fill-rule:nonzero;"/>
        <path d="M1331.43,438.265C1330.96,436.785 1330.53,435.29 1330.09,433.799C1332.75,433.123 1335.39,432.329 1338.01,431.423C1337.24,435.568 1335.23,438.144 1331.43,438.265ZM1313.27,211.95C1308.13,210.543 1302.91,209.355 1297.63,208.288C1298.3,191.21 1298.38,174.12 1298.37,157.396L1298.37,157.331C1309.29,157.809 1319.94,159.326 1330.22,161.782L1330.22,161.847C1330.14,163.762 1330.12,165.658 1330.11,167.482C1329.97,185.281 1319.67,197.401 1313.27,211.95Z" style="fill:rgb(222,157,88);fill-rule:nonzero;"/>
        <path d="M1452.43,372.225C1438.3,364.128 1427.4,332.565 1423.29,318.219C1415.53,291.134 1412.44,263.757 1424.2,237.733C1425.28,235.329 1426.98,232.225 1428.84,228.717C1428.85,228.704 1428.86,228.691 1428.87,228.678C1437.76,241.261 1444.98,255.114 1450.2,269.911C1450.43,270.559 1450.65,271.209 1450.87,271.861C1461.52,304.391 1462.02,339.489 1452.43,372.225Z" style="fill:rgb(222,157,88);fill-rule:nonzero;"/>
        <path d="M1213.64,335.461C1202.45,315.312 1189.4,296.022 1171.84,287.455C1171.34,282.356 1171.11,277.168 1171.4,271.8C1171.81,264.335 1173.4,257.708 1175.44,251.319C1188.26,237.023 1204.33,228.406 1219.18,226.765C1218.71,227.782 1218.27,228.804 1217.88,229.83C1212.91,243.018 1209.78,256.75 1211.05,270.918C1212.38,285.765 1217.38,299.912 1216.75,315.192C1216.47,321.908 1215.64,328.333 1215.19,334.725C1214.68,334.977 1214.16,335.224 1213.64,335.461ZM1259.59,276.304C1258.67,270.651 1258.13,264.972 1258.69,259.331C1258.85,257.772 1259.1,256.249 1259.43,254.752C1260.9,261.381 1260.94,268.725 1259.59,276.304Z" style="fill:rgb(239,115,60);fill-rule:nonzero;"/>
        <path d="M1215.19,334.725C1215.64,328.333 1216.47,321.908 1216.75,315.192C1217.38,299.912 1212.38,285.765 1211.05,270.918C1209.78,256.75 1212.91,243.018 1217.88,229.83C1218.27,228.804 1218.71,227.782 1219.18,226.765C1220.91,226.574 1222.63,226.477 1224.31,226.477C1232.72,226.477 1240.54,228.869 1246.9,233.906C1253.4,239.058 1257.56,246.33 1259.43,254.752C1259.1,256.249 1258.85,257.772 1258.69,259.331C1258.13,264.972 1258.67,270.651 1259.59,276.304C1257.47,288.171 1251.93,300.62 1243.04,311.837C1234.95,322.057 1225.23,329.813 1215.19,334.725Z" style="fill:rgb(241,150,73);fill-rule:nonzero;"/>
        <path d="M1171.84,287.455C1169.91,286.513 1167.92,285.699 1165.88,285.03C1163.7,284.316 1160.66,283.686 1157.19,283.39C1160,273.92 1164.93,264.329 1171.92,255.502C1173.06,254.058 1174.24,252.664 1175.44,251.319C1173.4,257.708 1171.81,264.335 1171.4,271.8C1171.11,277.168 1171.34,282.356 1171.84,287.455Z" style="fill:rgb(241,150,73);fill-rule:nonzero;"/>
        <path d="M1190.65,340.863C1185.88,340.863 1181.31,340.094 1177.08,338.511C1177.07,336.315 1177.07,334.113 1177.07,331.908C1177.07,316.383 1173.29,302.299 1171.84,287.455C1189.4,296.022 1202.45,315.312 1213.64,335.461C1205.92,339.005 1198.06,340.863 1190.65,340.863Z" style="fill:rgb(224,139,94);fill-rule:nonzero;"/>
        <path d="M1177.08,338.511C1173.85,337.301 1170.82,335.616 1168.07,333.434C1154.73,322.874 1151.24,303.404 1157.19,283.39C1160.66,283.686 1163.7,284.316 1165.88,285.03C1167.92,285.699 1169.91,286.513 1171.84,287.455C1173.29,302.299 1177.07,316.383 1177.07,331.908C1177.07,334.113 1177.07,336.315 1177.08,338.511Z" style="fill:rgb(225,167,105);fill-rule:nonzero;"/>
        <path d="M1068.9,373.257C1068.9,373.257 1132.38,411.55 1311.79,340.045C1454.49,283.166 1468.96,204.971 1468.96,204.971C1468.96,204.971 1485.5,205.614 1497.7,218.748C1512.44,234.619 1494.3,265.227 1494.3,265.227C1494.3,265.227 1455.76,342.312 1340.13,393.325C1195.08,457.314 1076.96,444.805 1065.79,404.661C1061.23,388.242 1068.9,373.257 1068.9,373.257Z" style="fill:rgb(168,18,204);fill-rule:nonzero;"/>
        <path d="M1080.84,389.527L1074.07,400.775C1074.07,400.775 1101.01,413.039 1132.78,410.957C1211.25,405.814 1277.98,384.761 1301.76,375.645C1329.22,365.115 1347.68,353.981 1347.68,353.981L1358.95,328.202C1358.95,328.202 1328.07,347.768 1293.96,359.831C1256.11,373.218 1190.62,392.759 1134.08,395.792C1100.69,397.583 1080.84,389.527 1080.84,389.527Z" style="fill:rgb(195,24,237);fill-rule:nonzero;"/>
    </g>
</svg>
