<?xml version="1.0" encoding="UTF-8" standalone="no"?>
<!DOCTYPE svg PUBLIC "-//W3C//DTD SVG 1.1//EN" "http://www.w3.org/Graphics/SVG/1.1/DTD/svg11.dtd">
<svg width="100%" height="100%" viewBox="0 0 338 338" version="1.1" xmlns="http://www.w3.org/2000/svg" xmlns:xlink="http://www.w3.org/1999/xlink" xml:space="preserve" xmlns:serif="http://www.serif.com/" style="fill-rule:evenodd;clip-rule:evenodd;stroke-linejoin:round;stroke-miterlimit:2;">
    <g transform="matrix(1,0,0,1,-2333.080078,-780.702026)">
        <path d="M2670.95,949.635C2670.95,1042.931 2595.32,1118.57 2502.02,1118.57C2408.72,1118.57 2333.08,1042.931 2333.08,949.635C2333.08,856.336 2408.72,780.702 2502.02,780.702C2595.32,780.702 2670.95,856.336 2670.95,949.635Z" style="fill:rgb(237,99,38);fill-rule:nonzero;"/>
        <path d="M2354.93,931.098C2371.59,923.403 2385.58,908.05 2391.21,891.645C2401.29,862.224 2428.92,842.148 2456.82,857.834C2458.85,866.952 2450.78,865.988 2443.95,865.024C2441.57,864.688 2439.34,864.353 2437.74,864.443C2428.54,864.959 2420.16,868.734 2416.43,878.012C2408.6,897.468 2438.39,905.491 2442.13,886.207C2434.39,882.749 2422.21,876.695 2440.01,875.748C2450.9,875.169 2455.17,883.749 2452.25,893.66C2449.75,902.142 2439.34,908.911 2454.75,912.046C2464.18,913.964 2473.8,906.875 2480.82,901.565C2497.81,888.697 2498.76,872.891 2481.73,860.184C2475.58,855.596 2466.27,850.866 2463.51,843.148C2460.65,835.18 2468.39,824.589 2478.55,829.242C2487.78,833.468 2478.26,845.991 2492.21,849.697C2504.63,852.993 2508.12,838.85 2515.93,831.505C2533.83,814.66 2555.23,830.661 2530.7,843.753C2523.62,847.529 2508.86,853.165 2513.98,863.272C2518.76,872.705 2535.11,868.713 2541.81,863.337C2547.98,858.387 2557.24,845.43 2558.78,837.228C2561.28,823.95 2549.75,823.306 2546.86,814.275C2543.62,804.183 2561.49,800.25 2578.18,798.942C2555.23,787.28 2529.26,780.702 2501.76,780.702C2412.94,780.702 2340.14,849.233 2333.34,936.298C2340.44,935.176 2347.99,934.306 2354.93,931.098Z" style="fill:rgb(239,138,52);fill-rule:nonzero;"/>
        <path d="M2626.17,908.397C2623.09,908.379 2619.52,905.25 2615.72,906.305C2608.16,908.403 2601.21,923.901 2598.58,930.32C2588.32,955.314 2637.73,951.664 2641.54,978.653C2643.78,994.542 2634.06,1006.01 2620.23,1010.73C2612.57,1013.35 2607.32,1014.63 2600.1,1019.78C2595.55,1023.03 2591.67,1027.19 2586.57,1029.051C2592.48,1027.74 2601.86,1027.58 2607.51,1027.681C2620.93,1027.921 2621.04,1029.65 2614.63,1040.35C2612.16,1044.48 2593.58,1073.23 2585.34,1059.19C2581.74,1053.05 2593.5,1046.77 2590.86,1040.15C2589.17,1035.911 2580.67,1037.7 2571.53,1039.5C2558.24,1042.11 2543.59,1044.71 2546.52,1028.75C2547.87,1021.39 2556.81,1019.74 2562.41,1017.47C2571.84,1013.65 2580.74,1009.27 2588.51,1002.49C2611.79,982.165 2587.96,949.202 2563.32,946.055C2555.59,945.068 2540,944.535 2537.76,934.466C2534.48,919.739 2550.93,926.47 2557.91,929.339C2589.14,942.185 2579.78,903.831 2588.17,884.844C2593.16,873.574 2603.35,859.087 2613.7,853.355C2620.39,849.653 2627.52,847.438 2633.15,843.461C2628.41,837.613 2623.3,832.083 2617.84,826.916C2615.77,827.937 2613.2,828.738 2610.08,829.238C2600.53,830.771 2588.62,828.112 2582,836.35C2575.75,844.109 2575.45,857.467 2570.63,866.453C2565.06,876.838 2557.64,887.65 2545.44,888.244C2541.62,888.43 2537.45,886.841 2533.31,885.253C2528.42,883.373 2523.56,881.494 2519.37,882.554C2502.13,886.91 2526.03,907.67 2521.34,921.123C2517.54,932.021 2486.02,968.135 2478.53,948.326C2473.91,936.108 2505.39,912.679 2477.36,915.424C2456.85,917.433 2441.88,941.03 2420.91,937.955C2417.18,929.479 2426,921.147 2417.59,915.171C2409.46,909.395 2400.78,918.154 2397.21,925.627C2393.59,933.227 2391.94,946.999 2399.23,952.915C2409.03,960.872 2423.28,951.59 2432.96,949.185C2440.48,947.315 2452.55,947.324 2451.17,958.529C2449.56,971.705 2420.71,983.533 2409.4,981.196C2389.71,977.129 2397.33,949.912 2373.13,946.063C2357.55,943.585 2345.39,956.017 2333.96,969.216C2334.59,974.717 2335.49,980.137 2336.64,985.464C2346.86,978.023 2366.16,965.091 2373.12,967.601C2378.86,969.668 2383.35,981.116 2388.12,985.424C2394.67,991.35 2401.86,997.335 2410.54,998.204C2419.35,999.088 2430.77,996.733 2438.05,991.71C2444.99,986.922 2448.97,976.176 2459.11,976.838C2459.47,991.417 2469.86,989.955 2479.44,982.108C2492.61,971.326 2498.56,961.291 2518.2,959.636C2532.67,958.416 2556.08,959.71 2562.29,975.333C2567.93,989.52 2557.15,1004.74 2543.31,1008.54C2537.93,1010.02 2531.34,1009.01 2524.71,1008.01C2513.4,1006.3 2502,1004.58 2496.42,1015.21C2483.96,1038.921 2510.58,1052.26 2529.31,1055.13C2536.83,1056.29 2550.31,1053.85 2554.81,1061.63C2563.5,1076.66 2541.11,1094.38 2527.32,1093.42C2508.19,1092.1 2511,1065.14 2498.96,1063.94C2485.39,1062.57 2495.24,1085.63 2484.19,1090.16C2467.13,1097.17 2471.99,1073.71 2475.21,1066.39C2480.36,1054.69 2487.45,1046.431 2482.01,1033.35C2475.58,1017.89 2440.85,998.587 2424.14,1002.71C2410.52,1006.07 2414.92,1017.39 2423.83,1022.29C2432.47,1027.051 2447.69,1025.47 2454.68,1032.5C2470.11,1048.01 2443.31,1066.84 2427.02,1065.99C2415.56,1065.39 2393.51,1059.9 2389.18,1047.78C2386.44,1040.12 2392.1,1031.801 2392.48,1024.34C2393.92,996.542 2357.75,984.302 2338.88,994.576C2358.56,1066.06 2424.02,1118.57 2501.76,1118.57C2595.05,1118.57 2670.69,1042.931 2670.69,949.635C2670.69,932.069 2668.01,915.13 2663.03,899.202C2651.4,903.714 2637.7,908.464 2626.17,908.397Z" style="fill:rgb(239,138,52);fill-rule:nonzero;"/>
        <path d="M2419.6,832.751C2410.07,829.008 2400.99,833.59 2392.87,837.372C2384.79,841.137 2374.17,842.955 2368.75,850.691L2374.42,857.492C2363.33,859.974 2351.95,878.037 2352.88,889.233C2354.49,908.495 2368.66,896.147 2373.26,885.8C2378.14,874.817 2383.77,860.35 2394.8,853.21C2402.24,848.395 2422.46,846.367 2419.6,832.751Z" style="fill:rgb(237,186,58);fill-rule:nonzero;"/>
        <path d="M2480.98,1099.01C2473.67,1099.32 2464.63,1099.64 2460.27,1092.46C2454.57,1083.07 2464.97,1079.13 2462.84,1069.48L2459.44,1061.54C2453.21,1072.21 2420.47,1072.12 2421.98,1084.21C2423.52,1096.46 2456.36,1099.36 2465.11,1101.47C2471.39,1102.99 2482.15,1108.36 2488.91,1105.75C2502.33,1100.56 2487.71,1098.72 2480.98,1099.01Z" style="fill:rgb(237,186,58);fill-rule:nonzero;"/>
        <path d="M2646.49,931.177L2631.75,927.776C2623.46,919.978 2593.75,930.1 2612.48,943.391C2621.7,949.929 2640.56,948.607 2646.23,959.774C2648.52,964.275 2642.85,974.468 2649.87,975.499C2655.28,976.295 2658.34,963.842 2659.02,960.714C2661.3,950.254 2657.06,935.734 2646.49,931.177Z" style="fill:rgb(237,186,58);fill-rule:nonzero;"/>
        <path d="M2458.31,803.079C2453.42,803.213 2445.96,808.501 2448.02,814.442C2450.48,821.531 2462.05,818.117 2467.38,817.842C2476.42,817.376 2497.88,817.657 2498.16,831.248C2513.45,833.185 2508.97,816.882 2516.35,811.208C2521.38,807.341 2541.22,809.636 2527.2,798.797C2517.64,791.402 2500.74,793.792 2485.82,796.182C2478.44,797.365 2471.53,798.548 2466.25,798.545L2458.31,803.079Z" style="fill:rgb(237,186,58);fill-rule:nonzero;"/>
        <path d="M2580.71,859.479C2576.16,862.819 2573.07,872.648 2570.54,877.897L2566,890.367C2561.11,899.291 2519.59,894.356 2534.52,912.783C2539.05,918.378 2550.46,915.902 2556.99,916.129C2566.48,916.459 2566.07,918.291 2570.54,907.372C2575.85,894.375 2583.69,881.339 2588.65,867.695C2591.84,858.897 2591.2,851.792 2580.71,859.479Z" style="fill:rgb(237,186,58);fill-rule:nonzero;"/>
        <path d="M2528.41,1093.46C2528.04,1093.46 2527.68,1093.45 2527.32,1093.42C2508.19,1092.1 2511,1065.14 2498.96,1063.94C2498.57,1063.9 2498.2,1063.88 2497.85,1063.88C2485.93,1063.88 2494.92,1085.76 2484.19,1090.16C2482.02,1091.05 2480.2,1091.45 2478.69,1091.45C2468.34,1091.45 2472.4,1072.78 2475.21,1066.39C2480.36,1054.69 2487.45,1046.431 2482.01,1033.35C2476.18,1019.33 2447.07,1002.15 2429.24,1002.15C2427.41,1002.15 2425.69,1002.33 2424.14,1002.71C2410.52,1006.07 2414.92,1017.39 2423.83,1022.29C2432.47,1027.051 2447.69,1025.47 2454.68,1032.5C2469.78,1047.671 2444.46,1066.01 2428.1,1066.02C2427.74,1066.02 2427.38,1066.01 2427.02,1065.99C2415.56,1065.39 2393.51,1059.9 2389.18,1047.78C2386.44,1040.12 2392.1,1031.801 2392.48,1024.34C2393.58,1003.13 2372.77,990.972 2354.47,990.972C2352.53,990.972 2350.63,991.108 2348.78,991.383C2347.79,987.219 2346.98,983.002 2346.33,978.747C2355.09,972.998 2365.27,967.283 2371.06,967.283C2371.83,967.283 2372.52,967.384 2373.12,967.601C2378.86,969.668 2383.35,981.116 2388.12,985.424C2394.67,991.35 2401.86,997.335 2410.54,998.204C2411.75,998.326 2413.02,998.386 2414.32,998.386C2422.43,998.386 2431.78,996.039 2438.05,991.71C2441.34,989.441 2443.96,985.832 2446.9,982.734C2457.42,998.844 2475.23,1009.34 2496.69,1014.71C2496.59,1014.88 2496.5,1015.04 2496.42,1015.21C2483.96,1038.921 2510.58,1052.26 2529.31,1055.13C2536.83,1056.29 2550.31,1053.85 2554.81,1061.63C2563.27,1076.27 2542.24,1093.46 2528.41,1093.46ZM2591.1,1063.02C2588.92,1063.02 2586.94,1061.91 2585.34,1059.19C2581.74,1053.05 2593.5,1046.77 2590.86,1040.15C2590.09,1038.22 2587.91,1037.541 2584.91,1037.541C2581.3,1037.541 2576.51,1038.52 2571.53,1039.5C2566.55,1040.47 2561.37,1041.45 2557.01,1041.45C2549.72,1041.45 2544.69,1038.73 2546.52,1028.75C2547.87,1021.39 2556.81,1019.74 2562.41,1017.47C2563.71,1016.94 2565,1016.41 2566.28,1015.85C2574.52,1015.96 2582.51,1016.93 2589.97,1019.74C2592.36,1020.64 2594.36,1021.72 2596.01,1022.96C2593.03,1025.39 2590.09,1027.77 2586.57,1029.051C2590.36,1028.21 2595.58,1027.85 2600.32,1027.72C2605.89,1037.14 2600.45,1051.05 2593.24,1062.7C2592.51,1062.91 2591.8,1063.02 2591.1,1063.02ZM2412.67,981.493C2411.47,981.493 2410.37,981.397 2409.4,981.196C2389.71,977.129 2397.33,949.912 2373.13,946.063C2371.78,945.848 2370.45,945.745 2369.15,945.745C2359.94,945.745 2351.92,950.906 2344.48,957.955C2344.27,950.05 2344.61,942.098 2345.48,934.201C2348.69,933.473 2351.87,932.513 2354.93,931.098C2363.58,927.103 2371.51,921.046 2377.92,913.848C2377.91,925.93 2381.51,936.703 2393.69,936.872C2393.74,936.872 2393.79,936.873 2393.84,936.873C2393.98,936.873 2394.12,936.87 2394.25,936.864C2393.71,943.024 2394.87,949.375 2399.23,952.915C2402.07,955.217 2405.27,956.076 2408.64,956.076C2416.89,956.076 2426.08,950.894 2432.96,949.185C2434.1,948.902 2435.34,948.661 2436.63,948.497C2436.9,956.965 2438.46,964.625 2441.13,971.499C2432.57,977.417 2420.49,981.493 2412.67,981.493ZM2424.68,938.231C2423.44,938.231 2422.19,938.143 2420.91,937.955C2417.18,929.479 2426,921.147 2417.59,915.171C2415.74,913.862 2413.87,913.299 2412.04,913.299C2411.81,913.299 2411.58,913.308 2411.35,913.326C2414.2,907.138 2417.27,900.772 2420.79,894.705C2423.26,896.359 2426.26,897.256 2429.24,897.256C2434.99,897.256 2440.64,893.912 2442.13,886.207C2438.07,884.394 2432.8,881.868 2431.26,879.739C2431.41,879.557 2431.57,879.375 2431.73,879.194C2432.42,878.416 2433.47,877.441 2434.78,876.306C2436.12,876.054 2437.84,875.863 2440.01,875.748C2440.36,875.729 2440.7,875.72 2441.04,875.72C2449.9,875.72 2454,882.114 2452.99,890.144C2443.87,903.132 2438.85,920.2 2437.19,935.402C2433.19,937.127 2429.06,938.231 2424.68,938.231ZM2488.26,866.169C2486.49,864.117 2484.32,862.115 2481.73,860.184C2477.03,856.678 2470.49,853.09 2466.43,848.148C2471.18,842.121 2472.79,836.771 2467.38,833.691C2466.67,833.289 2465.92,832.97 2465.13,832.723C2467.03,830.011 2470.04,828.103 2473.64,828.103C2475.18,828.103 2476.83,828.453 2478.55,829.242C2487.78,833.468 2478.26,845.991 2492.21,849.697C2493.48,850.032 2494.65,850.187 2495.74,850.187C2505.38,850.187 2508.92,838.104 2515.93,831.505C2521.44,826.316 2527.29,824.243 2532.03,824.243C2542.66,824.243 2547.67,834.694 2530.7,843.753C2524.7,846.957 2513.15,851.5 2512.93,858.978C2504.94,861.376 2496.45,863.441 2488.26,866.169ZM2450.31,865.62C2449.58,865.62 2448.83,865.581 2448.06,865.517C2451,863.117 2454.02,860.58 2456.86,858.02C2458.16,864.161 2454.76,865.62 2450.31,865.62ZM2548.37,817.408C2547.76,816.485 2547.25,815.468 2546.87,814.315C2547.43,815.277 2547.93,816.302 2548.37,817.408Z" style="fill:rgb(241,130,62);fill-rule:nonzero;"/>
        <path d="M2345.48,934.201C2346.93,921.078 2349.88,908.098 2354.29,895.679C2355.43,898.274 2357.1,899.342 2359,899.343C2363.93,899.344 2370.42,892.19 2373.26,885.8C2378.14,874.817 2383.77,860.35 2394.8,853.21C2397.26,851.619 2401.11,850.333 2405.07,848.832C2395.07,857.938 2388.33,871.161 2383.52,883.539C2381.3,889.267 2377.93,902.17 2377.92,913.848C2371.51,921.046 2363.58,927.103 2354.93,931.098C2351.87,932.513 2348.69,933.473 2345.48,934.201ZM2429.24,897.256C2426.26,897.256 2423.26,896.359 2420.79,894.705C2423.88,889.376 2427.32,884.279 2431.26,879.739C2432.8,881.868 2438.07,884.394 2442.13,886.207C2440.64,893.912 2434.99,897.256 2429.24,897.256ZM2452.99,890.144C2454,882.114 2449.9,875.72 2441.04,875.72C2440.7,875.72 2440.36,875.729 2440.01,875.748C2437.84,875.863 2436.12,876.054 2434.78,876.306C2438.03,873.498 2442.92,869.712 2448.06,865.517C2448.83,865.581 2449.58,865.62 2450.31,865.62C2454.76,865.62 2458.16,864.161 2456.86,858.02C2460.54,854.696 2463.92,851.329 2466.43,848.148C2470.49,853.09 2477.03,856.678 2481.73,860.184C2484.32,862.115 2486.49,864.117 2488.26,866.169C2478.98,869.257 2470.07,873.195 2462.68,879.427C2459.04,882.491 2455.82,886.121 2452.99,890.144ZM2512.93,858.978C2513.15,851.5 2524.7,846.957 2530.7,843.753C2547.67,834.694 2542.66,824.243 2532.03,824.243C2527.29,824.243 2521.44,826.316 2515.93,831.505C2508.92,838.104 2505.38,850.187 2495.74,850.187C2494.65,850.187 2493.48,850.032 2492.21,849.697C2478.26,845.991 2487.78,833.468 2478.55,829.242C2476.83,828.453 2475.18,828.103 2473.64,828.103C2470.04,828.103 2467.03,830.011 2465.13,832.723C2463.53,832.223 2461.77,832.018 2459.93,832.018C2455.77,832.018 2451.2,833.066 2447.1,834.114C2443.01,835.161 2439.4,836.209 2437.15,836.209C2436.54,836.209 2436.03,836.131 2435.64,835.954L2425.44,838.221C2422.99,838.714 2420.67,839.414 2418.46,840.296C2419.73,838.252 2420.24,835.79 2419.6,832.751C2417.09,831.768 2414.62,831.359 2412.19,831.359C2405.37,831.359 2398.86,834.583 2392.87,837.372C2391.58,837.971 2390.23,838.521 2388.85,839.053C2403.78,822.578 2421.11,809.49 2442.6,802.08C2458.09,796.742 2478.87,790.148 2496.37,790.148C2498.53,790.148 2500.64,790.249 2502.68,790.465L2526.49,795C2533.31,802.594 2542.09,806.049 2546.87,814.315C2547.25,815.468 2547.76,816.485 2548.37,817.408C2549.4,820.016 2550.09,823.066 2550.29,826.741C2551.37,846.068 2530.89,853.34 2515.46,858.2C2514.62,858.464 2513.78,858.722 2512.93,858.978ZM2471.89,817.725C2482.09,817.725 2497.92,819.588 2498.16,831.248C2499.01,831.355 2499.8,831.407 2500.53,831.407C2512.99,831.407 2509.38,816.567 2516.35,811.208C2521.38,807.341 2541.22,809.636 2527.2,798.797C2522.37,795.057 2515.65,793.819 2508.27,793.819C2501.05,793.819 2493.2,795.001 2485.82,796.182C2478.45,797.363 2471.55,798.545 2466.27,798.545L2466.25,798.545L2458.31,803.079C2453.42,803.213 2445.96,808.501 2448.02,814.442C2449.25,817.983 2452.76,818.903 2456.62,818.903C2460.48,818.904 2464.71,817.98 2467.38,817.842C2468.66,817.776 2470.2,817.725 2471.89,817.725Z" style="fill:rgb(242,161,73);fill-rule:nonzero;"/>
        <path d="M2508.24,1102.53C2503.6,1102.53 2498.96,1102.39 2494.38,1102.16C2494.74,1099.93 2487.4,1098.98 2482.42,1098.98C2481.91,1098.98 2481.43,1098.99 2480.98,1099.01C2479.48,1099.07 2477.91,1099.14 2476.32,1099.14C2470.16,1099.14 2463.73,1098.17 2460.27,1092.46C2454.57,1083.07 2464.97,1079.13 2462.84,1069.48L2459.44,1061.54C2453.21,1072.21 2420.47,1072.12 2421.98,1084.21C2422.19,1085.86 2422.96,1087.34 2424.17,1088.67C2387.99,1071.08 2360.26,1034.64 2349.9,995.843C2349.5,994.363 2349.13,992.877 2348.78,991.383C2350.63,991.108 2352.53,990.972 2354.47,990.972C2372.77,990.972 2393.58,1003.13 2392.48,1024.34C2392.1,1031.801 2386.44,1040.12 2389.18,1047.78C2393.51,1059.9 2415.56,1065.39 2427.02,1065.99C2427.38,1066.01 2427.74,1066.02 2428.1,1066.02C2444.46,1066.01 2469.78,1047.671 2454.68,1032.5C2447.69,1025.47 2432.47,1027.051 2423.83,1022.29C2414.92,1017.39 2410.52,1006.07 2424.14,1002.71C2425.69,1002.33 2427.41,1002.15 2429.24,1002.15C2447.07,1002.15 2476.18,1019.33 2482.01,1033.35C2487.45,1046.431 2480.36,1054.69 2475.21,1066.39C2472.4,1072.78 2468.34,1091.45 2478.69,1091.45C2480.2,1091.45 2482.02,1091.05 2484.19,1090.16C2494.92,1085.76 2485.93,1063.88 2497.85,1063.88C2498.2,1063.88 2498.57,1063.9 2498.96,1063.94C2511,1065.14 2508.19,1092.1 2527.32,1093.42C2527.68,1093.45 2528.04,1093.46 2528.41,1093.46C2542.24,1093.46 2563.27,1076.27 2554.81,1061.63C2550.31,1053.85 2536.83,1056.29 2529.31,1055.13C2510.58,1052.26 2483.96,1038.921 2496.42,1015.21C2496.5,1015.04 2496.59,1014.88 2496.69,1014.71C2500.75,1015.73 2504.96,1016.57 2509.26,1017.22C2513.57,1017.87 2518.01,1018.12 2522.54,1018.12C2529.42,1018.12 2536.49,1017.55 2543.57,1016.98C2550.66,1016.41 2557.76,1015.84 2564.71,1015.84C2565.23,1015.84 2565.76,1015.85 2566.28,1015.85C2565,1016.41 2563.71,1016.94 2562.41,1017.47C2556.81,1019.74 2547.87,1021.39 2546.52,1028.75C2544.69,1038.73 2549.72,1041.45 2557.01,1041.45C2561.37,1041.45 2566.55,1040.47 2571.53,1039.5C2576.51,1038.52 2581.3,1037.541 2584.91,1037.541C2587.91,1037.541 2590.09,1038.22 2590.86,1040.15C2593.5,1046.77 2581.74,1053.05 2585.34,1059.19C2586.94,1061.91 2588.92,1063.02 2591.1,1063.02C2591.8,1063.02 2592.51,1062.91 2593.24,1062.7C2589.66,1068.48 2585.64,1073.71 2582.32,1077.55C2565.13,1097.41 2536.64,1102.53 2508.24,1102.53ZM2586.57,1029.051C2590.09,1027.77 2593.03,1025.39 2596.01,1022.96C2597.87,1024.36 2599.29,1025.96 2600.32,1027.72C2595.58,1027.85 2590.36,1028.21 2586.57,1029.051ZM2414.32,998.386C2413.02,998.386 2411.75,998.326 2410.54,998.204C2401.86,997.335 2394.67,991.35 2388.12,985.424C2383.35,981.116 2378.86,969.668 2373.12,967.601C2372.52,967.384 2371.83,967.283 2371.06,967.283C2365.27,967.283 2355.09,972.998 2346.33,978.747C2345.29,971.892 2344.67,964.94 2344.48,957.955C2351.92,950.906 2359.94,945.745 2369.15,945.745C2370.45,945.745 2371.78,945.848 2373.13,946.063C2397.33,949.912 2389.71,977.129 2409.4,981.196C2410.37,981.397 2411.47,981.493 2412.67,981.493C2420.49,981.493 2432.57,977.417 2441.13,971.499C2442.69,975.509 2444.62,979.253 2446.9,982.734C2443.96,985.832 2441.34,989.441 2438.05,991.71C2431.78,996.039 2422.43,998.386 2414.32,998.386ZM2408.64,956.076C2405.27,956.076 2402.07,955.217 2399.23,952.915C2394.87,949.375 2393.71,943.024 2394.25,936.864C2403.78,936.476 2407.07,922.705 2410.45,915.307C2410.75,914.649 2411.05,913.988 2411.35,913.326C2411.58,913.308 2411.81,913.299 2412.04,913.299C2413.87,913.299 2415.74,913.862 2417.59,915.171C2426,921.147 2417.18,929.479 2420.91,937.955C2422.19,938.143 2423.44,938.231 2424.68,938.231C2429.06,938.231 2433.19,937.127 2437.19,935.402C2437.07,936.517 2436.96,937.623 2436.88,938.716C2436.61,942.09 2436.53,945.348 2436.63,948.497C2435.34,948.661 2434.1,948.902 2432.96,949.185C2426.08,950.894 2416.89,956.076 2408.64,956.076Z" style="fill:rgb(242,161,73);fill-rule:nonzero;"/>
        <path d="M2373.91,857.618C2374.01,857.483 2374.1,857.353 2374.19,857.219L2374.42,857.492C2374.25,857.53 2374.08,857.572 2373.91,857.618Z" style="fill:rgb(242,161,73);fill-rule:nonzero;"/>
        <path d="M2359,899.343C2357.1,899.342 2355.43,898.274 2354.29,895.679C2359.1,882.137 2365.65,869.264 2373.91,857.618C2374.08,857.572 2374.25,857.53 2374.42,857.492L2374.19,857.219C2374.77,856.417 2375.35,855.619 2375.94,854.829C2380.06,849.304 2384.34,844.025 2388.85,839.053C2390.23,838.521 2391.58,837.971 2392.87,837.372C2398.86,834.583 2405.37,831.359 2412.19,831.359C2414.62,831.359 2417.09,831.768 2419.6,832.751C2420.24,835.79 2419.73,838.252 2418.46,840.296C2413.44,842.302 2409,845.248 2405.07,848.832C2401.11,850.333 2397.26,851.619 2394.8,853.21C2383.77,860.35 2378.14,874.817 2373.26,885.8C2370.42,892.19 2363.93,899.344 2359,899.343Z" style="fill:rgb(241,200,78);fill-rule:nonzero;"/>
        <path d="M2494.38,1102.16C2482.07,1101.54 2470.13,1100.23 2459.55,1099.06C2447.13,1097.68 2435.25,1094.06 2424.17,1088.67C2422.96,1087.34 2422.19,1085.86 2421.98,1084.21C2420.47,1072.12 2453.21,1072.21 2459.44,1061.54L2462.84,1069.48C2464.97,1079.13 2454.57,1083.07 2460.27,1092.46C2463.73,1098.17 2470.16,1099.14 2476.32,1099.14C2477.91,1099.14 2479.48,1099.07 2480.98,1099.01C2481.43,1098.99 2481.91,1098.98 2482.42,1098.98C2487.4,1098.98 2494.74,1099.93 2494.38,1102.16Z" style="fill:rgb(241,200,78);fill-rule:nonzero;"/>
        <path d="M2500.53,831.407C2499.8,831.407 2499.01,831.355 2498.16,831.248C2497.92,819.588 2482.09,817.725 2471.89,817.725C2470.2,817.725 2468.66,817.776 2467.38,817.842C2464.71,817.98 2460.48,818.904 2456.62,818.903C2452.76,818.903 2449.25,817.983 2448.02,814.442C2445.96,808.501 2453.42,803.213 2458.31,803.079L2466.25,798.545L2466.27,798.545C2471.55,798.545 2478.45,797.363 2485.82,796.182C2493.2,795.001 2501.05,793.819 2508.27,793.819C2515.65,793.819 2522.37,795.057 2527.2,798.797C2541.22,809.636 2521.38,807.341 2516.35,811.208C2509.38,816.567 2512.99,831.407 2500.53,831.407Z" style="fill:rgb(241,200,78);fill-rule:nonzero;"/>
        <path d="M2393.84,936.873C2393.79,936.873 2393.74,936.872 2393.69,936.872C2381.51,936.703 2377.91,925.93 2377.92,913.848C2383.86,907.181 2388.5,899.534 2391.21,891.645C2398.86,869.306 2416.63,852.355 2436.96,852.355C2443.4,852.355 2450.1,854.058 2456.82,857.834C2456.83,857.897 2456.84,857.958 2456.86,858.02C2454.02,860.58 2451,863.117 2448.06,865.517C2446.7,865.405 2445.3,865.214 2443.95,865.024C2441.84,864.726 2439.85,864.428 2438.31,864.428C2438.11,864.428 2437.92,864.433 2437.74,864.443C2428.54,864.959 2420.16,868.734 2416.43,878.012C2413.35,885.67 2416.1,891.558 2420.79,894.705C2417.27,900.772 2414.2,907.138 2411.35,913.326C2405.36,913.78 2399.87,920.06 2397.21,925.627C2395.76,928.68 2394.62,932.729 2394.25,936.864C2394.12,936.87 2393.98,936.873 2393.84,936.873ZM2431.26,879.739C2430.21,878.3 2430.88,877.042 2434.78,876.306C2433.47,877.441 2432.42,878.416 2431.73,879.194C2431.57,879.375 2431.41,879.557 2431.26,879.739ZM2466.43,848.148C2465.17,846.623 2464.16,844.968 2463.51,843.148C2462.26,839.678 2463.03,835.712 2465.13,832.723C2465.92,832.97 2466.67,833.289 2467.38,833.691C2472.79,836.771 2471.18,842.121 2466.43,848.148Z" style="fill:rgb(244,155,81);fill-rule:nonzero;"/>
        <path d="M2377.92,913.848C2377.93,902.17 2381.3,889.267 2383.52,883.539C2388.33,871.161 2395.07,857.938 2405.07,848.832C2410.41,846.804 2415.94,844.385 2418.46,840.296C2420.67,839.414 2422.99,838.714 2425.44,838.221L2435.64,835.954C2436.03,836.131 2436.54,836.209 2437.15,836.209C2439.4,836.209 2443.01,835.161 2447.1,834.114C2451.2,833.066 2455.77,832.018 2459.93,832.018C2461.77,832.018 2463.53,832.223 2465.13,832.723C2463.03,835.712 2462.26,839.678 2463.51,843.148C2464.16,844.968 2465.17,846.623 2466.43,848.148C2463.92,851.329 2460.54,854.696 2456.86,858.02C2456.84,857.958 2456.83,857.897 2456.82,857.834C2450.1,854.058 2443.4,852.355 2436.96,852.355C2416.63,852.355 2398.86,869.306 2391.21,891.645C2388.5,899.534 2383.86,907.181 2377.92,913.848ZM2420.79,894.705C2416.1,891.558 2413.35,885.67 2416.43,878.012C2420.16,868.734 2428.54,864.959 2437.74,864.443C2437.92,864.433 2438.11,864.428 2438.31,864.428C2439.85,864.428 2441.84,864.726 2443.95,865.024C2445.3,865.214 2446.7,865.405 2448.06,865.517C2442.92,869.712 2438.03,873.498 2434.78,876.306C2430.88,877.042 2430.21,878.3 2431.26,879.739C2427.32,884.279 2423.88,889.376 2420.79,894.705Z" style="fill:rgb(245,180,90);fill-rule:nonzero;"/>
        <path d="M2394.25,936.864C2394.62,932.729 2395.76,928.68 2397.21,925.627C2399.87,920.06 2405.36,913.78 2411.35,913.326C2411.05,913.988 2410.75,914.649 2410.45,915.307C2407.07,922.705 2403.78,936.476 2394.25,936.864Z" style="fill:rgb(245,180,90);fill-rule:nonzero;"/>
        <path d="M2405.07,848.832C2409,845.248 2413.44,842.302 2418.46,840.296C2415.94,844.385 2410.41,846.804 2405.07,848.832Z" style="fill:rgb(244,211,94);fill-rule:nonzero;"/>
    </g>
</svg>
