<?xml version="1.0" encoding="UTF-8" standalone="no"?>
<!DOCTYPE svg PUBLIC "-//W3C//DTD SVG 1.1//EN" "http://www.w3.org/Graphics/SVG/1.1/DTD/svg11.dtd">
<svg width="100%" height="100%" viewBox="0 0 338 465" version="1.1" xmlns="http://www.w3.org/2000/svg" xmlns:xlink="http://www.w3.org/1999/xlink" xml:space="preserve" xmlns:serif="http://www.serif.com/" style="fill-rule:evenodd;clip-rule:evenodd;stroke-linejoin:round;stroke-miterlimit:2;">
    <g transform="matrix(1,0,0,1,-754.330994,-716.630981)">
        <path d="M1092.2,956.875C1092.2,1050.17 1016.56,1125.81 923.264,1125.81C829.965,1125.81 754.331,1050.17 754.331,956.875C754.331,863.575 829.965,787.941 923.264,787.941C1016.56,787.941 1092.2,863.575 1092.2,956.875Z" style="fill:rgb(125,13,152);fill-rule:nonzero;"/>
        <path d="M923.264,787.185C917.79,787.185 912.38,787.456 907.039,787.964C878.444,818.225 860.906,859.045 860.906,903.964C860.906,997.265 936.541,1072.9 1029.839,1072.9C1035.31,1072.9 1040.72,1072.63 1046.069,1072.12C1074.66,1041.86 1092.2,1001.04 1092.2,956.119C1092.2,862.82 1016.56,787.185 923.264,787.185Z" style="fill:rgb(168,18,204);fill-rule:nonzero;"/>
        <path d="M824.872,1085.86C823.527,1086.49 821.439,1087.57 818.818,1088.9C827.634,1095.85 837.161,1101.93 847.267,1107.02C900.634,1075.86 954.314,1045.2 1008.08,1014.7C1035.73,999.026 1063.77,984.026 1091.72,968.891C1092.03,964.675 1092.2,960.416 1092.2,956.119C1092.2,951.746 1092.03,947.411 1091.71,943.121C1043.949,962.399 1001.18,990.826 956.038,1016.09C912.985,1040.181 869.436,1064.72 824.872,1085.86Z" style="fill:rgb(32,78,132);fill-rule:nonzero;"/>
        <path d="M758.809,917.342C775.038,912.206 790.824,905.005 806.797,899.027C850.531,882.657 893.305,864.9 936.415,846.859C958.307,837.697 980.152,829.471 1002.41,821.35C1005.14,820.354 1011.77,818.64 1018.25,816.404C1010.1,810.857 1001.45,806.004 992.376,801.929C988.544,802.391 984.645,803.022 980.646,803.778C943.166,810.857 906.268,818.224 870.701,832.498C849.11,841.163 827.83,849.997 805.858,857.627C796.584,860.847 787.642,863.958 778.998,868.184C769.833,883.189 762.945,899.734 758.809,917.342Z" style="fill:rgb(32,78,132);fill-rule:nonzero;"/>
        <path d="M941.891,881.21C885.858,906.491 830.028,929.627 771.826,949.664C767.455,951.169 761.102,953.411 754.345,954.94C754.343,955.333 754.331,955.725 754.331,956.119C754.331,967.507 755.465,978.628 757.613,989.383C817.528,957.148 881.25,933.644 944.387,908.264C983.683,892.468 1022.36,876.797 1059.24,855.87C1055.1,850.271 1050.64,844.934 1045.86,839.894C1036.62,842.653 1027.56,846.153 1018.87,849.485C993.188,859.34 966.954,869.902 941.891,881.21Z" style="fill:rgb(32,78,132);fill-rule:nonzero;"/>
        <path d="M1022.8,919.016C965.637,949.823 910.136,983.704 849.692,1008.02C824.77,1018.05 799.321,1028.49 772.607,1032.62C778.38,1043.96 785.4,1054.57 793.481,1064.26C826.254,1044.63 859.946,1026.14 893.525,1008.01C941.836,981.921 991.507,958.752 1040.75,934.566C1056.27,926.945 1071.02,917.772 1085.18,907.833C1083.56,902.383 1081.67,897.05 1079.53,891.846C1077.7,892.634 1075.97,893.389 1074.36,894.055C1056.69,901.372 1039.65,909.932 1022.8,919.016Z" style="fill:rgb(32,78,132);fill-rule:nonzero;"/>
        <path d="M988.771,810.013L986.755,810.013C971.734,815.398 956.291,818.475 940.302,821.238C918.091,825.074 895.953,831.245 874.394,837.736C868.764,839.432 817.286,858.007 824.087,868.864C829.385,877.32 873.099,855.4 880.062,852.841C917.707,839.003 955.373,824.696 993.733,813.956C994.486,810.562 991.815,809.302 988.771,810.013Z" style="fill:rgb(45,112,178);fill-rule:nonzero;"/>
        <path d="M1025.9,863.141L1023.95,863.286C1009.81,869.117 995.117,872.941 979.871,876.526C958.694,881.505 937.74,888.54 917.365,895.816C912.044,897.716 863.596,917.807 870.869,926.906C876.535,933.996 917.273,911.508 923.824,908.748C959.237,893.831 994.64,878.5 1030.949,866.268C1031.449,863.217 1028.79,862.296 1025.9,863.141Z" style="fill:rgb(45,112,178);fill-rule:nonzero;"/>
        <path d="M911.306,990.055C944.411,971.729 978.586,955.709 1012.54,939.456C1018.82,936.45 1060.84,920.646 1061,912.899C1061.21,902.955 1014.94,925.362 1010.02,927.99C991.215,938.051 972.123,948.641 954.011,960.501C940.973,969.039 928.199,977.07 914.713,983.628L913.223,984.887C910.66,986.415 909.245,988.745 911.306,990.055Z" style="fill:rgb(45,112,178);fill-rule:nonzero;"/>
        <path d="M902.237,1061.6C935.341,1043.28 969.517,1027.26 1003.47,1011C1009.75,1008 1051.77,992.193 1051.93,984.447C1052.14,974.502 1005.87,996.91 1000.95,999.537C982.146,1009.6 963.054,1020.19 944.942,1032.051C931.904,1040.59 919.13,1048.62 905.643,1055.17L904.154,1056.43C901.591,1057.96 900.176,1060.29 902.237,1061.6Z" style="fill:rgb(45,112,178);fill-rule:nonzero;"/>
        <path d="M1019.6,1142.46C1003.49,1142.46 986.592,1128.42 985.827,1127.78C984.388,1126.57 984.203,1124.42 985.412,1122.98C986.621,1121.55 988.767,1121.36 990.204,1122.57C990.382,1122.72 1008.3,1137.58 1022.4,1135.46C1027.04,1134.75 1030.68,1132.27 1033.53,1127.86C1039.26,1118.97 1043.77,1099.84 1032.63,1059.18C1021.18,1017.36 995.767,962.32 957.109,895.609C887.501,775.49 831.879,764.578 816.49,764.094C805.451,763.747 796.55,767.398 792.075,774.111C783.97,786.267 792.362,822.532 796.279,835.48C796.824,837.277 795.807,839.176 794.009,839.72C792.211,840.267 790.313,839.249 789.769,837.451C788.231,832.373 775.074,787.349 786.416,770.337C792.222,761.627 803.261,756.871 816.703,757.295C830.001,757.713 851.888,763.271 880.647,787.38C908.527,810.75 936.232,846.017 962.995,892.2C1001.95,959.417 1027.579,1014.99 1039.189,1057.39C1048.66,1091.97 1048.68,1116.92 1039.24,1131.55C1035.329,1137.61 1030,1141.19 1023.4,1142.18C1022.15,1142.37 1020.88,1142.46 1019.6,1142.46Z" style="fill:rgb(235,83,192);fill-rule:nonzero;"/>
        <path d="M1005.31,1180.74C1000.17,1180.74 995.178,1179.41 990.379,1176.76C969.048,1164.96 959.147,1130.33 958.736,1128.87C957.948,1126.05 959.59,1123.13 962.404,1122.35C962.879,1122.21 963.358,1122.15 963.829,1122.15C966.144,1122.15 968.27,1123.68 968.924,1126.01C969.013,1126.33 978.059,1157.87 995.514,1167.51C998.717,1169.27 1001.96,1170.16 1005.33,1170.16C1007.32,1170.16 1009.36,1169.85 1011.46,1169.23C1014.21,1168.41 1016.32,1165.09 1017.6,1162.45C1019.95,1157.61 1021.74,1150.78 1022.94,1142.25C1023.1,1142.23 1023.25,1142.21 1023.4,1142.18C1027.49,1141.57 1031.1,1139.96 1034.18,1137.38C1032.98,1149.11 1030.78,1159.54 1027.12,1167.08C1023.9,1173.7 1019.64,1177.84 1014.46,1179.37C1011.36,1180.28 1008.31,1180.74 1005.31,1180.74ZM1023.77,1135.19C1024.92,1123.25 1025.14,1108.72 1024.4,1092.2C1027.89,1089.59 1031.26,1086.86 1034.53,1083.99C1035.319,1097.24 1035.689,1111.64 1035.069,1125.15C1034.569,1126.14 1034.05,1127.05 1033.53,1127.86C1030.97,1131.83 1027.77,1134.23 1023.77,1135.19Z" style="fill:rgb(180,74,165);fill-rule:nonzero;"/>
        <path d="M1024.4,1092.2C1024.13,1085.99 1023.71,1079.5 1023.17,1072.77C1025.38,1072.85 1027.61,1072.9 1029.839,1072.9C1031.15,1072.9 1032.459,1072.88 1033.76,1072.85C1034.04,1076.44 1034.3,1080.17 1034.53,1083.99C1031.26,1086.86 1027.89,1089.59 1024.4,1092.2Z" style="fill:rgb(202,62,180);fill-rule:nonzero;"/>
        <path d="M1029.839,1072.9C1027.61,1072.9 1025.38,1072.85 1023.17,1072.77C1022.53,1064.85 1021.7,1056.6 1020.68,1048.061C1019.2,1035.61 1017.36,1023.05 1015.24,1010.67C1015.33,1010.61 1015.43,1010.56 1015.52,1010.51C1022.82,1028.09 1028.49,1044.161 1032.49,1058.65C1032.92,1063 1033.36,1067.78 1033.76,1072.85C1032.459,1072.88 1031.15,1072.9 1029.839,1072.9Z" style="fill:rgb(215,63,196);fill-rule:nonzero;"/>
        <path d="M1015.24,1010.67C1015.16,1010.19 1015.08,1009.72 1014.99,1009.25C1015.17,1009.67 1015.35,1010.09 1015.52,1010.51C1015.43,1010.56 1015.33,1010.61 1015.24,1010.67Z" style="fill:rgb(174,81,174);fill-rule:nonzero;"/>
        <path d="M1028.069,1023.68C1026.04,1018.33 1023.85,1012.82 1021.49,1007.17C1022.68,1006.5 1023.87,1005.84 1025.06,1005.18C1026.13,1011.29 1027.14,1017.47 1028.069,1023.68Z" style="fill:rgb(215,63,196);fill-rule:nonzero;"/>
        <path d="M1021.49,1007.17C1021.04,1006.09 1020.59,1005.01 1020.13,1003.92C1021.56,1003.31 1023.02,1002.67 1024.49,1002.01C1024.68,1003.07 1024.87,1004.12 1025.06,1005.18C1023.87,1005.84 1022.68,1006.5 1021.49,1007.17Z" style="fill:rgb(174,81,174);fill-rule:nonzero;"/>
        <path d="M1011.31,984.017C1010.62,982.531 1009.93,981.042 1009.22,979.539C1007.25,970.402 1005.14,961.508 1002.92,952.984C1006.17,951.408 1009.43,949.831 1012.68,948.254C1015.28,958.077 1017.73,968.386 1019.99,979.016C1017.09,980.671 1014.2,982.342 1011.31,984.017Z" style="fill:rgb(215,63,196);fill-rule:nonzero;"/>
        <path d="M1015.27,992.749C1013.99,989.875 1012.67,986.962 1011.31,984.017C1014.2,982.342 1017.09,980.671 1019.99,979.016C1020.74,982.564 1021.48,986.146 1022.19,989.761C1019.81,990.755 1017.47,991.768 1015.27,992.749Z" style="fill:rgb(174,81,174);fill-rule:nonzero;"/>
        <path d="M997.309,932.964C994.207,922.721 990.96,913.281 987.635,904.931C985.965,900.738 984.309,896.639 982.668,892.632C985.921,891.265 989.167,889.886 992.405,888.493C994.088,892.598 995.774,896.771 997.465,901.017C1000.69,909.116 1003.82,918.081 1006.8,927.727C1003.64,929.467 1000.47,931.214 997.309,932.964Z" style="fill:rgb(215,63,196);fill-rule:nonzero;"/>
        <path d="M982.668,892.632C981.672,890.203 980.677,887.794 979.692,885.432C982.963,884.112 986.24,882.804 989.519,881.511C990.48,883.815 991.442,886.142 992.405,888.493C989.167,889.886 985.921,891.265 982.668,892.632Z" style="fill:rgb(174,81,174);fill-rule:nonzero;"/>
        <path d="M972.281,868.053C967.559,857.24 962.961,847.205 958.49,837.907C961.78,836.612 965.07,835.332 968.367,834.063C972.892,843.494 977.456,853.48 982.059,864.022C978.794,865.354 975.534,866.698 972.281,868.053Z" style="fill:rgb(215,63,196);fill-rule:nonzero;"/>
        <path d="M958.49,837.907C956.62,834.02 954.769,830.253 952.943,826.619C956.32,825.482 959.697,824.364 963.081,823.264C964.837,826.778 966.599,830.378 968.367,834.063C965.07,835.332 961.78,836.612 958.49,837.907Z" style="fill:rgb(174,81,174);fill-rule:nonzero;"/>
        <path d="M976.303,877.385C974.949,874.205 973.614,871.107 972.281,868.053C975.534,866.698 978.794,865.354 982.059,864.022C983.611,867.577 985.171,871.201 986.731,874.881C984.457,875.439 982.171,875.985 979.871,876.526C978.681,876.806 977.492,877.092 976.303,877.385Z" style="fill:rgb(174,81,174);fill-rule:nonzero;"/>
        <path d="M944.269,788.478C939.977,787.946 935.627,787.574 931.241,787.37C902.284,740.486 879.974,727.223 864.009,727.223C862.484,727.223 861.018,727.344 859.608,727.568C847.683,729.465 841.736,744.725 839.009,761.942C835.372,760.61 831.98,759.625 828.846,758.913C833.117,733.562 842.89,719.513 857.946,717.117C859.985,716.793 862.04,716.631 864.108,716.631C874.007,716.631 884.217,720.342 894.541,727.71C905.771,735.724 917.489,748.355 929.369,765.249C934.263,772.209 939.233,779.959 944.269,788.478Z" style="fill:rgb(180,74,165);fill-rule:nonzero;"/>
        <path d="M944.772,810.9C940.111,802.249 935.6,794.427 931.241,787.37C935.627,787.574 939.977,787.946 944.269,788.478C947.996,794.783 951.759,801.508 955.557,808.652C951.955,809.383 948.359,810.13 944.772,810.9Z" style="fill:rgb(215,63,196);fill-rule:nonzero;"/>
        <path d="M949.372,819.613C947.823,816.619 946.289,813.715 944.772,810.9C948.359,810.13 951.955,809.383 955.557,808.652C957.079,811.516 958.609,814.451 960.142,817.449C956.579,818.222 952.989,818.936 949.372,819.613Z" style="fill:rgb(174,81,174);fill-rule:nonzero;"/>
        <path d="M1002.92,952.984C1002.23,950.307 1001.52,947.664 1000.8,945.064C1004.05,943.513 1007.3,941.963 1010.54,940.411C1011.26,942.988 1011.98,945.604 1012.68,948.254C1009.43,949.831 1006.17,951.408 1002.92,952.984ZM997.799,934.596C997.636,934.049 997.473,933.507 997.309,932.964C1000.47,931.214 1003.64,929.467 1006.8,927.727C1006.98,928.292 1007.15,928.864 1007.33,929.434C1004.16,931.138 1000.98,932.857 997.799,934.596Z" style="fill:rgb(174,81,174);fill-rule:nonzero;"/>
        <path d="M952.943,826.619C951.743,824.228 950.554,821.897 949.372,819.613C952.989,818.936 956.579,818.222 960.142,817.449C961.12,819.361 962.099,821.297 963.081,823.264C959.697,824.364 956.32,825.482 952.943,826.619Z" style="fill:rgb(178,92,188);fill-rule:nonzero;"/>
        <path d="M979.692,885.432C978.555,882.704 977.426,880.025 976.303,877.385C977.492,877.092 978.681,876.806 979.871,876.526C982.171,875.985 984.457,875.439 986.731,874.881C987.659,877.069 988.589,879.279 989.519,881.511C986.24,882.804 982.963,884.112 979.692,885.432Z" style="fill:rgb(178,92,188);fill-rule:nonzero;"/>
        <path d="M1000.8,945.064C999.819,941.494 998.818,938.003 997.799,934.596C1000.98,932.857 1004.16,931.138 1007.33,929.434C1008.42,933.007 1009.49,936.668 1010.54,940.411C1007.3,941.963 1004.05,943.513 1000.8,945.064Z" style="fill:rgb(178,92,188);fill-rule:nonzero;"/>
        <path d="M1020.13,1003.92C1018.58,1000.26 1016.96,996.537 1015.27,992.749C1017.47,991.768 1019.81,990.755 1022.19,989.761C1022.99,993.81 1023.75,997.893 1024.49,1002.01C1023.02,1002.67 1021.56,1003.31 1020.13,1003.92Z" style="fill:rgb(178,92,188);fill-rule:nonzero;"/>
        <path d="M832.317,812.28C829.597,812.28 827.289,810.199 827.053,807.442C826.982,806.609 825.335,786.822 827.828,766.021C827.838,765.937 827.848,765.853 827.858,765.769C830.872,766.51 834.285,767.557 838.07,769.03C836.518,783.324 836.858,797.885 837.596,806.539C837.843,809.451 835.686,812.012 832.776,812.26C832.622,812.273 832.469,812.28 832.317,812.28Z" style="fill:rgb(180,74,165);fill-rule:nonzero;"/>
        <path d="M1022.94,1142.25C1023.26,1140.01 1023.54,1137.66 1023.77,1135.19C1027.77,1134.23 1030.97,1131.83 1033.53,1127.86C1034.05,1127.05 1034.569,1126.14 1035.069,1125.15C1034.87,1129.33 1034.579,1133.43 1034.18,1137.38C1031.1,1139.96 1027.49,1141.57 1023.4,1142.18C1023.25,1142.21 1023.1,1142.23 1022.94,1142.25ZM1032.49,1058.65C1028.49,1044.161 1022.82,1028.09 1015.52,1010.51C1015.35,1010.09 1015.17,1009.67 1014.99,1009.25C1013.25,999.174 1011.31,989.221 1009.22,979.539C1009.93,981.042 1010.62,982.531 1011.31,984.017C1012.67,986.962 1013.99,989.875 1015.27,992.749C1016.96,996.537 1018.58,1000.26 1020.13,1003.92C1020.59,1005.01 1021.04,1006.09 1021.49,1007.17C1023.85,1012.82 1026.04,1018.33 1028.069,1023.68C1029.22,1031.35 1030.26,1039.08 1031.189,1046.811C1031.589,1050.2 1032.04,1054.2 1032.49,1058.65ZM838.07,769.03C834.285,767.557 830.872,766.51 827.858,765.769C828.146,763.399 828.475,761.113 828.846,758.913C831.98,759.625 835.372,760.61 839.009,761.942C838.639,764.277 838.328,766.652 838.07,769.03Z" style="fill:rgb(235,83,192);fill-rule:nonzero;"/>
    </g>
</svg>
