<?xml version="1.0" encoding="UTF-8" standalone="no"?>
<!DOCTYPE svg PUBLIC "-//W3C//DTD SVG 1.1//EN" "http://www.w3.org/Graphics/SVG/1.1/DTD/svg11.dtd">
<svg width="100%" height="100%" viewBox="0 0 340 341" version="1.1" xmlns="http://www.w3.org/2000/svg" xmlns:xlink="http://www.w3.org/1999/xlink" xml:space="preserve" xmlns:serif="http://www.serif.com/" style="fill-rule:evenodd;clip-rule:evenodd;stroke-linejoin:round;stroke-miterlimit:2;">
    <g transform="matrix(1,0,0,1,-2400.830078,-1476.960022)">
        <path d="M2738.7,1645.89C2738.7,1739.19 2663.06,1814.82 2569.76,1814.82C2476.46,1814.82 2400.83,1739.19 2400.83,1645.89C2400.83,1552.59 2476.46,1476.96 2569.76,1476.96C2663.06,1476.96 2738.7,1552.59 2738.7,1645.89Z" style="fill:rgb(7,145,145);fill-rule:nonzero;"/>
        <path d="M2476.3,1615.88C2487.31,1586.49 2490.29,1573.56 2519,1559.62C2531.34,1553.63 2547.47,1540.83 2534.49,1526.33C2523.1,1513.61 2513.07,1512.73 2495.23,1520.48L2484.23,1528.21C2455.79,1543.61 2397.61,1604.28 2430.95,1637.46C2452.03,1658.42 2468.9,1635.67 2476.3,1615.88Z" style="fill:rgb(16,252,245);fill-rule:nonzero;"/>
        <path d="M2511.9,1587.55L2499.88,1590.65C2457.63,1609.26 2519.31,1722.48 2576.05,1673.4C2618.26,1636.88 2550.67,1567.39 2511.9,1587.55Z" style="fill:rgb(16,252,245);fill-rule:nonzero;"/>
        <path d="M2518.62,1692.32C2514.55,1679.44 2503.64,1680.61 2495.91,1671.53C2489.55,1664.05 2493.88,1644.39 2484.19,1643.95L2471.2,1648.03C2448.32,1655.79 2440.3,1667.75 2437.3,1690.8C2434.64,1711.27 2458.13,1731.29 2476.64,1735.81C2501.58,1741.9 2526.6,1717.61 2518.62,1692.32Z" style="fill:rgb(16,252,245);fill-rule:nonzero;"/>
        <path d="M2511.44,1499.49L2515.98,1499.49C2527.95,1498.3 2539.44,1503.02 2546.58,1513.06C2555.76,1525.96 2547.61,1533.68 2549.27,1546.43C2551.87,1566.33 2590.81,1569.82 2608.22,1563.02C2627.6,1555.46 2643.66,1526.58 2624.47,1510.45C2609.23,1497.65 2573.77,1492.23 2555.28,1488.84C2537.05,1485.49 2526.21,1490.16 2510.16,1496.76C2508.8,1499.28 2511.28,1498.52 2511.44,1499.49Z" style="fill:rgb(16,252,245);fill-rule:nonzero;"/>
        <path d="M2626.66,1697.1C2616.26,1691.14 2604.45,1694.29 2593.21,1697.44C2581.8,1700.63 2570.98,1703.82 2562.83,1697.51L2556.1,1691.84C2540.74,1681.97 2539.69,1706.89 2537.13,1715.64C2533.01,1729.72 2528.59,1731.66 2515.98,1736.84C2487.14,1748.69 2487.72,1765.09 2515.98,1780.27C2542.39,1794.46 2558.64,1796.05 2588.53,1794.25C2617.1,1792.52 2633.05,1785.76 2641.39,1756.38C2646.97,1736.74 2647.69,1709.16 2626.66,1697.1Z" style="fill:rgb(16,252,245);fill-rule:nonzero;"/>
        <path d="M2595.65,1581.35C2583.63,1580.96 2566.18,1579.02 2566.18,1579.02C2544.86,1583.68 2623.15,1622.86 2635.39,1629.49C2657.96,1641.72 2681.33,1645.93 2698.83,1623.44C2713.56,1604.52 2707.48,1575.39 2691.69,1558.07C2686.13,1551.97 2674.91,1542.92 2667.21,1540.31C2648.71,1534.02 2648.71,1546.72 2644.5,1559.99C2636.5,1585.19 2624.33,1582.27 2595.65,1581.35Z" style="fill:rgb(16,252,245);fill-rule:nonzero;"/>
        <path d="M2664.11,1661.27C2657.36,1662.07 2651.43,1658.43 2645.78,1654.78C2639.17,1650.51 2632.95,1646.24 2626.32,1649.14L2615.03,1650.75C2601.19,1655.8 2610.66,1671.03 2620.27,1677.86C2630.04,1684.8 2642.99,1682.91 2653.52,1688.86C2666.24,1696.04 2667.97,1705.71 2667.21,1720.18C2666.59,1732.02 2659.66,1749.81 2677.71,1745.87C2702.89,1740.39 2706.37,1691.07 2708.28,1671.81C2712.69,1627.43 2686.43,1658.61 2664.11,1661.27Z" style="fill:rgb(16,252,245);fill-rule:nonzero;"/>
        <path d="M2453.28,1569.83C2439.2,1585.19 2424.94,1602.7 2436.28,1609.5C2447.61,1616.3 2461.22,1597.03 2470.29,1583.43C2479.36,1569.83 2498.63,1548.29 2489.56,1547.15C2480.49,1546.02 2465.75,1556.22 2453.28,1569.83Z" style="fill:rgb(151,252,104);fill-rule:nonzero;"/>
        <path d="M2546.71,1642.08C2536.84,1650.55 2531.6,1656.7 2537.14,1664.25C2542.68,1671.81 2553.76,1675.84 2564.35,1669.29C2574.93,1662.74 2586.01,1646.62 2577.95,1639.06C2569.89,1631.5 2557.29,1633.01 2546.71,1642.08Z" style="fill:rgb(151,252,104);fill-rule:nonzero;"/>
        <path d="M2455.01,1677.35C2446.25,1680.69 2444.43,1687.93 2448.46,1699.02C2452.49,1710.1 2461.56,1722.7 2472.64,1719.17C2483.73,1715.65 2486.25,1703.55 2481.21,1695.49C2476.17,1687.43 2465.59,1673.32 2455.01,1677.35Z" style="fill:rgb(151,252,104);fill-rule:nonzero;"/>
        <path d="M2585,1741.34C2570.29,1748.7 2551.75,1756.46 2553.26,1769.56C2554.77,1782.66 2597.1,1792.23 2613.22,1780.64C2629.34,1769.05 2641.44,1744.37 2636.4,1735.8C2631.36,1727.24 2600.12,1733.78 2585,1741.34Z" style="fill:rgb(151,252,104);fill-rule:nonzero;"/>
        <path d="M2672.17,1561.97C2660.82,1561.39 2648.99,1580.61 2647.48,1592.71C2645.97,1604.8 2647.99,1628.48 2662.6,1627.98C2677.21,1627.47 2690.31,1622.43 2694.34,1604.8C2698.37,1587.16 2691.82,1562.98 2672.17,1561.97Z" style="fill:rgb(151,252,104);fill-rule:nonzero;"/>
        <path d="M2694.84,1663.25C2684.18,1661.11 2679.53,1669.5 2675.19,1678.36C2670.86,1687.23 2667.13,1731.77 2674.69,1731.27C2682.25,1730.76 2694.34,1711.11 2698.87,1694.48C2703.41,1677.86 2704.92,1665.26 2694.84,1663.25Z" style="fill:rgb(151,252,104);fill-rule:nonzero;"/>
        <path d="M2573.41,1515.62C2568.74,1527.31 2572.91,1547.36 2586.52,1549.38C2600.12,1551.39 2618.26,1548.37 2619.77,1535.27C2621.28,1522.17 2614.23,1507.56 2598.1,1506.04C2581.98,1504.53 2577.44,1505.54 2573.41,1515.62Z" style="fill:rgb(151,252,104);fill-rule:nonzero;"/>
        <path d="M2571.65,1817.13C2554.85,1817.13 2537.96,1814.63 2521.57,1809.52C2522.12,1809.13 2522.67,1808.73 2523.21,1808.33C2538,1812.56 2553.62,1814.82 2569.76,1814.82C2584.9,1814.82 2599.57,1812.83 2613.54,1809.1C2614.25,1809.84 2614.96,1810.59 2615.66,1811.33C2601.33,1815.17 2586.53,1817.13 2571.65,1817.13ZM2673.17,1783.38C2673.18,1782.97 2673.18,1782.56 2673.18,1782.16C2673.18,1781.23 2673.19,1780.33 2673.22,1779.45C2675.56,1777.63 2677.86,1775.75 2680.1,1773.81C2680.96,1774.47 2681.75,1775.15 2682.49,1775.86C2679.46,1778.49 2676.35,1781 2673.17,1783.38ZM2460.15,1774.98C2454.03,1769.6 2448.38,1763.86 2443.21,1757.8C2448.46,1763.73 2454.11,1769.29 2460.14,1774.43C2460.15,1774.62 2460.15,1774.8 2460.15,1774.98ZM2738.69,1644.46C2738.65,1639.9 2738.43,1635.36 2738.04,1630.89C2738.6,1630.5 2739.17,1630.11 2739.73,1629.72C2740.01,1632.21 2740.23,1634.72 2740.39,1637.23C2740.13,1639.89 2739.54,1642.3 2738.69,1644.46ZM2724.97,1576.84C2724.63,1576.82 2724.29,1576.8 2723.96,1576.78C2716.85,1560.95 2707.38,1546.41 2695.99,1533.62C2695.99,1533.61 2695.99,1533.61 2696,1533.61C2708.02,1546.61 2717.71,1561.24 2724.97,1576.84Z" style="fill:rgb(83,114,102);fill-rule:nonzero;"/>
        <path d="M2615.66,1811.33C2614.96,1810.59 2614.25,1809.84 2613.54,1809.1C2635.52,1803.21 2655.74,1793.01 2673.22,1779.45C2673.19,1780.33 2673.18,1781.23 2673.18,1782.16C2673.18,1782.56 2673.18,1782.97 2673.17,1783.38C2655.78,1796.42 2636.21,1805.81 2615.66,1811.33ZM2521.57,1809.52C2505.84,1804.62 2490.56,1797.31 2476.26,1787.51C2470.58,1783.61 2465.2,1779.42 2460.15,1774.98C2460.15,1774.8 2460.15,1774.62 2460.14,1774.43C2478.26,1789.9 2499.68,1801.6 2523.21,1808.33C2522.67,1808.73 2522.12,1809.13 2521.57,1809.52ZM2738.04,1630.89C2736.36,1611.76 2731.49,1593.55 2723.96,1576.78C2724.29,1576.8 2724.63,1576.82 2724.97,1576.84C2732.75,1593.59 2737.72,1611.46 2739.73,1629.72C2739.17,1630.11 2738.6,1630.5 2738.04,1630.89ZM2695.99,1533.62C2695.87,1533.48 2695.75,1533.35 2695.63,1533.22C2695.75,1533.35 2695.88,1533.48 2696,1533.61C2695.99,1533.61 2695.99,1533.61 2695.99,1533.62Z" style="fill:rgb(90,126,111);fill-rule:nonzero;"/>
        <path d="M2569.76,1814.82C2553.62,1814.82 2538,1812.56 2523.21,1808.33C2499.68,1801.6 2478.26,1789.9 2460.14,1774.43C2454.11,1769.29 2448.46,1763.73 2443.21,1757.8C2394.85,1701.13 2388.34,1617.01 2432.49,1552.64C2465.23,1504.9 2518.14,1479.24 2571.96,1479.24C2604.88,1479.24 2638.15,1488.84 2667.35,1508.87C2677.86,1516.08 2687.3,1524.26 2695.63,1533.22C2695.75,1533.35 2695.87,1533.48 2695.99,1533.62C2707.38,1546.41 2716.85,1560.95 2723.96,1576.78C2731.49,1593.55 2736.36,1611.76 2738.04,1630.89C2738.43,1635.36 2738.65,1639.9 2738.69,1644.46C2733.58,1657.52 2719.08,1662.01 2708.77,1662.81C2708.72,1651.78 2705.6,1648.16 2700.68,1648.16C2695.6,1648.16 2688.61,1651.99 2681.07,1655.54C2673.58,1651.24 2666.47,1645.36 2659.7,1638.7C2662.54,1639.21 2665.36,1639.49 2668.14,1639.49C2679.32,1639.49 2689.85,1634.99 2698.83,1623.44C2713.56,1604.52 2707.48,1575.39 2691.69,1558.07C2686.13,1551.97 2674.91,1542.92 2667.21,1540.31C2663.85,1539.16 2661.1,1538.65 2658.82,1538.65C2648.57,1538.65 2647.94,1549.13 2644.5,1559.99C2638.53,1578.8 2630.23,1581.95 2614.48,1581.95C2613.25,1581.95 2611.97,1581.93 2610.64,1581.89C2610.41,1581.66 2610.18,1581.44 2609.95,1581.21C2604.64,1576.05 2599.23,1570.85 2593.65,1565.99C2599.17,1565.59 2604.26,1564.57 2608.22,1563.02C2627.6,1555.46 2643.66,1526.58 2624.47,1510.45C2609.23,1497.65 2573.77,1492.23 2555.28,1488.84C2551.11,1488.07 2547.33,1487.73 2543.79,1487.73C2531.83,1487.73 2522.55,1491.67 2510.16,1496.76C2508.8,1499.28 2511.28,1498.52 2511.44,1499.49L2515.98,1499.49C2517.19,1499.37 2518.4,1499.31 2519.6,1499.31C2530.23,1499.31 2540.16,1504.04 2546.58,1513.06C2554.66,1524.41 2549.32,1531.75 2549.05,1542.04C2546.37,1541.63 2543.63,1541.42 2540.83,1541.42C2540.09,1541.42 2539.35,1541.44 2538.61,1541.47C2540.11,1536.83 2539.29,1531.69 2534.49,1526.33C2527.85,1518.91 2521.67,1515.52 2514.13,1515.52C2508.74,1515.52 2502.67,1517.25 2495.23,1520.48L2484.23,1528.21C2455.79,1543.61 2397.61,1604.28 2430.95,1637.46C2435.61,1642.09 2440.06,1644.58 2444.25,1645.45C2443.42,1653.07 2443.48,1660.36 2444.35,1667.32C2440.66,1673.56 2438.55,1681.23 2437.3,1690.8C2434.64,1711.27 2458.13,1731.29 2476.64,1735.81C2479.27,1736.45 2481.91,1736.76 2484.51,1736.76C2486.59,1736.76 2488.64,1736.56 2490.65,1736.19C2494.69,1738.84 2498.91,1741.32 2503.3,1743.62C2488.24,1754.53 2492.78,1767.81 2515.98,1780.27C2536.92,1791.52 2551.47,1794.85 2571.5,1794.85C2576.73,1794.85 2582.34,1794.62 2588.53,1794.25C2614.7,1792.67 2630.28,1786.86 2639.12,1763.32C2646.82,1763.7 2654.42,1764.52 2661.88,1766.07C2669.65,1767.68 2675.65,1770.38 2680.1,1773.81C2677.86,1775.75 2675.56,1777.63 2673.22,1779.45C2655.74,1793.01 2635.52,1803.21 2613.54,1809.1C2599.57,1812.83 2584.9,1814.82 2569.76,1814.82Z" style="fill:rgb(50,177,133);fill-rule:nonzero;"/>
        <path d="M2444.25,1645.45C2440.06,1644.58 2435.61,1642.09 2430.95,1637.46C2397.61,1604.28 2455.79,1543.61 2484.23,1528.21L2495.23,1520.48C2502.67,1517.25 2508.74,1515.52 2514.13,1515.52C2521.67,1515.52 2527.85,1518.91 2534.49,1526.33C2539.29,1531.69 2540.11,1536.83 2538.61,1541.47C2533.13,1541.69 2527.43,1542.72 2521.47,1544.74C2503.22,1550.9 2486.49,1563.43 2473.36,1579.01C2483.02,1565.61 2497.69,1548.17 2489.56,1547.15C2489.1,1547.1 2488.62,1547.07 2488.13,1547.07C2478.99,1547.07 2465.12,1556.92 2453.28,1569.83C2439.2,1585.19 2424.94,1602.7 2436.28,1609.5C2437.9,1610.47 2439.56,1610.91 2441.26,1610.91C2447.73,1610.91 2454.59,1604.48 2460.73,1596.79C2456.7,1603.59 2453.34,1610.67 2450.77,1617.84C2447.33,1627.47 2445.2,1636.68 2444.25,1645.45Z" style="fill:rgb(57,252,202);fill-rule:nonzero;"/>
        <path d="M2484.51,1736.76C2481.91,1736.76 2479.27,1736.45 2476.64,1735.81C2458.13,1731.29 2434.64,1711.27 2437.3,1690.8C2438.55,1681.23 2440.66,1673.56 2444.35,1667.32C2445.02,1672.79 2446.2,1678.06 2447.82,1683.11C2445.72,1686.99 2446.02,1692.3 2448.46,1699.02C2452.02,1708.81 2459.51,1719.78 2468.85,1719.78C2469.36,1719.78 2469.87,1719.74 2470.4,1719.68C2476.38,1725.77 2483.19,1731.29 2490.65,1736.19C2488.64,1736.56 2486.59,1736.76 2484.51,1736.76Z" style="fill:rgb(57,252,202);fill-rule:nonzero;"/>
        <path d="M2593.65,1565.99C2580.16,1554.26 2565.65,1544.52 2549.05,1542.04C2549.32,1531.75 2554.66,1524.41 2546.58,1513.06C2540.16,1504.04 2530.23,1499.31 2519.6,1499.31C2518.4,1499.31 2517.19,1499.37 2515.98,1499.49L2511.44,1499.49C2511.28,1498.52 2508.8,1499.28 2510.16,1496.76C2522.55,1491.67 2531.83,1487.73 2543.79,1487.73C2547.33,1487.73 2551.11,1488.07 2555.28,1488.84C2573.77,1492.23 2609.23,1497.65 2624.47,1510.45C2643.66,1526.58 2627.6,1555.46 2608.22,1563.02C2604.26,1564.57 2599.17,1565.59 2593.65,1565.99ZM2588.66,1505.48C2579.91,1505.48 2576.51,1507.87 2573.41,1515.62C2568.74,1527.31 2572.91,1547.36 2586.52,1549.38C2589.01,1549.74 2591.65,1549.94 2594.32,1549.94C2606.21,1549.95 2618.53,1545.97 2619.77,1535.27C2621.28,1522.17 2614.23,1507.56 2598.1,1506.04C2594.38,1505.7 2591.28,1505.48 2588.66,1505.48Z" style="fill:rgb(57,252,202);fill-rule:nonzero;"/>
        <path d="M2571.5,1794.85C2551.47,1794.85 2536.92,1791.52 2515.98,1780.27C2492.78,1767.81 2488.24,1754.53 2503.3,1743.62C2518.97,1751.81 2536.71,1757.7 2555.22,1761.12C2553.66,1763.68 2552.9,1766.47 2553.26,1769.56C2554.3,1778.53 2574.47,1785.85 2592.26,1785.85C2600.45,1785.85 2608.14,1784.3 2613.22,1780.64C2619.45,1776.17 2625.07,1769.74 2629.34,1763.04C2632.62,1763.07 2635.88,1763.16 2639.12,1763.32C2630.28,1786.86 2614.7,1792.67 2588.53,1794.25C2582.34,1794.62 2576.73,1794.85 2571.5,1794.85Z" style="fill:rgb(57,252,202);fill-rule:nonzero;"/>
        <path d="M2668.14,1639.49C2665.36,1639.49 2662.54,1639.21 2659.7,1638.7C2641.19,1620.47 2625.18,1596.31 2610.64,1581.89C2611.97,1581.93 2613.25,1581.95 2614.48,1581.95C2630.23,1581.95 2638.53,1578.8 2644.5,1559.99C2647.94,1549.13 2648.57,1538.65 2658.82,1538.65C2661.1,1538.65 2663.85,1539.16 2667.21,1540.31C2674.91,1542.92 2686.13,1551.97 2691.69,1558.07C2707.48,1575.39 2713.56,1604.52 2698.83,1623.44C2689.85,1634.99 2679.32,1639.49 2668.14,1639.49ZM2671.66,1561.96C2660.47,1561.96 2648.97,1580.79 2647.48,1592.71C2645.99,1604.67 2647.95,1627.98 2662.14,1627.98L2662.6,1627.98C2677.21,1627.47 2690.31,1622.43 2694.34,1604.8C2698.37,1587.16 2691.82,1562.98 2672.17,1561.97C2672,1561.96 2671.83,1561.96 2671.66,1561.96Z" style="fill:rgb(57,252,202);fill-rule:nonzero;"/>
        <path d="M2705.37,1662.94C2703.95,1662.94 2702.67,1662.87 2701.57,1662.73C2694.42,1661.86 2687.6,1659.3 2681.07,1655.54C2688.61,1651.99 2695.6,1648.16 2700.68,1648.16C2705.6,1648.16 2708.72,1651.78 2708.77,1662.81C2707.57,1662.9 2706.43,1662.94 2705.37,1662.94Z" style="fill:rgb(57,252,202);fill-rule:nonzero;"/>
        <path d="M2441.26,1610.91C2439.56,1610.91 2437.9,1610.47 2436.28,1609.5C2424.94,1602.7 2439.2,1585.19 2453.28,1569.83C2465.12,1556.92 2478.99,1547.07 2488.13,1547.07C2488.62,1547.07 2489.1,1547.1 2489.56,1547.15C2497.69,1548.17 2483.02,1565.61 2473.36,1579.01C2468.66,1584.6 2464.42,1590.57 2460.73,1596.79C2454.59,1604.48 2447.73,1610.91 2441.26,1610.91Z" style="fill:rgb(151,252,104);fill-rule:nonzero;"/>
        <path d="M2468.85,1719.78C2459.51,1719.78 2452.02,1708.81 2448.46,1699.02C2446.02,1692.3 2445.72,1686.99 2447.82,1683.11C2452.27,1696.96 2460.1,1709.18 2470.4,1719.68C2469.87,1719.74 2469.36,1719.78 2468.85,1719.78Z" style="fill:rgb(151,252,104);fill-rule:nonzero;"/>
        <path d="M2592.26,1785.85C2574.47,1785.85 2554.3,1778.53 2553.26,1769.56C2552.9,1766.47 2553.66,1763.68 2555.22,1761.12C2555.27,1761.13 2555.31,1761.13 2555.36,1761.14C2566.18,1763.13 2577.3,1763.66 2588.53,1763.66C2594.74,1763.66 2600.97,1763.5 2607.21,1763.34C2613.45,1763.18 2619.69,1763.02 2625.9,1763.02C2627.05,1763.02 2628.2,1763.02 2629.34,1763.04C2625.07,1769.74 2619.45,1776.17 2613.22,1780.64C2608.14,1784.3 2600.45,1785.85 2592.26,1785.85Z" style="fill:rgb(151,252,104);fill-rule:nonzero;"/>
        <path d="M2662.14,1627.98C2647.95,1627.98 2645.99,1604.67 2647.48,1592.71C2648.97,1580.79 2660.47,1561.96 2671.66,1561.96C2671.83,1561.96 2672,1561.96 2672.17,1561.97C2691.82,1562.98 2698.37,1587.16 2694.34,1604.8C2690.31,1622.43 2677.21,1627.47 2662.6,1627.98L2662.14,1627.98Z" style="fill:rgb(151,252,104);fill-rule:nonzero;"/>
        <path d="M2594.32,1549.94C2591.65,1549.94 2589.01,1549.74 2586.52,1549.38C2572.91,1547.36 2568.74,1527.31 2573.41,1515.62C2576.51,1507.87 2579.91,1505.48 2588.66,1505.48C2591.28,1505.48 2594.38,1505.7 2598.1,1506.04C2614.23,1507.56 2621.28,1522.17 2619.77,1535.27C2618.53,1545.97 2606.21,1549.95 2594.32,1549.94Z" style="fill:rgb(151,252,104);fill-rule:nonzero;"/>
    </g>
</svg>
