<?xml version="1.0" encoding="UTF-8" standalone="no"?>
<!DOCTYPE svg PUBLIC "-//W3C//DTD SVG 1.1//EN" "http://www.w3.org/Graphics/SVG/1.1/DTD/svg11.dtd">
<svg width="100%" height="100%" viewBox="0 0 564 338" version="1.1" xmlns="http://www.w3.org/2000/svg" xmlns:xlink="http://www.w3.org/1999/xlink" xml:space="preserve" xmlns:serif="http://www.serif.com/" style="fill-rule:evenodd;clip-rule:evenodd;stroke-linejoin:round;stroke-miterlimit:2;">
    <g transform="matrix(1,0,0,1,-1736.076819,-1472.27002)">
        <path d="M2101.1,1641.31C2101.1,1734.61 2025.46,1810.24 1932.16,1810.24C1838.86,1810.24 1763.23,1734.61 1763.23,1641.31C1763.23,1548.01 1838.86,1472.37 1932.16,1472.37C2025.46,1472.37 2101.1,1548.01 2101.1,1641.31Z" style="fill:rgb(235,83,192);fill-rule:nonzero;"/>
        <path d="M1827.01,1569.35C1806.59,1589.77 1802.07,1608.65 1805.1,1623.77C1808.12,1638.88 1829.44,1649.8 1861.02,1641.91C1897.3,1632.84 1931.31,1589 1917.71,1569.35C1904.1,1549.7 1852.71,1543.66 1827.01,1569.35Z" style="fill:rgb(168,18,204);fill-rule:nonzero;"/>
        <path d="M1822.48,1584.47C1848.18,1558.77 1899.57,1564.82 1913.17,1584.47C1915.43,1587.72 1916.37,1591.64 1916.21,1595.96C1920.71,1586.1 1921.54,1576.73 1916.95,1570.11C1903.35,1550.46 1851.95,1544.41 1826.26,1570.11C1811.53,1584.83 1805.08,1598.76 1803.75,1611.05C1807.26,1602.64 1813.23,1593.71 1822.48,1584.47Z" style="fill:rgb(125,13,152);fill-rule:nonzero;"/>
        <path d="M2039.39,1670.63C2022.89,1659.95 1972.88,1669.11 1960.03,1689.52C1947.18,1709.93 1944.92,1729.58 1963.81,1740.91C1982.7,1752.25 2003.11,1741.67 2019.74,1727.31C2036.37,1712.95 2065.08,1687.25 2039.39,1670.63Z" style="fill:rgb(168,18,204);fill-rule:nonzero;"/>
        <path d="M1969.85,1702.37C1982.7,1681.96 2032.71,1672.8 2049.21,1683.48L2049.35,1683.57C2048.45,1678.93 2045.42,1674.53 2039.39,1670.63C2022.89,1659.95 1972.88,1669.11 1960.03,1689.52C1947.83,1708.9 1945.18,1727.59 1961.13,1739.14C1957.63,1728.58 1961.5,1715.64 1969.85,1702.37Z" style="fill:rgb(125,13,152);fill-rule:nonzero;"/>
        <path d="M1996.31,1530.05C1982.76,1535.47 1972.12,1556.5 1987.24,1577.67C2002.35,1598.83 2028.81,1611.68 2041.66,1604.87C2054.5,1598.07 2067.35,1566.33 2049.21,1548.19C2031.07,1530.05 2015.2,1522.49 1996.31,1530.05Z" style="fill:rgb(168,18,204);fill-rule:nonzero;"/>
        <path d="M2049.21,1547.44C2031.07,1529.3 2015.2,1521.74 1996.31,1529.3C1991.75,1531.12 1987.52,1534.72 1984.49,1539.49C2002.94,1532.61 2018.56,1540.21 2036.37,1558.02C2049.94,1571.59 2046.16,1592.79 2038.01,1605.44C2039.31,1605.14 2040.54,1604.71 2041.66,1604.12C2054.5,1597.32 2067.35,1565.57 2049.21,1547.44Z" style="fill:rgb(125,13,152);fill-rule:nonzero;"/>
        <path d="M1893.66,1741.87C1880.74,1735.21 1851.21,1730.24 1831.68,1741.03C1822.87,1745.9 1816.43,1753.75 1813.67,1761.68C1839.92,1787.43 1874.53,1804.65 1912.97,1808.95C1915.31,1805.76 1917.74,1801.77 1920.71,1796.75C1928.11,1784.26 1906.59,1748.53 1893.66,1741.87Z" style="fill:rgb(168,18,204);fill-rule:nonzero;"/>
        <path d="M1893.73,1741.67C1880.81,1735.01 1851.28,1730.04 1831.74,1740.83C1822.93,1745.7 1816.5,1753.56 1813.74,1761.49C1814.61,1762.34 1815.49,1763.19 1816.39,1764.02C1819.25,1760.93 1822.7,1758.17 1826.62,1756C1846.15,1745.21 1875.68,1750.18 1888.6,1756.84C1899.14,1762.28 1915.4,1787.04 1917.03,1802.76C1918.19,1800.89 1919.43,1798.83 1920.78,1796.55C1928.18,1784.06 1906.65,1748.33 1893.73,1741.67Z" style="fill:rgb(125,13,152);fill-rule:nonzero;"/>
        <path d="M1944.75,1809.78C2032.17,1803.34 2101.1,1730.37 2101.1,1641.31C2101.1,1548.01 2025.46,1472.37 1932.16,1472.37C1928.88,1472.37 1925.61,1472.47 1922.37,1472.65C1926.14,1472.4 1929.92,1472.27 1933.7,1472.27C1977.59,1472.27 2021.44,1489.27 2054.54,1523.15C2119.74,1589.88 2118.49,1696.84 2051.76,1762.04C2021.74,1791.37 1983.59,1807.25 1944.75,1809.78Z" style="fill:rgb(65,74,115);fill-rule:nonzero;"/>
        <path d="M1933.71,1810.14C1926.81,1810.14 1919.89,1809.72 1913.03,1808.87C1915.35,1805.69 1917.77,1801.72 1920.71,1796.75C1921.08,1796.13 1921.37,1795.46 1921.6,1794.74C1926.27,1780.92 1906.07,1748.03 1893.73,1741.67C1886.26,1737.82 1873.23,1734.53 1859.8,1734.53C1850,1734.53 1839.98,1736.28 1831.74,1740.83C1823.29,1745.5 1817.03,1752.91 1814.1,1760.51C1813.68,1760.09 1813.28,1759.68 1812.87,1759.26C1775.2,1720.71 1759.71,1668.73 1766.21,1619.14C1770.85,1603.89 1784.9,1599.86 1796.37,1599.86C1799.95,1599.86 1803.28,1600.25 1805.99,1600.82C1804.83,1604.34 1804.11,1607.75 1803.75,1611.05C1804.04,1610.35 1804.35,1609.66 1804.67,1608.96C1803.95,1614.2 1804.17,1619.16 1805.1,1623.77C1807.42,1635.4 1820.58,1644.55 1840.92,1644.55C1844.46,1644.55 1848.21,1644.27 1852.17,1643.68C1863.88,1663.3 1873.37,1685.13 1883.26,1699.48C1901.38,1725.79 1921.2,1753.04 1954.5,1753.04C1957.22,1753.04 1960.04,1752.85 1962.95,1752.47C1972.43,1751.23 1981.86,1748.38 1990.9,1744.26C2001.05,1741.47 2010.92,1734.92 2019.74,1727.31C2030.84,1717.72 2047.35,1703.07 2049.419,1689.44C2068.129,1654.96 2065.71,1622.99 2050.429,1596.27C2054.98,1589.49 2058.29,1580.05 2058.2,1570.63C2058.28,1562.33 2055.77,1554 2049.21,1547.44C2035.79,1534.02 2023.61,1526.39 2010.53,1526.39C2005.93,1526.39 2001.22,1527.33 1996.31,1529.3C1991.83,1531.09 1987.68,1534.59 1984.66,1539.22C1980.47,1537.22 1976.19,1535.34 1971.82,1533.61C1939.23,1520.67 1900.67,1521.77 1868.3,1508.04C1859.6,1504.36 1853.65,1499.65 1849.99,1494.43C1872.49,1481.58 1897.28,1474.33 1922.37,1472.65C1925.61,1472.47 1928.88,1472.37 1932.16,1472.37C2025.46,1472.37 2101.1,1548.01 2101.1,1641.31C2101.1,1730.37 2032.17,1803.34 1944.75,1809.78C1941.07,1810.02 1937.4,1810.14 1933.71,1810.14Z" style="fill:rgb(219,113,200);fill-rule:nonzero;"/>
        <path d="M1840.92,1644.55C1820.58,1644.55 1807.42,1635.4 1805.1,1623.77C1804.17,1619.16 1803.95,1614.2 1804.67,1608.96C1805.8,1606.51 1807.14,1604.03 1808.7,1601.5C1808.89,1601.56 1809.07,1601.62 1809.25,1601.68C1827.26,1607.58 1840.77,1624.58 1852.17,1643.68C1848.21,1644.27 1844.46,1644.55 1840.92,1644.55Z" style="fill:rgb(166,61,209);fill-rule:nonzero;"/>
        <path d="M1803.75,1611.05C1804.11,1607.75 1804.83,1604.34 1805.99,1600.82C1806.98,1601.03 1807.89,1601.26 1808.7,1601.5C1807.14,1604.03 1805.8,1606.51 1804.67,1608.96C1804.35,1609.66 1804.04,1610.35 1803.75,1611.05Z" style="fill:rgb(131,57,168);fill-rule:nonzero;"/>
        <path d="M1990.9,1744.26C2013.69,1733.87 2034,1715.42 2046.51,1694.53C2047.54,1692.83 2048.5,1691.13 2049.419,1689.44C2047.35,1703.07 2030.84,1717.72 2019.74,1727.31C2010.92,1734.92 2001.05,1741.47 1990.9,1744.26Z" style="fill:rgb(166,61,209);fill-rule:nonzero;"/>
        <path d="M1985.04,1539.41C1984.99,1539.38 1984.95,1539.36 1984.9,1539.34C1984.98,1539.31 1985.06,1539.28 1985.14,1539.25C1985.11,1539.3 1985.07,1539.35 1985.04,1539.41Z" style="fill:rgb(219,113,200);fill-rule:nonzero;"/>
        <path d="M2050.429,1596.27C2050.35,1596.13 2050.28,1596 2050.2,1595.86C2054.75,1589.24 2058.11,1579.96 2058.2,1570.63C2058.29,1580.05 2054.98,1589.49 2050.429,1596.27ZM2044.81,1587.48C2030.79,1567.68 2009.57,1551.23 1985.04,1539.41C1985.07,1539.35 1985.11,1539.3 1985.14,1539.25C1989.46,1537.72 1993.62,1536.98 1997.69,1536.98C2010.77,1536.98 2022.95,1544.6 2036.37,1558.02C2044.59,1566.24 2046.44,1577.26 2044.81,1587.48Z" style="fill:rgb(166,61,209);fill-rule:nonzero;"/>
        <path d="M2050.2,1595.86C2048.54,1593.01 2046.75,1590.21 2044.81,1587.48C2046.44,1577.26 2044.59,1566.24 2036.37,1558.02C2022.95,1544.6 2010.77,1536.98 1997.69,1536.98C1993.62,1536.98 1989.46,1537.72 1985.14,1539.25C1985.06,1539.28 1984.98,1539.31 1984.9,1539.34C1984.82,1539.3 1984.74,1539.26 1984.66,1539.22C1987.68,1534.59 1991.83,1531.09 1996.31,1529.3C2001.22,1527.33 2005.93,1526.39 2010.53,1526.39C2023.61,1526.39 2035.79,1534.02 2049.21,1547.44C2055.77,1554 2058.28,1562.33 2058.2,1570.63C2058.11,1579.96 2054.75,1589.24 2050.2,1595.86Z" style="fill:rgb(131,57,168);fill-rule:nonzero;"/>
        <path d="M1913.03,1808.87C1878.08,1804.58 1844.23,1789.39 1817.01,1763.36C1819.75,1760.54 1822.98,1758.02 1826.62,1756C1834.85,1751.45 1844.87,1749.7 1854.67,1749.7C1868.11,1749.7 1881.13,1752.99 1888.6,1756.84C1899.14,1762.28 1915.4,1787.04 1917.03,1802.76C1918.19,1800.89 1919.43,1798.83 1920.78,1796.55C1921.11,1795.99 1921.38,1795.39 1921.6,1794.74C1921.37,1795.46 1921.08,1796.13 1920.71,1796.75C1917.77,1801.72 1915.35,1805.69 1913.03,1808.87Z" style="fill:rgb(166,61,209);fill-rule:nonzero;"/>
        <path d="M1917.03,1802.76C1915.4,1787.04 1899.14,1762.28 1888.6,1756.84C1881.13,1752.99 1868.11,1749.7 1854.67,1749.7C1844.87,1749.7 1834.85,1751.45 1826.62,1756C1822.98,1758.02 1819.75,1760.54 1817.01,1763.36C1816.03,1762.42 1815.06,1761.47 1814.1,1760.51C1817.03,1752.91 1823.29,1745.5 1831.74,1740.83C1839.98,1736.28 1850,1734.53 1859.8,1734.53C1873.23,1734.53 1886.26,1737.82 1893.73,1741.67C1906.07,1748.03 1926.27,1780.92 1921.6,1794.74C1921.38,1795.39 1921.11,1795.99 1920.78,1796.55C1919.43,1798.83 1918.19,1800.89 1917.03,1802.76Z" style="fill:rgb(131,57,168);fill-rule:nonzero;"/>
        <path d="M2188.28,1525.52C2188.28,1554.73 2165.27,1578.42 2136.88,1578.42C2108.5,1578.42 2085.49,1554.73 2085.49,1525.52C2085.49,1496.3 2108.5,1472.61 2136.88,1472.61C2165.27,1472.61 2188.28,1496.3 2188.28,1525.52Z" style="fill:rgb(16,252,245);fill-rule:nonzero;"/>
        <path d="M2137.02,1578.42L2136.95,1578.42C2165.3,1578.39 2188.28,1554.71 2188.28,1525.52C2188.28,1496.32 2165.3,1472.64 2136.94,1472.61L2137.02,1472.61C2165.4,1472.61 2188.41,1496.3 2188.41,1525.52C2188.41,1554.73 2165.4,1578.42 2137.02,1578.42Z" style="fill:rgb(37,56,109);fill-rule:nonzero;"/>
        <path d="M2136.95,1578.42C2134.03,1578.42 2131.17,1578.15 2128.39,1577.66C2142.66,1568.27 2152.14,1551.81 2152.14,1533.07C2152.14,1506.89 2133.65,1485.16 2109.38,1480.93C2117.34,1475.69 2126.79,1472.63 2136.94,1472.61C2165.3,1472.64 2188.28,1496.32 2188.28,1525.52C2188.28,1554.71 2165.3,1578.39 2136.95,1578.42Z" style="fill:rgb(24,165,188);fill-rule:nonzero;"/>
        <path d="M1776.45,1707.85C1776.45,1707.85 1715.22,1764.76 1743.57,1786.3C1760.57,1799.22 1819.52,1816.9 1983.89,1740.95C2194.21,1643.77 2283.17,1543.7 2297.9,1506.29C2312.64,1468.88 2187.65,1503.05 2187.65,1503.05L2186.83,1506.05C2186.83,1506.05 2293.07,1481.84 2285.43,1500.63C2258.23,1567.51 2110.86,1667.27 2029.24,1704.68C1947.62,1742.08 1830.85,1788.56 1784.38,1785.16C1739.14,1781.85 1753.63,1751.4 1761.7,1737.55C1769.64,1723.95 1777.63,1710.4 1777.63,1710.4L1776.45,1707.85Z" style="fill:rgb(16,252,245);fill-rule:nonzero;"/>
    </g>
</svg>
