<?xml version="1.0" encoding="UTF-8" standalone="no"?>
<!DOCTYPE svg PUBLIC "-//W3C//DTD SVG 1.1//EN" "http://www.w3.org/Graphics/SVG/1.1/DTD/svg11.dtd">
<svg width="100%" height="100%" viewBox="0 0 341 339" version="1.1" xmlns="http://www.w3.org/2000/svg" xmlns:xlink="http://www.w3.org/1999/xlink" xml:space="preserve" xmlns:serif="http://www.serif.com/" style="fill-rule:evenodd;clip-rule:evenodd;stroke-linejoin:round;stroke-miterlimit:2;">
    <g transform="matrix(1,0,0,1,-2887.76001,-782.095947)">
        <path d="M3227.98,951.03C3227.98,1044.33 3152.35,1119.96 3059.05,1119.96C2965.75,1119.96 2890.11,1044.33 2890.11,951.03C2890.11,857.731 2965.75,782.096 3059.05,782.096C3152.35,782.096 3227.98,857.731 3227.98,951.03Z" style="fill:rgb(7,145,145);fill-rule:nonzero;"/>
        <path d="M3051.62,822.276C3026.25,824.78 3010.5,834.916 2990.4,849.76C2973.52,862.226 2959.41,880.046 2941.66,890.01C2929.55,896.804 2911.71,907.232 2895.48,908.948C2892.6,920.019 2890.8,931.53 2890.23,943.362C2925.31,927.907 2971.05,908.106 2991.81,876.748C3005.18,856.559 3022.22,846.744 3045.95,841.579C3058.59,838.826 3070.59,839.758 3082.77,840.69C3090.3,841.265 3097.91,841.841 3105.78,841.547C3129.66,840.655 3149.3,833.841 3170.66,824.958C3162.78,818.004 3154.24,811.776 3145.15,806.374C3135.42,813.063 3115.16,819.334 3110.56,820.07C3100.01,821.759 3088.92,821.669 3077.85,821.579C3068.98,821.506 3060.14,821.434 3051.62,822.276Z" style="fill:rgb(11,214,214);fill-rule:nonzero;"/>
        <path d="M3117.13,968.138C3073.74,987.947 3029.29,1002.43 2984.6,1018.45C2962.54,1026.36 2939.92,1037 2917.01,1043.301C2920.95,1049.39 2925.27,1055.2 2929.93,1060.71C2944.64,1051.5 2962.09,1043.89 2977.99,1038.801C3013.58,1027.39 3047.72,1013.66 3083.15,1001.36C3115.49,990.139 3147.53,977.065 3179.21,963.947C3193.12,958.185 3207.03,952.507 3221.01,946.969C3223.11,946.137 3225.36,945.033 3227.71,943.884C3227.27,934.222 3226.01,924.774 3224.02,915.602C3194.52,940.663 3150.37,952.962 3117.13,968.138Z" style="fill:rgb(11,214,214);fill-rule:nonzero;"/>
        <path d="M3148.2,1048.52C3121.23,1062.53 3091.95,1071.7 3064.4,1083.29C3051.85,1088.56 3040.78,1095.35 3029.86,1103.64C3026.85,1105.92 3020.96,1110.83 3017.42,1115.46C3023.68,1117.05 3030.09,1118.28 3036.6,1119.14C3041.24,1115.28 3045.54,1110.7 3049.6,1108.2C3060.99,1101.17 3074.47,1097.55 3086.47,1090.94C3115.75,1074.81 3146.79,1063.27 3176.56,1047.58C3185.98,1042.62 3197.03,1034.87 3207.71,1031.811C3212.4,1023.12 3216.34,1013.98 3219.47,1004.46C3217.18,1005.24 3215.08,1005.98 3213.47,1006.74C3190.33,1017.66 3171.19,1036.58 3148.2,1048.52Z" style="fill:rgb(11,214,214);fill-rule:nonzero;"/>
        <path d="M3159.85,988.12C3143.6,996.802 3127.12,1000.3 3110.36,1007C3090.29,1015.03 3070.76,1024.58 3049.66,1029.47C3022.97,1035.671 2999.94,1048.86 2974.56,1058.89C2966.34,1062.14 2954.97,1069.16 2943.5,1074.98C2955.17,1085.91 2968.38,1095.21 2982.79,1102.5C2991.06,1096.94 3005.57,1092.01 3012.8,1088.1C3033.21,1077.07 3054.51,1067.98 3074.72,1056.73C3104.98,1039.89 3134.72,1022.82 3166.42,1009.01C3181.2,1002.57 3195.82,995.397 3211.15,990.391C3213.78,989.532 3219.03,987.689 3224.31,986.435C3226.5,975.936 3227.72,965.077 3227.86,953.961C3223.83,956.184 3219.96,958.158 3217.06,959.758C3198.45,970.052 3178.66,978.07 3159.85,988.12Z" style="fill:rgb(11,214,214);fill-rule:nonzero;"/>
        <path d="M3187.42,1057.98C3173.37,1065.15 3159.33,1072.28 3145.39,1079.92C3122.73,1092.34 3101.36,1105.58 3079.99,1119.31C3125.29,1113.69 3165.03,1090.13 3191.88,1055.95C3190.35,1056.58 3188.85,1057.25 3187.42,1057.98Z" style="fill:rgb(11,214,214);fill-rule:nonzero;"/>
        <path d="M3073.14,959.162C3107.95,951.08 3137.85,934.984 3169.52,918.629C3177.54,914.483 3200.04,901.07 3218.47,895.957C3211.87,877.056 3202.01,859.684 3189.56,844.521C3178.72,847.954 3167.25,850.522 3158.17,854.84C3130.06,868.222 3123.55,895.221 3108.55,920.896C3096.95,940.74 3078.13,957.329 3053.88,953.774C3032.23,950.602 3014.72,939.069 2991.79,941.309C2963.06,944.114 2934.61,959.987 2909.35,973.046C2905.03,975.282 2899.26,978.843 2892.86,982.609C2895.14,994.945 2898.76,1006.81 2903.57,1018.05C2921.52,1008.3 2942.59,1004.48 2962.06,998.834C2999.71,987.912 3034.96,968.027 3073.14,959.162Z" style="fill:rgb(11,214,214);fill-rule:nonzero;"/>
        <path d="M2905.69,881.472C2929.61,877.601 2946.1,874.809 2962.03,855.151C2995.54,813.806 3044.83,810.09 3094.69,809.805C3102.39,809.762 3116.61,802.231 3128.89,797.859C3107.58,788.156 3083.9,782.746 3058.96,782.746C2990.68,782.746 2931.88,823.253 2905.24,881.542C2905.39,881.518 2905.54,881.496 2905.69,881.472Z" style="fill:rgb(11,214,214);fill-rule:nonzero;"/>
        <path d="M3178.17,831.581C3175.4,829.367 3128.41,849.41 3125.24,850.223C3112.64,853.466 3100.19,852.851 3087.76,852.237C3074.59,851.586 3061.45,850.935 3048.15,854.87C3029.08,860.515 3017.81,873.59 3005.43,888.541C3001.67,893.074 2999.15,898.643 2995.19,903.23C2987.87,911.697 2976.53,917.684 2967.21,923.726C2961.31,927.558 2954.93,929.008 2948.58,931.699C2940.75,935.022 2933.22,939.378 2925.45,942.933C2915.9,947.295 2903.37,952.982 2895.51,958.048L2891.98,959.559C2886.25,969.91 2904.27,960.939 2908.12,959.043C2919.08,953.643 2930.12,947.774 2941.74,943.563C2953.06,939.459 2963.58,935.082 2974.28,929.608C2982.33,925.493 2990.54,921.517 2998.65,917.628C3003.6,915.252 3009.25,912.382 3014.92,913.179C3025.41,914.651 3031.09,925.208 3042.02,925.802C3052.53,926.372 3058.77,922.184 3064.68,914.103C3069.94,906.91 3073.45,899.81 3067.46,892.601C3061.06,884.891 3055.35,881.587 3045.17,884.473C3037.34,886.69 3027.22,897.165 3036.21,904.023C3038.29,905.611 3045.17,907.935 3047.18,905.043C3049.43,901.805 3042.82,898.194 3049.69,896.566C3053.86,895.579 3058.05,899.05 3057.76,903.128C3057.47,907.262 3053.28,909.756 3050.19,911.792C3042.88,916.62 3033.51,915.54 3027.65,908.544C3013.29,891.412 3029.65,873.945 3046.67,867.984C3057.55,864.172 3069.27,864.347 3081,864.523C3090.31,864.662 3099.63,864.801 3108.53,862.943C3117.25,861.121 3125.92,857.938 3134.32,855.136C3137.34,854.13 3183.16,835.562 3178.17,831.581Z" style="fill:rgb(16,252,245);fill-rule:nonzero;"/>
        <path d="M3104.75,887.987C3102.73,879.644 3095.16,875.971 3087.48,874.924C3083.14,874.333 3062.6,874.104 3071.89,881.854C3078.59,887.453 3088.38,880.896 3090,893.051C3091.1,901.396 3089.32,909.793 3084.84,916.608C3074.48,932.377 3054.73,932.743 3038.1,928.701C3020.71,924.474 3001.3,922.687 2984.92,930.212C2966.63,938.611 2947.89,947.7 2928.26,951.609C2924.27,952.404 2906.66,953.179 2905.07,957.028C2901.82,964.877 2996.28,930.84 2996.28,930.84C3006.49,927.899 3019.42,929.731 3030.04,932.981C3040.75,936.257 3054.05,941.001 3065.31,940.413C3088.19,939.218 3110.4,911.352 3104.75,887.987Z" style="fill:rgb(16,252,245);fill-rule:nonzero;"/>
        <path d="M3217.47,906.657C3212.55,904.609 3199.97,912.595 3196.2,915.586C3186.61,923.192 3175.52,929.157 3164,933.837C3118.28,952.427 3075.45,981.66 3026.54,991.429C3011.38,994.456 2996.72,999.93 2981.79,1003.9C2970.96,1006.78 2960.51,1010.53 2949.94,1014.11C2937.31,1018.4 2924.75,1022.91 2912.14,1027.08L2913.14,1030.6C2913.96,1031.57 2915.01,1030.74 2916.8,1030.22C2924.83,1027.931 2932.2,1024.5 2940.35,1022.56C2952.36,1019.69 2964.42,1015.69 2976.12,1011.46C2996.15,1004.22 3016.95,998.99 3037.09,994.438C3055.68,990.236 3071.04,980.402 3088.48,973.665C3097.99,969.996 3106.84,965.073 3116.2,960.679C3128.83,954.749 3142.64,950.637 3154.9,944.052C3170.47,935.689 3186.23,927.631 3202.25,919.635C3205.3,918.111 3225.18,909.87 3217.47,906.657Z" style="fill:rgb(16,252,245);fill-rule:nonzero;"/>
        <path d="M3146.05,1002C3107.44,1014.8 3069.23,1029.291 3031.41,1044.59C3013.29,1051.92 2994.49,1057.52 2977.23,1066.51C2972.94,1068.75 2968.15,1070.53 2965.42,1074.8C2963.03,1078.55 2964.22,1082.07 2964.03,1085.02L2970.58,1093.58C2973.05,1100.16 2984.78,1093.06 2988.11,1090.42C2998.79,1081.96 3010.87,1072.95 3023.34,1066.99C3033.17,1062.29 3044.17,1060.5 3053.8,1055.32C3065.76,1048.89 3077.06,1040.911 3088.94,1034.22C3104.13,1025.65 3120.62,1019.57 3136.53,1012.49C3140.82,1010.57 3218.93,977.836 3218.48,972.659C3212.42,974.502 3152.23,999.945 3146.05,1002Z" style="fill:rgb(16,252,245);fill-rule:nonzero;"/>
        <path d="M3057.4,1120.75C2963.71,1120.75 2887.76,1044.9 2887.76,951.332C2887.76,897.281 2913.1,849.142 2952.57,818.123C2954.25,817.205 2955.91,816.496 2957.55,815.973C2921.96,842.764 2897.29,883.293 2891.45,929.689C2890.86,934.194 2890.45,938.753 2890.23,943.362C2890.25,943.354 2890.27,943.345 2890.29,943.338C2890.17,945.889 2890.11,948.45 2890.11,951.03C2890.11,961.787 2891.12,972.304 2893.04,982.502C2892.98,982.538 2892.92,982.573 2892.86,982.609C2895.14,994.945 2898.76,1006.81 2903.57,1018.05C2903.67,1018 2903.76,1017.95 2903.86,1017.89C2907.68,1026.74 2912.23,1035.2 2917.44,1043.181C2917.3,1043.22 2917.15,1043.26 2917.01,1043.301C2920.95,1049.39 2925.27,1055.2 2929.93,1060.71C2930.07,1060.62 2930.2,1060.54 2930.34,1060.45C2934.61,1065.47 2939.17,1070.24 2944,1074.73C2943.83,1074.82 2943.66,1074.9 2943.5,1074.98C2955.17,1085.91 2968.38,1095.21 2982.79,1102.5C2982.98,1102.37 2983.18,1102.24 2983.38,1102.11C2994.25,1107.57 3005.8,1111.88 3017.86,1114.91C3017.71,1115.09 3017.56,1115.28 3017.42,1115.46C3023.68,1117.05 3030.09,1118.28 3036.6,1119.14C3036.83,1118.95 3037.05,1118.76 3037.28,1118.57C3044.4,1119.49 3051.67,1119.96 3059.05,1119.96C3066.56,1119.96 3073.96,1119.47 3081.22,1118.52C3080.84,1118.76 3080.46,1119.01 3080.09,1119.25C3072.67,1120.24 3065.09,1120.75 3057.4,1120.75Z" style="fill:rgb(104,107,93);fill-rule:nonzero;"/>
        <path d="M3059.05,1119.96C3051.67,1119.96 3044.4,1119.49 3037.28,1118.57C3041.65,1114.84 3045.74,1110.58 3049.6,1108.2C3060.99,1101.17 3074.47,1097.55 3086.47,1090.94C3115.75,1074.81 3146.79,1063.27 3176.56,1047.58C3185.63,1042.801 3196.22,1035.44 3206.53,1032.171C3201.83,1040.801 3196.4,1048.97 3190.32,1056.61C3189.33,1057.04 3188.36,1057.5 3187.42,1057.98C3173.37,1065.15 3159.33,1072.28 3145.39,1079.92C3123.16,1092.1 3102.18,1105.08 3081.22,1118.52C3073.96,1119.47 3066.56,1119.96 3059.05,1119.96ZM3017.86,1114.91C3005.8,1111.88 2994.25,1107.57 2983.38,1102.11C2991.73,1096.71 3005.74,1091.92 3012.8,1088.1C3024.13,1081.98 3035.74,1076.45 3047.28,1070.82C3054.52,1072.03 3061.88,1072.64 3069.21,1072.64C3080.11,1072.64 3090.92,1071.3 3101.01,1068.65C3101.88,1068.42 3102.75,1068.18 3103.6,1067.94C3090.43,1073.02 3077.23,1077.89 3064.4,1083.29C3051.85,1088.56 3040.78,1095.35 3029.86,1103.64C3026.97,1105.83 3021.42,1110.45 3017.86,1114.91ZM2944,1074.73C2939.17,1070.24 2934.61,1065.47 2930.34,1060.45C2944.96,1051.36 2962.23,1043.85 2977.99,1038.801C2980.58,1037.96 2983.17,1037.12 2985.75,1036.27C2988.72,1040.86 2992.49,1045.181 2997.2,1049.16C2989.76,1052.51 2982.27,1055.84 2974.56,1058.89C2966.45,1062.09 2955.29,1068.95 2944,1074.73ZM2917.44,1043.181C2912.23,1035.2 2907.68,1026.74 2903.86,1017.89C2921.75,1008.26 2942.7,1004.45 2962.06,998.834C2966.69,997.492 2971.28,996.014 2975.84,994.438C2975.75,998.173 2975.81,1001.86 2976.09,1005.5C2967.26,1008.1 2958.64,1011.16 2949.94,1014.11C2937.31,1018.4 2924.75,1022.91 2912.14,1027.08L2913.14,1030.6C2913.42,1030.921 2913.71,1031.051 2914.06,1031.051C2914.74,1031.051 2915.61,1030.57 2916.8,1030.22C2924.83,1027.931 2932.2,1024.5 2940.35,1022.56C2952.36,1019.69 2964.42,1015.69 2976.12,1011.46C2976.32,1011.38 2976.52,1011.31 2976.72,1011.24C2977.18,1014.43 2977.83,1017.56 2978.71,1020.62C2958.66,1028.171 2938.17,1037.44 2917.44,1043.181ZM2893.04,982.502C2891.12,972.304 2890.11,961.787 2890.11,951.03C2890.11,948.45 2890.17,945.889 2890.29,943.338C2898.89,939.549 2908.13,935.498 2917.48,931.08C2916.17,936.667 2915.06,942.439 2914.76,947.866C2907.77,951.163 2900.65,954.738 2895.51,958.048L2891.98,959.559C2889.96,963.212 2890.9,964.459 2893.12,964.459C2897.21,964.459 2905.63,960.27 2908.12,959.043C2908.93,958.643 2909.74,958.241 2910.55,957.837C2911.89,957.618 2913.45,957.304 2915.17,956.911C2915.87,960.998 2917.39,964.621 2920.08,967.471C2916.45,969.355 2912.87,971.228 2909.35,973.046C2905.07,975.261 2899.37,978.776 2893.04,982.502ZM2945.5,954.988C2946.22,952.516 2946.91,950.005 2947.6,947.476C2961.93,942.858 2976.65,937.771 2986.1,934.452C2985.3,937.161 2984.54,939.818 2983.83,942.41C2970.85,944.715 2957.98,949.4 2945.5,954.988ZM2952.7,930.093C2954.8,923.865 2957.31,917.844 2960.68,912.376C2963.29,908.149 2967.67,905.274 2969.94,900.87C2970.17,900.427 2970.37,899.973 2970.54,899.509C2978.96,892.653 2986.28,885.112 2991.81,876.748C2994.89,872.098 2998.17,867.999 3001.67,864.379C3001.49,876.767 2998.77,890.032 2995.28,903.119C2995.25,903.156 2995.22,903.193 2995.19,903.23C2987.87,911.697 2976.53,917.684 2967.21,923.726C2962.58,926.731 2957.66,928.271 2952.7,930.093ZM2891.45,929.689C2897.29,883.293 2921.96,842.764 2957.55,815.973C2957.99,815.834 2958.42,815.709 2958.85,815.596C2935.82,832.568 2917.25,855.243 2905.24,881.542C2905.39,881.518 2905.54,881.496 2905.69,881.472C2914.84,879.991 2922.9,878.668 2930.26,876.499C2926.38,883.536 2925.03,891.532 2924.01,899.53C2914.92,903.998 2904.93,907.949 2895.48,908.948C2893.72,915.706 2892.37,922.63 2891.45,929.689ZM2965.93,871.213C2965.56,870.52 2965.2,869.8 2964.84,869.042L2956.76,863.817C2956.21,863.36 2955.66,862.967 2955.1,862.636C2957.44,860.454 2959.74,857.976 2962.03,855.151C2970.88,844.229 2980.84,835.932 2991.61,829.632C2993.43,831.872 2994.84,834.013 2995.75,835.758C2997.05,838.262 2998.12,840.873 2998.96,843.573C2996.17,845.529 2993.33,847.595 2990.4,849.76C2981.81,856.105 2973.94,863.836 2965.93,871.213Z" style="fill:rgb(71,170,124);fill-rule:nonzero;"/>
        <path d="M2890.23,943.362C2890.45,938.753 2890.86,934.194 2891.45,929.689C2892.37,922.63 2893.72,915.706 2895.48,908.948C2904.93,907.949 2914.92,903.998 2924.01,899.53C2923.64,902.41 2923.32,905.291 2922.93,908.126C2922.13,913.964 2919.55,922.295 2917.48,931.08C2908.13,935.498 2898.89,939.549 2890.29,943.338C2890.27,943.345 2890.25,943.354 2890.23,943.362ZM2970.54,899.509C2971.84,896.078 2971.79,892.113 2971.96,888.518C2972.32,880.961 2969.06,877.076 2965.93,871.213C2973.94,863.836 2981.81,856.105 2990.4,849.76C2993.33,847.595 2996.17,845.529 2998.96,843.573C3001,850.06 3001.78,857.066 3001.67,864.379C2998.17,867.999 2994.89,872.098 2991.81,876.748C2986.28,885.112 2978.96,892.653 2970.54,899.509Z" style="fill:rgb(74,219,172);fill-rule:nonzero;"/>
        <path d="M3128.88,1057.68C3150.61,1045.61 3164.16,1027.78 3170.99,1007C3184.23,1001.12 3197.4,994.88 3211.15,990.391C3213.62,989.584 3218.41,987.908 3223.35,986.668C3222.04,992.851 3220.39,998.907 3218.42,1004.82C3216.54,1005.47 3214.83,1006.1 3213.47,1006.74C3190.33,1017.66 3171.19,1036.58 3148.2,1048.52C3141.87,1051.81 3135.41,1054.83 3128.88,1057.68ZM3176.12,979.923C3176.44,975.077 3176.49,970.143 3176.27,965.162C3177.25,964.757 3178.23,964.352 3179.21,963.947C3193.12,958.185 3207.03,952.507 3221.01,946.969C3222.86,946.233 3224.85,945.283 3226.9,944.277C3227,946.619 3227.05,948.966 3227.05,951.332C3227.05,952.366 3227.04,953.394 3227.02,954.424C3223.29,956.458 3219.75,958.27 3217.06,959.758C3203.75,967.119 3189.84,973.315 3176.12,979.923ZM2947.99,946.057C2948.48,944.263 2948.97,942.46 2949.48,940.66C2957.94,937.375 2966.06,933.815 2974.28,929.608C2979.44,926.972 2984.66,924.393 2989.88,921.857C2989.15,924.276 2988.42,926.666 2987.71,929.028C2986.77,929.394 2985.84,929.788 2984.92,930.212C2972.85,935.755 2960.58,941.6 2947.99,946.057ZM3173.97,944.714C3173.4,941.496 3172.73,938.265 3171.96,935.041C3181.96,929.838 3192.05,924.724 3202.25,919.635C3205.3,918.111 3225.18,909.87 3217.47,906.657C3216.92,906.429 3216.28,906.325 3215.57,906.325C3209.86,906.325 3199.55,912.928 3196.2,915.586C3188.54,921.659 3179.93,926.685 3170.91,930.847C3169.92,927.1 3168.81,923.361 3167.57,919.633C3168.22,919.298 3168.87,918.964 3169.52,918.629C3177.45,914.53 3199.53,901.375 3217.84,896.135C3220.08,902.631 3221.94,909.312 3223.38,916.138C3209.26,927.961 3191.88,936.926 3173.97,944.714ZM3140.38,867.486C3137.64,863.609 3134.84,859.755 3132.05,855.9C3132.81,855.643 3133.57,855.388 3134.32,855.136C3137.12,854.204 3176.68,838.188 3178.49,832.678C3182.23,836.492 3185.81,840.487 3189.18,844.639C3178.45,848.013 3167.14,850.572 3158.17,854.84C3151,858.252 3145.24,862.55 3140.38,867.486ZM3127.4,849.452C3125.19,846.369 3123.01,843.275 3120.89,840.154C3138.26,837.589 3153.85,831.942 3170.47,825.035C3172.78,827.097 3175.04,829.229 3177.23,831.414C3170.75,831.646 3136.65,845.898 3127.4,849.452ZM3108.78,820.338C3106.99,816.948 3105.34,813.497 3103.87,809.974C3103.6,809.326 3103.34,808.685 3103.1,808.05C3110.7,805.549 3120.27,800.927 3128.89,797.859C3119.73,793.692 3110.14,790.316 3100.21,787.821C3100.23,787.672 3100.25,787.525 3100.27,787.378C3118.38,792.087 3135.31,799.709 3150.54,809.713C3148.77,808.567 3146.97,807.454 3145.15,806.374C3135.42,813.063 3115.16,819.334 3110.56,820.07C3109.97,820.165 3109.38,820.254 3108.78,820.338Z" style="fill:rgb(71,170,124);fill-rule:nonzero;"/>
        <path d="M3120.89,840.154C3116.5,833.701 3112.36,827.137 3108.78,820.338C3109.38,820.254 3109.97,820.165 3110.56,820.07C3115.16,819.334 3135.42,813.063 3145.15,806.374C3146.97,807.454 3148.77,808.567 3150.54,809.713C3157.56,814.331 3164.23,819.454 3170.47,825.035C3153.85,831.942 3138.26,837.589 3120.89,840.154Z" style="fill:rgb(74,219,172);fill-rule:nonzero;"/>
        <path d="M2929.93,1060.71C2925.27,1055.2 2920.95,1049.39 2917.01,1043.301C2917.15,1043.26 2917.3,1043.22 2917.44,1043.181C2938.17,1037.44 2958.66,1028.171 2978.71,1020.62C2980.27,1026.09 2982.55,1031.34 2985.75,1036.27C2983.17,1037.12 2980.58,1037.96 2977.99,1038.801C2962.23,1043.85 2944.96,1051.36 2930.34,1060.45C2930.2,1060.54 2930.07,1060.62 2929.93,1060.71ZM3176.27,965.162C3175.98,958.42 3175.2,951.585 3173.97,944.714C3191.88,936.926 3209.26,927.961 3223.38,916.138C3225.31,925.266 3226.51,934.672 3226.9,944.277C3224.85,945.283 3222.86,946.233 3221.01,946.969C3207.03,952.507 3193.12,958.185 3179.21,963.947C3178.23,964.352 3177.25,964.757 3176.27,965.162Z" style="fill:rgb(74,219,172);fill-rule:nonzero;"/>
        <path d="M3036.6,1119.14C3030.09,1118.28 3023.68,1117.05 3017.42,1115.46C3017.56,1115.28 3017.71,1115.09 3017.86,1114.91C3021.42,1110.45 3026.97,1105.83 3029.86,1103.64C3040.78,1095.35 3051.85,1088.56 3064.4,1083.29C3077.23,1077.89 3090.43,1073.02 3103.6,1067.94C3113.03,1065.27 3121.43,1061.81 3128.88,1057.68C3135.41,1054.83 3141.87,1051.81 3148.2,1048.52C3171.19,1036.58 3190.33,1017.66 3213.47,1006.74C3214.83,1006.1 3216.54,1005.47 3218.42,1004.82C3215.25,1014.34 3211.26,1023.48 3206.53,1032.171C3196.22,1035.44 3185.63,1042.801 3176.56,1047.58C3146.79,1063.27 3115.75,1074.81 3086.47,1090.94C3074.47,1097.55 3060.99,1101.17 3049.6,1108.2C3045.74,1110.58 3041.65,1114.84 3037.28,1118.57C3037.05,1118.76 3036.83,1118.95 3036.6,1119.14Z" style="fill:rgb(74,219,172);fill-rule:nonzero;"/>
        <path d="M2982.79,1102.5C2968.38,1095.21 2955.17,1085.91 2943.5,1074.98C2943.66,1074.9 2943.83,1074.82 2944,1074.73C2955.29,1068.95 2966.45,1062.09 2974.56,1058.89C2982.27,1055.84 2989.76,1052.51 2997.2,1049.16C2998.2,1050.01 2999.24,1050.83 3000.32,1051.65C3001.72,1052.7 3003.17,1053.71 3004.64,1054.68C2995.3,1058.2 2986.07,1061.91 2977.23,1066.51C2972.94,1068.75 2968.15,1070.53 2965.42,1074.8C2963.03,1078.55 2964.22,1082.07 2964.03,1085.02L2970.58,1093.58C2971.32,1095.56 2972.9,1096.3 2974.83,1096.3C2979.33,1096.3 2985.78,1092.27 2988.11,1090.42C2998.79,1081.96 3010.87,1072.95 3023.34,1066.99C3024.43,1066.47 3025.54,1065.98 3026.66,1065.52C3033.29,1067.87 3040.22,1069.64 3047.28,1070.82C3035.74,1076.45 3024.13,1081.98 3012.8,1088.1C3005.74,1091.92 2991.73,1096.71 2983.38,1102.11C2983.18,1102.24 2982.98,1102.37 2982.79,1102.5ZM3170.99,1007C3172.15,1003.49 3173.11,999.893 3173.89,996.23C3195.64,986.487 3218.72,975.481 3218.48,972.659C3215,973.717 3193.68,982.556 3174.98,990.28C3175.51,986.875 3175.89,983.423 3176.12,979.923C3189.84,973.315 3203.75,967.119 3217.06,959.758C3219.75,958.27 3223.29,956.458 3227.02,954.424C3226.82,965.461 3225.57,976.243 3223.35,986.668C3218.41,987.908 3213.62,989.584 3211.15,990.391C3197.4,994.88 3184.23,1001.12 3170.99,1007Z" style="fill:rgb(74,219,172);fill-rule:nonzero;"/>
        <path d="M3080.09,1119.25C3080.46,1119.01 3080.84,1118.76 3081.22,1118.52C3102.18,1105.08 3123.16,1092.1 3145.39,1079.92C3159.33,1072.28 3173.37,1065.15 3187.42,1057.98C3188.36,1057.5 3189.33,1057.04 3190.32,1056.61C3163.69,1090.11 3124.62,1113.31 3080.09,1119.25Z" style="fill:rgb(74,219,172);fill-rule:nonzero;"/>
        <path d="M2903.57,1018.05C2898.76,1006.81 2895.14,994.945 2892.86,982.609C2892.92,982.573 2892.98,982.538 2893.04,982.502C2899.37,978.776 2905.07,975.261 2909.35,973.046C2912.87,971.228 2916.45,969.355 2920.08,967.471C2921.61,969.095 2923.53,970.469 2925.88,971.531C2927.89,972.433 2929.7,972.835 2931.33,972.835C2938.79,972.836 2942.64,964.469 2944.89,957.041C2945.09,956.36 2945.3,955.675 2945.5,954.988C2957.98,949.4 2970.85,944.715 2983.83,942.41C2982.34,947.852 2981.09,953.011 2980.27,957.779C2978.17,969.95 2976.16,982.399 2975.84,994.438C2971.28,996.014 2966.69,997.492 2962.06,998.834C2942.7,1004.45 2921.75,1008.26 2903.86,1017.89C2903.76,1017.95 2903.67,1018 2903.57,1018.05ZM3167.57,919.633C3165.48,913.319 3163.04,907.043 3160.29,900.87C3155.06,889.155 3147.96,878.224 3140.38,867.486C3145.24,862.55 3151,858.252 3158.17,854.84C3167.14,850.572 3178.45,848.013 3189.18,844.639C3201.55,859.848 3211.32,877.23 3217.84,896.135C3199.53,901.375 3177.45,914.53 3169.52,918.629C3168.87,918.964 3168.22,919.298 3167.57,919.633Z" style="fill:rgb(74,219,172);fill-rule:nonzero;"/>
        <path d="M2905.24,881.542C2917.25,855.243 2935.82,832.568 2958.85,815.596C2960.96,815.044 2963.02,814.792 2965.04,814.792C2976.33,814.792 2985.97,822.689 2991.61,829.632C2980.84,835.932 2970.88,844.229 2962.03,855.151C2959.74,857.976 2957.44,860.454 2955.1,862.636C2953.38,861.608 2951.62,861.166 2949.87,861.166C2944.33,861.166 2938.9,865.625 2934.91,869.992C2933.04,872.038 2931.52,874.218 2930.26,876.499C2922.9,878.668 2914.84,879.991 2905.69,881.472C2905.54,881.496 2905.39,881.518 2905.24,881.542ZM3103.1,808.05C3100.15,800.321 3099.35,793.572 3100.21,787.821C3110.14,790.316 3119.73,793.692 3128.89,797.859C3120.27,800.927 3110.7,805.549 3103.1,808.05Z" style="fill:rgb(74,219,172);fill-rule:nonzero;"/>
        <path d="M2893.12,964.459C2890.9,964.459 2889.96,963.212 2891.98,959.559L2895.51,958.048C2900.65,954.738 2907.77,951.163 2914.76,947.866C2914.66,949.737 2914.65,951.564 2914.76,953.332C2910.05,954.104 2905.82,955.231 2905.07,957.028C2904.74,957.839 2905.45,958.203 2906.98,958.203C2907.9,958.203 2909.1,958.075 2910.55,957.837C2909.74,958.241 2908.93,958.643 2908.12,959.043C2905.63,960.27 2897.21,964.459 2893.12,964.459ZM2949.48,940.66C2950.48,937.112 2951.52,933.571 2952.7,930.093C2957.66,928.271 2962.58,926.731 2967.21,923.726C2976.53,917.684 2987.87,911.697 2995.19,903.23C2995.22,903.193 2995.25,903.156 2995.28,903.119C2993.59,909.445 2991.73,915.733 2989.88,921.857C2984.66,924.393 2979.44,926.972 2974.28,929.608C2966.06,933.815 2957.94,937.375 2949.48,940.66ZM3132.05,855.9C3130.49,853.752 3128.94,851.607 3127.4,849.452C3136.65,845.898 3170.75,831.646 3177.23,831.414C3177.65,831.835 3178.07,832.252 3178.49,832.678C3176.68,838.188 3137.12,854.204 3134.32,855.136C3133.57,855.388 3132.81,855.643 3132.05,855.9Z" style="fill:rgb(77,245,194);fill-rule:nonzero;"/>
        <path d="M2906.98,958.203C2905.45,958.203 2904.74,957.839 2905.07,957.028C2905.82,955.231 2910.05,954.104 2914.76,953.332C2914.84,954.556 2914.97,955.754 2915.17,956.911C2913.45,957.304 2911.89,957.618 2910.55,957.837C2909.1,958.075 2907.9,958.203 2906.98,958.203ZM2947.6,947.476C2947.73,947.003 2947.86,946.531 2947.99,946.057C2960.58,941.6 2972.85,935.755 2984.92,930.212C2985.84,929.788 2986.77,929.394 2987.71,929.028C2987.16,930.856 2986.62,932.667 2986.1,934.452C2976.65,937.771 2961.93,942.858 2947.6,947.476Z" style="fill:rgb(77,245,194);fill-rule:nonzero;"/>
        <path d="M2914.06,1031.051C2913.71,1031.051 2913.42,1030.921 2913.14,1030.6L2912.14,1027.08C2924.75,1022.91 2937.31,1018.4 2949.94,1014.11C2958.64,1011.16 2967.26,1008.1 2976.09,1005.5C2976.24,1007.43 2976.44,1009.35 2976.72,1011.24C2976.52,1011.31 2976.32,1011.38 2976.12,1011.46C2964.42,1015.69 2952.36,1019.69 2940.35,1022.56C2932.2,1024.5 2924.83,1027.931 2916.8,1030.22C2915.61,1030.57 2914.74,1031.051 2914.06,1031.051ZM3171.96,935.041C3171.62,933.64 3171.27,932.247 3170.91,930.847C3179.93,926.685 3188.54,921.659 3196.2,915.586C3199.55,912.928 3209.86,906.325 3215.57,906.325C3216.28,906.325 3216.92,906.429 3217.47,906.657C3225.18,909.87 3205.3,918.111 3202.25,919.635C3192.05,924.724 3181.96,929.838 3171.96,935.041Z" style="fill:rgb(77,245,194);fill-rule:nonzero;"/>
        <path d="M2974.83,1096.3C2972.9,1096.3 2971.32,1095.56 2970.58,1093.58L2964.03,1085.02C2964.22,1082.07 2963.03,1078.55 2965.42,1074.8C2968.15,1070.53 2972.94,1068.75 2977.23,1066.51C2986.07,1061.91 2995.3,1058.2 3004.64,1054.68C3011.38,1059.13 3018.81,1062.73 3026.66,1065.52C3025.54,1065.98 3024.43,1066.47 3023.34,1066.99C3010.87,1072.95 2998.79,1081.96 2988.11,1090.42C2985.78,1092.27 2979.33,1096.3 2974.83,1096.3ZM3173.89,996.23C3174.3,994.267 3174.67,992.28 3174.98,990.28C3193.68,982.556 3215,973.717 3218.48,972.659C3218.72,975.481 3195.64,986.487 3173.89,996.23Z" style="fill:rgb(77,245,194);fill-rule:nonzero;"/>
        <path d="M2920.08,967.471C2917.39,964.621 2915.87,960.998 2915.17,956.911C2923.29,955.063 2935.3,951.443 2947.6,947.476C2946.91,950.005 2946.22,952.516 2945.5,954.988C2936.81,958.877 2928.31,963.204 2920.08,967.471ZM2914.76,947.866C2915.06,942.439 2916.17,936.667 2917.48,931.08C2936.09,922.29 2955.16,912.045 2970.54,899.509C2970.37,899.973 2970.17,900.427 2969.94,900.87C2967.67,905.274 2963.29,908.149 2960.68,912.376C2957.31,917.844 2954.8,923.865 2952.7,930.093C2951.33,930.595 2949.96,931.118 2948.58,931.699C2940.75,935.022 2933.22,939.378 2925.45,942.933C2922.14,944.445 2918.47,946.117 2914.76,947.866ZM2924.01,899.53C2925.03,891.532 2926.38,883.536 2930.26,876.499C2939.37,873.812 2947.41,869.828 2955.1,862.636C2955.66,862.967 2956.21,863.36 2956.76,863.817L2964.84,869.042C2965.2,869.8 2965.56,870.52 2965.93,871.213C2958.21,878.33 2950.37,885.117 2941.66,890.01C2936.6,892.849 2930.54,896.322 2924.01,899.53Z" style="fill:rgb(115,188,110);fill-rule:nonzero;"/>
        <path d="M2917.48,931.08C2919.55,922.295 2922.13,913.964 2922.93,908.126C2923.32,905.291 2923.64,902.41 2924.01,899.53C2930.54,896.322 2936.6,892.849 2941.66,890.01C2950.37,885.117 2958.21,878.33 2965.93,871.213C2969.06,877.076 2972.32,880.961 2971.96,888.518C2971.79,892.113 2971.84,896.078 2970.54,899.509C2955.16,912.045 2936.09,922.29 2917.48,931.08Z" style="fill:rgb(117,222,143);fill-rule:nonzero;"/>
        <path d="M2921.4,952.448C2928.04,949.196 2934.79,946.083 2941.74,943.563C2944.36,942.613 2946.93,941.649 2949.48,940.66C2948.97,942.46 2948.48,944.263 2947.99,946.057C2941.51,948.353 2934.93,950.28 2928.26,951.609C2927.01,951.859 2924.41,952.107 2921.4,952.448Z" style="fill:rgb(115,188,110);fill-rule:nonzero;"/>
        <path d="M2931.33,972.835C2929.7,972.835 2927.89,972.433 2925.88,971.531C2923.53,970.469 2921.61,969.095 2920.08,967.471C2928.31,963.204 2936.81,958.877 2945.5,954.988C2945.3,955.675 2945.09,956.36 2944.89,957.041C2942.64,964.469 2938.79,972.836 2931.33,972.835Z" style="fill:rgb(117,222,143);fill-rule:nonzero;"/>
        <path d="M2930.26,876.499C2931.52,874.218 2933.04,872.038 2934.91,869.992C2938.9,865.625 2944.33,861.166 2949.87,861.166C2951.62,861.166 2953.38,861.608 2955.1,862.636C2947.41,869.828 2939.37,873.812 2930.26,876.499Z" style="fill:rgb(117,222,143);fill-rule:nonzero;"/>
        <path d="M2914.76,953.332C2914.65,951.564 2914.66,949.737 2914.76,947.866C2918.47,946.117 2922.14,944.445 2925.45,942.933C2933.22,939.378 2940.75,935.022 2948.58,931.699C2949.96,931.118 2951.33,930.595 2952.7,930.093C2951.52,933.571 2950.48,937.112 2949.48,940.66C2946.93,941.649 2944.36,942.613 2941.74,943.563C2934.79,946.083 2928.04,949.196 2921.4,952.448C2919.29,952.686 2916.97,952.97 2914.76,953.332Z" style="fill:rgb(120,240,158);fill-rule:nonzero;"/>
        <path d="M2915.17,956.911C2914.97,955.754 2914.84,954.556 2914.76,953.332C2916.97,952.97 2919.29,952.686 2921.4,952.448C2924.41,952.107 2927.01,951.859 2928.26,951.609C2934.93,950.28 2941.51,948.353 2947.99,946.057C2947.86,946.531 2947.73,947.003 2947.6,947.476C2935.3,951.443 2923.29,955.063 2915.17,956.911Z" style="fill:rgb(120,240,158);fill-rule:nonzero;"/>
    </g>
</svg>
