<?xml version="1.0" encoding="UTF-8" standalone="no"?>
<!DOCTYPE svg PUBLIC "-//W3C//DTD SVG 1.1//EN" "http://www.w3.org/Graphics/SVG/1.1/DTD/svg11.dtd">
<svg width="100%" height="100%" viewBox="0 0 339 339" version="1.1" xmlns="http://www.w3.org/2000/svg" xmlns:xlink="http://www.w3.org/1999/xlink" xml:space="preserve" xmlns:serif="http://www.serif.com/" style="fill-rule:evenodd;clip-rule:evenodd;stroke-linejoin:round;stroke-miterlimit:2;">
    <g transform="matrix(1,0,0,1,-2932.48999,-1471.76001)">
        <path d="M3271.49,1641.82C3271.49,1735.12 3195.85,1810.76 3102.55,1810.76C3009.25,1810.76 2933.62,1735.12 2933.62,1641.82C2933.62,1548.52 3009.25,1472.89 3102.55,1472.89C3195.85,1472.89 3271.49,1548.52 3271.49,1641.82Z" style="fill:rgb(16,252,245);fill-rule:nonzero;"/>
        <path d="M3110.23,1654.38C3049.95,1709.53 2985.14,1716.87 2950.35,1716.04C2959.16,1734.03 2971.07,1750.2 2985.38,1763.89C3009,1759.06 3056.01,1746.6 3091.44,1719.13C3174.49,1654.75 3212.5,1561.52 3224.7,1525.57C3214.04,1514.33 3201.86,1504.56 3188.48,1496.59C3185.26,1527.24 3171.24,1598.55 3110.23,1654.38Z" style="fill:rgb(255,242,0);fill-rule:nonzero;"/>
        <path d="M3093.1,1637.5C3143.26,1582.95 3165.99,1514.22 3173.16,1488.51C3168.83,1486.5 3164.4,1484.67 3159.89,1483.02C3158.8,1506.3 3149.39,1568.45 3082.7,1611.5C3020.48,1651.67 2960.53,1657.82 2934.02,1658.35C2935.04,1668.82 2937.01,1679.01 2939.85,1688.83C2971.67,1685.95 3058.79,1674.8 3093.1,1637.5Z" style="fill:rgb(255,242,0);fill-rule:nonzero;"/>
        <path d="M3109.66,1730.33C3068.44,1763.61 3026.51,1773.58 2999.87,1776.27C3005.83,1780.81 3012.1,1784.97 3018.64,1788.7C3053.17,1784.96 3108.96,1773.61 3145.96,1733.47C3220.81,1652.26 3240.67,1582.74 3247.41,1555.55C3243.66,1549.25 3239.51,1543.21 3234.99,1537.47C3221.32,1576.67 3182.45,1671.57 3109.66,1730.33Z" style="fill:rgb(255,242,0);fill-rule:nonzero;"/>
        <path d="M3167.65,1754.84C3114.11,1784.63 3072.16,1796.39 3045.29,1800.95C3063.44,1807.44 3083.01,1810.9 3103.4,1810.75C3196.69,1810.06 3271.77,1733.87 3271.08,1640.57C3270.98,1627.88 3269.48,1615.53 3266.74,1603.66C3245.93,1649.71 3203.71,1734.79 3167.65,1754.84Z" style="fill:rgb(255,242,0);fill-rule:nonzero;"/>
        <path d="M3035.71,1541.56C3007.77,1558.61 2967.33,1571.2 2946.05,1577.12C2940.56,1590.34 2936.72,1604.41 2934.75,1619.06C2955.98,1621.3 3003.01,1621.6 3053.08,1591.31C3125.72,1547.36 3133.58,1494.11 3133.99,1475.9C3123.28,1473.85 3112.22,1472.81 3100.9,1472.89C3095.79,1472.93 3090.75,1473.21 3085.76,1473.69C3080.22,1489.48 3065.38,1523.46 3035.71,1541.56Z" style="fill:rgb(255,242,0);fill-rule:nonzero;"/>
        <path d="M3016.44,1542.84C3050.79,1522.2 3067.16,1491.94 3074,1475.24C3020.15,1484.27 2975,1518.74 2951.25,1565.8C2963.69,1565.36 2985.8,1561.25 3016.44,1542.84Z" style="fill:rgb(255,242,0);fill-rule:nonzero;"/>
        <path d="M3102.55,1810.76L3102.53,1810.76C3102.82,1810.76 3103.11,1810.75 3103.4,1810.75C3196.69,1810.06 3271.77,1733.87 3271.08,1640.57C3270.98,1627.88 3269.48,1615.53 3266.74,1603.66C3245.93,1649.71 3203.71,1734.79 3167.65,1754.84C3158.98,1759.67 3150.6,1764.03 3142.55,1767.95C3134.86,1764.24 3127.49,1759.96 3120.5,1755.17C3129.57,1749.07 3138.18,1741.91 3145.96,1733.47C3220.81,1652.26 3240.67,1582.74 3247.41,1555.55C3243.66,1549.25 3239.51,1543.21 3234.99,1537.47C3230.54,1550.23 3223.42,1568.9 3213.32,1590.3C3211.48,1585.14 3208.42,1579.95 3204.29,1575.14C3214.19,1554.6 3220.78,1537.13 3224.7,1525.57C3214.04,1514.33 3201.86,1504.56 3188.48,1496.59C3187.58,1505.1 3185.86,1516.74 3182.53,1530.32C3177.37,1525.54 3170.8,1521.57 3163.26,1518.83C3167.95,1506.21 3171.16,1495.68 3173.16,1488.51C3168.83,1486.5 3164.4,1484.67 3159.89,1483.02C3159.53,1490.63 3158.28,1502.41 3154.44,1516.3C3152.47,1515.88 3150.45,1515.54 3148.39,1515.28C3145.49,1514.92 3142.62,1514.75 3139.81,1514.75C3134.33,1514.75 3129.07,1515.41 3124.18,1516.64C3132.18,1498.78 3133.81,1483.93 3133.99,1475.9C3130.56,1475.24 3127.1,1474.69 3123.6,1474.25C3123.63,1474.23 3123.65,1474.21 3123.68,1474.2C3207.01,1484.59 3271.49,1555.68 3271.49,1641.82C3271.49,1735.12 3195.85,1810.76 3102.55,1810.76ZM3045.57,1800.9C3036.3,1797.58 3027.41,1793.48 3018.97,1788.66C3019.21,1788.64 3019.46,1788.61 3019.71,1788.58C3028.36,1793.37 3037.48,1797.43 3046.98,1800.66C3046.5,1800.74 3046.03,1800.82 3045.57,1800.9ZM3000.21,1776.24C2995.14,1772.37 2990.3,1768.23 2985.7,1763.83C2985.72,1763.82 2985.74,1763.82 2985.75,1763.82C2990.44,1768.22 2995.37,1772.35 3000.53,1776.2C3000.43,1776.22 3000.32,1776.23 3000.21,1776.24ZM3099.44,1738.11C3094.58,1733.47 3089.99,1728.56 3085.7,1723.38C3087.64,1722.01 3089.56,1720.59 3091.44,1719.13C3128.82,1690.15 3157.07,1655.33 3177.96,1622.52C3181.98,1623.59 3185.94,1624.13 3189.69,1624.13C3191.95,1624.13 3194.13,1623.94 3196.2,1623.55C3175.53,1660.38 3147.07,1700.13 3109.66,1730.33C3106.26,1733.08 3102.85,1735.67 3099.44,1738.11ZM3063.26,1688.2C3059.47,1680.22 3056.28,1671.89 3053.76,1663.28C3069.47,1656.51 3083.4,1648.05 3093.1,1637.5C3107.66,1621.66 3119.91,1604.63 3130.14,1587.8C3133.04,1588.56 3136.06,1589.15 3139.17,1589.53C3139.23,1589.54 3139.3,1589.55 3139.36,1589.56C3141.66,1595.3 3145.44,1601.05 3150.5,1606.22C3140.1,1622.66 3126.92,1639.1 3110.23,1654.38C3094.68,1668.6 3078.82,1679.65 3063.26,1688.2ZM3047.65,1630.93C3047.21,1625.93 3046.98,1620.86 3046.98,1615.75C3046.98,1608.41 3047.45,1601.18 3048.36,1594.09C3049.93,1593.19 3051.5,1592.27 3053.08,1591.31C3070.3,1580.9 3083.88,1569.96 3094.58,1559.08C3097.9,1568.67 3106.06,1577.2 3117.14,1582.87C3107.82,1592.89 3096.49,1602.6 3082.7,1611.5C3070.87,1619.14 3059.11,1625.55 3047.65,1630.93Z" style="fill:rgb(30,250,243);fill-rule:nonzero;"/>
        <path d="M2985.38,1763.89C2975.64,1754.57 2967.01,1744.1 2959.71,1732.69C2967.13,1744.09 2975.88,1754.54 2985.75,1763.82C2985.74,1763.82 2985.72,1763.82 2985.7,1763.83C2985.6,1763.85 2985.49,1763.87 2985.38,1763.89ZM3085.7,1723.38C3076.85,1712.68 3069.29,1700.87 3063.26,1688.2C3078.82,1679.65 3094.68,1668.6 3110.23,1654.38C3126.92,1639.1 3140.1,1622.66 3150.5,1606.22C3152.99,1608.76 3155.79,1611.17 3158.87,1613.37C3165.02,1617.76 3171.57,1620.81 3177.96,1622.52C3157.07,1655.33 3128.82,1690.15 3091.44,1719.13C3089.56,1720.59 3087.64,1722.01 3085.7,1723.38ZM3204.29,1575.14C3201.21,1571.54 3197.52,1568.14 3193.31,1565.13C3193.18,1565.04 3193.04,1564.95 3192.91,1564.86C3193.64,1562.89 3194.14,1560.83 3194.4,1558.7C3195.69,1548.32 3191.05,1538.22 3182.53,1530.32C3185.86,1516.74 3187.58,1505.1 3188.48,1496.59C3201.86,1504.56 3214.04,1514.33 3224.7,1525.57C3220.78,1537.13 3214.19,1554.6 3204.29,1575.14Z" style="fill:rgb(245,241,23);fill-rule:nonzero;"/>
        <path d="M3053.76,1663.28C3050.71,1652.87 3048.64,1642.06 3047.65,1630.93C3059.11,1625.55 3070.87,1619.14 3082.7,1611.5C3096.49,1602.6 3107.82,1592.89 3117.14,1582.87C3121.13,1584.91 3125.49,1586.59 3130.14,1587.8C3119.91,1604.63 3107.66,1621.66 3093.1,1637.5C3083.4,1648.05 3069.47,1656.51 3053.76,1663.28ZM3163.26,1518.83C3160.45,1517.81 3157.5,1516.96 3154.44,1516.3C3158.28,1502.41 3159.53,1490.63 3159.89,1483.02C3164.4,1484.67 3168.83,1486.5 3173.16,1488.51C3171.16,1495.68 3167.95,1506.21 3163.26,1518.83Z" style="fill:rgb(245,241,23);fill-rule:nonzero;"/>
        <path d="M3018.64,1788.7C3012.1,1784.97 3005.83,1780.81 2999.87,1776.27C2999.98,1776.26 3000.1,1776.25 3000.21,1776.24C3000.32,1776.23 3000.43,1776.22 3000.53,1776.2C3006.62,1780.74 3013.03,1784.88 3019.71,1788.58C3019.46,1788.61 3019.21,1788.64 3018.97,1788.66C3018.86,1788.68 3018.75,1788.69 3018.64,1788.7ZM3120.5,1755.17C3113.03,1750.04 3105.99,1744.33 3099.44,1738.11C3102.85,1735.67 3106.26,1733.08 3109.66,1730.33C3147.07,1700.13 3175.53,1660.38 3196.2,1623.55C3202.55,1622.35 3207.91,1619.33 3211.39,1614.45C3216.09,1607.86 3216.49,1599.13 3213.32,1590.3C3223.42,1568.9 3230.54,1550.23 3234.99,1537.47C3239.51,1543.21 3243.66,1549.25 3247.41,1555.55C3240.67,1582.74 3220.81,1652.26 3145.96,1733.47C3138.18,1741.91 3129.57,1749.07 3120.5,1755.17Z" style="fill:rgb(245,241,23);fill-rule:nonzero;"/>
        <path d="M3102.12,1810.76C3082.19,1810.76 3063.06,1807.3 3045.29,1800.95C3045.38,1800.94 3045.48,1800.92 3045.57,1800.9C3046.03,1800.82 3046.5,1800.74 3046.98,1800.66C3064.06,1806.47 3082.37,1809.62 3101.42,1809.62C3134.92,1809.62 3166.15,1799.87 3192.41,1783.05C3174.77,1780.59 3158.01,1775.41 3142.55,1767.95C3150.6,1764.03 3158.98,1759.67 3167.65,1754.84C3203.71,1734.79 3245.93,1649.71 3266.74,1603.66C3269.48,1615.53 3270.98,1627.88 3271.08,1640.57C3271.77,1733.87 3196.69,1810.06 3103.4,1810.75C3103.11,1810.75 3102.82,1810.76 3102.53,1810.76L3102.12,1810.76Z" style="fill:rgb(245,241,23);fill-rule:nonzero;"/>
        <path d="M3048.36,1594.09C3054.78,1543.94 3083.18,1500.67 3123.6,1474.25C3127.1,1474.69 3130.56,1475.24 3133.99,1475.9C3133.81,1483.93 3132.18,1498.78 3124.18,1516.64C3107.38,1520.88 3094.93,1531.89 3093.16,1546.12C3092.61,1550.54 3093.13,1554.91 3094.58,1559.08C3083.88,1569.96 3070.3,1580.9 3053.08,1591.31C3051.5,1592.27 3049.93,1593.19 3048.36,1594.09Z" style="fill:rgb(245,241,23);fill-rule:nonzero;"/>
        <path d="M2959.71,1732.69C2942.49,1706.22 2932.49,1674.62 2932.49,1640.69C2932.49,1547.39 3008.12,1471.76 3101.42,1471.76C3109.4,1471.76 3117.24,1472.32 3124.92,1473.39C3124.51,1473.66 3124.09,1473.93 3123.68,1474.2C3116.76,1473.33 3109.71,1472.89 3102.55,1472.89L3100.9,1472.89C3095.79,1472.93 3090.75,1473.21 3085.76,1473.69L3085.76,1473.71C3081.79,1474.11 3077.86,1474.64 3073.98,1475.3C3073.98,1475.28 3073.99,1475.26 3074,1475.24C3020.15,1484.27 2975,1518.74 2951.25,1565.8C2951.38,1565.8 2951.52,1565.79 2951.66,1565.79C2949.81,1569.45 2948.09,1573.18 2946.51,1576.99C2946.35,1577.04 2946.2,1577.08 2946.05,1577.12C2940.56,1590.34 2936.72,1604.41 2934.75,1619.06C2934.87,1619.07 2935,1619.08 2935.13,1619.1C2934.14,1626.53 2933.62,1634.12 2933.62,1641.82C2933.62,1647.4 2933.89,1652.9 2934.42,1658.34C2934.29,1658.34 2934.15,1658.35 2934.02,1658.35C2935.04,1668.82 2937.01,1679.01 2939.85,1688.83C2939.97,1688.82 2940.11,1688.81 2940.24,1688.8C2942.97,1698.25 2946.5,1707.36 2950.76,1716.05C2950.62,1716.05 2950.49,1716.05 2950.35,1716.04C2953.16,1721.78 2956.29,1727.34 2959.71,1732.69Z" style="fill:rgb(103,152,109);fill-rule:nonzero;"/>
        <path d="M3046.98,1800.66C3037.48,1797.43 3028.36,1793.37 3019.71,1788.58C3046.96,1785.54 3086.88,1777.75 3120.5,1755.17C3127.49,1759.96 3134.86,1764.24 3142.55,1767.95C3101.93,1787.75 3069.44,1796.68 3046.98,1800.66ZM3000.53,1776.2C2995.37,1772.35 2990.44,1768.22 2985.75,1763.82C3008.23,1759.19 3051.28,1747.76 3085.7,1723.38C3089.99,1728.56 3094.58,1733.47 3099.44,1738.11C3061.96,1764.96 3024.99,1773.65 3000.53,1776.2ZM2955.31,1716.1C2953.74,1716.1 2952.23,1716.08 2950.76,1716.05C2946.5,1707.36 2942.97,1698.25 2940.24,1688.8C2963.25,1686.69 3014.16,1680.35 3053.76,1663.28C3056.28,1671.89 3059.47,1680.22 3063.26,1688.2C3021.27,1711.26 2981.39,1716.1 2955.31,1716.1ZM2934.42,1658.34C2933.89,1652.9 2933.62,1647.4 2933.62,1641.82C2933.62,1634.12 2934.14,1626.53 2935.13,1619.1C2939.75,1619.57 2945.54,1619.95 2952.28,1619.95C2975.84,1619.95 3011.05,1615.34 3048.36,1594.09C3047.45,1601.18 3046.98,1608.41 3046.98,1615.75C3046.98,1620.86 3047.21,1625.93 3047.65,1630.93C2999.18,1653.67 2956.01,1657.87 2934.42,1658.34ZM2946.51,1576.99C2948.09,1573.18 2949.81,1569.45 2951.66,1565.79C2964.17,1565.27 2986.14,1561.05 3016.44,1542.84C3050.74,1522.23 3067.12,1492.02 3073.98,1475.3C3077.86,1474.64 3081.79,1474.11 3085.76,1473.71C3080.2,1489.52 3065.36,1523.47 3035.71,1541.56C3007.97,1558.48 2967.91,1571.02 2946.51,1576.99ZM3123.6,1474.25C3116.59,1473.35 3109.45,1472.89 3102.2,1472.89L3102.55,1472.89C3109.71,1472.89 3116.76,1473.33 3123.68,1474.2C3123.65,1474.21 3123.63,1474.23 3123.6,1474.25Z" style="fill:rgb(91,250,180);fill-rule:nonzero;"/>
        <path d="M2985.75,1763.82C2975.88,1754.54 2967.13,1744.09 2959.71,1732.69C2956.29,1727.34 2953.16,1721.78 2950.35,1716.04C2950.49,1716.05 2950.62,1716.05 2950.76,1716.05C2952.23,1716.08 2953.74,1716.1 2955.31,1716.1C2981.39,1716.1 3021.27,1711.26 3063.26,1688.2C3069.29,1700.87 3076.85,1712.68 3085.7,1723.38C3051.28,1747.76 3008.23,1759.19 2985.75,1763.82Z" style="fill:rgb(198,245,70);fill-rule:nonzero;"/>
        <path d="M2939.85,1688.83C2937.01,1679.01 2935.04,1668.82 2934.02,1658.35C2934.15,1658.35 2934.29,1658.34 2934.42,1658.34C2956.01,1657.87 2999.18,1653.67 3047.65,1630.93C3048.64,1642.06 3050.71,1652.87 3053.76,1663.28C3014.16,1680.35 2963.25,1686.69 2940.24,1688.8C2940.11,1688.81 2939.97,1688.82 2939.85,1688.83Z" style="fill:rgb(198,245,70);fill-rule:nonzero;"/>
        <path d="M3019.71,1788.58C3013.03,1784.88 3006.62,1780.74 3000.53,1776.2C3024.99,1773.65 3061.96,1764.96 3099.44,1738.11C3105.99,1744.33 3113.03,1750.04 3120.5,1755.17C3086.88,1777.75 3046.96,1785.54 3019.71,1788.58Z" style="fill:rgb(198,245,70);fill-rule:nonzero;"/>
        <path d="M3101.42,1809.62C3082.37,1809.62 3064.06,1806.47 3046.98,1800.66C3069.44,1796.68 3101.93,1787.75 3142.55,1767.95C3158.01,1775.41 3174.77,1780.59 3192.41,1783.05C3166.15,1799.87 3134.92,1809.62 3101.42,1809.62Z" style="fill:rgb(198,245,70);fill-rule:nonzero;"/>
        <path d="M2952.28,1619.95C2945.54,1619.95 2939.75,1619.57 2935.13,1619.1C2935,1619.08 2934.87,1619.07 2934.75,1619.06C2936.72,1604.41 2940.56,1590.34 2946.05,1577.12C2946.2,1577.08 2946.35,1577.04 2946.51,1576.99C2967.91,1571.02 3007.97,1558.48 3035.71,1541.56C3065.36,1523.47 3080.2,1489.52 3085.76,1473.71L3085.76,1473.69C3090.75,1473.21 3095.79,1472.93 3100.9,1472.89L3102.2,1472.89C3109.45,1472.89 3116.59,1473.35 3123.6,1474.25C3083.18,1500.67 3054.78,1543.94 3048.36,1594.09C3011.05,1615.34 2975.84,1619.95 2952.28,1619.95Z" style="fill:rgb(198,245,70);fill-rule:nonzero;"/>
        <path d="M2951.25,1565.8C2975,1518.74 3020.15,1484.27 3074,1475.24C3073.99,1475.26 3073.98,1475.28 3073.98,1475.3C3067.12,1492.02 3050.74,1522.23 3016.44,1542.84C2986.14,1561.05 2964.17,1565.27 2951.66,1565.79C2951.52,1565.79 2951.38,1565.8 2951.25,1565.8Z" style="fill:rgb(198,245,70);fill-rule:nonzero;"/>
        <path d="M3139.36,1589.56C3139.3,1589.55 3139.23,1589.54 3139.17,1589.53C3136.06,1589.15 3133.04,1588.56 3130.14,1587.8C3132.47,1583.97 3134.69,1580.15 3136.82,1576.36C3136.69,1580.58 3137.57,1585.07 3139.36,1589.56ZM3117.14,1582.87C3106.06,1577.2 3097.9,1568.67 3094.58,1559.08C3109.11,1544.32 3118.34,1529.68 3124.18,1516.64C3129.07,1515.41 3134.33,1514.75 3139.81,1514.75C3142.62,1514.75 3145.49,1514.92 3148.39,1515.28C3150.45,1515.54 3152.47,1515.88 3154.44,1516.3C3148.95,1536.12 3138.17,1560.27 3117.14,1582.87ZM3145.97,1558.98C3153.17,1544.42 3158.87,1530.7 3163.26,1518.83C3170.8,1521.57 3177.37,1525.54 3182.53,1530.32C3180.56,1538.33 3178.03,1547.02 3174.78,1556.14C3170.57,1554.96 3166.41,1554.37 3162.49,1554.37C3156.16,1554.37 3150.43,1555.9 3145.97,1558.98Z" style="fill:rgb(116,251,247);fill-rule:nonzero;"/>
        <path d="M3192.91,1564.86C3187.06,1560.74 3180.85,1557.83 3174.78,1556.14C3178.03,1547.02 3180.56,1538.33 3182.53,1530.32C3191.05,1538.22 3195.69,1548.32 3194.4,1558.7C3194.14,1560.83 3193.64,1562.89 3192.91,1564.86Z" style="fill:rgb(245,245,115);fill-rule:nonzero;"/>
        <path d="M3130.14,1587.8C3125.49,1586.59 3121.13,1584.91 3117.14,1582.87C3138.17,1560.27 3148.95,1536.12 3154.44,1516.3C3157.5,1516.96 3160.45,1517.81 3163.26,1518.83C3158.87,1530.7 3153.17,1544.42 3145.97,1558.98C3143.97,1560.36 3142.22,1562.05 3140.79,1564.05C3138.23,1567.63 3136.95,1571.84 3136.82,1576.36C3134.69,1580.15 3132.47,1583.97 3130.14,1587.8Z" style="fill:rgb(245,245,115);fill-rule:nonzero;"/>
        <path d="M3094.58,1559.08C3093.13,1554.91 3092.61,1550.54 3093.16,1546.12C3094.93,1531.89 3107.38,1520.88 3124.18,1516.64C3118.34,1529.68 3109.11,1544.32 3094.58,1559.08Z" style="fill:rgb(245,245,115);fill-rule:nonzero;"/>
        <path d="M3189.69,1624.13C3185.94,1624.13 3181.98,1623.59 3177.96,1622.52C3188.56,1605.86 3197.26,1589.73 3204.29,1575.14C3208.42,1579.95 3211.48,1585.14 3213.32,1590.3C3208.35,1600.84 3202.66,1612.05 3196.2,1623.55C3194.13,1623.94 3191.95,1624.13 3189.69,1624.13ZM3150.5,1606.22C3145.44,1601.05 3141.66,1595.3 3139.36,1589.56C3142.2,1589.9 3145,1590.07 3147.75,1590.07C3152.18,1590.07 3156.46,1589.64 3160.53,1588.82C3157.51,1594.59 3154.18,1600.4 3150.5,1606.22Z" style="fill:rgb(116,251,247);fill-rule:nonzero;"/>
        <path d="M3177.96,1622.52C3171.57,1620.81 3165.02,1617.76 3158.87,1613.37C3155.79,1611.17 3152.99,1608.76 3150.5,1606.22C3154.18,1600.4 3157.51,1594.59 3160.53,1588.82C3176.17,1585.67 3188.54,1576.81 3192.91,1564.86C3193.04,1564.95 3193.18,1565.04 3193.31,1565.13C3197.52,1568.14 3201.21,1571.54 3204.29,1575.14C3197.26,1589.73 3188.56,1605.86 3177.96,1622.52Z" style="fill:rgb(245,245,115);fill-rule:nonzero;"/>
        <path d="M3196.2,1623.55C3202.66,1612.05 3208.35,1600.84 3213.32,1590.3C3216.49,1599.13 3216.09,1607.86 3211.39,1614.45C3207.91,1619.33 3202.55,1622.35 3196.2,1623.55Z" style="fill:rgb(245,245,115);fill-rule:nonzero;"/>
        <path d="M3147.75,1590.07C3145,1590.07 3142.2,1589.9 3139.36,1589.56C3137.57,1585.07 3136.69,1580.58 3136.82,1576.36C3140.11,1570.48 3143.15,1564.66 3145.97,1558.98C3150.43,1555.9 3156.16,1554.37 3162.49,1554.37C3166.41,1554.37 3170.57,1554.96 3174.78,1556.14C3171.06,1566.59 3166.39,1577.61 3160.53,1588.82C3156.46,1589.64 3152.18,1590.07 3147.75,1590.07Z" style="fill:rgb(168,252,249);fill-rule:nonzero;"/>
        <path d="M3160.53,1588.82C3166.39,1577.61 3171.06,1566.59 3174.78,1556.14C3180.85,1557.83 3187.06,1560.74 3192.91,1564.86C3188.54,1576.81 3176.17,1585.67 3160.53,1588.82Z" style="fill:rgb(245,248,170);fill-rule:nonzero;"/>
        <path d="M3136.82,1576.36C3136.95,1571.84 3138.23,1567.63 3140.79,1564.05C3142.22,1562.05 3143.97,1560.36 3145.97,1558.98C3143.15,1564.66 3140.11,1570.48 3136.82,1576.36Z" style="fill:rgb(245,248,170);fill-rule:nonzero;"/>
    </g>
</svg>
