<?xml version="1.0" encoding="UTF-8" standalone="no"?>
<!DOCTYPE svg PUBLIC "-//W3C//DTD SVG 1.1//EN" "http://www.w3.org/Graphics/SVG/1.1/DTD/svg11.dtd">
<svg width="100%" height="100%" viewBox="0 0 580 344" version="1.1" xmlns="http://www.w3.org/2000/svg" xmlns:xlink="http://www.w3.org/1999/xlink" xml:space="preserve" xmlns:serif="http://www.serif.com/" style="fill-rule:evenodd;clip-rule:evenodd;stroke-linejoin:round;stroke-miterlimit:2;">
    <g transform="matrix(1,0,0,1,-45.791118,-1469.299988)">
        <path d="M522.094,1590.52C520.125,1588.27 510.36,1587.06 507.267,1588.88C501.533,1592.26 502.882,1598.57 502.951,1604.81C493.067,1595.26 477.157,1608.29 480.241,1621.48C471.511,1618.29 456.844,1626.89 456.183,1638.01C455.373,1651.63 475.21,1660.15 483.542,1650.91C489.939,1671.95 531.48,1671.22 532.895,1647.46C539.938,1660.42 555.388,1668.69 569.013,1669.1C578.982,1669.4 610.988,1654.29 599.958,1638.88C611.655,1639.08 628.233,1632.27 624.728,1615.18C620.978,1596.9 601.576,1604.41 591.432,1604.97C595.893,1595.08 577.308,1590.19 571.306,1588.9C561.076,1586.7 551.96,1588.86 543.073,1595.02C544.94,1579.94 517.448,1579.6 518.888,1595C520.187,1594.79 521.007,1594.04 522.094,1593.26L522.094,1590.52Z" style="fill:rgb(32,78,132);fill-rule:nonzero;"/>
        <path d="M105.537,1636.94C103.751,1635.07 94.903,1634.07 92.1,1635.58C86.904,1638.37 88.126,1643.6 88.19,1648.77C79.234,1640.86 64.818,1651.64 67.612,1662.56C59.701,1659.92 46.411,1667.04 45.813,1676.24C45.078,1687.52 63.053,1694.56 70.603,1686.92C76.399,1704.34 114.04,1703.73 115.323,1684.06C121.705,1694.79 135.704,1701.63 148.051,1701.97C157.082,1702.22 186.084,1689.72 176.089,1676.96C186.689,1677.13 201.71,1671.49 198.534,1657.34C195.137,1642.21 177.556,1648.43 168.363,1648.9C172.406,1640.71 155.566,1636.67 150.128,1635.6C140.858,1633.77 132.598,1635.56 124.546,1640.66C126.236,1628.18 101.327,1627.89 102.631,1640.64C103.809,1640.47 104.551,1639.85 105.537,1639.21L105.537,1636.94Z" style="fill:rgb(32,78,132);fill-rule:nonzero;"/>
        <path d="M519.163,1719.52C520.517,1721.71 528.954,1724.56 532.012,1723.67C537.68,1722.03 537.587,1716.67 538.611,1711.6C545.702,1721.22 562.065,1713.72 561.633,1702.45C568.81,1706.7 583.302,1702.54 585.823,1693.67C588.915,1682.8 572.827,1672.13 563.836,1678.01C561.838,1659.76 524.913,1652.43 519.518,1671.38C515.538,1659.55 503.293,1649.92 491.296,1646.99C482.518,1644.84 451.534,1650.96 458.618,1665.54C448.292,1663.14 432.42,1665.49 432.547,1679.99C432.683,1695.5 451.178,1693.12 460.264,1694.6C454.587,1701.75 470.198,1709.25 475.29,1711.44C483.967,1715.18 492.419,1715.16 501.364,1711.88C497.084,1723.72 521.375,1729.24 522.784,1716.51C521.598,1716.43 520.741,1716.88 519.641,1717.3L519.163,1719.52Z" style="fill:rgb(32,78,132);fill-rule:nonzero;"/>
        <path d="M513.351,1644.28C513.351,1737.58 437.716,1813.21 344.417,1813.21C251.118,1813.21 175.484,1737.58 175.484,1644.28C175.484,1550.98 251.118,1475.35 344.417,1475.35C437.716,1475.35 513.351,1550.98 513.351,1644.28Z" style="fill:rgb(151,252,104);fill-rule:nonzero;"/>
        <path d="M232.923,1719.86C232.923,1626.56 308.557,1550.92 401.856,1550.92C437.198,1550.92 470,1561.78 497.12,1580.34C473.488,1515.55 411.332,1469.3 338.371,1469.3C245.072,1469.3 169.438,1544.93 169.438,1638.23C169.438,1696.19 198.63,1747.32 243.108,1777.75C236.52,1759.69 232.923,1740.2 232.923,1719.86Z" style="fill:rgb(182,252,141);fill-rule:nonzero;"/>
        <path d="M380.307,1751.34C369.829,1751.34 358.414,1749.2 347.768,1745.19C342.725,1738.21 342.649,1729.35 349.508,1722.5C350.912,1722.65 352.38,1722.7 353.938,1722.73L354.208,1722.73C360.538,1722.73 370.382,1719.77 376.151,1714.33C376.597,1714.34 377.041,1714.34 377.484,1714.34C382.6,1714.34 387.537,1713.8 391.764,1712.89C409.039,1709.21 423.502,1696.74 424.516,1678.11C424.65,1675.64 424.475,1673.21 424.064,1670.81C425.497,1676.77 432.418,1682.12 437.72,1684.09C439.635,1684.81 441.54,1685.13 443.393,1685.13C443.69,1685.13 443.986,1685.12 444.28,1685.11C446.386,1695.37 445.985,1705.79 442.269,1715.43C429.983,1730.86 414.044,1743.36 399.313,1748.47C393.715,1750.41 387.213,1751.34 380.307,1751.34ZM237.758,1681.91C237.774,1681.3 237.721,1680.73 237.606,1680.19C238.103,1678.12 238.641,1676.06 239.214,1674.03C238.687,1676.31 239.216,1678.34 241.536,1679.65L237.758,1681.91ZM393.349,1675.09C390.675,1672.99 387.597,1671.5 384.774,1671.5C383.34,1671.5 381.971,1671.88 380.754,1672.77C382.122,1659.09 366.853,1653.16 352.361,1653.16C343.663,1653.16 335.247,1655.29 330.869,1659.16C330.875,1658.56 330.844,1657.98 330.778,1657.42C336.755,1652.97 343.333,1649.72 350.077,1645.25C354.876,1643.43 359.551,1641 364.178,1637.15C367.037,1634.78 370.039,1632.18 372.864,1629.35C374.431,1630.7 376.067,1632.08 377.739,1633.53C381.028,1636.37 384.294,1639.85 387.099,1643.73C383.015,1649.51 385.814,1656.22 393.814,1656.7C393.917,1657.03 394.015,1657.36 394.108,1657.69C390.05,1661.48 391.358,1665.37 395.11,1668.4C394.859,1670.66 394.291,1672.89 393.349,1675.09ZM239.465,1673.14C239.772,1672.07 240.088,1671.01 240.415,1669.95C240.542,1670.07 240.67,1670.19 240.798,1670.3C240.234,1671.26 239.775,1672.22 239.465,1673.14ZM423.874,1669.78C423.782,1669.32 423.681,1668.86 423.573,1668.4C423.689,1668.11 423.789,1667.81 423.873,1667.49C423.77,1668.26 423.775,1669.02 423.874,1669.78ZM287.419,1635.21C285.035,1635.21 282.284,1634.56 278.831,1633.04C276.163,1631.86 273.457,1630.3 271.215,1628.45C275.747,1625.91 278.929,1621.91 279.287,1616.43C281.747,1620.56 285.338,1624.12 289.531,1626.95C289.467,1629.57 289.714,1632.24 290.207,1634.89C289.325,1635.1 288.403,1635.21 287.419,1635.21ZM447.384,1632.64C444.577,1627.65 438.406,1624.91 432.215,1624.08C431.713,1623.64 431.156,1623.25 430.521,1622.95C428.809,1622.13 426.52,1621.91 424.2,1621.91C422.091,1621.91 419.956,1622.09 418.204,1622.17C413.003,1622.41 407.402,1622.29 402.578,1624.15C401.891,1621.92 401.487,1619.71 401.535,1617.6C401.736,1608.67 409.237,1600.62 417.846,1600.62C418.32,1600.62 418.797,1600.65 419.277,1600.7C432.501,1602.07 443.399,1612.57 451.046,1625.33C449.373,1627.52 448.112,1629.99 447.384,1632.64ZM344.281,1621.02C343.2,1620.28 342.081,1619.63 340.931,1619.09C342.613,1616 342.676,1612.67 340.053,1609.32C340.209,1609.32 340.365,1609.33 340.522,1609.33C343.446,1609.33 346.675,1608.89 349.749,1607.97C349.094,1612.54 347.109,1617.12 344.281,1621.02ZM462.545,1593.81C460.49,1591.91 458.322,1589.94 456.032,1587.75C441.687,1574.04 432.353,1564.21 410.88,1564.2L410.853,1564.2C398.114,1564.2 386.183,1567.9 376.734,1575.19C371.928,1568.25 365.554,1561.92 358.381,1556.57C369.522,1553.61 381.107,1551.76 393.026,1551.15C397.646,1554.22 402.563,1556.72 406.462,1558.55C428.423,1568.84 453.344,1562.41 461.262,1589.54C461.675,1590.96 462.11,1592.38 462.545,1593.81Z" style="fill:rgb(109,217,111);fill-rule:nonzero;"/>
        <path d="M213.207,1682.19C212.531,1681.05 211.844,1679.89 211.137,1678.7C205.906,1669.92 201.29,1663.62 198.307,1655.2C200.227,1656.46 202.179,1657.8 204.02,1658.19C206.01,1658.61 208.32,1658.79 210.722,1658.79C215.218,1658.79 220.04,1658.17 223.71,1657.41C225.766,1656.99 227.96,1656.23 230.109,1655.19C232.758,1660.91 236.167,1666.02 240.415,1669.95C240.088,1671.01 239.772,1672.07 239.465,1673.14C239.365,1673.44 239.281,1673.73 239.214,1674.03C238.641,1676.06 238.103,1678.12 237.606,1680.19C236.758,1676.27 232.549,1674.47 227.818,1674.47C221.933,1674.47 215.242,1677.25 213.207,1682.19ZM229.185,1591.6C224.525,1584.92 216.286,1580.74 207.913,1579.55C204.822,1579.12 201.796,1578.9 198.843,1578.9L198.286,1578.9C198.398,1578.73 198.51,1578.55 198.625,1578.37C202.669,1572.15 209.453,1568.44 215.65,1564.01C224.078,1557.99 229.528,1551.31 236.246,1543.62C247.858,1530.33 264.349,1507.32 283.821,1507.32C284.023,1507.32 284.226,1507.33 284.429,1507.33C293,1507.54 300.779,1512.16 309.372,1512.62C309.896,1512.65 310.394,1512.66 310.87,1512.66C319.465,1512.66 320.586,1508.14 326.352,1502.2C330.935,1497.49 337.94,1495.49 345.489,1495.49C358.095,1495.49 372.214,1501.06 379.086,1508.84C385.444,1516.04 376.244,1526.8 379.203,1535.9C381.139,1541.85 386.814,1547.02 393.026,1551.15C381.107,1551.76 369.522,1553.61 358.381,1556.57C343.93,1545.79 326.239,1538.95 311.595,1538.95C310.652,1538.95 309.717,1538.98 308.801,1539.04C281.226,1540.77 243.775,1563.87 229.185,1591.6Z" style="fill:rgb(130,217,137);fill-rule:nonzero;"/>
        <path d="M362.147,1802C353.667,1802 345.323,1800.04 339.674,1796.37C331.622,1791.13 337.606,1778.31 332.321,1770.33C326.292,1761.24 309.95,1757.48 299.992,1755.8C296.161,1755.16 292.373,1754.94 288.649,1754.94C285.071,1754.94 281.552,1755.14 278.116,1755.34C274.676,1755.53 271.32,1755.73 268.064,1755.73C256.829,1755.73 246.816,1753.38 238.898,1740.61C237.076,1737.67 235.117,1734.71 233.33,1731.68C233.06,1727.77 232.923,1723.83 232.923,1719.86C232.923,1715.49 233.089,1711.16 233.414,1706.87C236.6,1709.01 240.264,1710.83 244.624,1712.33C249.544,1715.77 255.905,1717.26 262.442,1717.26C269.553,1717.26 276.871,1715.5 282.768,1712.58C284.815,1711.82 286.816,1710.92 288.762,1709.88C293.533,1715.3 300.843,1720.88 308.006,1721.8C308.649,1721.89 309.3,1721.92 309.957,1721.92C311.426,1721.92 312.922,1721.73 314.406,1721.4C321.919,1731.97 334.217,1740.09 347.768,1745.19C350.146,1748.48 353.628,1751.35 358.008,1753.39C363.094,1755.76 368.863,1756.81 374.929,1756.81C397.138,1756.81 423.372,1742.76 435.065,1727.99C438.203,1724.03 440.579,1719.81 442.269,1715.43C451.721,1703.56 459.009,1689.96 461.923,1676.66C467.241,1680.9 471.882,1686.29 480.159,1686.29C480.893,1686.29 481.654,1686.24 482.448,1686.15C486.605,1685.69 490.775,1684.43 494.464,1682.44C491.993,1688.86 486.856,1693.93 482.381,1699.47C475.871,1707.52 472.408,1715.42 467.994,1724.63C460.285,1740.71 450.428,1767.68 431.283,1772.49C428.265,1773.25 425.193,1773.42 422.101,1773.42C420.816,1773.42 419.528,1773.39 418.239,1773.36C416.95,1773.33 415.659,1773.3 414.37,1773.3C411.507,1773.3 408.652,1773.45 405.835,1774.07C396.07,1776.23 396.447,1780.98 392.261,1788.65C387.261,1797.81 374.557,1802 362.147,1802ZM379.24,1710.46C380.461,1708.3 381.045,1705.87 380.715,1703.19C380.978,1703.2 381.244,1703.21 381.512,1703.21C389.24,1703.21 398.796,1697.15 400.4,1689.38C404.065,1694.85 404.868,1700.97 397.411,1704.79C391.717,1707.71 385.511,1709.14 379.24,1710.46ZM408.797,1640.27C405.578,1638.02 402.521,1636.7 399.392,1636.7C397.109,1636.7 394.788,1637.4 392.336,1638.98C391.051,1636.05 392.176,1632.27 397.189,1627.5C398.807,1625.96 400.629,1624.89 402.578,1624.15C404.076,1629 406.922,1633.95 409.385,1638.27C409.18,1638.93 408.986,1639.59 408.797,1640.27ZM372.864,1629.35C363.607,1621.39 356.759,1614.62 358.944,1602.85C361.66,1600.17 363.283,1596.59 362.865,1592.01C366.376,1585.15 371.115,1579.53 376.734,1575.19C383.779,1585.37 387.452,1596.88 385.339,1608.6C383.912,1616.52 378.776,1623.43 372.864,1629.35ZM465.884,1616.13C466.98,1608.73 464.778,1601.17 462.545,1593.81C469.197,1599.96 474.664,1605.34 479.2,1614.68C479.368,1615.03 479.535,1615.37 479.701,1615.71C477.874,1615.49 476.001,1615.39 474.182,1615.39C471.1,1615.39 468.174,1615.68 465.884,1616.13Z" style="fill:rgb(203,247,52);fill-rule:nonzero;"/>
        <path d="M233.33,1731.68C228.944,1724.24 225.598,1716.37 227.872,1707.34C228.113,1706.38 228.413,1705.44 228.767,1704.53C229.445,1704.72 230.122,1704.87 230.794,1704.96C231.633,1705.62 232.503,1706.26 233.414,1706.87C233.089,1711.16 232.923,1715.49 232.923,1719.86C232.923,1723.83 233.06,1727.77 233.33,1731.68Z" style="fill:rgb(219,247,70);fill-rule:nonzero;"/>
        <path d="M374.929,1756.81C368.863,1756.81 363.094,1755.76 358.008,1753.39C353.628,1751.35 350.146,1748.48 347.768,1745.19C358.414,1749.2 369.829,1751.34 380.307,1751.34C387.213,1751.34 393.715,1750.41 399.313,1748.47C414.044,1743.36 429.983,1730.86 442.269,1715.43C440.579,1719.81 438.203,1724.03 435.065,1727.99C423.372,1742.76 397.138,1756.81 374.929,1756.81ZM377.484,1714.34C377.041,1714.34 376.597,1714.34 376.151,1714.33C377.396,1713.15 378.451,1711.86 379.24,1710.46C385.511,1709.14 391.717,1707.71 397.411,1704.79C404.868,1700.97 404.065,1694.85 400.4,1689.38C400.747,1687.71 400.722,1685.95 400.229,1684.16C399.454,1681.35 396.722,1677.74 393.349,1675.09C394.291,1672.89 394.859,1670.66 395.11,1668.4C399.211,1671.71 406.232,1674 412.345,1674C417.489,1674 421.99,1672.38 423.573,1668.4C423.681,1668.86 423.782,1669.32 423.874,1669.78C423.918,1670.13 423.982,1670.47 424.064,1670.81C424.475,1673.21 424.65,1675.64 424.516,1678.11C423.502,1696.74 409.039,1709.21 391.764,1712.89C387.537,1713.8 382.6,1714.34 377.484,1714.34ZM282.768,1712.58C284.764,1711.59 286.598,1710.47 288.205,1709.24C288.387,1709.45 288.572,1709.67 288.762,1709.88C286.816,1710.92 284.815,1711.82 282.768,1712.58ZM244.624,1712.33C240.264,1710.83 236.6,1709.01 233.414,1706.87C233.46,1706.27 233.509,1705.67 233.561,1705.07C234.982,1704.97 236.346,1704.61 237.605,1703.95C239.245,1707.51 241.676,1710.27 244.624,1712.33ZM394.108,1657.69C394.015,1657.36 393.917,1657.03 393.814,1656.7C394.118,1656.72 394.428,1656.73 394.746,1656.73C394.918,1656.73 395.09,1656.73 395.267,1656.72C394.84,1657.05 394.455,1657.37 394.108,1657.69ZM387.099,1643.73C384.294,1639.85 381.028,1636.37 377.739,1633.53C376.067,1632.08 374.431,1630.7 372.864,1629.35C378.776,1623.43 383.912,1616.52 385.339,1608.6C387.452,1596.88 383.779,1585.37 376.734,1575.19C386.183,1567.9 398.114,1564.2 410.853,1564.2L410.88,1564.2C432.353,1564.21 441.687,1574.04 456.032,1587.75C458.322,1589.94 460.49,1591.91 462.545,1593.81C464.778,1601.17 466.98,1608.73 465.884,1616.13C465.219,1616.26 464.608,1616.4 464.062,1616.56C458.801,1618.06 454.194,1621.21 451.046,1625.33C443.399,1612.57 432.501,1602.07 419.277,1600.7C418.797,1600.65 418.32,1600.62 417.846,1600.62C409.237,1600.62 401.736,1608.67 401.535,1617.6C401.487,1619.71 401.891,1621.92 402.578,1624.15C400.629,1624.89 398.807,1625.96 397.189,1627.5C392.176,1632.27 391.051,1636.05 392.336,1638.98C391.281,1639.65 390.203,1640.49 389.093,1641.5C388.305,1642.21 387.641,1642.96 387.099,1643.73Z" style="fill:rgb(182,230,55);fill-rule:nonzero;"/>
        <path d="M233.414,1706.87C232.503,1706.26 231.633,1705.62 230.794,1704.96C231.438,1705.05 232.078,1705.1 232.708,1705.1C232.994,1705.1 233.279,1705.09 233.561,1705.07C233.509,1705.67 233.46,1706.27 233.414,1706.87Z" style="fill:rgb(193,230,68);fill-rule:nonzero;"/>
        <path d="M245.742,1664.04C244.854,1663.38 243.978,1662.68 243.117,1661.93C246.98,1651.35 251.87,1641.26 257.667,1631.79C260.795,1631.74 263.895,1631.27 266.731,1630.37C267.355,1633.06 268.003,1635.71 268.577,1638.29C269.891,1644.18 272.454,1652.12 272.394,1659.03C268.711,1657.12 265.361,1655.83 261.772,1655.83C258.618,1655.83 255.281,1656.82 251.367,1659.24C250.038,1660.07 247.882,1661.84 245.742,1664.04ZM328.478,1651.71C324.826,1646.99 317.425,1644.92 309.31,1644.92C304.296,1644.92 299.006,1645.71 294.163,1647.15C292.397,1643.28 290.992,1639.11 290.207,1634.89C292.707,1634.3 294.895,1632.93 297.307,1631.1C302.092,1633.07 307.179,1634.2 312.015,1634.34L312.287,1634.34C314.868,1634.34 318.903,1633.39 323.181,1631.75C323.835,1632.07 324.636,1632.24 325.612,1632.24C327.404,1632.24 329.789,1631.67 332.947,1630.37C337.288,1628.58 341.264,1625.19 344.281,1621.02C345.255,1621.69 346.198,1622.45 347.105,1623.29C354.304,1629.99 360.775,1637.91 351.558,1644.25C351.064,1644.59 350.57,1644.93 350.077,1645.25C343.205,1647.86 336.079,1649.23 328.478,1651.71Z" style="fill:rgb(203,247,52);fill-rule:nonzero;"/>
        <path d="M243.117,1661.93C240.898,1659.99 238.763,1657.69 236.693,1655C236.037,1654.15 235.401,1653.28 234.785,1652.41C240.884,1648.01 245.313,1641.35 242.883,1633.95C243.068,1633.96 243.257,1633.96 243.444,1633.96C247.485,1633.96 251.85,1633.25 255.689,1631.76C256.185,1631.78 256.68,1631.79 257.174,1631.79L257.667,1631.79C251.87,1641.26 246.98,1651.35 243.117,1661.93Z" style="fill:rgb(219,247,70);fill-rule:nonzero;"/>
        <path d="M276.342,1661.21C274.971,1660.42 273.662,1659.69 272.394,1659.03C272.454,1652.12 269.891,1644.18 268.577,1638.29C268.003,1635.71 267.355,1633.06 266.731,1630.37C268.323,1629.87 269.832,1629.23 271.215,1628.45C273.457,1630.3 276.163,1631.86 278.831,1633.04C282.284,1634.56 285.035,1635.21 287.419,1635.21C288.403,1635.21 289.325,1635.1 290.207,1634.89C290.992,1639.11 292.397,1643.28 294.163,1647.15C285.096,1649.85 277.588,1654.84 276.342,1661.21ZM330.778,1657.42C330.518,1655.2 329.711,1653.3 328.478,1651.71C336.079,1649.23 343.205,1647.86 350.077,1645.25C343.333,1649.72 336.755,1652.97 330.778,1657.42ZM325.612,1632.24C324.636,1632.24 323.835,1632.07 323.181,1631.75C330.269,1629.04 338.022,1624.43 340.931,1619.09C342.081,1619.63 343.2,1620.28 344.281,1621.02C341.264,1625.19 337.288,1628.58 332.947,1630.37C329.789,1631.67 327.404,1632.24 325.612,1632.24Z" style="fill:rgb(182,230,55);fill-rule:nonzero;"/>
        <path d="M231.575,1594.92C231.393,1594.86 231.209,1594.81 231.021,1594.76C230.837,1594.37 230.642,1593.99 230.437,1593.62C230.692,1593.19 230.954,1592.76 231.224,1592.33C231.239,1593.18 231.353,1594.05 231.575,1594.92ZM252.155,1581.13C250.003,1579.23 247.535,1578.41 245.068,1578.41C243.994,1578.41 242.92,1578.56 241.871,1578.85C254.693,1565.54 272.662,1554.65 288.959,1554.65C290.842,1554.65 292.704,1554.8 294.532,1555.1C303.172,1556.54 309.699,1561.39 312.274,1567.65C310.545,1567.39 308.85,1567.26 307.185,1567.26C300.623,1567.26 294.509,1569.23 288.509,1573.02C289.36,1566.75 283.48,1563.55 277.592,1563.55C273.484,1563.55 269.373,1565.11 267.538,1568.25C265.651,1567.61 262.895,1567.21 260.467,1567.21C258.647,1567.21 257.01,1567.43 256.065,1567.94C250.868,1570.74 252.091,1575.97 252.155,1581.13Z" style="fill:rgb(219,247,70);fill-rule:nonzero;"/>
        <path d="M265.272,1612.09C261.127,1601.53 241.712,1592.45 232.924,1601.43C231.506,1589.03 219.846,1581.24 207.913,1579.55C189.476,1576.95 173.449,1582.25 160.409,1593.83C153.747,1584.94 146.875,1580.48 135.485,1581.1C125.337,1581.66 106.073,1588.76 104.312,1600.49C96.415,1592.65 82.507,1602.78 80.318,1611.33C78.186,1619.66 81.316,1633.66 92.768,1631.77C91.281,1637.64 87.18,1641.52 89.199,1649.1C91.036,1656 95.155,1660.29 102.026,1662.73C111.263,1666.01 138.628,1667.3 142.251,1654.51C149.845,1660.81 154.162,1666.83 164.924,1667.43C171.869,1667.82 177.152,1667.22 183.5,1663.48C185.494,1662.31 188.281,1660.77 189.735,1658.99C190.375,1658.21 191.225,1653.12 191.362,1653.05C195.01,1651.41 199.808,1657.3 204.02,1658.19C209.735,1659.41 218.079,1658.58 223.71,1657.41C233.62,1655.36 246.696,1645.56 242.883,1633.95C255.346,1634.16 271.33,1627.52 265.272,1612.09Z" style="fill:rgb(12,193,188);fill-rule:nonzero;"/>
        <path d="M400.229,1684.16C398.527,1677.98 387.389,1667.95 380.754,1672.77C382.943,1650.87 342.541,1648.84 330.869,1659.16C331.076,1636.57 279.786,1643.61 276.342,1661.21C267.493,1656.16 261.269,1653.12 251.367,1659.24C246.963,1661.97 233.495,1675.11 241.536,1679.65L237.758,1681.91C238.051,1670.94 216.147,1672.82 212.971,1682.84C209.395,1694.11 227.164,1709.45 237.605,1703.95C245.963,1722.11 274.874,1719.46 288.205,1709.24C292.952,1714.85 300.559,1720.85 308.006,1721.8C312.794,1722.42 318.096,1720.61 322.405,1718.4C324.272,1717.44 330.369,1711.34 332.212,1711.34C335.498,1711.32 337.614,1716.91 339.959,1718.76C344.304,1722.19 348.584,1722.65 353.938,1722.73C363.674,1722.86 382.265,1715.75 380.715,1703.19C390.205,1703.72 403.086,1694.53 400.229,1684.16Z" style="fill:rgb(12,193,188);fill-rule:nonzero;"/>
        <path d="M269.5,1569.3C267.715,1567.44 258.868,1566.43 256.065,1567.94C250.868,1570.74 252.091,1575.97 252.155,1581.13C243.198,1573.22 228.781,1584 231.575,1594.92C223.666,1592.29 210.375,1599.41 209.776,1608.6C209.043,1619.88 227.017,1626.93 234.567,1619.28C240.363,1636.7 278.004,1636.09 279.287,1616.43C285.669,1627.16 299.668,1634 312.015,1634.34C321.046,1634.59 350.048,1622.08 340.053,1609.32C350.653,1609.49 365.674,1603.85 362.498,1589.71C359.1,1574.58 341.519,1580.79 332.327,1581.26C336.37,1573.07 319.529,1569.03 314.092,1567.96C304.821,1566.14 296.562,1567.93 288.509,1573.02C290.2,1560.54 265.291,1560.26 266.594,1573C267.772,1572.83 268.515,1572.21 269.5,1571.57L269.5,1569.3Z" style="fill:rgb(12,193,188);fill-rule:nonzero;"/>
        <path d="M411.122,1642.02C403.572,1635.96 397.161,1634.16 389.093,1641.5C382.017,1647.93 385.02,1657.04 395.267,1656.72C379.448,1668.65 419.94,1682.39 423.873,1667.49C422.905,1674.69 431.446,1681.76 437.72,1684.09C446.555,1687.38 455.154,1682.49 459.641,1674.97C466.51,1679.63 471.447,1687.39 482.448,1686.15C492.874,1684.98 503.382,1678.84 506.182,1668.67C509.869,1684.97 548.548,1677.32 540.607,1654.87C546.621,1655.02 550.539,1658.21 556.525,1655.22C560.99,1652.98 566.248,1645.24 566.07,1640.25C565.715,1630.39 545.975,1622.29 538.711,1628.49C542.764,1609.89 498.626,1608.09 492.642,1622.64C489.539,1614.37 471.191,1614.52 464.062,1616.56C456.003,1618.86 449.481,1625.01 447.384,1632.64C443.33,1625.43 432.264,1622.93 424.248,1624.05C412.906,1625.65 410.424,1633.91 408.058,1643.03C409.401,1643.62 409.817,1643.04 411.027,1642.77L411.122,1642.02Z" style="fill:rgb(12,193,188);fill-rule:nonzero;"/>
        <path d="M128.535,1642.39C123.401,1642.39 119.344,1640.6 119.395,1636.6C118.835,1640.32 114.109,1641.85 109.353,1641.86C105.751,1641.86 102.13,1640.97 100.29,1639.49C95.004,1635.25 98.921,1629.61 99.828,1625.23L99.45,1625.61C98.917,1625.96 98.4,1626.12 97.91,1626.12C94.565,1626.12 92.387,1618.78 93.671,1616.08C94.71,1613.88 98.078,1612.25 101.005,1612.25C102.713,1612.25 104.27,1612.81 105.128,1614.13C106.111,1607.29 113.067,1603.06 119.698,1603.06C122.939,1603.06 126.103,1604.07 128.453,1606.28C130.634,1603.01 137.264,1601.28 143.547,1601.28C151.225,1601.28 158.384,1603.86 156.274,1609.37C163.935,1612.36 159.122,1626.11 151.107,1626.11C150.307,1626.11 149.476,1625.98 148.622,1625.68C152.095,1635.85 138.348,1642.39 128.535,1642.39Z" style="fill:rgb(85,212,208);fill-rule:nonzero;"/>
        <path d="M210.126,1625.48C209.038,1625.48 208.039,1625.32 207.224,1624.96C203.998,1623.56 199.579,1617.84 202.473,1614.56C197.275,1612.14 201.523,1605.77 204.881,1604.15C206.85,1603.2 209.773,1602.17 212.78,1601.64C211.068,1603.7 209.941,1606.07 209.776,1608.6C209.385,1614.63 214.328,1619.44 220.169,1621.46C217.92,1623.84 213.574,1625.48 210.126,1625.48ZM229.184,1623.2C227.434,1623.2 225.624,1622.99 224.193,1622.37C224.822,1622.44 225.449,1622.48 226.071,1622.48C229.307,1622.48 232.376,1621.5 234.567,1619.28C234.892,1620.25 235.315,1621.17 235.827,1622.03C235.274,1622.33 234.692,1622.56 234.07,1622.7C232.867,1622.96 231.059,1623.2 229.184,1623.2Z" style="fill:rgb(85,212,208);fill-rule:nonzero;"/>
        <path d="M226.071,1622.48C225.449,1622.48 224.822,1622.44 224.193,1622.37C222.811,1621.78 221.782,1620.82 221.498,1619.31C221.262,1620.07 220.797,1620.79 220.169,1621.46C214.328,1619.44 209.385,1614.63 209.776,1608.6C209.941,1606.07 211.068,1603.7 212.78,1601.64C214.071,1601.41 215.377,1601.27 216.631,1601.27C219.136,1601.27 221.431,1601.82 222.964,1603.28C223.209,1600.01 227.271,1598.79 231.325,1598.79C234.418,1598.79 237.507,1599.5 238.89,1600.53C239.845,1597.82 240.123,1595.02 242.663,1593.49C243.656,1592.89 244.588,1592.63 245.452,1592.63C247.284,1592.63 248.814,1593.78 249.981,1595.26C251.056,1592.6 253.456,1591.35 255.978,1591.35C258.896,1591.35 261.976,1593.02 263.351,1596.1C265.526,1591.77 273.577,1588.35 280.193,1588.35C285.338,1588.35 289.617,1590.42 289.586,1595.73C292.094,1594.03 294.683,1593.06 297.246,1593.06C299.77,1593.06 302.27,1594 304.643,1596.13C314.071,1604.6 299.329,1607.88 292.33,1607.88C292.009,1607.88 291.704,1607.87 291.418,1607.86C286.591,1607.63 282.29,1606.48 277.89,1604.72C276.422,1604.13 275.577,1603.61 274.6,1603.61C273.991,1603.61 273.331,1603.81 272.438,1604.33C270.4,1605.52 267.026,1610.82 264.151,1610.82C263.053,1610.82 262.028,1610.05 261.178,1607.98C259.976,1611.83 257.846,1615.69 253.915,1617.69C252.788,1618.27 251.801,1618.48 250.894,1618.48C249.673,1618.48 248.596,1618.1 247.515,1617.72C246.434,1617.34 245.349,1616.96 244.111,1616.96C243.888,1616.96 243.661,1616.97 243.428,1616.99C240.748,1617.3 238.675,1620.51 235.827,1622.03C235.315,1621.17 234.892,1620.25 234.567,1619.28C232.376,1621.5 229.307,1622.48 226.071,1622.48Z" style="fill:rgb(85,212,208);fill-rule:nonzero;"/>
        <path d="M303.535,1704.21L303.133,1704.21C296.055,1704.12 293.676,1700.06 288.764,1696.23C284.104,1700.81 277.641,1703.79 271.009,1703.79C269.747,1703.79 268.477,1703.68 267.214,1703.45C262.695,1702.65 256.778,1700.26 256.273,1695.08C255.593,1696.9 254.099,1697.7 252.476,1697.7C249.559,1697.7 246.224,1695.14 246.441,1691.38C246.601,1688.62 248.503,1685.89 250.975,1684.63C251.591,1684.32 252.775,1684.09 253.988,1683.98C252.646,1681.13 254.106,1676.73 256.644,1675.01C258.19,1673.96 259.936,1673.51 261.708,1673.51C265.146,1673.51 268.678,1675.22 271.011,1677.61C273.238,1674.04 275.647,1671.05 280.082,1670.96C280.156,1670.95 280.228,1670.95 280.301,1670.95C284.798,1670.95 287.282,1674 290.955,1675.44C294.859,1667.11 300.134,1665.45 309.181,1664.25C311.251,1663.97 313.223,1663.82 315.093,1663.82C323.912,1663.82 330.431,1667.15 334.016,1676.22C335.081,1673.84 337.505,1672.97 340.101,1672.97C342.627,1672.97 345.316,1673.79 347.074,1674.82C350.066,1676.58 352.435,1679.16 352.644,1682.7C352.85,1686.21 351.173,1686.02 349.964,1688.24C349.037,1689.94 349.046,1692.46 348.025,1694.45C345.587,1699.2 341.815,1700.98 336.672,1701.48C335.431,1701.6 334.166,1701.69 332.906,1701.69C330.054,1701.69 327.227,1701.24 324.768,1699.69C322.677,1698.38 321.211,1696.24 319.09,1695.19C316.963,1702.04 310.183,1704.21 303.535,1704.21Z" style="fill:rgb(85,212,208);fill-rule:nonzero;"/>
        <path d="M439.861,1671.2C438.312,1671.2 436.8,1670.79 435.413,1669.85C431.989,1667.54 431.512,1660.62 427.08,1659.98C426.885,1659.95 426.692,1659.93 426.499,1659.93C422.991,1659.93 420.003,1664.46 416.499,1664.99C415.606,1665.13 414.95,1665.24 414.44,1665.24C413.397,1665.24 412.956,1664.77 412.323,1663.02C412.271,1662.88 412.234,1662.71 412.202,1662.54C411.2,1662.96 410.175,1663.22 409.149,1663.22C408.056,1663.22 406.963,1662.92 405.899,1662.18C403.346,1660.4 401.862,1656.48 403.99,1654.03L403.693,1654.03C398.564,1654.03 395.258,1649.42 401.301,1647.06C402.192,1646.71 403.048,1646.55 403.873,1646.55C406.819,1646.55 409.352,1648.52 411.588,1650.59C415.057,1646.23 416.207,1641.48 422.934,1640.42C423.379,1640.35 423.845,1640.32 424.325,1640.32C429.464,1640.32 436.219,1644.2 435.847,1649.68C438.306,1644.68 442.91,1642.07 447.501,1642.07C451.765,1642.07 456.019,1644.32 458.53,1649.01C460.844,1646.28 465.008,1644.86 469.202,1644.86C473.736,1644.86 478.306,1646.53 480.609,1650C482.41,1652.72 482.884,1660.03 480.072,1660.03C479.378,1660.03 478.483,1659.59 477.359,1658.52C473.869,1662.45 471.219,1665.37 465.843,1665.37C465.322,1665.37 464.774,1665.34 464.198,1665.28C459.68,1664.84 458.042,1661.33 454.373,1660.04C452.307,1665.18 445.811,1671.2 439.861,1671.2Z" style="fill:rgb(85,212,208);fill-rule:nonzero;"/>
    </g>
</svg>
