<?xml version="1.0" encoding="UTF-8" standalone="no"?>
<!DOCTYPE svg PUBLIC "-//W3C//DTD SVG 1.1//EN" "http://www.w3.org/Graphics/SVG/1.1/DTD/svg11.dtd">
<svg width="100%" height="100%" viewBox="0 0 339 339" version="1.1" xmlns="http://www.w3.org/2000/svg" xmlns:xlink="http://www.w3.org/1999/xlink" xml:space="preserve" xmlns:serif="http://www.serif.com/" style="fill-rule:evenodd;clip-rule:evenodd;stroke-linejoin:round;stroke-miterlimit:2;">
    <g transform="matrix(1,0,0,1,-647.601525,-156.131551)">
        <path d="M980.783,285.431C1002.69,376.122 946.937,467.403 856.246,489.313C765.556,511.224 674.275,455.466 652.365,364.777C630.454,274.086 686.212,182.805 776.901,160.895C867.592,138.984 958.873,194.742 980.783,285.431Z" style="fill:rgb(93,167,154);fill-rule:nonzero;"/>
        <path d="M816.993,494.594C773.839,494.592 732.946,477.944 702.197,449.454C732.884,477.625 773.543,494.077 816.436,494.077C829.569,494.077 842.917,492.534 856.246,489.313C946.937,467.403 1002.69,376.122 980.783,285.431C972.787,252.336 955.562,223.899 932.489,202.185C955.838,223.962 973.281,252.591 981.34,285.95C1003.25,376.639 947.493,467.921 856.803,489.831C843.468,493.052 830.131,494.595 816.993,494.594Z" style="fill:rgb(86,121,93);fill-rule:nonzero;"/>
        <path d="M816.436,494.077C773.543,494.077 732.884,477.625 702.197,449.454C678.641,427.628 661.028,398.848 652.922,365.293C640.265,312.903 653.528,260.317 684.47,221.02C689.921,216.059 695.874,214.186 701.673,214.186C714.101,214.186 725.822,222.786 730.387,228.018C737.056,235.662 740.991,245.375 743.213,256.166C733.106,257.323 723.653,269.092 718.217,275.621L722.422,276.937C721.768,277.264 721.027,277.195 720.357,277.554C720.39,277.782 720.431,278.003 720.48,278.218C716.265,280.019 712.086,282.008 707.949,284.279C700.621,288.301 690.53,294.25 680.941,301.479L676.953,301.14C676.098,300.957 675.261,300.869 674.445,300.869C666.337,300.869 660.232,309.483 658.558,318.098C658.143,320.233 658,322.368 658.166,324.372C650.448,336.311 648.897,349.427 661.043,362.22C672,373.76 682.91,378.458 693.43,378.458C712.032,378.458 729.427,363.789 743.803,346.324C743.845,347.545 743.904,348.74 743.982,349.906C746.282,384.397 749.724,420.845 785.369,436.201C797.923,441.609 812.053,444.121 826.419,444.121C847.468,444.12 869.018,438.724 886.815,429.133C949.654,395.273 951.152,333.523 922.597,279.962C923.018,279.848 923.439,279.73 923.862,279.605C924.37,279.455 924.883,279.298 925.399,279.133C926.482,279.485 927.659,279.675 928.923,279.676C930.576,279.676 932.379,279.35 934.323,278.63C937.574,277.426 940.96,273.912 943.122,269.902C944.74,268.525 946.2,267.014 947.435,265.361C950.999,260.588 951.112,257.088 950.348,252.649C951.003,252.959 951.643,253.134 952.244,253.137L952.305,253.137C962.405,253.137 954.581,239.414 948.013,238.763L946.266,237.697C941.673,226.349 931.915,209.759 915.514,200.339C912.89,196.05 905.323,192.141 901.642,191.653L897.233,192.718C896.782,193.011 896.398,193.325 896.077,193.657C893.489,193.292 890.797,193.098 887.993,193.098C878.142,193.098 866.942,195.488 854.266,201.253C854.16,201.119 854.047,200.984 853.927,200.85C852.145,198.863 849.705,198.123 847.094,197.939C840.503,191.626 834.332,184.997 829.007,177.741C823.417,170.125 820.711,163.045 820.236,156.681C862.491,157.429 902.395,174.115 932.489,202.185C955.562,223.899 972.787,252.336 980.783,285.431C1002.69,376.122 946.937,467.403 856.246,489.313C842.917,492.534 829.569,494.077 816.436,494.077Z" style="fill:rgb(116,201,134);fill-rule:nonzero;"/>
        <path d="M681.716,301.544L676.953,301.14C667.612,299.134 660.401,308.616 658.558,318.098C656.551,328.419 660.904,338.74 675.791,334.247C685.111,331.434 694.193,326.957 696.284,315.908C698.42,304.628 690.806,302.505 681.716,301.544Z" style="fill:rgb(151,252,104);fill-rule:nonzero;"/>
        <path d="M712.658,262.191C704.759,246.02 673.199,268.851 678.604,278.374C679.534,289.206 722.619,282.585 712.658,262.191Z" style="fill:rgb(151,252,104);fill-rule:nonzero;"/>
        <path d="M939.735,313.851C931.836,297.68 900.276,320.511 905.681,330.034C906.611,340.866 949.696,334.245 939.735,313.851Z" style="fill:rgb(151,252,104);fill-rule:nonzero;"/>
        <path d="M707.833,290.57L701.221,292.167C700.36,303.689 718.734,312.089 727.309,303.612C739.468,291.592 710.842,290.361 707.833,290.57Z" style="fill:rgb(151,252,104);fill-rule:nonzero;"/>
        <path d="M819.338,468.897L812.726,470.494C811.865,482.016 830.238,490.417 838.814,481.939C850.973,469.919 822.346,468.688 819.338,468.897Z" style="fill:rgb(151,252,104);fill-rule:nonzero;"/>
        <path d="M752.159,258.266C738.977,249.997 725.242,267.184 718.217,275.621L722.422,276.937C721.768,277.264 721.027,277.195 720.357,277.554C722.893,295.124 773.415,271.598 752.159,258.266Z" style="fill:rgb(151,252,104);fill-rule:nonzero;"/>
        <path d="M723.784,243.952L722.492,245.042C725.122,254.878 742.724,249.532 741.413,239.693C739.708,226.902 719.682,233.323 723.784,243.952Z" style="fill:rgb(151,252,104);fill-rule:nonzero;"/>
        <path d="M948.356,310.99L947.064,312.08C949.694,321.917 967.296,316.57 965.985,306.731C964.28,293.941 944.254,300.361 948.356,310.99Z" style="fill:rgb(151,252,104);fill-rule:nonzero;"/>
        <path d="M791.484,222.934C782.473,220.563 746.059,226.689 752.587,240.881L756.971,242.932C762.822,248.749 779.489,246.757 786.498,243.571C794.723,239.832 804.346,226.317 791.484,222.934Z" style="fill:rgb(151,252,104);fill-rule:nonzero;"/>
        <path d="M825.08,239.073C819.004,231.574 795.182,236.324 799.634,248.953L800.369,248.775C805.926,251.228 836.424,253.071 825.08,239.073Z" style="fill:rgb(151,252,104);fill-rule:nonzero;"/>
        <path d="M718.432,431.209C721.218,421.968 703.897,404.938 695.956,415.72L696.515,416.228C697.61,422.202 713.231,448.46 718.432,431.209Z" style="fill:rgb(151,252,104);fill-rule:nonzero;"/>
        <path d="M871.795,358.411C865.718,350.912 841.896,355.662 846.349,368.291L847.083,368.113C852.64,370.566 883.138,372.409 871.795,358.411Z" style="fill:rgb(151,252,104);fill-rule:nonzero;"/>
        <path d="M853.927,200.85C850.711,197.263 845.35,197.739 840.71,198.215C838.492,198.443 836.438,198.671 834.863,198.455L817.942,205.653C808.817,207.098 806.801,216.034 814.654,220.443C821.914,224.519 835.608,221.669 842.76,218.359C848.576,215.666 860.002,207.63 853.927,200.85Z" style="fill:rgb(151,252,104);fill-rule:nonzero;"/>
        <path d="M901.966,225.979C896.116,223.57 892.072,224.278 890.023,218.371C887.633,211.486 891.076,208.651 880.416,209.999C872.305,211.024 853.866,217.695 851.917,226.407C851.901,226.606 851.884,226.805 851.868,227.004L854.022,232.702C859.614,246.697 884.247,251.383 897.346,247.895C909.354,244.697 915.72,231.643 901.966,225.979Z" style="fill:rgb(151,252,104);fill-rule:nonzero;"/>
        <path d="M901.642,191.653L897.233,192.718C888.219,198.57 906.094,212.788 913.988,207.191C922.274,201.315 907.326,192.407 901.642,191.653Z" style="fill:rgb(151,252,104);fill-rule:nonzero;"/>
        <path d="M939.3,250.977L928.862,249.61C909.385,252.869 914.646,285.915 934.323,278.63C940.128,276.481 946.364,266.961 945.292,260.414C944.647,256.48 939.062,251.777 939.3,250.977Z" style="fill:rgb(151,252,104);fill-rule:nonzero;"/>
        <path d="M948.013,238.763L944.364,236.535C937.794,238.442 946.68,253.107 952.244,253.137C962.435,253.191 954.594,239.415 948.013,238.763Z" style="fill:rgb(151,252,104);fill-rule:nonzero;"/>
        <path d="M962.674,331.634L959.025,329.406C952.456,331.313 961.341,345.978 966.906,346.008C977.098,346.062 969.256,332.286 962.674,331.634Z" style="fill:rgb(151,252,104);fill-rule:nonzero;"/>
        <path d="M935.418,347.55L931.77,345.321C925.2,347.228 934.085,361.893 939.65,361.923C949.842,361.978 942,348.201 935.418,347.55Z" style="fill:rgb(151,252,104);fill-rule:nonzero;"/>
        <path d="M758.516,432.857C746.224,430.99 724.831,421.296 724.711,440.339C725.821,439.979 724.736,439.595 724.989,438.819L728.79,444.899C710.795,456.97 742.893,467.886 750.964,471.42C759.669,475.232 770.722,479.011 780.064,474.553C789.955,469.833 800.696,456.08 799.507,444.919C797.262,423.855 772.087,434.917 758.516,432.857Z" style="fill:rgb(151,252,104);fill-rule:nonzero;"/>
        <path d="M821.301,421.595C815.344,421.787 805.184,417.292 802.812,426.238L805.499,434.142C808.274,443.598 802.825,454.482 816.547,455.009C827.733,455.438 846.041,440.938 846.208,429.518C846.404,416.032 829.489,421.332 821.301,421.595Z" style="fill:rgb(151,252,104);fill-rule:nonzero;"/>
        <path d="M797.687,401.818C786.348,386.196 750.93,400.895 764.985,411.273L766.962,416.239C773.497,419.59 781.467,422.614 788.928,420.262C796.148,417.986 802.454,408.386 797.687,401.818Z" style="fill:rgb(151,252,104);fill-rule:nonzero;"/>
        <path d="M840.713,386.737C834.103,373.925 808.523,382.391 810.76,394.772L813.092,401.206C811.481,410.365 850.632,405.965 840.713,386.737Z" style="fill:rgb(151,252,104);fill-rule:nonzero;"/>
        <path d="M849.36,402.75C849.313,402.842 849.267,402.939 849.229,403.048C849.268,402.947 849.318,402.85 849.36,402.75Z" style="fill:rgb(151,252,104);fill-rule:nonzero;"/>
        <path d="M849.36,402.75C849.641,402.211 850.063,401.929 850.485,401.502L847.319,407.71C845.808,418.58 874.129,415.818 871.568,401.812C869.401,389.96 853.115,393.975 849.36,402.75Z" style="fill:rgb(151,252,104);fill-rule:nonzero;"/>
        <path d="M908.641,349.354L902.384,352.42C896.143,353.138 877.76,364.053 877.554,371.695C877.266,382.334 891.678,377.926 897.284,376.201C904.67,373.927 917.025,367.327 919.593,359.151C923.023,348.231 911.507,351.727 908.641,349.354Z" style="fill:rgb(151,252,104);fill-rule:nonzero;"/>
        <path d="M926.227,373.874C916.371,375.981 926.882,385.354 935.32,380.034C946.128,373.221 936.038,367.64 927.721,370.402L926.227,373.874Z" style="fill:rgb(151,252,104);fill-rule:nonzero;"/>
        <path d="M743.803,346.324C743.15,327.539 746.426,302.595 745.688,279.23C752.444,275.598 757.782,270.315 757.341,265.249C759.306,264.584 761.276,263.904 763.248,263.201C786.791,254.805 802.732,237.396 821.151,222.307C822.123,222.408 823.127,222.455 824.15,222.455C830.747,222.455 838.126,220.503 842.76,218.359C847.206,216.3 854.931,211.119 855.609,205.764C858.916,208.701 862.277,211.592 865.65,214.478C859.058,217.435 852.99,221.612 851.917,226.407C851.901,226.606 851.884,226.805 851.868,227.004L854.022,232.702C858.438,243.753 874.729,249 887.836,249C891.327,249 894.591,248.628 897.346,247.895C898.342,247.629 899.3,247.296 900.21,246.905C901.83,248.779 903.399,250.692 904.906,252.65C909.671,258.839 914.053,265.254 917.992,271.826C918.527,273.11 919.216,274.301 920.052,275.349C920.925,276.879 921.773,278.417 922.597,279.962C917.262,281.402 912.042,281.977 906.891,281.977C888.286,281.976 870.573,274.479 851.566,273.163C850.262,273.072 848.966,273.029 847.663,273.029C808.231,273.029 769.265,313.573 747.538,341.643C746.318,343.219 745.071,344.784 743.803,346.324ZM800.369,248.775C802.387,249.666 807.697,250.477 813.096,250.477C822.562,250.477 832.303,247.987 825.08,239.073C823.106,236.637 819.257,235.493 815.115,235.493C806.507,235.493 796.628,240.427 799.634,248.953L800.369,248.775Z" style="fill:rgb(112,187,177);fill-rule:nonzero;"/>
        <path d="M693.43,378.458C682.91,378.458 672,373.76 661.043,362.22C648.897,349.427 650.448,336.311 658.166,324.372C658.67,330.454 662.021,335.327 669.253,335.327C671.157,335.328 673.33,334.99 675.791,334.247C685.111,331.434 694.193,326.957 696.284,315.908C698.42,304.628 690.806,302.505 681.716,301.544L680.941,301.479C690.53,294.25 700.621,288.301 707.949,284.279C712.086,282.008 716.265,280.019 720.48,278.218C721.387,282.198 724.992,283.829 729.617,283.829C734.495,283.829 740.508,282.015 745.688,279.23C746.426,302.595 743.15,327.539 743.803,346.324C729.427,363.789 712.032,378.458 693.43,378.458ZM708.646,290.55C708.291,290.55 708.015,290.557 707.833,290.57L701.221,292.167C700.604,300.416 709.849,307.065 718.297,307.066C721.648,307.066 724.873,306.02 727.309,303.612C738.732,292.32 714.158,290.55 708.646,290.55ZM922.597,279.962C921.773,278.417 920.925,276.879 920.052,275.349C921.441,277.09 923.235,278.432 925.399,279.133C924.883,279.298 924.37,279.455 923.862,279.605C923.439,279.73 923.018,279.848 922.597,279.962ZM917.992,271.826C914.053,265.254 909.671,258.839 904.906,252.65C903.399,250.692 901.83,248.779 900.21,246.905C910.272,242.582 914.579,231.174 901.966,225.979C896.116,223.57 892.072,224.278 890.023,218.371C888.019,212.598 890.115,209.672 884.561,209.672C883.491,209.672 882.138,209.781 880.416,209.999C876.769,210.46 871.034,212.062 865.65,214.478C862.277,211.592 858.916,208.701 855.609,205.764C855.8,204.252 855.43,202.727 854.266,201.253C866.942,195.488 878.142,193.098 887.993,193.098C890.797,193.098 893.489,193.292 896.077,193.657C891.007,198.89 901.59,208.47 909.606,208.471C911.221,208.471 912.731,208.082 913.988,207.191C916.908,205.12 916.942,202.673 915.514,200.339C931.915,209.759 941.673,226.349 946.266,237.697L944.364,236.535C938.503,238.236 944.94,250.087 950.348,252.649C951.112,257.088 950.999,260.588 947.435,265.361C946.2,267.014 944.74,268.525 943.122,269.902C944.82,266.751 945.764,263.295 945.292,260.414C944.647,256.48 939.062,251.777 939.3,250.977L928.862,249.61C917.49,251.513 914.552,263.571 917.992,271.826Z" style="fill:rgb(128,210,163);fill-rule:nonzero;"/>
        <path d="M669.253,335.327C662.021,335.327 658.67,330.454 658.166,324.372C663.585,315.988 672.048,308.183 680.941,301.479L681.716,301.544C690.806,302.505 698.42,304.628 696.284,315.908C694.193,326.957 685.111,331.434 675.791,334.247C673.33,334.99 671.157,335.328 669.253,335.327Z" style="fill:rgb(153,246,142);fill-rule:nonzero;"/>
        <path d="M718.297,307.066C709.849,307.065 700.604,300.416 701.221,292.167L707.833,290.57C708.015,290.557 708.291,290.55 708.646,290.55C714.158,290.55 738.732,292.32 727.309,303.612C724.873,306.02 721.648,307.066 718.297,307.066Z" style="fill:rgb(153,246,142);fill-rule:nonzero;"/>
        <path d="M729.617,283.829C724.992,283.829 721.387,282.198 720.48,278.218C732.52,273.074 744.853,269.471 757.341,265.249C757.782,270.315 752.444,275.598 745.688,279.23C740.508,282.015 734.495,283.829 729.617,283.829Z" style="fill:rgb(153,246,142);fill-rule:nonzero;"/>
        <path d="M813.096,250.477C807.697,250.477 802.387,249.666 800.369,248.775L799.634,248.953C796.628,240.427 806.507,235.493 815.115,235.493C819.257,235.493 823.106,236.637 825.08,239.073C832.303,247.987 822.562,250.477 813.096,250.477Z" style="fill:rgb(153,246,142);fill-rule:nonzero;"/>
        <path d="M824.15,222.455C823.127,222.455 822.123,222.408 821.151,222.307C826.007,218.33 831.036,214.513 836.42,211.066C842.667,207.067 848.615,203.824 854.266,201.253C855.43,202.727 855.8,204.252 855.609,205.764C854.931,211.119 847.206,216.3 842.76,218.359C838.126,220.503 830.747,222.455 824.15,222.455Z" style="fill:rgb(153,246,142);fill-rule:nonzero;"/>
        <path d="M887.836,249C874.729,249 858.438,243.753 854.022,232.702L851.868,227.004C851.884,226.805 851.901,226.606 851.917,226.407C852.99,221.612 859.058,217.435 865.65,214.478C871.034,212.062 876.769,210.46 880.416,209.999C882.138,209.781 883.491,209.672 884.561,209.672C890.115,209.672 888.019,212.598 890.023,218.371C892.072,224.278 896.116,223.57 901.966,225.979C914.579,231.174 910.272,242.582 900.21,246.905C899.3,247.296 898.342,247.629 897.346,247.895C894.591,248.628 891.327,249 887.836,249Z" style="fill:rgb(153,246,142);fill-rule:nonzero;"/>
        <path d="M909.606,208.471C901.59,208.47 891.007,198.89 896.077,193.657C903.39,194.688 909.849,197.085 915.514,200.339C916.942,202.673 916.908,205.12 913.988,207.191C912.731,208.082 911.221,208.471 909.606,208.471Z" style="fill:rgb(153,246,142);fill-rule:nonzero;"/>
        <path d="M925.399,279.133C923.235,278.432 921.441,277.09 920.052,275.349C919.216,274.301 918.527,273.11 917.992,271.826C914.552,263.571 917.49,251.513 928.862,249.61L939.3,250.977C939.062,251.777 944.647,256.48 945.292,260.414C945.764,263.295 944.82,266.751 943.122,269.902C938.07,274.2 931.476,277.195 925.399,279.133Z" style="fill:rgb(153,246,142);fill-rule:nonzero;"/>
        <path d="M950.348,252.649C944.94,250.087 938.503,238.236 944.364,236.535L946.266,237.697C947.851,241.611 948.822,244.902 949.239,247.06C949.641,249.14 950.058,250.962 950.348,252.649Z" style="fill:rgb(153,246,142);fill-rule:nonzero;"/>
    </g>
</svg>
