<?xml version="1.0" encoding="UTF-8" standalone="no"?>
<!DOCTYPE svg PUBLIC "-//W3C//DTD SVG 1.1//EN" "http://www.w3.org/Graphics/SVG/1.1/DTD/svg11.dtd">
<svg width="100%" height="100%" viewBox="0 0 375 417" version="1.1" xmlns="http://www.w3.org/2000/svg" xmlns:xlink="http://www.w3.org/1999/xlink" xml:space="preserve" xmlns:serif="http://www.serif.com/" style="fill-rule:evenodd;clip-rule:evenodd;stroke-linejoin:round;stroke-miterlimit:2;">
    <g transform="matrix(1,0,0,1,-1252.609985,-1412.640015)">
        <path d="M1387.34,1416.8C1388.36,1415.69 1388.92,1413.56 1389.78,1412.64L1388.57,1415.65C1388.15,1416.01 1387.74,1416.38 1387.34,1416.8Z" style="fill:rgb(54,54,101);fill-rule:nonzero;"/>
        <path d="M1439.66,1829.05C1336.36,1829.05 1252.61,1745.31 1252.61,1642C1252.61,1538.7 1336.36,1454.96 1439.66,1454.96C1542.96,1454.96 1626.7,1538.7 1626.7,1642C1626.7,1745.31 1542.96,1829.05 1439.66,1829.05ZM1287.09,1711.09C1314.02,1768.66 1372.45,1808.53 1440.2,1808.53C1520.47,1808.53 1587.67,1752.54 1604.87,1677.48C1607.81,1665 1609.36,1651.99 1609.36,1638.61C1609.36,1560.06 1555.75,1494.04 1483.12,1475.13C1483.06,1475.46 1483.02,1475.79 1482.97,1476.13C1469.31,1472.57 1454.98,1470.67 1440.2,1470.67C1402.18,1470.67 1367.09,1483.23 1338.86,1504.43C1337.92,1504.82 1336.99,1505.27 1336.04,1505.78C1306.23,1529.24 1284.51,1562.51 1275.76,1600.73C1272.82,1613.21 1271.26,1626.22 1271.26,1639.6C1271.26,1655.3 1273.41,1670.5 1277.41,1684.92C1278.64,1690.28 1281.11,1696.63 1282.93,1701.56C1284.15,1704.89 1285.55,1708.06 1287.09,1711.09Z" style="fill:rgb(85,108,140);fill-rule:nonzero;"/>
        <path d="M1609.13,1639.6C1609.13,1732.9 1533.5,1808.53 1440.2,1808.53C1346.9,1808.53 1271.26,1732.9 1271.26,1639.6C1271.26,1546.3 1346.9,1470.67 1440.2,1470.67C1533.5,1470.67 1609.13,1546.3 1609.13,1639.6Z" style="fill:rgb(11,137,128);fill-rule:nonzero;"/>
        <path d="M1563.51,1526.82C1551.38,1511.72 1532.91,1503.43 1515.61,1496.27C1479.96,1481.52 1442.64,1483.94 1405.65,1490.92C1372.59,1497.16 1338.31,1506.42 1314.65,1533.62C1291.62,1560.09 1284.47,1592.3 1300.48,1624.59C1311.08,1645.99 1324.12,1654.89 1347.83,1657.53C1367.07,1659.67 1394.49,1655.22 1411.32,1645.31C1456.13,1618.92 1450.58,1546.26 1397.04,1538.21C1379.63,1535.59 1355.39,1549.73 1361.16,1570.21C1367.84,1593.9 1403.81,1571.5 1385.99,1564.28C1381.51,1562.46 1379.12,1568.77 1379.32,1568.82C1364.89,1565.42 1385.24,1539.92 1399.1,1562.02C1408.06,1576.31 1410.46,1594.13 1397.43,1607.34C1367.94,1637.25 1314.79,1601.4 1320.63,1563.41C1326.61,1524.57 1403.96,1510.26 1433.99,1506.73C1530.35,1495.39 1539.27,1567.11 1548.48,1589.48C1559.36,1615.89 1550.65,1643.24 1529.2,1666.6C1504.61,1693.38 1457.94,1722.95 1422.65,1719.84C1319.5,1710.78 1287.72,1669.42 1278.69,1674.5C1273.53,1677.4 1279.44,1692.09 1282.93,1701.56C1294.71,1733.57 1322,1751.18 1351.26,1762.64C1403.35,1783.04 1468.76,1781.27 1516.74,1748.19C1551.51,1724.22 1586.62,1684.22 1598.11,1641.63C1613.1,1586.08 1569.67,1534.5 1563.51,1526.82Z" style="fill:rgb(12,193,188);fill-rule:nonzero;"/>
        <path d="M1509.97,1587.21C1503.55,1564.74 1491.43,1542.56 1471.68,1529.12C1454.28,1517.28 1417.91,1513.79 1400.58,1526.53C1396.73,1529.44 1399.73,1528.87 1406.81,1528.3C1419.01,1527.31 1443.36,1526.32 1465.7,1543.23C1474.44,1549.84 1477.83,1561.25 1480.75,1571.34C1486.93,1592.77 1490.34,1604.25 1479.62,1625.75C1461.07,1662.97 1429.78,1670.19 1392.05,1673.37C1357.71,1676.26 1322.12,1671.57 1297.65,1645.34C1294.57,1642.04 1288.16,1629.53 1282.15,1630.23C1270.42,1631.61 1284.37,1646.24 1288.03,1650.41C1301.04,1665.22 1313.88,1674.37 1333.1,1677.96C1375.08,1685.79 1409.7,1705.08 1452.13,1686.72C1475.49,1676.61 1492.67,1663.07 1506.26,1641.59C1516.89,1624.78 1515.27,1605.73 1509.97,1587.21Z" style="fill:rgb(12,193,188);fill-rule:nonzero;"/>
        <path d="M1604.87,1677.48C1607.66,1665.3 1609.13,1652.62 1609.13,1639.6C1609.13,1561.08 1555.56,1495.07 1482.97,1476.13C1483.02,1475.79 1483.06,1475.46 1483.12,1475.13C1555.75,1494.04 1609.36,1560.06 1609.36,1638.61C1609.36,1651.99 1607.81,1665 1604.87,1677.48ZM1275.76,1600.73C1284.51,1562.51 1306.23,1529.24 1336.04,1505.78C1336.99,1505.27 1337.92,1504.82 1338.86,1504.43C1307.75,1527.79 1284.96,1561.64 1275.76,1600.73Z" style="fill:rgb(119,135,112);fill-rule:nonzero;"/>
        <path d="M1440.43,1807.55C1376.66,1807.55 1321.15,1772.22 1292.39,1720.07C1306.38,1740.77 1328.21,1753.61 1351.26,1762.64C1373.3,1771.27 1397.73,1775.93 1422.21,1775.94C1455.58,1775.94 1489.06,1767.27 1516.74,1748.19C1551.51,1724.22 1586.62,1684.22 1598.11,1641.63C1613.1,1586.08 1569.67,1534.5 1563.51,1526.82C1551.38,1511.72 1532.91,1503.43 1515.61,1496.27C1505.03,1491.89 1494.3,1489.03 1483.48,1487.34C1482.68,1483.27 1482.54,1479.53 1482.97,1476.13C1555.56,1495.07 1609.13,1561.08 1609.13,1639.6C1609.13,1652.62 1607.66,1665.3 1604.87,1677.48C1587.31,1752.04 1520.35,1807.55 1440.43,1807.55ZM1362.61,1709.53C1310.38,1695.45 1288.92,1674.07 1280.48,1674.07C1279.8,1674.07 1279.21,1674.21 1278.69,1674.5C1277.03,1675.43 1276.52,1677.58 1276.69,1680.37C1273.3,1667.02 1271.49,1653.03 1271.49,1638.61C1271.49,1625.59 1272.97,1612.91 1275.76,1600.73C1284.96,1561.64 1307.75,1527.79 1338.86,1504.43C1342.15,1503.06 1345.36,1502.46 1348.45,1502.46C1351.57,1502.46 1354.57,1503.07 1357.39,1504.1C1341.44,1510.61 1326.67,1519.8 1314.65,1533.62C1291.62,1560.09 1284.47,1592.3 1300.48,1624.59C1311.08,1645.99 1324.12,1654.89 1347.83,1657.53C1350.93,1657.87 1354.24,1658.05 1357.68,1658.05C1358.91,1658.23 1360.16,1658.36 1361.44,1658.44C1360.7,1663.44 1360.07,1668.45 1359.66,1673.41C1336.42,1671.18 1314.42,1663.32 1297.65,1645.34C1294.65,1642.13 1288.5,1630.21 1282.64,1630.21C1282.48,1630.21 1282.31,1630.21 1282.15,1630.23C1270.42,1631.61 1284.37,1646.24 1288.03,1650.41C1301.04,1665.22 1313.88,1674.37 1333.1,1677.96C1342.08,1679.63 1350.72,1681.83 1359.17,1684.08C1359.12,1692.9 1360.05,1701.48 1362.61,1709.53ZM1553.05,1616.67C1550.44,1607.11 1547.03,1597.59 1542.88,1588.3C1530.92,1561.44 1509.07,1538.72 1494.32,1512.96C1535.16,1530.29 1541.74,1573.1 1548.48,1589.48C1552.2,1598.5 1553.63,1607.63 1553.05,1616.67ZM1322.28,1582.06C1320.33,1576.1 1319.65,1569.79 1320.63,1563.41C1323.95,1541.84 1349.28,1527.84 1376.29,1519.04C1377.44,1520.62 1378.37,1522.1 1379.03,1523.37C1380.93,1527.02 1382.31,1530.89 1383.26,1534.94C1362.29,1540.57 1342.47,1554.3 1329.97,1569.65C1326.82,1573.52 1324.26,1577.7 1322.28,1582.06Z" style="fill:rgb(60,158,102);fill-rule:nonzero;"/>
        <path d="M1422.21,1775.94C1397.73,1775.93 1373.3,1771.27 1351.26,1762.64C1328.21,1753.61 1306.38,1740.77 1292.39,1720.07C1285.57,1707.7 1280.26,1694.38 1276.69,1680.37C1276.52,1677.58 1277.03,1675.43 1278.69,1674.5C1279.21,1674.21 1279.8,1674.07 1280.48,1674.07C1288.92,1674.07 1310.38,1695.45 1362.61,1709.53C1366.08,1720.42 1372.54,1730.35 1383.58,1738.64C1402.3,1752.69 1427.51,1759.57 1452.19,1759.57C1463.04,1759.57 1473.8,1758.24 1483.85,1755.6C1553.8,1737.2 1569.26,1676.18 1553.05,1616.67C1553.63,1607.63 1552.2,1598.5 1548.48,1589.48C1541.74,1573.1 1535.16,1530.29 1494.32,1512.96C1491.48,1507.99 1488.89,1502.91 1486.7,1497.66C1485.17,1494.01 1484.12,1490.57 1483.48,1487.34C1494.3,1489.03 1505.03,1491.89 1515.61,1496.27C1532.91,1503.43 1551.38,1511.72 1563.51,1526.82C1569.67,1534.5 1613.1,1586.08 1598.11,1641.63C1586.62,1684.22 1551.51,1724.22 1516.74,1748.19C1489.06,1767.27 1455.58,1775.94 1422.21,1775.94ZM1357.68,1658.05C1354.24,1658.05 1350.93,1657.87 1347.83,1657.53C1324.12,1654.89 1311.08,1645.99 1300.48,1624.59C1284.47,1592.3 1291.62,1560.09 1314.65,1533.62C1326.67,1519.8 1341.44,1510.61 1357.39,1504.1C1365.61,1507.09 1372.32,1513.63 1376.29,1519.04C1349.28,1527.84 1323.95,1541.84 1320.63,1563.41C1319.65,1569.79 1320.33,1576.1 1322.28,1582.06C1308.18,1613.11 1323.41,1653.17 1357.68,1658.05Z" style="fill:rgb(61,203,150);fill-rule:nonzero;"/>
        <path d="M1359.17,1684.08C1350.72,1681.83 1342.08,1679.63 1333.1,1677.96C1313.88,1674.37 1301.04,1665.22 1288.03,1650.41C1284.37,1646.24 1270.42,1631.61 1282.15,1630.23C1282.31,1630.21 1282.48,1630.21 1282.64,1630.21C1288.5,1630.21 1294.65,1642.13 1297.65,1645.34C1314.42,1663.32 1336.42,1671.18 1359.66,1673.41C1359.37,1677 1359.19,1680.56 1359.17,1684.08Z" style="fill:rgb(61,203,150);fill-rule:nonzero;"/>
        <path d="M1364.79,1658.55C1363.65,1658.55 1362.54,1658.51 1361.44,1658.44C1361.46,1658.29 1361.48,1658.14 1361.51,1658C1371.61,1657.67 1382.58,1656 1392.57,1653.09C1386.75,1655.19 1380.45,1656.8 1373.52,1657.86C1370.51,1658.33 1367.59,1658.55 1364.79,1658.55ZM1429.28,1629.13C1453.03,1596.88 1441.82,1544.94 1397.04,1538.21C1395.65,1538 1394.21,1537.89 1392.74,1537.89C1389.9,1537.89 1386.96,1538.28 1384.06,1539.01C1383.84,1537.64 1383.58,1536.28 1383.26,1534.94C1389.76,1533.19 1396.38,1532.22 1402.91,1532.22C1413.14,1532.22 1423.19,1534.59 1432.35,1540.07C1432.35,1540.07 1444.91,1549.49 1446.54,1549.49C1446.59,1549.49 1446.64,1549.48 1446.67,1549.46C1459.13,1572 1463.54,1589.63 1445.3,1611.5C1439.96,1617.9 1434.71,1623.81 1429.28,1629.13ZM1371.07,1618.45C1370.85,1618.45 1370.63,1618.45 1370.41,1618.44C1374.11,1606.05 1378.35,1592.69 1381.29,1579.46C1389.73,1576.24 1395.46,1568.12 1385.99,1564.28C1385.42,1564.05 1384.9,1563.95 1384.4,1563.95C1384.28,1563.95 1384.16,1563.96 1384.05,1563.97C1384.51,1560.32 1384.81,1556.71 1384.9,1553.17C1385.31,1553.12 1385.72,1553.1 1386.13,1553.1C1390.31,1553.1 1394.99,1555.47 1399.1,1562.02C1408.06,1576.31 1410.46,1594.13 1397.43,1607.34C1389.76,1615.12 1380.49,1618.45 1371.07,1618.45Z" style="fill:rgb(40,156,148);fill-rule:nonzero;"/>
        <path d="M1361.51,1658C1362.15,1653.66 1362.88,1649.34 1363.62,1645.04C1364.99,1637.1 1367.54,1628.06 1370.41,1618.44C1370.63,1618.45 1370.85,1618.45 1371.07,1618.45C1380.49,1618.45 1389.76,1615.12 1397.43,1607.34C1410.46,1594.13 1408.06,1576.31 1399.1,1562.02C1394.99,1555.47 1390.31,1553.1 1386.13,1553.1C1385.72,1553.1 1385.31,1553.12 1384.9,1553.17C1385.04,1548.3 1384.8,1543.56 1384.06,1539.01C1386.96,1538.28 1389.9,1537.89 1392.74,1537.89C1394.21,1537.89 1395.65,1538 1397.04,1538.21C1441.82,1544.94 1453.03,1596.88 1429.28,1629.13C1418.52,1639.66 1407.02,1647.89 1392.57,1653.09C1382.58,1656 1371.61,1657.67 1361.51,1658ZM1381.29,1579.46C1382.45,1574.25 1383.4,1569.07 1384.05,1563.97C1384.16,1563.96 1384.28,1563.95 1384.4,1563.95C1384.9,1563.95 1385.42,1564.05 1385.99,1564.28C1395.46,1568.12 1389.73,1576.24 1381.29,1579.46Z" style="fill:rgb(41,201,196);fill-rule:nonzero;"/>
        <path d="M1361.44,1658.44C1360.16,1658.36 1358.91,1658.23 1357.68,1658.05L1357.92,1658.05C1359.1,1658.05 1360.3,1658.03 1361.51,1658C1361.48,1658.14 1361.46,1658.29 1361.44,1658.44ZM1370.41,1618.44C1349.9,1618.11 1328.87,1602.14 1322.28,1582.06C1324.26,1577.7 1326.82,1573.52 1329.97,1569.65C1342.47,1554.3 1362.29,1540.57 1383.26,1534.94C1383.58,1536.28 1383.84,1537.64 1384.06,1539.01C1369.86,1542.61 1356.75,1554.56 1361.16,1570.21C1363.36,1578 1368.72,1580.81 1374.3,1580.81C1376.67,1580.81 1379.07,1580.3 1381.29,1579.46C1378.35,1592.69 1374.11,1606.05 1370.41,1618.44ZM1379.32,1568.82C1369.59,1566.53 1375.67,1554.2 1384.9,1553.17C1384.81,1556.71 1384.51,1560.32 1384.05,1563.97C1380.83,1564.28 1379.16,1568.78 1379.32,1568.82Z" style="fill:rgb(79,173,128);fill-rule:nonzero;"/>
        <path d="M1357.92,1658.05L1357.68,1658.05C1323.41,1653.17 1308.18,1613.11 1322.28,1582.06C1328.87,1602.14 1349.9,1618.11 1370.41,1618.44C1367.54,1628.06 1364.99,1637.1 1363.62,1645.04C1362.88,1649.34 1362.15,1653.66 1361.51,1658C1360.3,1658.03 1359.1,1658.05 1357.92,1658.05ZM1374.3,1580.81C1368.72,1580.81 1363.36,1578 1361.16,1570.21C1356.75,1554.56 1369.86,1542.61 1384.06,1539.01C1384.8,1543.56 1385.04,1548.3 1384.9,1553.17C1375.67,1554.2 1369.59,1566.53 1379.32,1568.82C1379.16,1568.78 1380.83,1564.28 1384.05,1563.97C1383.4,1569.07 1382.45,1574.25 1381.29,1579.46C1379.07,1580.3 1376.67,1580.81 1374.3,1580.81Z" style="fill:rgb(80,209,166);fill-rule:nonzero;"/>
    </g>
</svg>
