<?xml version="1.0" encoding="UTF-8" standalone="no"?>
<!DOCTYPE svg PUBLIC "-//W3C//DTD SVG 1.1//EN" "http://www.w3.org/Graphics/SVG/1.1/DTD/svg11.dtd">
<svg width="100%" height="100%" viewBox="0 0 626 339" version="1.1" xmlns="http://www.w3.org/2000/svg" xmlns:xlink="http://www.w3.org/1999/xlink" xml:space="preserve" xmlns:serif="http://www.serif.com/" style="fill-rule:evenodd;clip-rule:evenodd;stroke-linejoin:round;stroke-miterlimit:2;">
    <g transform="matrix(1,0,0,1,-1575.249861,-156.328979)">
        <path d="M2034.08,325.263C2034.08,418.562 1958.45,494.197 1865.15,494.197C1771.85,494.197 1696.21,418.562 1696.21,325.263C1696.21,231.963 1771.85,156.329 1865.15,156.329C1958.45,156.329 2034.08,231.963 2034.08,325.263Z" style="fill:rgb(32,78,132);fill-rule:nonzero;"/>
        <path d="M1748.19,419.331C1773.47,408.403 1801.54,405.413 1828.59,405.506C1850.63,405.582 1856.35,394.044 1869.78,378.551C1885.43,360.487 1908.78,356.765 1931.84,356.761C1932.51,356.76 1933.16,356.761 1933.8,356.762C1946.51,356.783 1954.62,356.802 1965.31,347.94C1977.57,337.779 1981.11,323.655 1991.62,312.802C2001.25,302.853 2015.92,297.256 2030.07,294.122C2027.48,280.205 2023.18,266.89 2017.4,254.399C2000.48,262.69 1988.99,278.149 1976.05,292.144C1958.04,311.621 1946.72,323.724 1918.21,325.019C1893.64,326.136 1868.14,325.837 1852.46,347.692C1838.77,366.783 1835.81,376.251 1809.38,374.899C1787.42,373.775 1771.57,373.871 1751.82,385.096C1739.35,392.181 1729.11,402.722 1717.14,408.769C1721.47,416.366 1726.37,423.592 1731.78,430.394C1736.88,425.569 1742.88,421.627 1748.19,419.331Z" style="fill:rgb(11,137,128);fill-rule:nonzero;"/>
        <path d="M1998.41,366.112C1984.15,369.851 1968.34,378.306 1957.92,388.758C1948.87,397.829 1945.09,406.373 1932.12,411.455C1920.55,415.986 1908.18,415.761 1895.92,415.536C1880.16,415.248 1864.57,414.958 1851.04,424.749C1832.63,438.082 1806.53,461.815 1779.66,471.658C1788.69,476.873 1798.25,481.268 1808.24,484.761C1808.62,484.509 1808.99,484.255 1809.38,484.008C1830.84,470.25 1850.13,472.901 1874,470.18C1909.5,466.134 1930.3,419.99 1964.66,409.758C1973.17,407.222 1982.21,407.441 1991.25,407.66C1996.41,407.784 2001.57,407.909 2006.63,407.521C2008.23,407.398 2010,407.219 2011.89,406.981C2019.42,393.394 2025.13,378.664 2028.69,363.112C2016.27,363.045 2003.86,364.684 1998.41,366.112Z" style="fill:rgb(11,137,128);fill-rule:nonzero;"/>
        <path d="M1786.71,327.597C1806.51,317.497 1809.38,298.337 1822.99,283.08C1841.17,262.694 1856.77,272.238 1879.66,276.017C1909.26,280.906 1925.01,256.317 1937.23,233.17C1947.3,214.074 1960.03,214.329 1980.56,217.388C1984.9,218.037 1990.13,218.839 1995.26,218.904C1986.91,208.621 1977.38,199.339 1966.88,191.263C1964.56,191.903 1962.21,192.316 1959.84,192.386C1954.8,192.538 1949.95,192.081 1945.29,191.624C1931.39,190.261 1919.22,188.898 1909.14,203.664C1895.66,223.4 1888.56,241.374 1860.39,239.995C1836.13,238.807 1805.78,237.767 1790.33,261.537C1775.73,284.004 1772.65,305.851 1740.21,308.041C1735.16,308.382 1730.53,308.143 1726.21,307.905C1714.47,307.258 1704.96,306.611 1695.26,317.562C1695.15,320.116 1695.08,322.681 1695.08,325.263C1695.08,330.707 1695.35,336.088 1695.85,341.4C1707.36,336.741 1720.33,334.621 1731.16,334.088C1736.26,333.837 1741.29,333.886 1746.25,333.933C1760.27,334.07 1773.75,334.206 1786.71,327.597Z" style="fill:rgb(11,137,128);fill-rule:nonzero;"/>
        <path d="M1863.36,494.397C1819.07,494.397 1778.75,477.348 1748.62,449.452C1749.11,449.284 1749.59,449.115 1750.08,448.945C1759.27,457.5 1769.42,465.05 1780.35,471.403C1780.12,471.489 1779.89,471.574 1779.66,471.658C1788.69,476.873 1798.25,481.268 1808.24,484.761C1808.37,484.676 1808.49,484.592 1808.62,484.507C1826.29,490.78 1845.32,494.197 1865.15,494.197C1871.28,494.197 1877.33,493.87 1883.3,493.233C1876.76,494.001 1870.11,494.397 1863.36,494.397Z" style="fill:rgb(76,94,129);fill-rule:nonzero;"/>
        <path d="M1865.15,494.197C1845.32,494.197 1826.29,490.78 1808.62,484.507C1808.87,484.34 1809.12,484.172 1809.38,484.008C1830.84,470.25 1850.13,472.901 1874,470.18C1894.85,467.803 1910.63,450.898 1927.07,435.279C1940.37,429.198 1950.99,421.176 1959.21,411.716C1960.99,410.967 1962.8,410.31 1964.66,409.758C1970.77,407.937 1977.16,407.536 1983.62,407.536C1986.16,407.536 1988.7,407.598 1991.25,407.66C1993.8,407.721 1996.35,407.782 1998.88,407.782C2001.48,407.782 2004.07,407.718 2006.63,407.521C2008.07,407.411 2009.65,407.254 2011.32,407.051C1985.59,453.618 1938.52,486.743 1883.3,493.233C1877.33,493.87 1871.28,494.197 1865.15,494.197ZM1780.35,471.403C1769.42,465.05 1759.27,457.5 1750.08,448.945C1768.45,442.462 1786.35,434.174 1805.22,429.253C1806.84,428.831 1808.46,428.424 1810.09,428.031C1816.85,432.593 1824.34,436.294 1832.26,439.15C1816.84,451.11 1798.79,464.482 1780.35,471.403Z" style="fill:rgb(69,125,162);fill-rule:nonzero;"/>
        <path d="M1808.24,484.761C1798.25,481.268 1788.69,476.873 1779.66,471.658C1779.89,471.574 1780.12,471.489 1780.35,471.403C1798.79,464.482 1816.84,451.11 1832.26,439.15C1845.77,444.017 1860.54,446.423 1875.12,446.423C1885.98,446.422 1896.74,445.089 1906.79,442.445C1914.14,440.511 1920.9,438.104 1927.07,435.279C1910.63,450.898 1894.85,467.803 1874,470.18C1850.13,472.901 1830.84,470.25 1809.38,484.008C1809.12,484.172 1808.87,484.34 1808.62,484.507C1808.49,484.592 1808.37,484.676 1808.24,484.761ZM1959.21,411.716C1961.25,409.373 1963.14,406.942 1964.88,404.432C1969.87,404.312 1974.85,404.256 1979.84,404.256C1990.71,404.256 2001.58,404.523 2012.45,404.985C2012.08,405.675 2011.7,406.367 2011.32,407.051C2009.65,407.254 2008.07,407.411 2006.63,407.521C2004.07,407.718 2001.48,407.782 1998.88,407.782C1996.35,407.782 1993.8,407.721 1991.25,407.66C1988.7,407.598 1986.16,407.536 1983.62,407.536C1977.16,407.536 1970.77,407.937 1964.66,409.758C1962.8,410.31 1960.99,410.967 1959.21,411.716Z" style="fill:rgb(55,166,159);fill-rule:nonzero;"/>
        <path d="M1697.74,358.932C1695.57,348.114 1694.43,336.92 1694.43,325.463C1694.43,321.38 1694.57,317.334 1694.86,313.324L1694.98,311.678C1698.88,263.426 1723.06,220.9 1758.98,192.632C1760.24,191.942 1761.49,191.37 1762.73,190.907C1724.52,220.076 1699.13,265.166 1696.45,316.279C1696.05,316.688 1695.66,317.116 1695.26,317.562C1695.15,320.116 1695.08,322.681 1695.08,325.263C1695.08,330.707 1695.35,336.088 1695.85,341.4C1696.21,341.254 1696.57,341.111 1696.93,340.971C1697.49,347.048 1698.38,353.031 1699.56,358.905C1698.96,358.907 1698.35,358.915 1697.74,358.932Z" style="fill:rgb(76,94,129);fill-rule:nonzero;"/>
        <path d="M1742.54,391.14C1735.83,390.372 1730.56,386.809 1728.61,378.299C1727.19,372.076 1731.59,370.708 1725.46,364.641C1721.84,361.055 1717.58,361.109 1713.02,360.187C1708.71,359.315 1704.22,358.905 1699.73,358.905L1699.56,358.905C1698.38,353.031 1697.49,347.048 1696.93,340.971C1708.17,336.61 1720.67,334.605 1731.16,334.088C1734.21,333.938 1737.24,333.895 1740.25,333.895C1742.26,333.895 1744.26,333.914 1746.25,333.933C1748.24,333.953 1750.23,333.972 1752.2,333.972C1764.09,333.972 1775.59,333.267 1786.71,327.597C1786.96,327.466 1787.22,327.334 1787.47,327.2C1787.13,328.801 1786.82,330.367 1786.56,331.891C1784.08,346.275 1781.72,361.046 1782.16,375.067C1772.13,376.185 1762.55,378.999 1751.82,385.096C1748.6,386.926 1745.53,388.986 1742.54,391.14ZM1696.45,316.279C1699.13,265.166 1724.52,220.076 1762.73,190.907C1765.69,189.798 1768.59,189.312 1771.39,189.312C1786.27,189.312 1798.25,203.088 1801.97,210.218C1807.45,220.751 1808.63,233.163 1807.47,246.287C1800.81,249.616 1794.92,254.485 1790.33,261.537C1775.73,284.004 1772.65,305.851 1740.21,308.041C1738.4,308.163 1736.64,308.211 1734.94,308.211C1731.88,308.211 1728.98,308.058 1726.21,307.905C1723.43,307.752 1720.79,307.6 1718.23,307.6C1710.41,307.6 1703.45,309.031 1696.45,316.279Z" style="fill:rgb(69,125,162);fill-rule:nonzero;"/>
        <path d="M1745.55,391.305C1744.52,391.305 1743.51,391.252 1742.54,391.14C1745.53,388.986 1748.6,386.926 1751.82,385.096C1762.55,378.999 1772.13,376.185 1782.16,375.067C1782.21,376.855 1782.31,378.631 1782.47,380.392C1781.61,380.729 1780.76,381.071 1779.91,381.419C1770.34,385.339 1756.55,391.304 1745.55,391.305Z" style="fill:rgb(55,166,159);fill-rule:nonzero;"/>
        <path d="M1695.85,341.4C1695.35,336.088 1695.08,330.707 1695.08,325.263C1695.08,322.681 1695.15,320.116 1695.26,317.562C1695.66,317.116 1696.05,316.688 1696.45,316.279C1703.45,309.031 1710.41,307.6 1718.23,307.6C1720.79,307.6 1723.43,307.752 1726.21,307.905C1728.98,308.058 1731.88,308.211 1734.94,308.211C1736.64,308.211 1738.4,308.163 1740.21,308.041C1772.65,305.851 1775.73,284.004 1790.33,261.537C1794.92,254.485 1800.81,249.616 1807.47,246.287C1805.04,273.7 1792.4,304.216 1787.47,327.2C1787.22,327.334 1786.96,327.466 1786.71,327.597C1775.59,333.267 1764.09,333.972 1752.2,333.972C1750.23,333.972 1748.24,333.953 1746.25,333.933C1744.26,333.914 1742.26,333.895 1740.25,333.895C1737.24,333.895 1734.21,333.938 1731.16,334.088C1720.67,334.605 1708.17,336.61 1696.93,340.971C1696.57,341.111 1696.21,341.254 1695.85,341.4Z" style="fill:rgb(55,166,159);fill-rule:nonzero;"/>
        <path d="M1981.87,346.278C1981.91,340.225 1981.54,334.063 1980.79,327.858C1983.95,322.618 1987.15,317.415 1991.62,312.802C2001.11,303.005 2015.47,297.428 2029.42,294.268C2031.31,304.378 2032.3,314.805 2032.3,325.463C2032.3,332.399 2031.88,339.243 2031.07,345.96C2023.75,345.216 2016.51,344.291 2009.78,344.291C1999.53,344.291 1990.44,344.973 1981.87,346.278ZM1973.44,294.965C1971.27,288.289 1968.73,281.665 1965.82,275.144C1958.88,259.563 1948.61,245.372 1938.33,231.174C1945.23,219.282 1953.4,215.838 1964.41,215.838C1969.21,215.838 1974.55,216.493 1980.56,217.388C1984.67,218.003 1989.58,218.755 1994.44,218.888C2003.31,229.78 2010.84,241.797 2016.8,254.694C2000.21,263.053 1988.84,278.313 1976.05,292.144C1975.16,293.102 1974.29,294.043 1973.44,294.965ZM1915.46,196.59C1913.32,192.647 1911.36,188.628 1909.64,184.506C1905.99,175.791 1905.02,168.273 1906.06,161.976C1928.2,167.743 1948.58,177.893 1966.21,191.44C1964.11,191.979 1961.99,192.323 1959.84,192.386C1959.17,192.407 1958.5,192.416 1957.83,192.416C1953.51,192.416 1949.33,192.02 1945.29,191.624C1941.25,191.228 1937.36,190.832 1933.62,190.832C1927.08,190.832 1921.01,192.045 1915.46,196.59Z" style="fill:rgb(69,125,162);fill-rule:nonzero;"/>
        <path d="M1980.79,327.858C1979.48,316.956 1976.98,305.897 1973.44,294.965C1974.29,294.043 1975.16,293.102 1976.05,292.144C1988.84,278.313 2000.21,263.053 2016.8,254.694C2022.56,267.142 2026.83,280.406 2029.42,294.268C2015.47,297.428 2001.11,303.005 1991.62,312.802C1987.15,317.415 1983.95,322.618 1980.79,327.858Z" style="fill:rgb(55,166,159);fill-rule:nonzero;"/>
        <path d="M1938.33,231.174C1930.16,219.886 1921.98,208.594 1915.46,196.59C1921.01,192.045 1927.08,190.832 1933.62,190.832C1937.36,190.832 1941.25,191.228 1945.29,191.624C1949.33,192.02 1953.51,192.416 1957.83,192.416C1958.5,192.416 1959.17,192.407 1959.84,192.386C1961.99,192.323 1964.11,191.979 1966.21,191.44C1976.66,199.464 1986.13,208.682 1994.44,218.888C1989.58,218.755 1984.67,218.003 1980.56,217.388C1974.55,216.493 1969.21,215.838 1964.41,215.838C1953.4,215.838 1945.23,219.282 1938.33,231.174Z" style="fill:rgb(55,166,159);fill-rule:nonzero;"/>
        <path d="M1688.27,460.512C1680.36,458.919 1672.88,455.254 1666.24,448.524C1672.88,455.254 1680.36,458.919 1688.27,460.512ZM1721.82,417.708C1713.24,417.162 1705.45,415.18 1699.48,410.918C1691.09,404.921 1688.64,395.989 1679.01,391.054C1668.7,385.766 1657.43,385.771 1646.42,384.03C1633.08,381.918 1626.32,379.548 1618.9,369.289C1613.42,361.717 1610.07,357.497 1601.05,355.03C1613.45,341.306 1612.54,322.765 1626.59,309.116C1631.94,303.916 1664.81,291.109 1683.31,291.109C1691.18,291.109 1696.45,293.424 1695.9,299.62L1694.98,311.678C1694.94,312.226 1694.9,312.775 1694.86,313.324L1694.78,314.385C1682.97,328.132 1648.65,341.029 1645.83,345.392C1636.42,359.986 1646.39,363.615 1658.83,363.614C1668.74,363.614 1680.22,361.306 1684.68,360.409C1688.92,359.559 1693.33,359.05 1697.74,358.932C1702.03,380.249 1710.33,400.115 1721.82,417.708Z" style="fill:rgb(64,57,103);fill-rule:nonzero;"/>
        <path d="M1855.21,395.358C1859.89,390.822 1864.16,385.033 1869.78,378.551C1872.82,375.035 1876.16,372.062 1879.73,369.554C1883.38,369.771 1886.97,369.91 1890.54,369.91C1901.84,369.91 1912.93,368.517 1924.75,363.784C1931.35,361.143 1937.5,358.74 1943.41,356.593C1949.95,356.194 1955.52,354.881 1961.75,350.636C1968.35,348.797 1974.94,347.334 1981.87,346.278C1981.8,355.825 1980.71,365.117 1978.5,373.961C1974.75,375.936 1971.11,378.153 1967.71,380.561C1944.36,384.684 1921.02,388.617 1897.52,392.784C1883.14,395.334 1869.27,395.09 1855.21,395.358ZM1814.08,375.026C1812.6,375.026 1811.04,374.984 1809.38,374.899C1806.1,374.731 1802.95,374.59 1799.9,374.51C1811.92,371.098 1824.35,368.862 1836.84,368.002C1831.6,372.643 1825.2,375.025 1814.08,375.026Z" style="fill:rgb(55,96,145);fill-rule:nonzero;"/>
        <path d="M1789.94,406.685C1785.49,398.555 1783.27,389.677 1782.47,380.392C1788.15,378.162 1793.97,376.192 1799.9,374.51C1802.95,374.59 1806.1,374.731 1809.38,374.899C1811.04,374.984 1812.6,375.026 1814.08,375.026C1825.2,375.025 1831.6,372.643 1836.84,368.002C1840.65,367.739 1844.47,367.605 1848.28,367.605C1852.35,367.605 1856.41,367.758 1860.45,368.071C1867.13,368.588 1873.51,369.184 1879.73,369.554C1876.16,372.062 1872.82,375.035 1869.78,378.551C1864.16,385.033 1859.89,390.822 1855.21,395.358C1849.42,395.469 1843.59,395.667 1837.69,396.184C1821.06,397.643 1805.85,402.526 1789.94,406.685ZM1943.41,356.593C1949.7,354.309 1955.73,352.316 1961.75,350.636C1955.52,354.881 1949.95,356.194 1943.41,356.593Z" style="fill:rgb(36,149,141);fill-rule:nonzero;"/>
        <path d="M1967.71,380.561C1971.11,378.153 1974.75,375.936 1978.5,373.961C1978.08,375.619 1977.63,377.261 1977.14,378.886C1973.99,379.448 1970.85,380.006 1967.71,380.561Z" style="fill:rgb(36,149,141);fill-rule:nonzero;"/>
        <path d="M2055.34,406.592C2042.74,406.592 2031.24,405.931 2022.76,405.48C2031.24,405.931 2042.74,406.591 2055.34,406.592C2093.83,406.592 2142.58,400.431 2147.03,363.317C2142.58,400.431 2093.83,406.593 2055.34,406.592ZM1575.25,393.26C1575.28,378.744 1592.24,364.554 1600.74,355.371C1600.75,355.356 1600.76,355.34 1600.78,355.325C1600.76,355.341 1600.75,355.356 1600.74,355.371C1592.24,364.554 1575.28,378.744 1575.25,393.26ZM2091.78,369.401C2084.46,369.401 2077.389,366.839 2070.11,365.771C2066.69,365.268 2063.25,365.051 2059.82,365.051C2049.32,365.051 2038.79,367.083 2028.31,369.192C2030.32,361.701 2031.84,353.996 2032.8,346.132C2037.15,346.552 2041.5,346.877 2045.77,346.877C2054.97,346.877 2063.8,345.367 2071.3,340.037C2079.08,334.516 2083.53,328.352 2082.58,318.218C2081.24,304.021 2069.59,308.549 2065.27,299.253C2059.34,286.505 2079.2,290.21 2082.35,282.819C2087.1,271.661 2069.1,269.583 2062.49,269.472C2062.3,269.469 2062.12,269.468 2061.94,269.468C2059.139,269.468 2056.24,269.815 2053.35,270.162C2050.46,270.51 2047.58,270.858 2044.81,270.858C2040.2,270.858 2035.89,269.893 2032.39,266.354C2024.99,258.886 2029.27,253.584 2036.13,247.962C2049.149,237.298 2068.22,237.804 2084.85,234.388C2092.19,232.88 2099.63,231.8 2106.88,231.8C2119.77,231.8 2132.08,235.215 2142.19,245.715C2139.23,242.644 2136.08,240.188 2132.79,238.237C2131.82,238.513 2130.85,238.802 2129.88,239.117C2094.139,250.781 2145.87,273.209 2149.74,284.235C2156.45,303.339 2130.24,308.926 2116.76,312.718C2117.07,330.514 2120.66,360.568 2101,367.808C2097.86,368.965 2094.8,369.401 2091.78,369.401Z" style="fill:rgb(64,57,103);fill-rule:nonzero;"/>
        <path d="M2027.11,369.434C2027.68,367.342 2028.2,365.235 2028.69,363.112C2028.49,363.111 2028.29,363.11 2028.09,363.11C2029.36,357.495 2030.36,351.772 2031.07,345.96C2031.65,346.019 2032.22,346.076 2032.8,346.132C2031.84,353.996 2030.32,361.701 2028.31,369.192C2027.91,369.272 2027.51,369.353 2027.11,369.434Z" style="fill:rgb(55,96,145);fill-rule:nonzero;"/>
        <path d="M2026.48,369.56C2027.06,367.425 2027.59,365.278 2028.09,363.11C2028.29,363.11 2028.49,363.111 2028.69,363.112C2028.2,365.235 2027.68,367.342 2027.11,369.434C2026.9,369.476 2026.69,369.518 2026.48,369.56Z" style="fill:rgb(36,149,141);fill-rule:nonzero;"/>
        <path d="M2147.26,360.206C2147.24,351.187 2138.92,342.981 2138.93,335.261C2138.92,342.98 2147.24,351.187 2147.26,360.206ZM2142.86,246.425C2142.85,246.421 2142.85,246.417 2142.85,246.412C2142.85,246.417 2142.85,246.421 2142.86,246.425ZM2142.5,246.036C2142.49,246.032 2142.49,246.028 2142.48,246.023C2142.49,246.029 2142.49,246.031 2142.5,246.036ZM2142.37,245.906C2142.37,245.901 2142.36,245.895 2142.36,245.89C2142.36,245.895 2142.37,245.901 2142.37,245.906ZM2142.27,245.804C2142.26,245.787 2142.24,245.771 2142.23,245.754C2142.24,245.771 2142.26,245.787 2142.27,245.804Z" style="fill:rgb(64,57,103);fill-rule:nonzero;"/>
        <path d="M1722.64,417.756C1722.36,417.742 1722.09,417.725 1721.82,417.708C1710.33,400.115 1702.03,380.249 1697.74,358.932C1698.35,358.915 1698.96,358.907 1699.56,358.905C1703.13,376.528 1709.43,393.15 1718.01,408.319C1717.72,408.472 1717.43,408.621 1717.14,408.769C1718.88,411.826 1720.71,414.822 1722.64,417.756Z" style="fill:rgb(94,110,142);fill-rule:nonzero;"/>
        <path d="M1718.01,408.319C1709.43,393.15 1703.13,376.528 1699.56,358.905L1699.73,358.905C1704.22,358.905 1708.71,359.315 1713.02,360.187C1717.58,361.109 1721.84,361.055 1725.46,364.641C1731.59,370.708 1727.19,372.076 1728.61,378.299C1730.56,386.809 1735.83,390.372 1742.54,391.14C1734.23,397.123 1726.54,403.828 1718.01,408.319Z" style="fill:rgb(88,138,171);fill-rule:nonzero;"/>
        <path d="M1727.11,417.87C1725.6,417.87 1724.11,417.834 1722.64,417.756C1720.71,414.822 1718.88,411.826 1717.14,408.769C1717.43,408.621 1717.72,408.472 1718.01,408.319C1726.54,403.828 1734.23,397.123 1742.54,391.14C1743.51,391.252 1744.52,391.305 1745.55,391.305C1756.55,391.304 1770.34,385.339 1779.91,381.419C1780.76,381.071 1781.61,380.729 1782.47,380.392C1783.27,389.677 1785.49,398.555 1789.94,406.685C1787.37,407.357 1784.79,408.009 1782.17,408.626C1768.18,411.926 1746.29,417.87 1727.11,417.87Z" style="fill:rgb(75,175,169);fill-rule:nonzero;"/>
        <path d="M1978.5,373.961C1980.71,365.117 1981.8,355.825 1981.87,346.278C1990.44,344.973 1999.53,344.291 2009.78,344.291C2016.51,344.291 2023.75,345.216 2031.07,345.96C2030.36,351.772 2029.36,357.495 2028.09,363.11L2027.95,363.11C2015.78,363.11 2003.75,364.712 1998.41,366.112C1991.88,367.826 1985.02,370.529 1978.5,373.961Z" style="fill:rgb(88,138,171);fill-rule:nonzero;"/>
        <path d="M1977.14,378.886C1977.63,377.261 1978.08,375.619 1978.5,373.961C1985.02,370.529 1991.88,367.826 1998.41,366.112C2003.75,364.712 2015.78,363.11 2027.95,363.11L2028.09,363.11C2027.59,365.278 2027.06,367.425 2026.48,369.56C2025.62,369.735 2024.75,369.91 2023.88,370.084C2008.25,373.211 1992.68,376.103 1977.14,378.886Z" style="fill:rgb(75,175,169);fill-rule:nonzero;"/>
        <path d="M1694.86,313.324C1694.9,312.775 1694.94,312.226 1694.98,311.678L1694.86,313.324Z" style="fill:rgb(94,110,142);fill-rule:nonzero;"/>
        <path d="M1698.63,461.495C1695.12,461.495 1691.65,461.194 1688.27,460.512C1691.65,461.194 1695.12,461.495 1698.63,461.495C1714.74,461.495 1731.87,455.153 1747.04,449.997C1747.56,449.817 1748.09,449.635 1748.62,449.452C1748.09,449.636 1747.56,449.818 1747.04,449.998C1731.87,455.153 1714.74,461.495 1698.63,461.495ZM1666.24,448.524C1665.97,448.253 1665.71,447.979 1665.44,447.698C1651.48,432.888 1664.9,408.906 1636.04,408.906C1635.99,408.906 1635.93,408.906 1635.88,408.907C1626.67,408.936 1612.53,413.196 1600.08,413.196C1590.22,413.196 1581.42,410.525 1576.96,400.972C1575.77,398.408 1575.24,395.829 1575.25,393.26C1575.24,395.829 1575.77,398.408 1576.96,400.972C1581.42,410.525 1590.22,413.196 1600.08,413.196C1612.53,413.196 1626.67,408.936 1635.88,408.907C1635.93,408.906 1635.99,408.906 1636.04,408.906C1664.9,408.906 1651.48,432.888 1665.44,447.698C1665.71,447.979 1665.97,448.253 1666.24,448.524Z" style="fill:rgb(85,78,120);fill-rule:nonzero;"/>
        <path d="M1600.78,355.325C1600.87,355.226 1600.95,355.126 1601.04,355.028C1601.04,355.028 1601.05,355.029 1601.05,355.03C1600.96,355.129 1600.87,355.227 1600.78,355.325ZM2138.93,335.261C2138.93,334.488 2139.02,333.719 2139.21,332.955C2141.57,323.231 2158.61,321.947 2166.53,319.384C2180.82,314.756 2201.12,301.395 2201.11,284.432C2201.12,301.395 2180.82,314.756 2166.53,319.384C2158.61,321.947 2141.57,323.231 2139.21,332.955C2139.02,333.719 2138.93,334.488 2138.93,335.261ZM2142.97,246.548C2142.93,246.507 2142.9,246.466 2142.86,246.425C2142.9,246.466 2142.93,246.507 2142.97,246.548ZM2142.85,246.412C2142.73,246.287 2142.61,246.16 2142.5,246.036C2142.61,246.161 2142.73,246.286 2142.85,246.412ZM2142.48,246.023C2142.45,245.984 2142.41,245.945 2142.37,245.906C2142.41,245.945 2142.45,245.984 2142.48,246.023ZM2142.36,245.89C2142.33,245.861 2142.3,245.832 2142.27,245.804C2142.3,245.832 2142.33,245.861 2142.36,245.89ZM2142.23,245.754C2142.21,245.741 2142.2,245.728 2142.19,245.715C2142.2,245.728 2142.21,245.741 2142.23,245.754Z" style="fill:rgb(85,78,120);fill-rule:nonzero;"/>
        <path d="M1748.62,449.452C1749.11,449.284 1749.59,449.115 1750.07,448.944L1750.08,448.945C1749.59,449.115 1749.11,449.284 1748.62,449.452Z" style="fill:rgb(112,126,154);fill-rule:nonzero;"/>
        <path d="M1750.08,448.945L1750.07,448.944C1768.45,442.463 1786.35,434.174 1805.22,429.253C1806.84,428.831 1808.46,428.424 1810.09,428.031C1808.46,428.424 1806.84,428.831 1805.22,429.253C1786.35,434.174 1768.45,442.462 1750.08,448.945Z" style="fill:rgb(106,151,181);fill-rule:nonzero;"/>
        <path d="M1698.63,461.495C1695.12,461.495 1691.65,461.194 1688.27,460.512C1680.36,458.919 1672.88,455.254 1666.24,448.524C1665.97,448.253 1665.71,447.979 1665.44,447.698C1651.48,432.888 1664.9,408.906 1636.04,408.906C1635.99,408.906 1635.93,408.906 1635.88,408.907C1626.67,408.936 1612.53,413.196 1600.08,413.196C1590.22,413.196 1581.42,410.525 1576.96,400.972C1575.77,398.408 1575.24,395.829 1575.25,393.26C1575.28,378.744 1592.24,364.554 1600.74,355.371C1600.75,355.356 1600.76,355.341 1600.78,355.325C1600.87,355.227 1600.96,355.129 1601.05,355.03C1610.07,357.497 1613.42,361.717 1618.9,369.289C1626.32,379.548 1633.08,381.918 1646.42,384.03C1657.43,385.771 1668.7,385.766 1679.01,391.054C1688.64,395.989 1691.09,404.921 1699.48,410.918C1705.45,415.18 1713.24,417.162 1721.82,417.708C1729.43,429.369 1738.44,440.028 1748.62,449.452C1748.09,449.635 1747.56,449.817 1747.04,449.997C1731.87,455.153 1714.74,461.495 1698.63,461.495Z" style="fill:rgb(102,97,133);fill-rule:nonzero;"/>
        <path d="M1810.09,428.031C1808.88,427.212 1807.69,426.365 1806.52,425.49C1799.5,420.218 1794.33,414.283 1790.6,407.861C1802.83,406.142 1815.2,405.504 1827.38,405.504C1827.79,405.504 1828.19,405.505 1828.59,405.506C1828.66,405.506 1828.74,405.507 1828.81,405.507C1841.49,405.507 1848.75,401.63 1855.21,395.358C1869.27,395.09 1883.14,395.334 1897.52,392.784C1921.02,388.617 1944.36,384.684 1967.71,380.561C1964.13,383.1 1960.81,385.852 1957.92,388.758C1951.84,394.847 1948.15,400.698 1942.45,405.425C1920.28,406.878 1898.2,409.803 1876.36,414.827C1854.42,419.875 1831.98,422.732 1810.09,428.031Z" style="fill:rgb(95,128,167);fill-rule:nonzero;"/>
        <path d="M1790.6,407.861C1790.38,407.471 1790.16,407.078 1789.94,406.685C1805.85,402.526 1821.06,397.643 1837.69,396.184C1843.59,395.667 1849.42,395.469 1855.21,395.358C1848.75,401.63 1841.49,405.507 1828.81,405.507C1828.74,405.507 1828.66,405.506 1828.59,405.506C1828.19,405.505 1827.79,405.504 1827.38,405.504C1815.2,405.504 1802.83,406.142 1790.6,407.861Z" style="fill:rgb(80,170,164);fill-rule:nonzero;"/>
        <path d="M1942.45,405.425C1948.15,400.698 1951.84,394.847 1957.92,388.758C1960.81,385.852 1964.13,383.1 1967.71,380.561C1970.85,380.006 1973.99,379.448 1977.14,378.886C1974.36,388.022 1970.31,396.616 1964.88,404.432C1957.4,404.612 1949.92,404.935 1942.45,405.425Z" style="fill:rgb(80,170,164);fill-rule:nonzero;"/>
        <path d="M2055.34,406.592C2042.74,406.591 2031.24,405.931 2022.76,405.48C2019.87,405.326 2016.98,405.184 2014.09,405.056C2020.13,393.803 2024.93,381.791 2028.31,369.192C2038.79,367.083 2049.32,365.051 2059.82,365.051C2063.25,365.051 2066.69,365.268 2070.11,365.771C2077.389,366.839 2084.46,369.401 2091.78,369.401C2094.8,369.401 2097.86,368.965 2101,367.808C2120.66,360.568 2117.07,330.514 2116.76,312.718C2130.24,308.926 2156.45,303.339 2149.74,284.235C2145.87,273.209 2094.139,250.781 2129.88,239.117C2130.85,238.802 2131.82,238.513 2132.79,238.237C2136.08,240.188 2139.23,242.644 2142.19,245.715C2142.2,245.728 2142.21,245.741 2142.23,245.754C2142.24,245.771 2142.26,245.787 2142.27,245.804C2142.3,245.832 2142.33,245.861 2142.36,245.89C2142.36,245.895 2142.37,245.901 2142.37,245.906C2142.41,245.945 2142.45,245.984 2142.48,246.023C2142.49,246.028 2142.49,246.032 2142.5,246.036C2142.61,246.16 2142.73,246.287 2142.85,246.412C2142.85,246.417 2142.85,246.421 2142.86,246.425C2142.9,246.466 2142.93,246.507 2142.97,246.548C2152.09,256.461 2153.27,257.475 2167.29,260.656C2177.19,262.901 2194.31,264.401 2199.06,275.114C2200.48,278.314 2201.11,281.43 2201.11,284.432C2201.12,301.395 2180.82,314.756 2166.53,319.384C2158.61,321.947 2141.57,323.231 2139.21,332.955C2139.02,333.719 2138.93,334.488 2138.93,335.261C2138.92,342.981 2147.24,351.187 2147.26,360.206C2147.26,360.568 2147.25,360.93 2147.22,361.295C2147.17,361.979 2147.11,362.652 2147.03,363.317C2142.58,400.431 2093.83,406.592 2055.34,406.592Z" style="fill:rgb(102,97,133);fill-rule:nonzero;"/>
        <path d="M2014.09,405.056C2013.71,405.04 2013.34,405.024 2012.97,405.008C2018.96,393.842 2023.73,381.925 2027.11,369.434C2027.51,369.353 2027.91,369.272 2028.31,369.192C2024.93,381.791 2020.13,393.803 2014.09,405.056Z" style="fill:rgb(95,128,167);fill-rule:nonzero;"/>
        <path d="M2012.97,405.008C2012.79,405 2012.62,404.993 2012.45,404.985C2018.39,393.861 2023.13,381.997 2026.48,369.56C2026.69,369.518 2026.9,369.476 2027.11,369.434C2023.73,381.925 2018.96,393.842 2012.97,405.008Z" style="fill:rgb(80,170,164);fill-rule:nonzero;"/>
        <path d="M1748.62,449.452C1738.44,440.028 1729.43,429.369 1721.82,417.708C1722.09,417.725 1722.36,417.742 1722.64,417.756C1725.49,422.112 1728.55,426.329 1731.78,430.394C1732,430.192 1732.21,429.991 1732.43,429.792C1737.81,436.622 1743.71,443.025 1750.07,448.944C1749.59,449.115 1749.11,449.284 1748.62,449.452Z" style="fill:rgb(126,139,165);fill-rule:nonzero;"/>
        <path d="M1750.07,448.944C1743.71,443.025 1737.81,436.622 1732.43,429.792C1737.38,425.241 1743.11,421.531 1748.19,419.331C1761.73,413.48 1776.06,409.906 1790.6,407.861C1794.33,414.283 1799.5,420.218 1806.52,425.49C1807.69,426.365 1808.88,427.212 1810.09,428.031C1808.46,428.424 1806.84,428.831 1805.22,429.253C1786.35,434.174 1768.45,442.463 1750.07,448.944Z" style="fill:rgb(121,161,188);fill-rule:nonzero;"/>
        <path d="M1731.78,430.394C1728.55,426.329 1725.49,422.112 1722.64,417.756C1724.11,417.834 1725.6,417.87 1727.11,417.87C1746.29,417.87 1768.18,411.926 1782.17,408.626C1784.79,408.009 1787.37,407.357 1789.94,406.685C1790.16,407.078 1790.38,407.471 1790.6,407.861C1776.06,409.906 1761.73,413.48 1748.19,419.331C1743.11,421.531 1737.38,425.241 1732.43,429.792C1732.21,429.991 1732,430.192 1731.78,430.394Z" style="fill:rgb(111,191,186);fill-rule:nonzero;"/>
        <path d="M2012.45,404.985C2001.58,404.523 1990.71,404.256 1979.84,404.256C1974.85,404.256 1969.87,404.312 1964.88,404.432C1970.31,396.616 1974.36,388.022 1977.14,378.886C1992.68,376.103 2008.25,373.211 2023.88,370.084C2024.75,369.91 2025.62,369.735 2026.48,369.56C2023.13,381.997 2018.39,393.861 2012.45,404.985Z" style="fill:rgb(111,191,186);fill-rule:nonzero;"/>
        <path d="M1621.4,389.838C1621.78,389.46 1622.16,389.082 1622.54,388.704C1623.26,387.976 1623.26,386.76 1622.54,386.032C1621.81,385.304 1620.59,385.304 1619.86,386.032C1619.49,386.41 1619.11,386.788 1618.73,387.166C1618,387.894 1618,389.11 1618.73,389.838C1619.46,390.566 1620.67,390.566 1621.4,389.838Z" style="fill:white;fill-rule:nonzero;"/>
        <path d="M1638.41,379.23C1638.03,378.853 1637.65,378.475 1637.27,378.097C1636.54,377.369 1635.33,377.369 1634.6,378.097C1633.87,378.825 1633.87,380.041 1634.6,380.769C1634.98,381.146 1635.36,381.524 1635.73,381.902C1636.46,382.63 1637.68,382.63 1638.41,381.902C1639.13,381.174 1639.13,379.958 1638.41,379.23Z" style="fill:white;fill-rule:nonzero;"/>
        <path d="M1620.07,369.608L1619.75,369.608C1618.72,369.608 1617.86,370.467 1617.86,371.498C1617.86,372.527 1618.72,373.387 1619.75,373.387L1621.2,373.387C1622.23,373.387 1623.09,372.527 1623.09,371.498C1623.09,370.467 1622.23,369.608 1621.2,369.608L1619.75,369.608C1618.72,369.608 1617.86,370.467 1617.86,371.498C1617.86,372.527 1618.72,373.387 1619.75,373.387L1620.07,373.387C1621.1,373.387 1621.96,372.527 1621.96,371.498C1621.96,370.467 1621.1,369.608 1620.07,369.608Z" style="fill:white;fill-rule:nonzero;"/>
        <path d="M1603.06,390.391C1605.5,390.391 1605.5,386.612 1603.06,386.612C1600.63,386.612 1600.63,390.391 1603.06,390.391Z" style="fill:white;fill-rule:nonzero;"/>
        <path d="M1604.2,400.216C1604.02,400.216 1603.85,400.216 1603.67,400.208C1603.5,400.201 1603.24,400.125 1603.93,400.249L1603.84,400.223C1604.11,400.296 1604.34,400.43 1604.54,400.627C1604.62,400.735 1604.71,400.842 1604.79,400.95C1604.94,401.344 1604.99,401.455 1604.93,401.282C1604.85,401.026 1604.99,401.862 1604.96,401.564C1604.95,401.368 1604.95,401.168 1604.95,400.972C1604.95,399.941 1604.09,399.082 1603.06,399.082C1602.03,399.082 1601.17,399.941 1601.17,400.972C1601.17,401.847 1601.26,402.614 1601.87,403.299C1602.45,403.957 1603.39,403.994 1604.2,403.995C1605.23,403.995 1606.08,403.135 1606.08,402.105C1606.08,401.075 1605.23,400.216 1604.2,400.216Z" style="fill:white;fill-rule:nonzero;"/>
        <path d="M1613.64,399.838C1613.63,400.055 1613.64,400 1613.67,399.673L1613.79,399.405C1613.69,399.57 1613.74,399.516 1613.93,399.24C1614.2,399.048 1614.25,399.002 1614.09,399.104C1614.51,398.853 1614.37,398.997 1614.17,399.05L1613.96,399.092C1614.54,398.989 1614.15,399.061 1614.01,399.069C1613.76,399.085 1613.51,399.082 1613.26,399.082C1612.23,399.083 1611.38,399.941 1611.38,400.972C1611.38,402.001 1612.23,402.861 1613.26,402.861C1613.99,402.86 1614.78,402.874 1615.46,402.599C1616.68,402.105 1617.37,401.17 1617.42,399.838C1617.46,398.808 1616.53,397.948 1615.53,397.948C1614.47,397.948 1613.68,398.809 1613.64,399.838Z" style="fill:white;fill-rule:nonzero;"/>
        <path d="M1589.46,396.059C1591.9,396.059 1591.9,392.28 1589.46,392.28C1587.02,392.28 1587.02,396.059 1589.46,396.059Z" style="fill:white;fill-rule:nonzero;"/>
        <path d="M1593.99,379.055L1595.13,379.055C1596.16,379.055 1597.02,378.196 1597.02,377.166C1597.02,376.136 1596.16,375.276 1595.13,375.276L1593.99,375.276C1592.96,375.276 1592.1,376.136 1592.1,377.166C1592.1,378.196 1592.96,379.055 1593.99,379.055Z" style="fill:white;fill-rule:nonzero;"/>
        <path d="M1608.73,377.921C1611.17,377.921 1611.17,374.143 1608.73,374.143C1606.29,374.143 1606.29,377.921 1608.73,377.921Z" style="fill:white;fill-rule:nonzero;"/>
        <path d="M1615.53,365.452C1617.97,365.452 1617.97,361.673 1615.53,361.673C1613.1,361.673 1613.1,365.452 1615.53,365.452Z" style="fill:white;fill-rule:nonzero;"/>
        <path d="M1651.81,328.042C1654.24,328.042 1654.24,324.264 1651.81,324.264C1649.37,324.264 1649.37,328.042 1651.81,328.042Z" style="fill:white;fill-rule:nonzero;"/>
        <path d="M1664.48,325.222C1664.86,324.844 1665.24,324.466 1665.61,324.088C1666.34,323.36 1666.34,322.144 1665.61,321.416C1664.89,320.688 1663.67,320.688 1662.94,321.416C1662.56,321.794 1662.19,322.172 1661.81,322.55C1661.08,323.278 1661.08,324.494 1661.81,325.222C1662.54,325.95 1663.75,325.95 1664.48,325.222Z" style="fill:white;fill-rule:nonzero;"/>
        <path d="M1677.88,318.974C1680.32,318.974 1680.32,315.195 1677.88,315.195C1675.44,315.195 1675.44,318.974 1677.88,318.974Z" style="fill:white;fill-rule:nonzero;"/>
        <path d="M1680.15,308.771C1682.58,308.771 1682.58,304.992 1680.15,304.992C1677.71,304.992 1677.71,308.771 1680.15,308.771Z" style="fill:white;fill-rule:nonzero;"/>
        <path d="M1659.74,312.172C1662.18,312.172 1662.18,308.393 1659.74,308.393C1657.31,308.393 1657.31,312.172 1659.74,312.172Z" style="fill:white;fill-rule:nonzero;"/>
        <path d="M1636.31,313.683L1636.31,314.817C1636.31,315.847 1637.17,316.706 1638.2,316.706C1639.23,316.706 1640.09,315.847 1640.09,314.817L1640.09,313.683C1640.09,312.653 1639.23,311.794 1638.2,311.794C1637.17,311.794 1636.31,312.653 1636.31,313.683Z" style="fill:white;fill-rule:nonzero;"/>
        <path d="M1648.41,326.909C1650.84,326.909 1650.84,323.13 1648.41,323.13C1645.97,323.13 1645.97,326.909 1648.41,326.909Z" style="fill:white;fill-rule:nonzero;"/>
        <path d="M1630.27,335.978C1632.71,335.978 1632.71,332.199 1630.27,332.199C1627.83,332.199 1627.83,335.978 1630.27,335.978Z" style="fill:white;fill-rule:nonzero;"/>
        <path d="M1621.2,347.314L1622.33,347.314C1623.36,347.314 1624.22,346.455 1624.22,345.424C1624.22,344.395 1623.36,343.535 1622.33,343.535L1621.2,343.535C1620.17,343.535 1619.31,344.395 1619.31,345.424C1619.31,346.455 1620.17,347.314 1621.2,347.314Z" style="fill:white;fill-rule:nonzero;"/>
        <path d="M1632.54,349.581C1634.97,349.581 1634.97,345.802 1632.54,345.802C1630.1,345.802 1630.1,349.581 1632.54,349.581Z" style="fill:white;fill-rule:nonzero;"/>
        <path d="M1709.62,390.391C1712.06,390.391 1712.06,386.612 1709.62,386.612C1707.19,386.612 1707.19,390.391 1709.62,390.391Z" style="fill:white;fill-rule:nonzero;"/>
        <path d="M1725.49,399.46C1727.93,399.46 1727.93,395.681 1725.49,395.681C1723.06,395.681 1723.06,399.46 1725.49,399.46Z" style="fill:white;fill-rule:nonzero;"/>
        <path d="M1727.38,413.441C1727.38,413.237 1727.38,413.033 1727.39,412.829C1727.42,412.491 1727.3,413.343 1727.37,413.035C1727.44,412.737 1727.14,413.506 1727.28,413.229L1727.41,413.036C1727.06,413.528 1727.26,413.232 1727.36,413.123C1727.55,412.911 1727.76,412.712 1727.96,412.51C1728.69,411.782 1728.69,410.566 1727.96,409.838C1727.23,409.11 1726.02,409.11 1725.29,409.838C1724.82,410.304 1724.29,410.79 1723.99,411.385C1723.66,412.041 1723.6,412.721 1723.6,413.441C1723.6,414.471 1724.46,415.331 1725.49,415.331C1726.52,415.331 1727.38,414.471 1727.38,413.441Z" style="fill:white;fill-rule:nonzero;"/>
        <path d="M1748.17,399.46C1750.6,399.46 1750.6,395.681 1748.17,395.681C1745.73,395.681 1745.73,399.46 1748.17,399.46Z" style="fill:white;fill-rule:nonzero;"/>
        <path d="M1778.77,398.327C1781.21,398.327 1781.21,394.547 1778.77,394.547C1776.33,394.547 1776.33,398.327 1778.77,398.327Z" style="fill:white;fill-rule:nonzero;"/>
        <path d="M1769.91,420.041C1769.53,419.663 1769.15,419.285 1768.77,418.907C1768.04,418.179 1766.83,418.179 1766.1,418.907C1765.37,419.635 1765.37,420.851 1766.1,421.579C1766.48,421.957 1766.86,422.334 1767.23,422.712C1767.96,423.44 1769.18,423.44 1769.91,422.712C1770.63,421.984 1770.63,420.769 1769.91,420.041Z" style="fill:white;fill-rule:nonzero;"/>
        <path d="M1726.63,423.266C1729.06,423.266 1729.06,419.487 1726.63,419.487C1724.19,419.487 1724.19,423.266 1726.63,423.266Z" style="fill:white;fill-rule:nonzero;"/>
        <path d="M1698.29,442.159L1697.15,442.159C1696.12,442.159 1695.26,443.019 1695.26,444.049C1695.26,445.079 1696.12,445.938 1697.15,445.938L1698.29,445.938C1699.32,445.938 1700.18,445.079 1700.18,444.049C1700.18,443.019 1699.32,442.159 1698.29,442.159Z" style="fill:white;fill-rule:nonzero;"/>
        <path d="M1683.17,429.312L1683.17,428.178C1683.17,427.148 1682.31,426.289 1681.28,426.289C1680.25,426.289 1679.39,427.148 1679.39,428.178L1679.39,429.312C1679.39,430.342 1680.25,431.201 1681.28,431.201C1682.31,431.201 1683.17,430.342 1683.17,429.312Z" style="fill:white;fill-rule:nonzero;"/>
        <path d="M1695.64,421.376L1695.64,420.243C1695.64,419.213 1694.78,418.354 1693.75,418.354C1692.72,418.354 1691.86,419.213 1691.86,420.243L1691.86,421.376C1691.86,422.406 1692.72,423.266 1693.75,423.266C1694.78,423.266 1695.64,422.406 1695.64,421.376Z" style="fill:white;fill-rule:nonzero;"/>
        <path d="M1697.91,407.773L1697.91,406.64C1697.91,405.609 1697.05,404.75 1696.02,404.75C1694.99,404.75 1694.13,405.609 1694.13,406.64L1694.13,407.773C1694.13,408.803 1694.99,409.663 1696.02,409.663C1697.05,409.663 1697.91,408.803 1697.91,407.773Z" style="fill:white;fill-rule:nonzero;"/>
        <path d="M1698.66,390.769L1698.66,391.294C1698.65,391.468 1698.57,391.725 1698.7,391.032L1698.67,391.124C1698.74,390.854 1698.88,390.622 1699.08,390.425C1699.18,390.342 1699.29,390.259 1699.4,390.176C1699.79,390.026 1699.9,389.979 1699.73,390.035C1699.47,390.115 1700.31,389.974 1700.01,390.001C1699.82,390.02 1699.62,390.013 1699.42,390.013C1698.39,390.014 1697.53,390.872 1697.53,391.902C1697.53,392.932 1698.39,393.792 1699.42,393.792C1700.29,393.792 1701.06,393.702 1701.75,393.097C1702.4,392.517 1702.44,391.575 1702.44,390.769C1702.44,389.739 1701.58,388.879 1700.55,388.879C1699.52,388.879 1698.66,389.739 1698.66,390.769Z" style="fill:white;fill-rule:nonzero;"/>
        <path d="M1674.48,403.617L1673.35,403.617C1672.32,403.617 1671.46,404.476 1671.46,405.506C1671.46,406.536 1672.32,407.396 1673.35,407.396L1674.48,407.396C1675.51,407.396 1676.37,406.536 1676.37,405.506C1676.37,404.476 1675.51,403.617 1674.48,403.617Z" style="fill:white;fill-rule:nonzero;"/>
        <path d="M1654.07,400.594L1655.21,400.594C1656.24,400.594 1657.1,399.734 1657.1,398.704C1657.1,397.674 1656.24,396.815 1655.21,396.815L1654.07,396.815C1653.04,396.815 1652.19,397.674 1652.19,398.704C1652.19,399.734 1653.04,400.594 1654.07,400.594Z" style="fill:white;fill-rule:nonzero;"/>
        <path d="M1801.44,431.201L1802.58,431.201C1803.61,431.201 1804.47,430.342 1804.47,429.312C1804.47,428.282 1803.61,427.422 1802.58,427.422L1801.44,427.422C1800.41,427.422 1799.55,428.282 1799.55,429.312C1799.55,430.342 1800.41,431.201 1801.44,431.201Z" style="fill:white;fill-rule:nonzero;"/>
        <path d="M1821.85,413.063L1822.98,413.063C1824.01,413.063 1824.87,412.204 1824.87,411.174C1824.87,410.144 1824.01,409.285 1822.98,409.285L1821.85,409.285C1820.82,409.285 1819.96,410.144 1819.96,411.174C1819.96,412.204 1820.82,413.063 1821.85,413.063Z" style="fill:white;fill-rule:nonzero;"/>
        <path d="M1846.79,416.464L1847.92,416.464C1848.95,416.464 1849.81,415.605 1849.81,414.575C1849.81,413.545 1848.95,412.686 1847.92,412.686L1846.79,412.686C1845.76,412.686 1844.9,413.545 1844.9,414.575C1844.9,415.605 1845.76,416.464 1846.79,416.464Z" style="fill:white;fill-rule:nonzero;"/>
        <path d="M1811.65,399.46C1814.08,399.46 1814.08,395.681 1811.65,395.681C1809.21,395.681 1809.21,399.46 1811.65,399.46Z" style="fill:white;fill-rule:nonzero;"/>
        <path d="M1825.63,389.635C1825.63,390.511 1825.72,391.277 1826.32,391.963C1826.9,392.621 1827.84,392.658 1828.65,392.658C1829.68,392.659 1830.54,391.799 1830.54,390.769C1830.54,389.739 1829.68,388.88 1828.65,388.879C1828.48,388.879 1828.3,388.879 1828.13,388.872C1827.95,388.864 1827.7,388.789 1828.39,388.913L1828.3,388.887C1828.57,388.959 1828.8,389.094 1829,389.291C1829.08,389.398 1829.16,389.506 1829.24,389.613C1829.39,390.008 1829.44,390.119 1829.39,389.946C1829.3,389.689 1829.45,390.525 1829.42,390.229C1829.4,390.032 1829.41,389.832 1829.41,389.635C1829.41,388.605 1828.55,387.746 1827.52,387.746C1826.49,387.746 1825.63,388.605 1825.63,389.635Z" style="fill:white;fill-rule:nonzero;"/>
        <path d="M1835.45,397.193C1837.89,397.193 1837.89,393.414 1835.45,393.414C1833.02,393.414 1833.02,397.193 1835.45,397.193Z" style="fill:white;fill-rule:nonzero;"/>
        <path d="M1834.32,403.995C1836.76,403.995 1836.76,400.216 1834.32,400.216C1831.88,400.216 1831.88,403.995 1834.32,403.995Z" style="fill:white;fill-rule:nonzero;"/>
        <path d="M1844.52,403.995L1845.66,403.995C1846.69,403.995 1847.54,403.135 1847.54,402.105C1847.54,401.075 1846.69,400.216 1845.66,400.216L1844.52,400.216C1843.49,400.216 1842.63,401.075 1842.63,402.105C1842.63,403.135 1843.49,403.995 1844.52,403.995Z" style="fill:white;fill-rule:nonzero;"/>
        <path d="M1864.93,409.663L1866.06,409.663C1867.09,409.663 1867.95,408.803 1867.95,407.773C1867.95,406.743 1867.09,405.884 1866.06,405.884L1864.93,405.884C1863.9,405.884 1863.04,406.743 1863.04,407.773C1863.04,408.803 1863.9,409.663 1864.93,409.663Z" style="fill:white;fill-rule:nonzero;"/>
        <path d="M1894.4,410.796C1896.84,410.796 1896.84,407.017 1894.4,407.017C1891.96,407.017 1891.96,410.796 1894.4,410.796Z" style="fill:white;fill-rule:nonzero;"/>
        <path d="M1860.77,383.967C1860.77,384.842 1860.86,385.609 1861.46,386.295C1862.04,386.953 1862.99,386.99 1863.79,386.99C1864.82,386.991 1865.68,386.13 1865.68,385.101C1865.68,384.071 1864.82,383.212 1863.79,383.211C1863.62,383.211 1863.44,383.211 1863.27,383.204C1863.09,383.196 1862.84,383.121 1863.53,383.244L1863.44,383.219C1863.71,383.292 1863.94,383.426 1864.14,383.623C1864.22,383.73 1864.3,383.838 1864.39,383.945C1864.54,384.34 1864.58,384.451 1864.53,384.278C1864.45,384.021 1864.59,384.857 1864.56,384.561C1864.54,384.364 1864.55,384.164 1864.55,383.967C1864.55,382.938 1863.69,382.078 1862.66,382.078C1861.63,382.078 1860.77,382.938 1860.77,383.967Z" style="fill:white;fill-rule:nonzero;"/>
        <path d="M1895.91,380.566C1895.91,381.441 1896,382.208 1896.61,382.895C1897.19,383.552 1898.13,383.589 1898.94,383.589C1899.96,383.59 1900.82,382.73 1900.82,381.7C1900.82,380.67 1899.96,379.811 1898.94,379.811C1898.76,379.811 1898.58,379.811 1898.41,379.803C1898.24,379.795 1897.98,379.72 1898.67,379.843L1898.58,379.818C1898.85,379.891 1899.08,380.025 1899.28,380.222C1899.36,380.33 1899.45,380.437 1899.53,380.544C1899.68,380.939 1899.72,381.05 1899.67,380.877C1899.59,380.621 1899.73,381.457 1899.7,381.16C1899.68,380.963 1899.69,380.763 1899.69,380.566C1899.69,379.537 1898.83,378.677 1897.8,378.677C1896.77,378.677 1895.91,379.536 1895.91,380.566Z" style="fill:white;fill-rule:nonzero;"/>
        <path d="M1919.34,391.525C1921.78,391.525 1921.78,387.746 1919.34,387.746C1916.9,387.746 1916.9,391.525 1919.34,391.525Z" style="fill:white;fill-rule:nonzero;"/>
        <path d="M1982.07,394.17L1982.07,395.303C1982.07,396.333 1982.93,397.193 1983.96,397.193C1984.99,397.193 1985.85,396.333 1985.85,395.303L1985.85,394.17C1985.85,393.14 1984.99,392.28 1983.96,392.28C1982.93,392.28 1982.07,393.14 1982.07,394.17Z" style="fill:white;fill-rule:nonzero;"/>
        <path d="M1997.56,385.856L1998.69,385.856C1999.72,385.856 2000.58,384.997 2000.58,383.967C2000.58,382.938 1999.72,382.078 1998.69,382.078L1997.56,382.078C1996.53,382.078 1995.67,382.938 1995.67,383.967C1995.67,384.997 1996.53,385.856 1997.56,385.856Z" style="fill:white;fill-rule:nonzero;"/>
        <path d="M2012.67,377.166C2012.67,378.041 2012.76,378.808 2013.37,379.494C2013.95,380.151 2014.89,380.188 2015.7,380.188C2016.73,380.189 2017.59,379.329 2017.59,378.299C2017.59,377.269 2016.73,376.41 2015.7,376.41C2015.52,376.41 2015.35,376.41 2015.17,376.402C2015,376.395 2014.74,376.319 2015.43,376.442L2015.34,376.417C2015.61,376.49 2015.84,376.625 2016.04,376.821C2016.12,376.929 2016.21,377.036 2016.29,377.144C2016.44,377.538 2016.49,377.649 2016.43,377.477C2016.35,377.22 2016.49,378.056 2016.46,377.759C2016.45,377.563 2016.45,377.362 2016.45,377.166C2016.45,376.136 2015.59,375.276 2014.56,375.276C2013.53,375.276 2012.67,376.136 2012.67,377.166Z" style="fill:white;fill-rule:nonzero;"/>
        <path d="M2068.98,386.99L2070.11,386.99C2071.139,386.99 2072,386.131 2072,385.101C2072,384.071 2071.139,383.211 2070.11,383.211L2068.98,383.211C2067.95,383.211 2067.09,384.071 2067.09,385.101C2067.09,386.131 2067.95,386.99 2068.98,386.99Z" style="fill:white;fill-rule:nonzero;"/>
        <path d="M2089.379,394.926L2092.78,394.926C2093.81,394.926 2094.669,394.066 2094.669,393.036C2094.669,392.006 2093.81,391.146 2092.78,391.146L2089.379,391.146C2088.35,391.146 2087.49,392.006 2087.49,393.036C2087.49,394.066 2088.35,394.926 2089.379,394.926Z" style="fill:white;fill-rule:nonzero;"/>
        <path d="M2118.86,385.856C2119.73,385.856 2120.5,385.767 2121.18,385.162C2121.84,384.582 2121.88,383.64 2121.88,382.833C2121.88,381.804 2121.02,380.944 2119.99,380.944C2118.96,380.944 2118.1,381.804 2118.1,382.833C2118.1,383.009 2118.1,383.184 2118.09,383.359C2118.08,383.533 2118.01,383.79 2118.13,383.097L2118.11,383.188C2118.18,382.919 2118.32,382.687 2118.51,382.489C2118.62,382.407 2118.73,382.324 2118.83,382.241C2119.23,382.091 2119.34,382.043 2119.17,382.099C2118.91,382.18 2119.75,382.038 2119.45,382.066C2119.25,382.084 2119.05,382.078 2118.86,382.078C2117.83,382.078 2116.97,382.937 2116.97,383.967C2116.97,384.997 2117.83,385.857 2118.86,385.856Z" style="fill:white;fill-rule:nonzero;"/>
        <path d="M2125.28,371.498L2125.28,370.364C2125.28,369.334 2124.42,368.475 2123.39,368.475C2122.36,368.475 2121.5,369.334 2121.5,370.364L2121.5,371.498C2121.5,372.527 2122.36,373.387 2123.39,373.387C2124.42,373.387 2125.28,372.527 2125.28,371.498Z" style="fill:white;fill-rule:nonzero;"/>
        <path d="M2088.25,343.913L2089.379,343.913C2090.409,343.913 2091.27,343.054 2091.27,342.023C2091.27,340.994 2090.409,340.134 2089.379,340.134L2088.25,340.134C2087.22,340.134 2086.36,340.994 2086.36,342.023C2086.36,343.054 2087.22,343.913 2088.25,343.913Z" style="fill:white;fill-rule:nonzero;"/>
        <path d="M2107.52,349.581L2108.65,349.581C2109.68,349.581 2110.54,348.722 2110.54,347.692C2110.54,346.662 2109.68,345.802 2108.65,345.802L2107.52,345.802C2106.49,345.802 2105.63,346.662 2105.63,347.692C2105.63,348.722 2106.49,349.581 2107.52,349.581Z" style="fill:white;fill-rule:nonzero;"/>
        <path d="M2123.39,347.314C2124.27,347.313 2125.03,347.224 2125.72,346.619C2126.38,346.039 2126.41,345.097 2126.41,344.291C2126.41,343.261 2125.55,342.401 2124.52,342.401C2123.49,342.401 2122.63,343.261 2122.63,344.291L2122.63,344.816C2122.62,344.99 2122.54,345.247 2122.67,344.554L2122.64,344.646C2122.71,344.376 2122.85,344.144 2123.05,343.947C2123.15,343.864 2123.26,343.781 2123.37,343.698C2123.76,343.548 2123.87,343.5 2123.7,343.557C2123.45,343.637 2124.28,343.495 2123.98,343.523C2123.79,343.542 2123.59,343.535 2123.39,343.535C2122.36,343.535 2121.5,344.394 2121.5,345.424C2121.5,346.454 2122.36,347.314 2123.39,347.314Z" style="fill:white;fill-rule:nonzero;"/>
        <path d="M2137.75,326.153L2137.75,323.886C2137.75,322.856 2136.89,321.996 2135.86,321.996C2134.83,321.996 2133.97,322.856 2133.97,323.886L2133.97,326.153C2133.97,327.183 2134.83,328.042 2135.86,328.042C2136.89,328.042 2137.75,327.183 2137.75,326.153Z" style="fill:white;fill-rule:nonzero;"/>
        <path d="M2107.14,314.817L2107.14,313.683C2107.14,312.653 2106.28,311.794 2105.25,311.794C2104.22,311.794 2103.36,312.653 2103.36,313.683L2103.36,314.817C2103.36,315.847 2104.22,316.706 2105.25,316.706C2106.28,316.706 2107.14,315.847 2107.14,314.817Z" style="fill:white;fill-rule:nonzero;"/>
        <path d="M2095.05,305.37C2095.929,305.37 2096.69,305.28 2097.38,304.675C2098.04,304.095 2098.07,303.153 2098.07,302.347C2098.07,301.317 2097.21,300.458 2096.179,300.458C2095.149,300.458 2094.29,301.317 2094.29,302.347L2094.29,302.873C2094.28,303.046 2094.2,303.303 2094.33,302.61L2094.3,302.702C2094.37,302.433 2094.51,302.2 2094.71,302.003C2094.81,301.92 2094.919,301.837 2095.03,301.754C2095.419,301.604 2095.53,301.557 2095.36,301.613C2095.1,301.693 2095.94,301.551 2095.639,301.58C2095.45,301.598 2095.25,301.591 2095.05,301.591C2094.02,301.592 2093.159,302.451 2093.159,303.481C2093.159,304.511 2094.02,305.371 2095.05,305.37Z" style="fill:white;fill-rule:nonzero;"/>
        <path d="M2119.99,296.301L2121.12,296.301C2122.15,296.301 2123.01,295.442 2123.01,294.412C2123.01,293.382 2122.15,292.522 2121.12,292.522L2119.99,292.522C2118.96,292.522 2118.1,293.382 2118.1,294.412C2118.1,295.442 2118.96,296.301 2119.99,296.301Z" style="fill:white;fill-rule:nonzero;"/>
        <path d="M2174.4,296.301L2175.54,296.301C2176.57,296.301 2177.43,295.442 2177.43,294.412C2177.43,293.382 2176.57,292.522 2175.54,292.522L2174.4,292.522C2173.37,292.522 2172.51,293.382 2172.51,294.412C2172.51,295.442 2173.37,296.301 2174.4,296.301Z" style="fill:white;fill-rule:nonzero;"/>
        <path d="M2194.43,287.61L2194.43,286.477C2194.43,285.447 2193.57,284.587 2192.54,284.587C2191.51,284.587 2190.65,285.447 2190.65,286.477L2190.65,287.61C2190.65,288.64 2191.51,289.5 2192.54,289.5C2193.57,289.5 2194.43,288.64 2194.43,287.61Z" style="fill:white;fill-rule:nonzero;"/>
        <path d="M2181.21,277.785L2178.94,277.785C2177.91,277.785 2177.05,278.645 2177.05,279.675C2177.05,280.705 2177.91,281.564 2178.94,281.564L2181.21,281.564C2182.23,281.564 2183.09,280.705 2183.09,279.675C2183.09,278.645 2182.23,277.785 2181.21,277.785Z" style="fill:white;fill-rule:nonzero;"/>
        <path d="M2166.47,277.03C2168.9,277.03 2168.9,273.251 2166.47,273.251C2164.03,273.251 2164.03,277.03 2166.47,277.03Z" style="fill:white;fill-rule:nonzero;"/>
        <path d="M2163.07,272.496C2165.5,272.496 2165.5,268.716 2163.07,268.716C2160.63,268.716 2160.63,272.496 2163.07,272.496Z" style="fill:white;fill-rule:nonzero;"/>
        <path d="M2049.33,258.136L2049.33,257.002C2049.33,255.973 2048.47,255.113 2047.44,255.113C2046.41,255.113 2045.55,255.973 2045.55,257.002L2045.55,258.136C2045.55,259.166 2046.41,260.026 2047.44,260.026C2048.47,260.026 2049.33,259.166 2049.33,258.136Z" style="fill:white;fill-rule:nonzero;"/>
        <path d="M2059.909,253.224L2061.04,253.224C2062.07,253.224 2062.929,252.364 2062.929,251.334C2062.929,250.305 2062.07,249.445 2061.04,249.445L2059.909,249.445C2058.879,249.445 2058.02,250.305 2058.02,251.334C2058.02,252.364 2058.879,253.224 2059.909,253.224Z" style="fill:white;fill-rule:nonzero;"/>
        <path d="M2066.71,257.758L2067.84,257.758C2068.87,257.758 2069.73,256.899 2069.73,255.869C2069.73,254.839 2068.87,253.979 2067.84,253.979L2066.71,253.979C2065.679,253.979 2064.82,254.839 2064.82,255.869C2064.82,256.899 2065.679,257.758 2066.71,257.758Z" style="fill:white;fill-rule:nonzero;"/>
        <path d="M2081.45,263.426L2082.58,263.426C2083.61,263.426 2084.47,262.567 2084.47,261.537C2084.47,260.507 2083.61,259.647 2082.58,259.647L2081.45,259.647C2080.419,259.647 2079.56,260.507 2079.56,261.537C2079.56,262.567 2080.419,263.426 2081.45,263.426Z" style="fill:white;fill-rule:nonzero;"/>
        <path d="M2100.72,246.422L2101.85,246.422C2102.88,246.422 2103.74,245.563 2103.74,244.533C2103.74,243.503 2102.88,242.644 2101.85,242.644L2100.72,242.644C2099.69,242.644 2098.83,243.503 2098.83,244.533C2098.83,245.563 2099.69,246.422 2100.72,246.422Z" style="fill:white;fill-rule:nonzero;"/>
        <path d="M2126.79,258.892C2129.23,258.892 2129.23,255.113 2126.79,255.113C2124.35,255.113 2124.35,258.892 2126.79,258.892Z" style="fill:white;fill-rule:nonzero;"/>
        <path d="M2110.92,275.896L2112.05,275.896C2113.08,275.896 2113.94,275.037 2113.94,274.007C2113.94,272.977 2113.08,272.117 2112.05,272.117L2110.92,272.117C2109.89,272.117 2109.03,272.977 2109.03,274.007C2109.03,275.037 2109.89,275.896 2110.92,275.896Z" style="fill:white;fill-rule:nonzero;"/>
        <path d="M2127.92,279.297C2130.36,279.297 2130.36,275.518 2127.92,275.518C2125.49,275.518 2125.49,279.297 2127.92,279.297Z" style="fill:white;fill-rule:nonzero;"/>
        <path d="M2130.57,284.209C2130.61,285.272 2131.08,286.292 2132.08,286.78C2132.91,287.188 2133.82,287.232 2134.73,287.232C2135.76,287.233 2136.62,286.373 2136.62,285.343C2136.62,284.313 2135.76,283.454 2134.73,283.454C2134.52,283.454 2134.31,283.452 2134.1,283.446L2133.87,283.434C2133.44,283.408 2134.32,283.515 2133.92,283.444L2133.72,283.395C2133.36,283.296 2134.13,283.609 2133.82,283.429L2134.06,283.612C2134.25,283.887 2134.3,283.942 2134.2,283.776L2134.32,284.044C2134.35,284.372 2134.36,284.426 2134.35,284.209C2134.31,283.18 2133.52,282.32 2132.46,282.32C2131.46,282.32 2130.53,283.18 2130.57,284.209Z" style="fill:white;fill-rule:nonzero;"/>
        <path d="M2152.49,292.145L2152.49,291.011C2152.49,289.981 2151.63,289.122 2150.6,289.122C2149.57,289.122 2148.71,289.981 2148.71,291.011L2148.71,292.145C2148.71,293.175 2149.57,294.034 2150.6,294.034C2151.63,294.034 2152.49,293.175 2152.49,292.145Z" style="fill:white;fill-rule:nonzero;"/>
        <path d="M2140.39,272.117L2139.26,272.117C2138.23,272.117 2137.37,272.977 2137.37,274.007C2137.37,275.037 2138.23,275.896 2139.26,275.896L2140.39,275.896C2141.42,275.896 2142.28,275.037 2142.28,274.007C2142.28,272.977 2141.42,272.117 2140.39,272.117Z" style="fill:white;fill-rule:nonzero;"/>
        <path d="M2140.39,265.694C2142.83,265.694 2142.83,261.915 2140.39,261.915C2137.96,261.915 2137.96,265.694 2140.39,265.694Z" style="fill:white;fill-rule:nonzero;"/>
        <path d="M2174.03,305.748L2174.03,304.614C2174.03,303.584 2173.17,302.725 2172.14,302.725C2171.11,302.725 2170.25,303.584 2170.25,304.614L2170.25,305.748C2170.25,306.778 2171.11,307.637 2172.14,307.637C2173.17,307.637 2174.03,306.778 2174.03,305.748Z" style="fill:white;fill-rule:nonzero;"/>
        <path d="M2152.86,312.172L2154,312.172C2155.03,312.172 2155.89,311.313 2155.89,310.282C2155.89,309.252 2155.03,308.393 2154,308.393L2152.86,308.393C2151.83,308.393 2150.97,309.252 2150.97,310.282C2150.97,311.313 2151.83,312.172 2152.86,312.172Z" style="fill:white;fill-rule:nonzero;"/>
        <path d="M1970.35,359.784C1971.42,359.743 1972.44,359.269 1972.92,358.275C1973.33,357.445 1973.38,356.537 1973.38,355.627C1973.38,354.597 1972.52,353.737 1971.49,353.737C1970.46,353.737 1969.6,354.597 1969.6,355.627C1969.6,355.834 1969.6,356.042 1969.59,356.25L1969.58,356.489C1969.55,356.911 1969.66,356.036 1969.59,356.434L1969.54,356.636C1969.44,356.994 1969.75,356.229 1969.57,356.532L1969.75,356.289C1970.03,356.099 1970.08,356.054 1969.92,356.153L1970.19,356.032C1970.51,356.002 1970.57,355.994 1970.35,356.005C1969.32,356.044 1968.46,356.834 1968.46,357.894C1968.46,358.895 1969.32,359.823 1970.35,359.784Z" style="fill:white;fill-rule:nonzero;"/>
        <path d="M1989.62,354.116L1990.76,354.116C1991.79,354.116 1992.65,353.256 1992.65,352.226C1992.65,351.196 1991.79,350.337 1990.76,350.337L1989.62,350.337C1988.59,350.337 1987.73,351.196 1987.73,352.226C1987.73,353.256 1988.59,354.116 1989.62,354.116Z" style="fill:white;fill-rule:nonzero;"/>
        <path d="M1996.43,363.185C1998.86,363.185 1998.86,359.406 1996.43,359.406C1993.99,359.406 1993.99,363.185 1996.43,363.185Z" style="fill:white;fill-rule:nonzero;"/>
        <path d="M2002.09,368.853C2004.53,368.853 2004.53,365.074 2002.09,365.074C1999.66,365.074 1999.66,368.853 2002.09,368.853Z" style="fill:white;fill-rule:nonzero;"/>
        <path d="M2012.3,359.784L2013.43,359.784C2014.46,359.784 2015.32,358.924 2015.32,357.894C2015.32,356.864 2014.46,356.005 2013.43,356.005L2012.3,356.005C2011.27,356.005 2010.41,356.864 2010.41,357.894C2010.41,358.924 2011.27,359.784 2012.3,359.784Z" style="fill:white;fill-rule:nonzero;"/>
    </g>
</svg>
