<?xml version="1.0" encoding="UTF-8" standalone="no"?>
<!DOCTYPE svg PUBLIC "-//W3C//DTD SVG 1.1//EN" "http://www.w3.org/Graphics/SVG/1.1/DTD/svg11.dtd">
<svg width="100%" height="100%" viewBox="0 0 605 355" version="1.1" xmlns="http://www.w3.org/2000/svg" xmlns:xlink="http://www.w3.org/1999/xlink" xml:space="preserve" xmlns:serif="http://www.serif.com/" style="fill-rule:evenodd;clip-rule:evenodd;stroke-linejoin:round;stroke-miterlimit:2;">
    <g transform="matrix(1,0,0,1,-41.204231,-772.281982)">
        <path d="M517.505,941.216C517.505,1034.52 441.872,1110.15 348.572,1110.15C255.272,1110.15 179.638,1034.52 179.638,941.216C179.638,847.917 255.272,772.282 348.572,772.282C441.872,772.282 517.505,847.917 517.505,941.216Z" style="fill:rgb(237,99,38);fill-rule:nonzero;"/>
        <path d="M313.632,975.26C281.558,957.12 230.87,960.61 206.228,989.577C202.188,994.325 198.059,1001.95 194.656,1010.82C216.179,1058.69 259.347,1094.72 311.7,1106.46C353.378,1072.17 369.607,1006.92 313.632,975.26Z" style="fill:rgb(239,138,52);fill-rule:nonzero;"/>
        <path d="M261.962,852.793C241.173,851.303 216.516,872.288 212.003,892.093C205.118,922.313 232.415,922.685 254.405,923.836C275.456,924.939 303.266,919.897 307.344,893.605C311.418,867.342 287.208,854.602 261.962,852.793Z" style="fill:rgb(239,138,52);fill-rule:nonzero;"/>
        <path d="M459.557,877.061C451.139,853.939 435.885,834.834 419.594,817.534C410.491,807.867 340.978,784.54 357.155,833.142C361.49,846.162 366.515,862.989 373.403,873.619C387.131,894.801 401.73,931.608 429.409,931.394C456.742,931.183 467.606,899.172 459.557,877.061Z" style="fill:rgb(239,138,52);fill-rule:nonzero;"/>
        <path d="M494.138,965.806C493.265,961.813 485.991,938.107 485.991,938.107C464.283,907.515 412.782,1001.9 422.494,1022.09C443.755,1066.27 502.234,1002.87 494.138,965.806Z" style="fill:rgb(239,138,52);fill-rule:nonzero;"/>
        <path d="M347.812,1110.48C321.475,1110.48 294.736,1104.3 269.772,1091.27C230.216,1070.61 202.248,1036.49 188.558,997.46C188.845,997.649 189.143,997.845 189.431,998.034C193.084,1008.26 197.702,1018.05 203.164,1027.26C226.5,1066.87 265.528,1096.11 311.7,1106.46C311.81,1106.37 311.92,1106.28 312.029,1106.19C323.794,1108.78 336.027,1110.15 348.572,1110.15C367.848,1110.15 386.366,1106.92 403.623,1100.98C403.638,1100.98 403.662,1100.99 403.677,1100.99C385.805,1107.23 366.913,1110.48 347.812,1110.48ZM180.906,962.022C180.67,961.852 180.433,961.68 180.197,961.509C179.567,956.268 179.182,950.99 179.046,945.69C179.268,945.852 179.487,946.012 179.709,946.173C179.863,951.523 180.266,956.808 180.906,962.022Z" style="fill:rgb(85,78,120);fill-rule:nonzero;"/>
        <path d="M348.572,1110.15C336.027,1110.15 323.794,1108.78 312.029,1106.19C321.994,1097.92 330.486,1087.89 336.863,1076.97C357.565,1085.44 380.111,1093.7 403.623,1100.98C386.366,1106.92 367.848,1110.15 348.572,1110.15ZM436.508,1085.41C413.155,1078.67 386.094,1069.2 354.277,1055.87C362.668,1055.82 371.12,1055.05 379.599,1054C403.517,1062.16 428.481,1069.04 452.724,1074.09C447.525,1078.19 442.111,1081.97 436.508,1085.41ZM203.164,1027.26C197.702,1018.05 193.084,1008.26 189.431,998.034C192.205,999.855 194.983,1001.66 197.781,1003.46C196.691,1005.78 195.643,1008.25 194.656,1010.82C197.196,1016.47 200.041,1021.96 203.164,1027.26ZM212.344,983.354C201.198,976.24 190.731,969.115 180.906,962.022C180.266,956.808 179.863,951.523 179.709,946.173C193.249,956.028 207.824,965.915 223.09,975.621C219.249,977.862 215.643,980.438 212.344,983.354Z" style="fill:rgb(241,130,81);fill-rule:nonzero;"/>
        <path d="M311.7,1106.46C265.528,1096.11 226.5,1066.87 203.164,1027.26C200.041,1021.96 197.196,1016.47 194.656,1010.82C195.643,1008.25 196.691,1005.78 197.781,1003.46C220.388,1017.97 243.722,1031.681 266.497,1044C285.349,1054.2 309.483,1065.77 336.863,1076.97C330.486,1087.89 321.994,1097.92 312.029,1106.19C311.92,1106.28 311.81,1106.37 311.7,1106.46ZM230.889,994.797C224.521,990.999 218.329,987.175 212.344,983.354C215.643,980.438 219.249,977.862 223.09,975.621C223.319,975.767 223.546,975.911 223.776,976.057C225.453,982.717 227.855,988.968 230.889,994.797Z" style="fill:rgb(242,161,93);fill-rule:nonzero;"/>
        <path d="M182.432,910.457C182.269,910.325 182.097,910.185 181.936,910.053C184.956,894.152 190.331,878.416 198.208,863.328C214.868,831.42 240.287,807.054 269.98,791.639C224.957,815.345 191.938,858.789 182.432,910.457Z" style="fill:rgb(85,78,120);fill-rule:nonzero;"/>
        <path d="M486.413,939.488C486.146,938.612 485.991,938.107 485.991,938.107C483.008,933.904 479.459,932.059 475.588,932.059C471.474,932.059 466.993,934.139 462.425,937.68C455.891,935.514 449.484,932.184 443.219,928.1C460.195,919.347 466.073,894.96 459.557,877.061C451.139,853.939 435.885,834.834 419.594,817.534C414.755,812.395 392.84,803.394 375.805,803.394C360.797,803.394 349.578,810.378 357.155,833.142C360.222,842.354 363.634,853.472 367.808,862.952C350.17,850.059 331.508,838.827 311.053,838.827C302.871,838.827 294.401,840.625 285.597,844.832C280.388,847.322 275.383,850.363 270.626,853.861C267.78,853.357 264.878,853.002 261.962,852.793C261.262,852.743 260.553,852.718 259.846,852.718C239.531,852.718 216.364,872.955 212.003,892.093C208.152,908.996 214.995,916.561 225.622,920.147C225.084,922.052 224.596,923.962 224.162,925.869C223.159,930.27 222.403,934.554 221.879,938.732C206.861,929.108 193.693,919.603 182.432,910.457C191.938,858.789 224.957,815.345 269.98,791.639C294.017,779.159 320.849,772.547 348.101,772.547C374.442,772.547 401.18,778.729 426.147,791.764C473.924,816.709 504.792,861.3 514.02,910.459C514.39,928.867 498.191,936.95 486.413,939.488Z" style="fill:rgb(241,130,81);fill-rule:nonzero;"/>
        <path d="M225.622,920.147C214.995,916.561 208.152,908.996 212.003,892.093C216.364,872.955 239.531,852.718 259.846,852.718C260.553,852.718 261.262,852.743 261.962,852.793C264.878,853.002 267.78,853.357 270.626,853.861C249.213,869.607 232.838,894.603 225.622,920.147Z" style="fill:rgb(242,161,93);fill-rule:nonzero;"/>
        <path d="M443.219,928.1C418.743,912.145 396.49,884.706 377.809,870.455C374.509,867.938 371.177,865.415 367.808,862.952C363.634,853.472 360.222,842.354 357.155,833.142C349.578,810.378 360.797,803.394 375.805,803.394C392.84,803.394 414.755,812.395 419.594,817.534C435.885,834.834 451.139,853.939 459.557,877.061C466.073,894.96 460.195,919.347 443.219,928.1Z" style="fill:rgb(242,161,93);fill-rule:nonzero;"/>
        <path d="M478.555,940.428L478.534,940.428C473.092,940.423 467.717,939.433 462.425,937.68C466.993,934.139 471.474,932.059 475.588,932.059C479.459,932.059 483.008,933.904 485.991,938.107C485.991,938.107 486.146,938.612 486.413,939.488C483.381,940.142 480.642,940.428 478.555,940.428Z" style="fill:rgb(242,161,93);fill-rule:nonzero;"/>
        <path d="M209.059,829.362C209.059,829.362 151.62,815.758 136.503,839.943C121.387,864.128 189.631,934.689 323.937,991.855C471.314,1054.58 555.793,1062.74 577.123,1040.22C590.727,1025.86 532.532,975.983 532.532,975.983L536.311,965.402C536.311,965.402 633.05,1023.6 596.773,1064.41C560.496,1105.22 408.11,1073.71 314.868,1027.38C190.164,965.402 69.161,871.934 90.401,832.386C112.318,791.573 214.349,821.805 214.349,821.805L209.059,829.362Z" style="fill:rgb(125,13,152);fill-rule:nonzero;"/>
        <path d="M145.573,803.666C139.527,805.177 56.609,798.986 69.994,842.966C80.575,877.733 151.74,959.131 288.415,1025.86C449.397,1104.47 514.341,1101.51 561.252,1102.95C659.503,1105.98 614.912,1037.2 614.912,1037.2C614.912,1037.2 679.662,1102.78 620.958,1118.83C507.591,1149.81 343.217,1085.51 266.497,1044C174.293,994.122 73.018,921.567 47.321,864.128C28.824,822.78 55.88,803.371 80.575,796.108C106.273,788.55 145.573,803.666 145.573,803.666Z" style="fill:rgb(125,13,152);fill-rule:nonzero;"/>
        <path d="M177.205,929.039C174.011,929.039 171.897,927.489 169.041,925.912C146.655,913.55 136.154,887.946 115.381,874.516C104.655,867.583 100.17,857.025 98.696,844.495C97.328,832.85 105.59,821.567 116.853,818.781L120.632,817.27C126.76,817.249 132.278,816.555 137.976,815.719C140.72,815.317 146.794,813.478 151.307,813.478C152.959,813.478 154.402,813.725 155.395,814.379C164.087,820.099 148.283,819.707 145.573,820.254C140.061,821.367 135.507,823.558 130.457,825.583C119.472,829.988 112.083,836.318 115.363,849.73C117.845,859.879 129.341,867.118 135.543,875.633C142.837,885.646 152.388,891.77 159.367,901.728C165.904,911.058 180.422,915.83 177.957,929.011C177.699,929.03 177.449,929.039 177.205,929.039Z" style="fill:rgb(191,55,176);fill-rule:nonzero;"/>
        <path d="M119.964,931.674C116.406,931.674 110.478,927.106 108.5,925.494C98.188,917.086 90.15,908.983 80.386,899.837C69.581,889.718 68.135,880.421 63.193,867.151C58.931,855.712 49.735,845.208 50.305,833.141C50.812,822.409 58.378,804.328 71.506,803.666L76.797,800.643C78.665,799.622 81.206,798.96 83.614,798.96C85.584,798.96 87.465,799.404 88.813,800.456C82.6,805.386 73.165,806.323 66.806,811.036C60.283,815.872 58.915,826.02 60.13,833.897C63.086,853.056 74.632,876.873 87.528,892.808C92.18,898.558 98.132,900.471 102.721,906.281C105.669,910.014 108.542,913.799 112.131,917.219C114.335,919.318 122.634,924.56 122.746,927.596C122.856,930.601 121.689,931.674 119.964,931.674Z" style="fill:rgb(191,55,176);fill-rule:nonzero;"/>
        <path d="M544.762,1071C541.659,1071 538.695,1070.85 535.979,1070.57C516.9,1068.63 498.491,1063.17 479.357,1060.38C456.634,1057.06 434.709,1051.48 412.411,1047.59C398.805,1045.22 369.193,1040.97 362.536,1027.44L358.002,1025.171C354.774,1021.56 334.843,1014.68 348.171,1014.68C348.74,1014.68 349.37,1014.69 350.063,1014.72C357.195,1014.99 368.132,1023.32 374.754,1026.59C392.014,1035.09 409.909,1039.82 428.349,1044.38C446.196,1048.8 463.881,1050.46 482.699,1052.38C500.782,1054.23 518.568,1060.05 537.113,1060.31C537.578,1060.32 538.042,1060.32 538.507,1060.32C556.595,1060.32 574.921,1055.3 585.854,1040.98C588.376,1037.681 591.91,1034.171 594.586,1034.171C596.659,1034.171 598.216,1036.28 598.386,1042.23C598.574,1048.82 590.648,1055.94 585.573,1060.03C575.752,1067.95 558.823,1071 544.762,1071Z" style="fill:rgb(158,34,164);fill-rule:nonzero;"/>
    </g>
</svg>
