<?xml version="1.0" encoding="UTF-8" standalone="no"?>
<!DOCTYPE svg PUBLIC "-//W3C//DTD SVG 1.1//EN" "http://www.w3.org/Graphics/SVG/1.1/DTD/svg11.dtd">
<svg width="100%" height="100%" viewBox="0 0 341 339" version="1.1" xmlns="http://www.w3.org/2000/svg" xmlns:xlink="http://www.w3.org/1999/xlink" xml:space="preserve" xmlns:serif="http://www.serif.com/" style="fill-rule:evenodd;clip-rule:evenodd;stroke-linejoin:round;stroke-miterlimit:2;">
    <g transform="matrix(1,0,0,1,-2292.77002,-156.319946)">
        <path d="M2632.3,325.254C2632.3,418.554 2556.66,494.187 2463.37,494.187C2370.07,494.187 2294.43,418.554 2294.43,325.254C2294.43,231.955 2370.07,156.32 2463.37,156.32C2556.66,156.32 2632.3,231.955 2632.3,325.254Z" style="fill:rgb(125,13,152);fill-rule:nonzero;"/>
        <path d="M2616.17,335.262C2598.41,328.566 2541.92,340.222 2539.05,316.63C2537.57,304.449 2550.33,290.005 2545.37,277.696C2539.99,264.343 2518.89,264.421 2507.08,262.167C2495.83,260.02 2471.47,253.432 2472.96,236.944C2474.11,224.238 2491.7,224.804 2500.51,223.403C2521.22,220.109 2538.82,216.237 2558.15,207.448C2564.22,204.688 2569.29,200.88 2574.18,196.921C2562.93,187.135 2550.37,178.812 2536.81,172.252C2534.5,176.746 2526.05,173.563 2521.77,179.356C2516.01,187.146 2526.12,192.654 2512.69,198.434C2505.54,201.518 2492.36,202.256 2485.46,197.579C2476.47,191.485 2478.02,185.256 2465.08,184.772C2464.37,184.745 2454.05,185.751 2453.74,185.91C2448.75,188.538 2450.36,192.098 2447,194.997C2440.9,200.259 2437.84,197.849 2433.54,195.439C2431.12,194.076 2428.29,192.713 2424.3,192.737C2412.21,192.809 2410.96,203.005 2406.47,210.875C2400.7,221.004 2390.91,226.525 2378.9,226.742C2368.42,226.931 2361.71,221.688 2356.28,213.138C2353.85,209.308 2353.33,202.702 2351.28,198.045C2317,228.474 2295.18,272.635 2294.46,321.911C2299.89,317.321 2303.84,311.92 2304.14,304.961L2307.54,293.625C2313.85,269.961 2341.01,248.879 2357.42,273.414C2364.43,283.903 2367.26,296.465 2382.05,297.934C2399.42,299.658 2412.26,284.195 2425.74,276.284C2442.53,266.434 2460.38,268.066 2474.15,281.692C2483.42,290.867 2497.04,312.29 2487.53,325.362C2477.44,339.231 2462.78,332.537 2447.91,325.842C2435.1,320.078 2422.13,314.312 2411.77,321.684C2382.24,342.708 2439.01,357.379 2449.24,366.18C2480.85,393.384 2437.43,418.943 2408.37,419.452C2404.92,419.512 2401.2,418.991 2397.42,418.47C2391.49,417.653 2385.41,416.835 2380.03,418.263C2367.68,421.543 2354.05,433.788 2342.45,439.839C2341.9,440.124 2341.35,440.407 2340.81,440.689C2361.15,462.13 2387.07,478.232 2416.23,486.69C2418.25,468.151 2443.91,479.965 2454.88,480.697C2481.38,482.466 2462.23,446.513 2484.38,438.705C2491.76,436.104 2506.8,437.36 2508.24,445.507C2509.96,455.273 2489.5,463.688 2500.2,470.775C2512.98,479.243 2510.65,459.711 2518.33,457.944C2520.9,457.352 2522.09,459.047 2523.45,460.744C2524.66,462.251 2526.01,463.759 2528.59,463.659C2533.8,463.455 2533.71,459.24 2537.92,457.122C2547.78,452.158 2559.98,449.85 2567.44,457.502C2602.83,429.782 2626.88,388.248 2631.49,341.015C2626.54,339.428 2621.52,337.281 2616.17,335.262Z" style="fill:rgb(235,83,192);fill-rule:nonzero;"/>
        <path d="M2557.13,299.552C2556.74,299.552 2556.34,299.501 2555.93,299.395C2551.61,298.282 2557.74,278.879 2556.99,274.01C2555.42,263.721 2546.05,255.762 2537.02,251.949C2526.34,247.44 2516.43,247.6 2505.08,246.653C2500.46,246.266 2493.81,246.179 2490.55,242.202C2487.73,238.764 2488.25,232.781 2493.05,231.74L2499.39,229.627C2499.68,229.285 2500.07,229.407 2500.01,228.658C2510.75,225.531 2523.36,226.484 2534.42,224.684C2536.02,226.901 2537.63,229.112 2539.25,231.325C2537.96,231.189 2536.66,231.074 2535.38,231.074C2533.48,231.074 2531.65,231.327 2530.03,232.139C2525.13,234.611 2525.21,238.775 2530.03,241.249C2533.84,243.2 2539.06,243.11 2543.24,244.803C2546.27,246.028 2549.12,247.357 2551.82,249.022C2557.43,257.339 2562.56,265.85 2566.59,274.822C2567.04,275.82 2567.48,276.825 2567.91,277.828C2567.12,285.203 2563.68,299.553 2557.13,299.552Z" style="fill:rgb(158,34,164);fill-rule:nonzero;"/>
        <path d="M2394.69,200.925C2392.07,198.17 2388.89,195.446 2385.27,193.286C2389.27,191.144 2393.18,188.398 2395.84,186.828C2401.98,183.208 2406.94,179.586 2414.32,179.432C2415.09,179.416 2416.22,179.374 2417.5,179.374C2421.13,179.374 2425.98,179.712 2427.16,181.944C2429.62,186.608 2423.85,187.919 2420.73,187.918C2420.52,187.918 2420.32,187.912 2420.13,187.901C2417.96,187.765 2416.27,187.557 2414.7,187.557C2412.26,187.557 2410.11,188.062 2406.92,190.132C2402.35,193.102 2398.36,196.85 2394.69,200.925ZM2377.25,189.8C2375.24,189.248 2373.15,188.916 2371,188.865L2374.17,186.828C2375.61,186.155 2376.6,185.865 2377.23,185.865C2378.82,185.865 2378.25,187.662 2377.25,189.8Z" style="fill:rgb(158,34,164);fill-rule:nonzero;"/>
        <path d="M2566.37,318.602C2565.2,318.602 2564.01,318.426 2562.78,318.009C2558.22,316.46 2555.41,311.253 2558.67,306.888C2561.01,303.761 2567.2,302.413 2570.18,299.487C2571.63,298.056 2573.02,296.341 2574.2,294.459C2576.36,301.042 2578.14,307.679 2579.5,314.293C2575.16,315.852 2570.97,318.602 2566.37,318.602Z" style="fill:rgb(158,34,164);fill-rule:nonzero;"/>
        <path d="M2484.92,354.914C2476.4,354.914 2467.15,352.411 2459.23,349.963C2452.29,347.818 2440.39,339.663 2432.02,339.663C2430.99,339.663 2430.02,339.786 2429.12,340.057C2426.88,340.729 2424.54,344.438 2421.85,344.438C2421,344.438 2420.11,344.062 2419.18,343.094C2415.9,339.678 2420.34,336.095 2423.29,334.654C2425.38,333.636 2427.46,333.21 2429.53,333.21C2438.3,333.21 2446.87,340.851 2454.99,343.357C2461.38,345.328 2468.75,347.032 2475.9,347.032C2481.39,347.032 2486.75,346.028 2491.43,343.371C2517.02,328.868 2494.19,289.997 2478.25,276.652C2468.55,268.528 2455.14,264.008 2441.96,264.008C2431.17,264.008 2420.53,267.042 2412.22,273.611C2408.23,276.77 2404.07,279.297 2399.75,280.908C2401.98,272.946 2403.98,264.876 2405.35,256.946C2413.92,253.297 2424.06,250.865 2432.42,250.762C2432.76,250.758 2433.1,250.756 2433.44,250.756C2458.18,250.756 2487.52,261.717 2502.16,281.936C2512.56,296.294 2515.74,321.381 2509.57,338.06C2506.78,345.605 2495.24,354.393 2487.24,354.85C2486.47,354.893 2485.7,354.914 2484.92,354.914Z" style="fill:rgb(239,117,205);fill-rule:nonzero;"/>
        <path d="M2426.25,436.905C2421.44,434.887 2416.83,432.545 2412.48,429.872C2423.27,429.76 2436.4,428.283 2446.14,424.49C2460.36,418.957 2466.62,405.44 2466.1,390.662C2465.69,379.091 2462.58,369.125 2453.89,361.164C2449.7,357.321 2445.25,353.787 2439.68,352.179C2437.86,351.654 2426.86,349.318 2433.34,346.396L2435.46,346.925C2447.16,350.421 2461.32,354.985 2469.15,365.447C2480.72,380.89 2483,401.059 2471.38,417.726C2461.01,432.611 2443.41,435.371 2426.25,436.905Z" style="fill:rgb(239,117,205);fill-rule:nonzero;"/>
        <path d="M2469.35,446.237C2465.44,446.071 2461.53,445.735 2457.64,445.226C2460.45,441.162 2462.82,436.628 2466.63,432.523C2472.97,425.687 2487.24,417.603 2496.88,417.603C2497.02,417.603 2497.16,417.605 2497.3,417.609C2510.17,417.935 2513.11,424.129 2522.11,431.86C2524.03,433.51 2526.43,434.251 2529.05,434.477C2524.14,436.802 2518.84,438.86 2513.17,440.624C2513.8,438.715 2515.25,436.9 2514.75,434.106C2513.61,427.751 2505.32,427.828 2500.46,427.766C2500.29,427.763 2500.13,427.762 2499.97,427.762C2486.78,427.762 2475.33,434.577 2469.35,446.237Z" style="fill:rgb(239,117,205);fill-rule:nonzero;"/>
        <path d="M2563,355.387C2562.75,355.387 2562.51,355.385 2562.26,355.379C2550.29,355.112 2532.98,352.105 2527.26,340.172C2521.81,328.805 2523.92,314.567 2527.53,303.071C2530.47,293.674 2534,283.285 2526.34,275.594L2521.58,274.01C2518.58,273.884 2516.37,270.881 2520.51,269.242C2520.88,269.095 2521.36,269.03 2521.91,269.03C2524.46,269.03 2528.5,270.463 2530.01,271.475C2536.23,275.665 2536.19,285.283 2535.85,291.975C2535.24,303.953 2531.18,325.779 2539.66,335.183C2546.87,343.172 2557.7,344.758 2568.94,344.758C2572.64,344.758 2576.39,344.586 2580.07,344.414C2580.98,344.371 2581.88,344.329 2582.78,344.289C2582.8,347.154 2582.72,349.99 2582.55,352.807C2579.98,353.069 2577.42,353.527 2574.85,353.986C2570.92,354.686 2566.99,355.387 2563,355.387Z" style="fill:rgb(239,117,205);fill-rule:nonzero;"/>
        <path d="M2457.57,244.344C2453.47,244.343 2450,240.475 2449.72,236.496C2448.8,223.234 2465.51,215.283 2476.14,213.247C2491.37,210.333 2506.5,209.123 2521.6,206.002C2523,208.211 2524.44,210.403 2525.91,212.58C2522.36,213.612 2518.8,214.704 2515.24,216.022C2505.05,219.8 2495.03,220.147 2484.57,221.672C2476.78,222.806 2464.16,225.628 2462.39,234.911C2461.5,239.567 2464.36,243.627 2458.29,244.303C2458.05,244.331 2457.81,244.344 2457.57,244.344Z" style="fill:rgb(239,117,205);fill-rule:nonzero;"/>
        <path d="M2483.01,409.643C2483.01,409.168 2483,408.691 2483.01,408.215L2483.14,408.387C2483.07,408.799 2483.02,409.217 2483.01,409.643Z" style="fill:rgb(239,117,205);fill-rule:nonzero;"/>
        <path d="M2531.23,425.223C2530.66,425.223 2530.08,425.191 2529.51,425.122C2524.11,424.478 2524.65,420.201 2521.61,416.552C2519,413.42 2513.82,410.35 2510.07,409.141C2507.71,408.379 2504.92,407.998 2502.15,407.998C2499.91,407.998 2497.68,408.247 2495.69,408.744C2492.37,409.574 2488.14,413.326 2484.53,413.326C2483.84,413.326 2483.17,413.187 2482.54,412.864C2482.7,411.286 2483.51,410.817 2484.59,410.329L2483.14,408.387C2484.07,402.774 2490.01,398.45 2495.04,396.46C2497.43,395.517 2499.59,395.105 2501.59,395.105C2510.61,395.105 2516.26,403.544 2524.27,409.283C2527.46,411.562 2530.78,412.288 2534.19,412.288C2539.18,412.288 2544.36,410.735 2549.55,410.211C2551.67,409.998 2554.19,409.871 2556.93,409.871C2558.34,409.871 2559.81,409.904 2561.31,409.978C2558.3,413.591 2554.95,417.007 2551.25,420.197C2547.9,420.411 2544.76,421.551 2541.65,422.692C2538.2,423.957 2534.8,425.223 2531.23,425.223Z" style="fill:rgb(239,117,205);fill-rule:nonzero;"/>
        <path d="M2406.59,248.24C2406.98,244.677 2407.21,241.161 2407.23,237.715C2410.3,235.575 2412.94,232.887 2414.73,229.627C2419.5,220.974 2425.63,214.073 2435.34,210.21C2442.86,207.217 2453.49,207.151 2458.72,200.053C2460.79,197.243 2461.11,193.128 2464.19,193.128C2465.01,193.128 2466.02,193.417 2467.3,194.096C2470.41,195.734 2472.22,199.814 2471.27,203.089C2469.26,209.964 2456.52,211.233 2450.78,212.734C2442.19,214.979 2433.96,217.701 2428.06,224.873C2421.05,233.4 2416.53,242.653 2406.59,248.24Z" style="fill:rgb(239,117,205);fill-rule:nonzero;"/>
        <path d="M2463.22,494.405C2369.08,494.405 2292.77,418.657 2292.77,325.215C2292.77,271.237 2318.24,223.163 2357.9,192.184C2359.06,191.548 2360.22,191.013 2361.38,190.57C2357.99,193.136 2354.71,195.828 2351.53,198.636C2351.45,198.436 2351.37,198.239 2351.28,198.045C2317,228.474 2295.18,272.635 2294.46,321.911C2294.44,323.022 2294.43,324.138 2294.43,325.254C2294.43,418.554 2370.07,494.187 2463.37,494.187C2556.66,494.187 2632.3,418.554 2632.3,325.254C2632.3,274.123 2609.58,228.296 2573.69,197.317C2573.85,197.185 2574.02,197.053 2574.18,196.921C2571.61,194.684 2568.97,192.523 2566.26,190.443C2607.22,221.342 2633.66,270.213 2633.66,325.215C2633.66,418.657 2557.35,494.405 2463.22,494.405ZM2536.41,172.883C2526.82,168.278 2516.73,164.552 2506.24,161.809C2506.26,161.699 2506.27,161.59 2506.29,161.48C2516.85,164.21 2527.01,167.917 2536.67,172.503C2536.58,172.637 2536.5,172.764 2536.41,172.883Z" style="fill:rgb(149,74,167);fill-rule:nonzero;"/>
        <path d="M2463.37,494.187C2370.07,494.187 2294.43,418.554 2294.43,325.254C2294.43,324.138 2294.44,323.022 2294.46,321.911C2299.89,317.321 2303.84,311.92 2304.14,304.961L2306.34,297.612C2305.61,309.043 2305.82,320.327 2306.92,331.592C2305.37,333.028 2303.73,333.921 2302.07,333.921C2301.62,333.921 2301.17,333.855 2300.72,333.716L2301.25,334.244C2295.74,338.162 2298.03,345.899 2302.83,349.17C2304.39,350.232 2305.94,350.69 2307.42,350.69C2308.16,350.69 2308.88,350.577 2309.58,350.37C2311.27,359.53 2313.53,368.727 2316.33,378.023C2320.89,393.183 2326.02,405.808 2333.89,419.404C2337.55,425.716 2340.63,431.148 2347.33,434.747C2347.9,435.05 2348.56,435.41 2349.28,435.806C2346.95,437.306 2344.66,438.685 2342.45,439.839C2341.9,440.124 2341.35,440.407 2340.81,440.689C2361.15,462.13 2387.07,478.232 2416.23,486.69C2417.11,478.647 2422.44,476.317 2429.08,476.317C2437.75,476.317 2448.67,480.283 2454.88,480.697C2455.52,480.74 2456.12,480.76 2456.71,480.76C2475.55,480.76 2468.33,459.126 2475.29,446.358C2486.11,446.341 2496.82,445.023 2506.85,442.423C2507.55,443.316 2508.03,444.341 2508.24,445.507C2509.96,455.273 2489.5,463.688 2500.2,470.775C2502.46,472.271 2504.24,472.894 2505.7,472.894C2512.47,472.894 2512.01,459.399 2518.33,457.944C2518.68,457.862 2519.02,457.824 2519.32,457.824C2521.23,457.824 2522.28,459.283 2523.45,460.744C2524.62,462.203 2525.92,463.664 2528.35,463.664C2528.43,463.664 2528.51,463.662 2528.59,463.659C2533.8,463.455 2533.71,459.24 2537.92,457.122C2543.21,454.455 2549.19,452.554 2554.74,452.554C2559.52,452.554 2563.99,453.962 2567.44,457.502C2602.83,429.782 2626.88,388.248 2631.49,341.015C2626.54,339.428 2621.52,337.281 2616.17,335.262C2609.07,332.587 2595.79,332.841 2582.22,332.606C2581.69,326.544 2580.77,320.43 2579.5,314.293C2580.22,314.037 2580.93,313.814 2581.66,313.639C2582.52,313.431 2583.53,313.346 2584.64,313.346C2587.14,313.346 2590.17,313.773 2593.3,314.199C2596.44,314.625 2599.67,315.052 2602.58,315.052C2609.12,315.052 2614.01,312.895 2612.34,303.73C2610.6,294.182 2597.75,286.433 2591.87,279.294C2589.24,276.104 2585.73,274.221 2582.84,274.221C2579.45,274.221 2576.92,276.811 2577.68,282.923C2577.86,283.017 2578,283.055 2578.1,283.055C2578.48,283.055 2578.37,282.511 2578.64,282.464L2577.59,285.105C2577.3,288.333 2576,291.59 2574.2,294.459C2572.37,288.867 2570.27,283.317 2567.91,277.828C2568.06,276.427 2568.11,275.278 2568.08,274.526C2567.54,263.988 2563.42,257.759 2555.28,251.422C2554.15,250.544 2553,249.751 2551.82,249.022C2547.79,243.057 2543.52,237.189 2539.25,231.325C2540.78,231.487 2542.28,231.68 2543.66,231.74C2543.86,231.749 2544.1,231.754 2544.37,231.754C2548.83,231.754 2561.62,230.436 2555.28,225.003C2553.76,223.706 2550.56,223.284 2547.14,223.284C2543,223.284 2538.54,223.902 2536.38,224.331C2535.73,224.459 2535.07,224.576 2534.42,224.684C2532.72,222.333 2531.03,219.98 2529.37,217.612C2538.94,215.115 2548.32,211.917 2558.15,207.448C2564.02,204.781 2568.95,201.134 2573.69,197.317C2609.58,228.296 2632.3,274.123 2632.3,325.254C2632.3,418.554 2556.66,494.187 2463.37,494.187ZM2365.64,425.014C2361.47,418.228 2355.91,411.402 2354.3,408.823C2342.04,389.111 2338.34,365.917 2336.33,343.07C2335.3,331.33 2335.45,319.4 2336.58,307.564C2336.71,307.559 2336.84,307.556 2336.98,307.556C2342.19,307.556 2348.57,311.662 2353.56,312.711C2357.66,313.572 2363.2,314.393 2368.44,314.393C2372.59,314.393 2376.54,313.879 2379.45,312.465C2383.92,310.291 2386.9,307.295 2381.43,304.258C2380.19,303.569 2378.98,303.327 2377.79,303.327C2376.38,303.327 2374.98,303.663 2373.56,303.998C2372.13,304.335 2370.68,304.671 2369.15,304.671C2369.06,304.671 2368.97,304.67 2368.88,304.667C2359.17,304.413 2350.84,300.356 2346.82,291.446C2345.3,288.072 2342.92,285.476 2340.08,283.977C2340.88,279.954 2341.78,275.968 2342.78,272.026C2343.39,269.608 2344.51,266.72 2345.88,263.568C2350.01,265.086 2353.95,268.233 2357.42,273.414C2364.43,283.903 2367.26,296.465 2382.05,297.934C2382.95,298.024 2383.85,298.067 2384.73,298.067C2388.44,298.067 2391.94,297.302 2395.3,296.034C2391.36,309.013 2387.52,321.264 2385.72,331.653C2380.36,362.594 2375.53,395.327 2398.04,418.556C2397.84,418.527 2397.63,418.499 2397.42,418.47C2393.84,417.977 2390.21,417.484 2386.71,417.484C2384.41,417.484 2382.16,417.697 2380.03,418.263C2375.36,419.504 2370.5,422.028 2365.64,425.014ZM2378.35,226.747C2368.19,226.747 2361.62,221.539 2356.28,213.138C2353.95,209.467 2353.38,203.247 2351.53,198.636C2354.71,195.828 2357.99,193.136 2361.38,190.57C2364.47,189.378 2367.5,188.858 2370.42,188.858C2370.61,188.858 2370.8,188.86 2371,188.865L2366.77,191.584C2356.72,193.072 2361.71,207.636 2368.34,210.604C2371.14,211.858 2373.71,212.407 2376.09,212.407C2383.6,212.407 2389.26,206.957 2394.64,200.977C2394.66,200.96 2394.67,200.943 2394.69,200.925C2397.72,204.115 2399.98,207.347 2401.27,209.796C2402.17,211.512 2402.96,213.277 2403.64,215.087C2397.74,222.529 2389.12,226.557 2378.9,226.742C2378.71,226.745 2378.53,226.747 2378.35,226.747ZM2516.08,196.691C2513.8,192.569 2511.72,188.362 2509.9,184.046C2506.29,175.468 2505.28,168.048 2506.24,161.809C2516.73,164.552 2526.82,168.278 2536.41,172.883C2533.65,176.444 2525.84,173.859 2521.77,179.356C2516.59,186.36 2524.24,191.52 2516.08,196.691ZM2375.97,196.353C2375.56,196.353 2375.16,196.323 2374.77,196.26C2374.47,195.076 2376.13,192.22 2377.25,189.8C2380.1,190.58 2382.79,191.8 2385.27,193.286C2382.03,195.017 2378.73,196.353 2375.97,196.353Z" style="fill:rgb(190,63,200);fill-rule:nonzero;"/>
        <path d="M2416.23,486.69C2387.07,478.232 2361.15,462.13 2340.81,440.689C2341.35,440.407 2341.9,440.124 2342.45,439.839C2344.66,438.685 2346.95,437.306 2349.28,435.806C2352.78,437.706 2357.85,440.418 2361.5,441.469C2361.33,441.816 2361.18,442.175 2361.06,442.546C2359.75,446.461 2361.93,449.595 2366.24,449.955C2366.45,449.973 2366.66,449.981 2366.85,449.981C2370.99,449.982 2372.39,446.273 2375.78,444.277C2383.83,439.537 2397.13,440.216 2406.31,438.861C2412.56,437.938 2419.37,437.52 2426.25,436.905C2436.09,441.038 2446.76,443.804 2457.64,445.226C2454.59,449.636 2451.02,453.493 2444.56,455.649C2441.39,456.706 2437.94,457.02 2434.36,457.02C2431.73,457.02 2429.04,456.851 2426.35,456.682C2423.66,456.513 2420.96,456.344 2418.33,456.344C2412.84,456.344 2407.62,457.079 2403.25,460.086C2395.4,465.492 2399.01,480.612 2404.77,480.612C2405.95,480.612 2407.22,479.976 2408.51,478.488L2409.57,480.074C2408.32,467.854 2421.47,463.111 2432.41,463.111C2434.67,463.111 2436.83,463.313 2438.76,463.695C2444.17,464.765 2449.53,468.46 2455.06,468.46C2455.22,468.46 2455.38,468.456 2455.55,468.45C2465.31,468.059 2464.62,459.916 2466.76,452.728C2467.45,450.426 2468.32,448.258 2469.35,446.237C2471.26,446.318 2473.17,446.359 2475.08,446.358L2475.29,446.358C2468.33,459.126 2475.55,480.76 2456.71,480.76C2456.12,480.76 2455.52,480.74 2454.88,480.697C2448.67,480.283 2437.75,476.317 2429.08,476.317C2422.44,476.317 2417.11,478.647 2416.23,486.69ZM2505.7,472.894C2504.24,472.894 2502.46,472.271 2500.2,470.775C2489.5,463.688 2509.96,455.273 2508.24,445.507C2508.03,444.341 2507.55,443.316 2506.85,442.423C2506.91,442.407 2506.97,442.391 2507.03,442.375C2509.13,441.828 2511.17,441.245 2513.17,440.624C2512.65,442.199 2512.68,443.837 2514.83,446.14C2516.47,447.897 2518.56,448.823 2520.6,448.823C2522.5,448.823 2524.35,448.009 2525.72,446.299C2525.73,446.937 2525.86,447.648 2525.88,448.29C2530.54,447.641 2534.12,443.017 2538.99,441.915C2540.55,441.562 2542.17,441.413 2543.81,441.413C2547.72,441.413 2551.74,442.262 2555.37,443.206C2558.98,444.145 2564.36,447.875 2568.13,447.875C2568.29,447.875 2568.45,447.868 2568.61,447.854C2572.03,447.537 2576.22,443.104 2574.84,439.377C2572.64,433.464 2560.7,432.513 2552.72,432.513C2550.61,432.513 2548.77,432.58 2547.47,432.638C2542.61,432.858 2536.45,434.556 2530.99,434.556C2530.33,434.556 2529.69,434.531 2529.05,434.477C2537.53,430.468 2544.91,425.661 2551.25,420.197C2551.61,420.173 2551.98,420.161 2552.35,420.161C2553.18,420.161 2554.01,420.222 2554.87,420.356C2564.2,421.829 2568.66,429.006 2575.97,433.722C2577.86,434.939 2579.68,435.467 2581.34,435.467C2589.15,435.467 2593.59,423.8 2586.46,417.315C2581.08,412.421 2570.6,410.435 2561.31,409.978C2574.6,394.009 2581.28,374.174 2582.55,352.807C2583.92,352.668 2585.28,352.584 2586.65,352.584C2588.89,352.584 2591.14,352.808 2593.41,353.383C2599,354.795 2604.71,359.246 2610.17,359.247C2612.57,359.247 2614.92,358.389 2617.19,356.037C2626.44,346.437 2602.5,344.766 2596.58,344.281C2594.73,344.129 2592.78,344.07 2590.78,344.07C2588.2,344.07 2585.52,344.167 2582.78,344.289C2582.76,340.431 2582.57,336.528 2582.22,332.606C2595.79,332.841 2609.07,332.587 2616.17,335.262C2621.52,337.281 2626.54,339.428 2631.49,341.015C2626.88,388.248 2602.83,429.782 2567.44,457.502C2563.99,453.962 2559.52,452.554 2554.74,452.554C2549.19,452.554 2543.21,454.455 2537.92,457.122C2533.71,459.24 2533.8,463.455 2528.59,463.659C2528.51,463.662 2528.43,463.664 2528.35,463.664C2525.92,463.664 2524.62,462.203 2523.45,460.744C2522.28,459.283 2521.23,457.824 2519.32,457.824C2519.02,457.824 2518.68,457.862 2518.33,457.944C2512.01,459.399 2512.47,472.894 2505.7,472.894ZM2370.13,434.476C2369.4,431.669 2367.69,428.346 2365.64,425.014C2370.5,422.028 2375.36,419.504 2380.03,418.263C2382.16,417.697 2384.41,417.484 2386.71,417.484C2390.21,417.484 2393.84,417.977 2397.42,418.47C2397.63,418.499 2397.84,418.527 2398.04,418.556C2400.35,420.94 2402.95,423.223 2405.87,425.394C2407.99,426.977 2410.2,428.47 2412.48,429.872C2412.03,429.877 2411.59,429.879 2411.15,429.879C2406.56,429.879 2401.77,429.636 2397.02,429.636C2392.09,429.636 2387.2,429.898 2382.62,430.965C2379.17,431.769 2374.37,432.723 2370.13,434.476ZM2294.46,321.911C2295.18,272.635 2317,228.474 2351.28,198.045C2351.37,198.239 2351.45,198.436 2351.53,198.636C2353.38,203.247 2353.95,209.467 2356.28,213.138C2361.62,221.539 2368.19,226.747 2378.35,226.747C2378.53,226.747 2378.71,226.745 2378.9,226.742C2389.12,226.557 2397.74,222.529 2403.64,215.087C2406.25,222.061 2407.29,229.7 2407.23,237.715C2403.03,240.637 2398.02,242.538 2393.19,243.48C2391.79,243.751 2390.45,243.828 2389.17,243.828C2388.34,243.828 2387.53,243.796 2386.74,243.765C2385.96,243.733 2385.19,243.702 2384.43,243.702C2381.78,243.702 2379.32,244.09 2376.94,246.234L2378.39,248.648C2376.34,252.353 2379.04,253.574 2383.39,253.574C2390.82,253.575 2403.09,250.01 2404.81,249.175C2405.42,248.876 2406.02,248.564 2406.59,248.24C2406.28,251.117 2405.86,254.02 2405.35,256.946C2402.7,258.077 2400.19,259.326 2397.94,260.658C2392.64,263.796 2388.59,266.701 2384.36,266.701C2381.5,266.701 2378.57,265.371 2375.1,261.885C2368.9,255.637 2361.76,249.368 2353.95,245.666C2358.51,234.67 2360.8,224.771 2352.03,222.901C2351.27,222.739 2350.49,222.66 2349.7,222.66C2338.35,222.66 2324.08,238.732 2315.86,254.529C2313.38,257.112 2311.07,259.867 2308.79,262.531C2305.51,266.363 2304.59,267.284 2304.42,272.425C2304.35,274.408 2305.3,279.518 2306.6,279.518C2307.07,279.518 2307.59,278.865 2308.12,277.18L2308.12,274.538C2308.52,273.958 2308.94,273.376 2309.38,272.794C2307.87,281.172 2306.87,289.431 2306.34,297.612L2304.14,304.961C2303.84,311.92 2299.89,317.321 2294.46,321.911ZM2376.49,246.669C2376.26,246.899 2376.03,247.14 2375.8,247.404C2376.25,247.221 2376.38,246.954 2376.49,246.669ZM2376.81,246.007C2376.63,246.218 2376.57,246.448 2376.49,246.669C2376.64,246.516 2376.79,246.371 2376.94,246.234L2376.81,246.007ZM2384.73,298.067C2383.85,298.067 2382.95,298.024 2382.05,297.934C2367.26,296.465 2364.43,283.903 2357.42,273.414C2353.95,268.233 2350.01,265.086 2345.88,263.568C2347.18,260.572 2348.71,257.338 2350.23,254.049C2353.48,255.184 2356.61,257.148 2359.52,260.127C2362.67,263.353 2363.36,267.794 2365.82,271.34C2368.63,275.399 2372.5,277.914 2376.81,279.94C2381.1,281.958 2385.28,282.866 2389.34,282.866C2392.9,282.866 2396.37,282.168 2399.75,280.908C2398.32,286.014 2396.8,291.076 2395.3,296.034C2391.94,297.302 2388.44,298.067 2384.73,298.067ZM2529.37,217.612C2528.2,215.941 2527.04,214.264 2525.91,212.58C2531.57,210.932 2537.2,209.437 2542.7,207.42C2548.76,205.197 2562.35,201.065 2559.12,191.586C2558.43,189.556 2556.38,188.024 2554.87,187.358L2554.34,189.47C2551.94,199.736 2532.6,203.585 2524.1,205.467C2523.27,205.652 2522.44,205.83 2521.6,206.002C2519.67,202.937 2517.82,199.839 2516.08,196.691C2524.24,191.52 2516.59,186.36 2521.77,179.356C2525.84,173.859 2533.65,176.444 2536.41,172.883C2536.5,172.764 2536.58,172.637 2536.67,172.503C2547.17,177.49 2557.08,183.515 2566.26,190.443C2568.97,192.523 2571.61,194.684 2574.18,196.921C2574.02,197.053 2573.85,197.185 2573.69,197.317C2568.95,201.134 2564.02,204.781 2558.15,207.448C2548.32,211.917 2538.94,215.115 2529.37,217.612Z" style="fill:rgb(245,98,220);fill-rule:nonzero;"/>
        <path d="M2307.42,350.69C2305.94,350.69 2304.39,350.232 2302.83,349.17C2298.03,345.899 2295.74,338.162 2301.25,334.244L2300.72,333.716C2301.17,333.855 2301.62,333.921 2302.07,333.921C2303.73,333.921 2305.37,333.028 2306.92,331.592C2307.54,337.851 2308.43,344.101 2309.58,350.37C2308.88,350.577 2308.16,350.69 2307.42,350.69ZM2368.44,314.393C2363.2,314.393 2357.66,313.572 2353.56,312.711C2348.57,311.662 2342.19,307.556 2336.98,307.556C2336.84,307.556 2336.71,307.559 2336.58,307.564C2337.33,299.631 2338.52,291.738 2340.08,283.977C2342.92,285.476 2345.3,288.072 2346.82,291.446C2350.84,300.356 2359.17,304.413 2368.88,304.667C2368.97,304.67 2369.06,304.671 2369.15,304.671C2370.68,304.671 2372.13,304.335 2373.56,303.998C2374.98,303.663 2376.38,303.327 2377.79,303.327C2378.98,303.327 2380.19,303.569 2381.43,304.258C2386.9,307.295 2383.92,310.291 2379.45,312.465C2376.54,313.879 2372.59,314.393 2368.44,314.393Z" style="fill:rgb(207,74,206);fill-rule:nonzero;"/>
        <path d="M2567.91,277.828C2567.48,276.825 2567.04,275.82 2566.59,274.822C2562.56,265.85 2557.43,257.339 2551.82,249.022C2553,249.751 2554.15,250.544 2555.28,251.422C2563.42,257.759 2567.54,263.988 2568.08,274.526C2568.11,275.278 2568.06,276.427 2567.91,277.828ZM2544.37,231.754C2544.1,231.754 2543.86,231.749 2543.66,231.74C2542.28,231.68 2540.78,231.487 2539.25,231.325C2537.63,229.112 2536.02,226.901 2534.42,224.684C2535.07,224.576 2535.73,224.459 2536.38,224.331C2538.54,223.902 2543,223.284 2547.14,223.284C2550.56,223.284 2553.76,223.706 2555.28,225.003C2561.62,230.436 2548.83,231.754 2544.37,231.754Z" style="fill:rgb(207,74,206);fill-rule:nonzero;"/>
        <path d="M2376.09,212.407C2373.71,212.407 2371.14,211.858 2368.34,210.604C2361.71,207.636 2356.72,193.072 2366.77,191.584L2371,188.865C2373.15,188.916 2375.24,189.248 2377.25,189.8C2376.13,192.22 2374.47,195.076 2374.77,196.26C2375.16,196.323 2375.56,196.353 2375.97,196.353C2378.73,196.353 2382.03,195.017 2385.27,193.286C2388.89,195.446 2392.07,198.17 2394.69,200.925C2394.67,200.943 2394.66,200.96 2394.64,200.977C2389.26,206.957 2383.6,212.407 2376.09,212.407Z" style="fill:rgb(207,74,206);fill-rule:nonzero;"/>
        <path d="M2602.58,315.052C2599.67,315.052 2596.44,314.625 2593.3,314.199C2590.17,313.773 2587.14,313.346 2584.64,313.346C2583.53,313.346 2582.52,313.431 2581.66,313.639C2580.93,313.814 2580.22,314.037 2579.5,314.293C2578.14,307.679 2576.36,301.042 2574.2,294.459C2576,291.59 2577.3,288.333 2577.59,285.105L2578.64,282.464C2578.37,282.511 2578.48,283.055 2578.1,283.055C2578,283.055 2577.86,283.017 2577.68,282.923C2576.92,276.811 2579.45,274.221 2582.84,274.221C2585.73,274.221 2589.24,276.104 2591.87,279.294C2597.75,286.433 2610.6,294.182 2612.34,303.73C2614.01,312.895 2609.12,315.052 2602.58,315.052Z" style="fill:rgb(207,74,206);fill-rule:nonzero;"/>
        <path d="M2389.34,282.866C2385.28,282.866 2381.1,281.958 2376.81,279.94C2372.5,277.914 2368.63,275.399 2365.82,271.34C2363.36,267.794 2362.67,263.353 2359.52,260.127C2356.61,257.148 2353.48,255.184 2350.23,254.049C2351.52,251.259 2352.81,248.427 2353.95,245.666C2361.76,249.368 2368.9,255.637 2375.1,261.885C2378.57,265.371 2381.5,266.701 2384.36,266.701C2388.59,266.701 2392.64,263.796 2397.94,260.658C2400.19,259.326 2402.7,258.077 2405.35,256.946C2403.98,264.876 2401.98,272.946 2399.75,280.908C2396.37,282.168 2392.9,282.866 2389.34,282.866ZM2306.6,279.518C2305.3,279.518 2304.35,274.408 2304.42,272.425C2304.59,267.284 2305.51,266.363 2308.79,262.531C2311.07,259.867 2313.38,257.112 2315.86,254.529C2312.83,260.366 2310.62,266.165 2309.69,271.103C2309.59,271.668 2309.48,272.231 2309.38,272.794C2308.94,273.376 2308.52,273.958 2308.12,274.538L2308.12,277.18C2307.59,278.865 2307.07,279.518 2306.6,279.518Z" style="fill:rgb(247,115,227);fill-rule:nonzero;"/>
        <path d="M2366.85,449.981C2366.66,449.981 2366.45,449.973 2366.24,449.955C2361.93,449.595 2359.75,446.461 2361.06,442.546C2361.18,442.175 2361.33,441.816 2361.5,441.469C2362.43,441.737 2363.26,441.897 2363.96,441.908C2364.05,441.91 2364.15,441.911 2364.24,441.911C2370.08,441.911 2371.27,438.81 2370.13,434.476C2374.37,432.723 2379.17,431.769 2382.62,430.965C2387.2,429.898 2392.09,429.636 2397.02,429.636C2401.77,429.636 2406.56,429.879 2411.15,429.879C2411.59,429.879 2412.03,429.877 2412.48,429.872C2416.83,432.545 2421.44,434.887 2426.25,436.905C2419.37,437.52 2412.56,437.938 2406.31,438.861C2397.13,440.216 2383.83,439.537 2375.78,444.277C2372.39,446.273 2370.99,449.982 2366.85,449.981Z" style="fill:rgb(247,115,227);fill-rule:nonzero;"/>
        <path d="M2404.77,480.612C2399.01,480.612 2395.4,465.492 2403.25,460.086C2407.62,457.079 2412.84,456.344 2418.33,456.344C2420.96,456.344 2423.66,456.513 2426.35,456.682C2429.04,456.851 2431.73,457.02 2434.36,457.02C2437.94,457.02 2441.39,456.706 2444.56,455.649C2451.02,453.493 2454.59,449.636 2457.64,445.226C2461.53,445.735 2465.44,446.071 2469.35,446.237C2468.32,448.258 2467.45,450.426 2466.76,452.728C2464.62,459.916 2465.31,468.059 2455.55,468.45C2455.38,468.456 2455.22,468.46 2455.06,468.46C2449.53,468.46 2444.17,464.765 2438.76,463.695C2436.83,463.313 2434.67,463.111 2432.41,463.111C2421.47,463.111 2408.32,467.854 2409.57,480.074L2408.51,478.488C2407.22,479.976 2405.95,480.612 2404.77,480.612ZM2520.6,448.823C2518.56,448.823 2516.47,447.897 2514.83,446.14C2512.68,443.837 2512.65,442.199 2513.17,440.624C2518.84,438.86 2524.14,436.802 2529.05,434.477C2529.69,434.531 2530.33,434.556 2530.99,434.556C2536.45,434.556 2542.61,432.858 2547.47,432.638C2548.77,432.58 2550.61,432.513 2552.72,432.513C2560.7,432.513 2572.64,433.464 2574.84,439.377C2576.22,443.104 2572.03,447.537 2568.61,447.854C2568.45,447.868 2568.29,447.875 2568.13,447.875C2564.36,447.875 2558.98,444.145 2555.37,443.206C2551.74,442.262 2547.72,441.413 2543.81,441.413C2542.17,441.413 2540.55,441.562 2538.99,441.915C2534.12,443.017 2530.54,447.641 2525.88,448.29C2525.86,447.648 2525.73,446.937 2525.72,446.299C2524.35,448.009 2522.5,448.823 2520.6,448.823Z" style="fill:rgb(247,115,227);fill-rule:nonzero;"/>
        <path d="M2610.17,359.247C2604.71,359.246 2599,354.795 2593.41,353.383C2591.14,352.808 2588.89,352.584 2586.65,352.584C2585.28,352.584 2583.92,352.668 2582.55,352.807C2582.72,349.99 2582.8,347.154 2582.78,344.289C2585.52,344.167 2588.2,344.07 2590.78,344.07C2592.78,344.07 2594.73,344.129 2596.58,344.281C2602.5,344.766 2626.44,346.437 2617.19,356.037C2614.92,358.389 2612.57,359.247 2610.17,359.247Z" style="fill:rgb(247,115,227);fill-rule:nonzero;"/>
        <path d="M2525.91,212.58C2524.44,210.403 2523,208.211 2521.6,206.002C2522.44,205.83 2523.27,205.652 2524.1,205.467C2532.6,203.585 2551.94,199.736 2554.34,189.47L2554.87,187.358C2556.38,188.024 2558.43,189.556 2559.12,191.586C2562.35,201.065 2548.76,205.197 2542.7,207.42C2537.2,209.437 2531.57,210.932 2525.91,212.58Z" style="fill:rgb(247,115,227);fill-rule:nonzero;"/>
        <path d="M2581.34,435.467C2579.68,435.467 2577.86,434.939 2575.97,433.722C2568.66,429.006 2564.2,421.829 2554.87,420.356C2554.01,420.222 2553.18,420.161 2552.35,420.161C2551.98,420.161 2551.61,420.173 2551.25,420.197C2554.95,417.007 2558.3,413.591 2561.31,409.978C2570.6,410.435 2581.08,412.421 2586.46,417.315C2593.59,423.8 2589.15,435.467 2581.34,435.467Z" style="fill:rgb(247,115,227);fill-rule:nonzero;"/>
        <path d="M2375.8,247.404C2376.03,247.14 2376.26,246.899 2376.49,246.669C2376.38,246.954 2376.25,247.221 2375.8,247.404Z" style="fill:rgb(247,115,227);fill-rule:nonzero;"/>
        <path d="M2376.49,246.669C2376.57,246.448 2376.63,246.218 2376.81,246.007L2376.94,246.234C2376.79,246.371 2376.64,246.516 2376.49,246.669Z" style="fill:rgb(247,115,227);fill-rule:nonzero;"/>
        <path d="M2383.39,253.574C2379.04,253.574 2376.34,252.353 2378.39,248.648L2376.94,246.234C2379.32,244.09 2381.78,243.702 2384.43,243.702C2385.19,243.702 2385.96,243.733 2386.74,243.765C2387.53,243.796 2388.34,243.828 2389.17,243.828C2390.45,243.828 2391.79,243.751 2393.19,243.48C2398.02,242.538 2403.03,240.637 2407.23,237.715C2407.21,241.161 2406.98,244.677 2406.59,248.24C2406.02,248.564 2405.42,248.876 2404.81,249.175C2403.09,250.01 2390.82,253.575 2383.39,253.574Z" style="fill:rgb(247,115,227);fill-rule:nonzero;"/>
        <path d="M2349.28,435.806C2348.56,435.41 2347.9,435.05 2347.33,434.747C2340.63,431.148 2337.55,425.716 2333.89,419.404C2326.02,405.808 2320.89,393.183 2316.33,378.023C2313.53,368.727 2311.27,359.53 2309.58,350.37C2313.11,349.323 2316.1,345.863 2317.78,342.287C2322.58,332.045 2323.68,318.653 2331.48,309.927C2332.93,308.31 2334.67,307.644 2336.58,307.564C2335.45,319.4 2335.3,331.33 2336.33,343.07C2338.34,365.917 2342.04,389.111 2354.3,408.823C2355.91,411.402 2361.47,418.228 2365.64,425.014C2360.11,428.416 2354.57,432.418 2349.28,435.806ZM2306.92,331.592C2305.82,320.327 2305.61,309.043 2306.34,297.612L2307.54,293.625C2311.85,277.44 2325.92,262.462 2339.63,262.462C2341.74,262.462 2343.83,262.815 2345.88,263.568C2344.51,266.72 2343.39,269.608 2342.78,272.026C2341.78,275.968 2340.88,279.954 2340.08,283.977C2338.29,283.036 2336.32,282.526 2334.27,282.526C2331.26,282.526 2328.07,283.617 2325,286.045C2317.39,292.062 2319.2,304.278 2317.12,312.581C2316.07,316.772 2311.92,326.98 2306.92,331.592Z" style="fill:rgb(203,101,211);fill-rule:nonzero;"/>
        <path d="M2361.5,441.469C2357.85,440.418 2352.78,437.706 2349.28,435.806C2354.57,432.418 2360.11,428.416 2365.64,425.014C2367.69,428.346 2369.4,431.669 2370.13,434.476C2366.38,436.029 2363.05,438.209 2361.5,441.469ZM2306.34,297.612C2306.87,289.431 2307.87,281.172 2309.38,272.794C2316.94,262.786 2330.12,252.821 2342.84,252.821C2345.33,252.821 2347.81,253.205 2350.23,254.049C2348.71,257.338 2347.18,260.572 2345.88,263.568C2343.83,262.815 2341.74,262.462 2339.63,262.462C2325.92,262.462 2311.85,277.44 2307.54,293.625L2306.34,297.612ZM2315.86,254.529C2324.08,238.732 2338.35,222.66 2349.7,222.66C2350.49,222.66 2351.27,222.739 2352.03,222.901C2360.8,224.771 2358.51,234.67 2353.95,245.666C2349.56,243.584 2344.96,242.313 2340.2,242.313C2335.45,242.313 2330.55,243.573 2325.53,246.549C2321.93,248.685 2318.78,251.488 2315.86,254.529Z" style="fill:rgb(247,129,227);fill-rule:nonzero;"/>
        <path d="M2309.58,350.37C2308.43,344.101 2307.54,337.851 2306.92,331.592C2311.92,326.98 2316.07,316.772 2317.12,312.581C2319.2,304.278 2317.39,292.062 2325,286.045C2328.07,283.617 2331.26,282.526 2334.27,282.526C2336.32,282.526 2338.29,283.036 2340.08,283.977C2338.52,291.738 2337.33,299.631 2336.58,307.564C2334.67,307.644 2332.93,308.31 2331.48,309.927C2323.68,318.653 2322.58,332.045 2317.78,342.287C2316.1,345.863 2313.11,349.323 2309.58,350.37Z" style="fill:rgb(217,110,216);fill-rule:nonzero;"/>
        <path d="M2309.38,272.794C2309.48,272.231 2309.59,271.668 2309.69,271.103C2310.62,266.165 2312.83,260.366 2315.86,254.529C2318.78,251.488 2321.93,248.685 2325.53,246.549C2330.55,243.573 2335.45,242.313 2340.2,242.313C2344.96,242.313 2349.56,243.584 2353.95,245.666C2352.81,248.427 2351.52,251.259 2350.23,254.049C2347.81,253.205 2345.33,252.821 2342.84,252.821C2330.12,252.821 2316.94,262.786 2309.38,272.794Z" style="fill:rgb(249,143,233);fill-rule:nonzero;"/>
        <path d="M2364.24,441.911C2364.15,441.911 2364.05,441.91 2363.96,441.908C2363.26,441.897 2362.43,441.737 2361.5,441.469C2363.05,438.209 2366.38,436.029 2370.13,434.476C2371.27,438.81 2370.08,441.911 2364.24,441.911Z" style="fill:rgb(249,143,233);fill-rule:nonzero;"/>
    </g>
</svg>
