<?xml version="1.0" encoding="UTF-8" standalone="no"?>
<!DOCTYPE svg PUBLIC "-//W3C//DTD SVG 1.1//EN" "http://www.w3.org/Graphics/SVG/1.1/DTD/svg11.dtd">
<svg width="100%" height="100%" viewBox="0 0 490 487" version="1.1" xmlns="http://www.w3.org/2000/svg" xmlns:xlink="http://www.w3.org/1999/xlink" xml:space="preserve" xmlns:serif="http://www.serif.com/" style="fill-rule:evenodd;clip-rule:evenodd;stroke-linejoin:round;stroke-miterlimit:2;">
    <g transform="matrix(1,0,0,1,-633.376384,-1398.960022)">
        <path d="M845.299,1522.5C767.299,1573.69 745.565,1678.42 796.756,1756.42C847.949,1834.42 952.68,1856.16 1030.68,1804.97C1108.68,1753.77 1130.42,1649.04 1079.22,1571.04C1028.03,1493.04 923.301,1471.31 845.299,1522.5Z" style="fill:rgb(81,183,105);fill-rule:nonzero;"/>
        <path d="M1038.24,1800.33C1038.11,1800.22 1037.98,1800.11 1037.85,1800C1053.92,1788.24 1067.34,1774.12 1077.95,1758.42C1078.08,1758.59 1078.21,1758.76 1078.34,1758.94C1067.48,1774.84 1053.94,1788.88 1038.24,1800.33ZM1078.47,1757.65C1115,1702.95 1117.59,1629.49 1079.22,1571.04C1046.79,1521.61 992.844,1494.78 937.833,1494.78C937.314,1494.78 936.797,1494.78 936.278,1494.79C937.192,1494.77 938.099,1494.76 939.01,1494.76C1020.99,1494.76 1092.94,1554.54 1105.77,1638.06C1112.1,1679.2 1103,1719.15 1082.81,1752.04C1082.77,1752.02 1082.74,1752 1082.7,1751.98L1078.47,1757.65Z" style="fill:rgb(76,94,129);fill-rule:nonzero;"/>
        <path d="M864.918,1812.54C862.038,1812.54 858.994,1812.03 855.798,1810.86C812.252,1786.26 780.012,1742.65 771.827,1689.38C768.86,1670.07 769.289,1651.02 772.666,1632.85C773.602,1633.75 774.522,1634.69 775.423,1635.66C782.236,1642.99 788.115,1651.02 794.385,1658.83C796.637,1661.64 798.94,1664.39 801.292,1667.1C801.798,1669.23 802.424,1671.42 803.174,1673.67C807.224,1685.83 814.244,1701.47 826.312,1707.4C829.614,1709.02 834.134,1710.01 838.62,1710.01C840.722,1710.01 842.816,1709.8 844.774,1709.32C847.762,1711.86 850.775,1714.36 853.806,1716.84C864.269,1725.41 875.723,1732.83 886.592,1740.92C882.746,1750.28 884.684,1760.45 895.815,1771.98C896.57,1772.76 897.326,1773.52 898.09,1774.26C897.798,1778.62 897.009,1782.87 895.619,1786.95C892.821,1795.18 881.658,1812.54 864.918,1812.54ZM1037.85,1800C1029.089,1792.55 1020.9,1784.71 1011.97,1777.64C1012.21,1777.06 1012.45,1776.47 1012.69,1775.88C1038.53,1762.02 1058.12,1743.9 1071.42,1719.77C1089.66,1686.68 1089.22,1652.1 1074.85,1616.47C1072.67,1611.07 1068.43,1602.9 1062.12,1594.14C1060.62,1582.58 1056.98,1570.65 1051.06,1561.62L1039.699,1551.89C1039.439,1551.75 1039.23,1551.61 1038.97,1551.47C1033.709,1548.66 1028.81,1545.85 1022.72,1545.31C1022.02,1545.24 1021.35,1545.21 1020.72,1545.21C1014.06,1545.21 1010.88,1548.58 1008.33,1553.87C1008.2,1553.83 1008.06,1553.8 1007.93,1553.76C1006.66,1553.4 1005.33,1553.12 1003.96,1552.91C992.715,1547.09 979.432,1543.13 963.958,1541.5C959.913,1541.08 955.79,1540.87 951.63,1540.87C926.04,1540.87 898.932,1548.83 878.603,1563.81C877.81,1563.76 877.011,1563.73 876.202,1563.73C872.157,1563.73 867.905,1564.39 863.465,1565.81C846.922,1571.11 836.549,1587.51 826.085,1601.66C815.813,1592.49 805.404,1583.41 795.977,1573.5C821.185,1533.63 862.859,1504.47 913.144,1496.75C920.906,1495.55 928.64,1494.91 936.278,1494.79C936.797,1494.78 937.314,1494.78 937.833,1494.78C992.844,1494.78 1046.79,1521.61 1079.22,1571.04C1117.59,1629.49 1115,1702.95 1078.47,1757.65L1077.92,1758.38C1077.93,1758.39 1077.94,1758.4 1077.95,1758.42C1067.34,1774.12 1053.92,1788.24 1037.85,1800Z" style="fill:rgb(104,198,143);fill-rule:nonzero;"/>
        <path d="M945.855,1795.39C928.196,1794.78 912.327,1788.07 898.09,1774.26C898.667,1765.62 897.289,1756.51 894.745,1747.26C897.407,1749.43 900.004,1751.68 902.512,1754.03C916.859,1767.46 930.928,1781.99 945.855,1795.39ZM1010.92,1776.82C1008.27,1774.75 1005.54,1772.74 1002.71,1770.85C985.069,1758.99 968.832,1744.22 953.796,1729.09C945.435,1720.68 936.908,1712.46 928.327,1704.31C940.211,1697.07 952.827,1689.83 963.797,1682.23C969.487,1683.37 975.386,1683.92 981.322,1683.92C996.389,1683.92 1011.68,1680.35 1024.24,1673.68C1037.64,1666.57 1047.89,1655.46 1054.46,1642.35C1055.18,1660.38 1052.78,1679.33 1047.709,1697.89C1040.319,1724.94 1023.48,1749.63 1012.69,1775.88C1012.1,1776.2 1011.51,1776.51 1010.92,1776.82ZM963.596,1589.13C962.654,1587.15 962.032,1584.87 961.836,1582.16C960.43,1562.73 980.628,1552.47 997.918,1552.47C999.988,1552.47 1002.02,1552.61 1003.96,1552.91C1005.27,1553.59 1006.55,1554.29 1007.8,1555.02C1007.49,1555.7 1007.19,1556.41 1006.89,1557.15C1001.18,1571.27 992.341,1579.22 977.791,1584.29C973.487,1585.78 968.627,1587.35 963.596,1589.13Z" style="fill:rgb(123,224,104);fill-rule:nonzero;"/>
        <path d="M1012.69,1775.88C1023.48,1749.63 1040.319,1724.94 1047.709,1697.89C1052.78,1679.33 1055.18,1660.38 1054.46,1642.35C1059.84,1631.61 1062.75,1619.53 1062.9,1607.2C1062.95,1603.03 1062.7,1598.61 1062.12,1594.14C1068.43,1602.9 1072.67,1611.07 1074.85,1616.47C1089.22,1652.1 1089.66,1686.68 1071.42,1719.77C1058.12,1743.9 1038.53,1762.02 1012.69,1775.88ZM898.09,1774.26C897.326,1773.52 896.57,1772.76 895.815,1771.98C884.684,1760.45 882.746,1750.28 886.592,1740.92C889.356,1742.98 892.082,1745.08 894.745,1747.26C897.289,1756.51 898.667,1765.62 898.09,1774.26ZM1007.8,1555.02C1006.55,1554.29 1005.27,1553.59 1003.96,1552.91C1005.33,1553.12 1006.66,1553.4 1007.93,1553.76C1008.06,1553.8 1008.2,1553.83 1008.33,1553.87C1008.15,1554.24 1007.97,1554.62 1007.8,1555.02Z" style="fill:rgb(132,230,120);fill-rule:nonzero;"/>
        <path d="M905.409,1661.14C896.532,1661.14 893.506,1651.49 883.492,1648.44C880.641,1647.58 878.193,1647.18 876.086,1647.18C874.364,1647.18 872.868,1647.45 871.563,1647.93C864.698,1640.29 857.884,1632.61 850.797,1625.2C848.889,1606.79 852.246,1589 867.426,1573.49C870.845,1569.99 874.592,1566.76 878.603,1563.81C902.238,1565.34 918.587,1589.38 925.371,1612.28C924.105,1614 923.006,1615.83 922.103,1617.78C917.223,1628.32 918.501,1640.21 923.422,1650.84C921.206,1654.01 918.164,1656.73 914.098,1658.73C910.612,1660.44 907.798,1661.14 905.409,1661.14Z" style="fill:rgb(116,218,104);fill-rule:nonzero;"/>
        <path d="M838.62,1710.01C834.134,1710.01 829.614,1709.02 826.312,1707.4C814.244,1701.47 807.224,1685.83 803.174,1673.67C802.424,1671.42 801.798,1669.23 801.292,1667.1C814.557,1682.4 829.336,1696.24 844.774,1709.32C842.816,1709.8 840.722,1710.01 838.62,1710.01ZM850.797,1625.2C848.584,1622.88 846.345,1620.6 844.069,1618.34C838.282,1612.62 832.207,1607.12 826.085,1601.66C836.549,1587.51 846.922,1571.11 863.465,1565.81C867.905,1564.39 872.157,1563.73 876.202,1563.73C877.011,1563.73 877.81,1563.76 878.603,1563.81C874.592,1566.76 870.845,1569.99 867.426,1573.49C852.246,1589 848.889,1606.79 850.797,1625.2Z" style="fill:rgb(128,225,123);fill-rule:nonzero;"/>
        <path d="M963.797,1682.23C960.236,1681.52 956.759,1680.58 953.408,1679.4C941.023,1675.05 929.471,1663.9 923.422,1650.84C929.859,1641.61 929.342,1628.48 926.754,1617.48C926.349,1615.76 925.888,1614.02 925.371,1612.28C933.739,1600.87 949.359,1594.17 963.596,1589.13C970.931,1604.56 997.673,1601.92 994.005,1644.56C992.781,1658.79 980.109,1670.92 963.797,1682.23Z" style="fill:rgb(134,205,150);fill-rule:nonzero;"/>
        <path d="M1062.12,1594.14C1050.83,1578.47 1032.92,1560.91 1008.33,1553.87C1010.88,1548.58 1014.06,1545.21 1020.72,1545.21C1021.35,1545.21 1022.02,1545.24 1022.72,1545.31C1028.81,1545.85 1033.709,1548.66 1038.97,1551.47C1039.23,1551.61 1039.439,1551.75 1039.699,1551.89L1051.06,1561.62C1056.98,1570.65 1060.62,1582.58 1062.12,1594.14Z" style="fill:rgb(150,215,177);fill-rule:nonzero;"/>
        <path d="M981.322,1683.92C975.386,1683.92 969.487,1683.37 963.797,1682.23C980.109,1670.92 992.781,1658.79 994.005,1644.56C997.673,1601.92 970.931,1604.56 963.596,1589.13C968.627,1587.35 973.487,1585.78 977.791,1584.29C992.341,1579.22 1001.18,1571.27 1006.89,1557.15C1007.19,1556.41 1007.49,1555.7 1007.8,1555.02C1038.689,1572.94 1053.01,1605.73 1054.46,1642.35C1047.89,1655.46 1037.64,1666.57 1024.24,1673.68C1011.68,1680.35 996.389,1683.92 981.322,1683.92Z" style="fill:rgb(163,233,150);fill-rule:nonzero;"/>
        <path d="M1054.46,1642.35C1053.01,1605.73 1038.689,1572.94 1007.8,1555.02C1007.97,1554.62 1008.15,1554.24 1008.33,1553.87C1032.92,1560.91 1050.83,1578.47 1062.12,1594.14C1062.7,1598.61 1062.95,1603.03 1062.9,1607.2C1062.75,1619.53 1059.84,1631.61 1054.46,1642.35Z" style="fill:rgb(169,238,161);fill-rule:nonzero;"/>
        <path d="M923.422,1650.84C918.501,1640.21 917.223,1628.32 922.103,1617.78C923.006,1615.83 924.105,1614 925.371,1612.28C925.888,1614.02 926.349,1615.76 926.754,1617.48C929.342,1628.48 929.859,1641.61 923.422,1650.84Z" style="fill:rgb(158,229,150);fill-rule:nonzero;"/>
        <path d="M1102.7,1885.73C1093.48,1885.73 1086.32,1875.84 1080.9,1869.73C1072.38,1860.12 1063.23,1852.1 1051.35,1846.96C1030.459,1837.93 1006.48,1836.42 986.387,1825.63C992.921,1823.67 999.376,1821.31 1005.73,1818.52C1005.76,1818.62 1005.79,1818.73 1005.83,1818.83C1010.55,1816.79 1015.15,1814.55 1019.62,1812.12C1022.03,1813.81 1024.49,1815.43 1027.01,1816.96C1035.36,1822.02 1044.52,1824.23 1053.83,1827.18C1063.57,1830.26 1065.91,1835.83 1071.66,1843.71C1076.41,1850.21 1082.18,1856.69 1088.23,1861.76C1089.71,1863.01 1093.78,1867.28 1096.32,1867.28C1096.49,1867.28 1096.65,1867.27 1096.8,1867.23C1100.4,1866.32 1099.96,1861.68 1097.96,1858.99L1090.26,1851.39C1084.4,1840 1070.04,1831.64 1059.48,1825.53C1049.1,1819.52 1038.689,1813.31 1028.42,1806.97C1031.77,1804.87 1035.05,1802.65 1038.24,1800.33C1039.12,1801.08 1040.01,1801.83 1040.91,1802.57C1050.63,1810.59 1061.62,1816.72 1072.17,1823.6C1078.04,1827.42 1086.79,1837.04 1093.73,1837.66C1094.07,1837.69 1094.4,1837.71 1094.72,1837.71C1105.11,1837.71 1105.27,1822.18 1104.55,1815.02C1102.88,1798.59 1088.32,1772.22 1078.34,1758.94C1079.89,1756.68 1081.38,1754.38 1082.81,1752.04C1093.31,1758.23 1103.21,1773.8 1107,1780.88C1113.09,1792.27 1114.54,1804.45 1118.27,1816.73C1122.87,1831.85 1124.52,1848.31 1121.75,1864.01C1120.2,1872.82 1113.51,1885.13 1103.44,1885.7C1103.19,1885.72 1102.95,1885.73 1102.7,1885.73ZM772.021,1632.23C763.591,1624.22 753.958,1618.35 745.425,1610.42C729.107,1595.25 720.25,1573.99 709.153,1555.11C692.035,1525.99 666.536,1503.59 655.216,1471.09C653.407,1465.9 651.24,1459.99 647.594,1455.73C643.948,1451.48 639.274,1448.09 636.774,1442.85C633.306,1435.58 631.681,1416.05 635.88,1409.05C640.675,1401.05 649.611,1398.96 659.112,1398.96C668.372,1398.96 678.169,1400.95 685.192,1401.39C702.252,1402.47 713.2,1414.17 728.379,1420.28C740.992,1425.36 752.199,1429.45 763.675,1437.08C772.087,1442.67 780.307,1443.82 789.338,1447.53C795.585,1450.1 801.684,1453.44 807.568,1456.69C815.923,1461.31 821.681,1466.93 828.424,1473.14C833.824,1478.11 844.616,1483.28 847.47,1490.17C849.25,1494.47 857.229,1508.63 855.343,1512.58C854.849,1513.61 853.882,1514.01 852.615,1514.01C850.608,1514.01 847.847,1513.02 845.024,1512.03C842.201,1511.05 839.315,1510.06 837.058,1510.06C836.194,1510.06 835.422,1510.2 834.78,1510.55C831.828,1512.14 829.001,1512.8 826.22,1512.8C821.717,1512.8 817.334,1511.05 812.731,1508.61C803.21,1503.57 793.782,1500.67 783.066,1500.07C780.156,1499.91 777.381,1499.7 774.712,1499.7C769.377,1499.7 764.464,1500.55 759.72,1504.34C753.406,1509.38 749.648,1513.56 751.17,1522.29C753.324,1534.64 760.073,1539.63 769.817,1545.82C778.4,1551.26 783.877,1559.94 790.488,1567.49C792.11,1569.34 793.773,1571.17 795.467,1572.96C792.505,1577.61 789.787,1582.39 787.311,1587.29C783.858,1583.31 780.44,1579.31 777.067,1575.28C764.319,1560.03 751.281,1544.91 738.973,1529.56C727.926,1515.78 724.725,1497.9 739.806,1485.44C744.877,1481.25 751.309,1479.77 758.05,1479.77C765.939,1479.77 774.251,1481.8 781.296,1483.93C795.507,1488.21 803.069,1500.84 817.433,1503.45C819.232,1503.77 820.7,1503.92 821.877,1503.92C834.511,1503.92 813.557,1486.64 804.676,1484.81C797.133,1483.26 789.719,1484.13 782.1,1482.05C775.379,1480.21 769.23,1477.78 762.59,1476.12C758.257,1475.03 753.486,1474.33 748.714,1474.33C740.199,1474.33 731.687,1476.57 725.689,1482.91C712.785,1496.55 718.963,1519.86 727.496,1534.18C741.868,1558.3 763.186,1576.4 783.379,1595.61C781.055,1600.9 779.006,1606.3 777.238,1611.78C769.378,1606.08 761.987,1600.28 756.125,1591.58C747.757,1579.16 740.175,1565.87 732.495,1552.82C729.119,1547.08 727.713,1540.8 725.252,1534.97C722.616,1528.73 718.206,1523.4 714.714,1517.46C707.897,1505.86 701.697,1493.7 696.57,1481.47C692.761,1472.39 678.384,1454.58 695.383,1450.82C697.632,1450.32 699.925,1450.1 702.252,1450.1C714.798,1450.1 728.225,1456.42 739.776,1459.23C743.623,1460.16 759.63,1466.01 767.819,1466.01C771.189,1466.01 773.235,1465.02 772.564,1462.29C771.752,1458.98 761.633,1452.46 758.475,1450.84C749.317,1446.14 739.011,1444.89 729.161,1443.09C709.488,1439.48 692.203,1422.13 671.531,1421.97L671.384,1421.97C653.732,1421.97 656.553,1445.7 662.934,1456.54C670.294,1469.04 679.584,1479.15 687.453,1491.08C697.556,1506.39 704.845,1523.31 714.452,1539.1C725.097,1556.59 734.856,1574.9 747.592,1591.05C755.353,1600.88 765.752,1608.1 776.226,1615.03C774.525,1620.69 773.122,1626.42 772.021,1632.23Z" style="fill:rgb(30,106,137);fill-rule:nonzero;"/>
        <path d="M986.387,1825.63C985.252,1825.02 984.13,1824.38 983.021,1823.71C969.745,1815.67 957.537,1805.88 945.855,1795.39C946.743,1795.42 947.636,1795.44 948.533,1795.44C961.154,1795.44 974.676,1792.41 989.15,1786.7C989.456,1786.58 989.762,1786.46 990.067,1786.34C994.924,1791.22 999.874,1796 1005,1800.5C1003.8,1807.54 1004.17,1813.53 1005.73,1818.52C999.376,1821.31 992.921,1823.67 986.387,1825.63ZM1006.74,1792.97C1002.88,1790.15 999.179,1787.16 995.581,1784.07C1000.91,1781.79 1006.03,1779.38 1010.92,1776.82C1011.27,1777.09 1011.62,1777.37 1011.97,1777.64C1009.96,1782.68 1008.18,1787.78 1006.74,1792.97ZM890.458,1734.12C884.936,1719.27 877.407,1704.45 871.075,1690.93C877.217,1696.62 883.419,1702.33 889.617,1708.2C894.165,1712.51 898.837,1716.79 903.6,1720.99C898.256,1725.24 893.732,1729.59 890.458,1734.12ZM912.94,1714.14C906.478,1709.79 900.236,1705.06 894.428,1698.96C883.928,1687.94 872.312,1678.47 861.541,1667.85C863.108,1659.15 864.707,1650.48 871.563,1647.93C879.216,1656.44 886.934,1664.9 895.165,1672.84C906.141,1683.42 917.278,1693.82 928.327,1704.31C922.977,1707.57 917.776,1710.84 912.94,1714.14ZM772.666,1632.85C772.451,1632.64 772.236,1632.43 772.021,1632.23C773.122,1626.42 774.525,1620.69 776.226,1615.03C776.44,1615.17 776.654,1615.31 776.869,1615.45C775.167,1621.15 773.761,1626.95 772.666,1632.85ZM777.866,1612.23C777.656,1612.08 777.448,1611.93 777.238,1611.78C779.006,1606.3 781.055,1600.9 783.379,1595.61C783.568,1595.79 783.758,1595.97 783.947,1596.15C781.656,1601.39 779.622,1606.76 777.866,1612.23ZM787.831,1587.88C787.657,1587.68 787.484,1587.49 787.311,1587.29C789.787,1582.39 792.505,1577.61 795.467,1572.96C795.637,1573.14 795.806,1573.32 795.977,1573.5C793.034,1578.15 790.313,1582.95 787.831,1587.88Z" style="fill:rgb(53,195,149);fill-rule:nonzero;"/>
        <path d="M1005.83,1818.83C1005.79,1818.73 1005.76,1818.62 1005.73,1818.52C1010.29,1816.52 1014.81,1814.29 1019.24,1811.85C1019.37,1811.94 1019.49,1812.03 1019.62,1812.12C1015.15,1814.55 1010.55,1816.79 1005.83,1818.83ZM1028.42,1806.97C1028.27,1806.88 1028.13,1806.79 1027.98,1806.7C1028.88,1806.13 1029.79,1805.55 1030.68,1804.97C1033.12,1803.36 1035.52,1801.7 1037.85,1800C1037.98,1800.11 1038.11,1800.22 1038.24,1800.33C1035.05,1802.65 1031.77,1804.87 1028.42,1806.97ZM1078.34,1758.94C1078.21,1758.76 1078.08,1758.59 1077.95,1758.42C1078.12,1758.16 1078.3,1757.9 1078.47,1757.65L1082.7,1751.98C1082.74,1752 1082.77,1752.02 1082.81,1752.04C1081.38,1754.38 1079.89,1756.68 1078.34,1758.94Z" style="fill:rgb(50,142,163);fill-rule:nonzero;"/>
        <path d="M1005.73,1818.52C1004.17,1813.53 1003.8,1807.54 1005,1800.5C1009.59,1804.54 1014.31,1808.36 1019.24,1811.85C1014.81,1814.29 1010.29,1816.52 1005.73,1818.52ZM1027.98,1806.7C1023.45,1803.91 1018.95,1801.09 1014.49,1798.26C1011.83,1796.57 1009.26,1794.8 1006.74,1792.97C1008.18,1787.78 1009.96,1782.68 1011.97,1777.64C1020.9,1784.71 1029.089,1792.55 1037.85,1800C1035.52,1801.7 1033.12,1803.36 1030.68,1804.97C1029.79,1805.55 1028.88,1806.13 1027.98,1806.7ZM1077.95,1758.42C1077.94,1758.4 1077.93,1758.39 1077.92,1758.38L1078.47,1757.65C1078.3,1757.9 1078.12,1758.16 1077.95,1758.42ZM886.592,1740.92C875.723,1732.83 864.269,1725.41 853.806,1716.84C850.775,1714.36 847.762,1711.86 844.774,1709.32C850.3,1707.99 854.742,1704.62 855.193,1698.39C857.294,1700.47 859.659,1702.03 862.428,1702.59L866.357,1709.95C867.821,1710.42 869.968,1710.76 871.903,1712.55C873.461,1704.13 862.896,1696.91 856.01,1691.43L858.148,1681.13C858.389,1680.59 858.612,1680.03 858.822,1679.46C862.865,1683.3 866.958,1687.11 871.075,1690.93C877.407,1704.45 884.936,1719.27 890.458,1734.12C888.85,1736.34 887.544,1738.61 886.592,1740.92ZM801.292,1667.1C798.94,1664.39 796.637,1661.64 794.385,1658.83C788.115,1651.02 782.236,1642.99 775.423,1635.66C774.522,1634.69 773.602,1633.75 772.666,1632.85C773.761,1626.95 775.167,1621.15 776.869,1615.45C778.82,1616.74 780.773,1618.02 782.709,1619.3C790.047,1624.18 796.627,1629.99 802.769,1636.28C799.317,1645.58 798.535,1655.49 801.292,1667.1ZM802.967,1635.75C797.76,1629.42 793.017,1623.33 785.95,1618.08C783.232,1616.06 780.524,1614.15 777.866,1612.23C779.622,1606.76 781.656,1601.39 783.947,1596.15C792.94,1604.72 801.695,1613.53 809.495,1623.19C806.811,1627.32 804.607,1631.47 802.967,1635.75ZM813.948,1616.9C805.11,1607.32 796.363,1597.69 787.831,1587.88C790.313,1582.95 793.034,1578.15 795.977,1573.5C805.404,1583.41 815.813,1592.49 826.085,1601.66C823.871,1604.65 821.654,1607.54 819.372,1610.21C817.448,1612.46 815.636,1614.68 813.948,1616.9Z" style="fill:rgb(67,204,171);fill-rule:nonzero;"/>
        <path d="M948.533,1795.44C947.636,1795.44 946.743,1795.42 945.855,1795.39C930.928,1781.99 916.859,1767.46 902.512,1754.03C900.004,1751.68 897.407,1749.43 894.745,1747.26C893.547,1742.9 892.09,1738.51 890.458,1734.12C893.732,1729.59 898.256,1725.24 903.6,1720.99C911.94,1728.34 920.56,1735.46 929.285,1742.13C942.307,1752.08 958.283,1753.78 969.512,1765.2C976.333,1772.14 983.104,1779.35 990.067,1786.34C989.762,1786.46 989.456,1786.58 989.15,1786.7C974.676,1792.41 961.154,1795.44 948.533,1795.44ZM995.581,1784.07C975.503,1766.79 958.781,1746 937.314,1730.26C929.127,1724.25 920.869,1719.48 912.94,1714.14C917.776,1710.84 922.977,1707.57 928.327,1704.31C936.908,1712.46 945.435,1720.68 953.796,1729.09C968.832,1744.22 985.069,1758.99 1002.71,1770.85C1005.54,1772.74 1008.27,1774.75 1010.92,1776.82C1006.03,1779.38 1000.91,1781.79 995.581,1784.07Z" style="fill:rgb(78,220,148);fill-rule:nonzero;"/>
        <path d="M894.745,1747.26C892.082,1745.08 889.356,1742.98 886.592,1740.92C887.544,1738.61 888.85,1736.34 890.458,1734.12C892.09,1738.51 893.547,1742.9 894.745,1747.26Z" style="fill:rgb(84,224,158);fill-rule:nonzero;"/>
        <path d="M861.541,1667.85C861.527,1667.83 861.513,1667.82 861.5,1667.81C856.807,1653.74 852.258,1639.29 850.797,1625.2C857.884,1632.61 864.698,1640.29 871.563,1647.93C864.707,1650.48 863.108,1659.15 861.541,1667.85Z" style="fill:rgb(74,216,148);fill-rule:nonzero;"/>
        <path d="M844.774,1709.32C829.336,1696.24 814.557,1682.4 801.292,1667.1C798.535,1655.49 799.317,1645.58 802.769,1636.28C810.689,1644.39 817.879,1653.32 825.027,1662.09C831.037,1669.47 838.307,1675.51 844.1,1682.93C847.476,1687.26 850.737,1693.98 855.193,1698.39C854.742,1704.62 850.3,1707.99 844.774,1709.32ZM856.01,1691.43C855.129,1690.73 854.308,1690.06 853.58,1689.41C845.251,1682.05 837.74,1673.67 830.365,1664.82C823.318,1656.37 815.073,1649.59 807.947,1641.61C806.191,1639.65 804.557,1637.69 802.967,1635.75C804.607,1631.47 806.811,1627.32 809.495,1623.19C811.601,1625.8 813.637,1628.47 815.59,1631.22C828.598,1649.52 843.37,1664.76 858.822,1679.46C858.612,1680.03 858.389,1680.59 858.148,1681.13L856.01,1691.43ZM861.5,1667.81C859.162,1665.5 856.865,1663.14 854.627,1660.7C841.152,1646 827.445,1631.52 813.948,1616.9C815.636,1614.68 817.448,1612.46 819.372,1610.21C821.654,1607.54 823.871,1604.65 826.085,1601.66C832.207,1607.12 838.282,1612.62 844.069,1618.34C846.345,1620.6 848.584,1622.88 850.797,1625.2C852.258,1639.29 856.807,1653.74 861.5,1667.81Z" style="fill:rgb(81,221,159);fill-rule:nonzero;"/>
        <path d="M762.59,1476.12C769.23,1477.78 775.379,1480.21 782.1,1482.05C789.719,1484.13 797.133,1483.26 804.676,1484.81C814.385,1486.81 838.524,1507.28 817.433,1503.45C803.069,1500.84 795.507,1488.21 781.296,1483.93C768.232,1479.99 750.812,1476.35 739.806,1485.44C724.725,1497.9 727.926,1515.78 738.973,1529.56C751.281,1544.91 764.319,1560.03 777.067,1575.28C801.651,1604.68 828.574,1632.27 854.627,1660.7C867.189,1674.4 881.635,1685.54 894.428,1698.96C907.361,1712.54 922.455,1719.35 937.314,1730.26C965.13,1750.66 984.981,1779.52 1014.49,1798.26C1029.22,1807.61 1044.38,1816.78 1059.48,1825.53C1070.04,1831.64 1084.4,1840 1090.26,1851.39L1097.96,1858.99C1099.96,1861.68 1100.4,1866.32 1096.8,1867.23C1094.32,1867.85 1089.81,1863.09 1088.23,1861.76C1082.18,1856.69 1076.41,1850.21 1071.66,1843.71C1065.91,1835.83 1063.57,1830.26 1053.83,1827.18C1044.52,1824.23 1035.36,1822.02 1027.01,1816.96C1005.21,1803.75 987.537,1783.53 969.512,1765.2C958.283,1753.78 942.307,1752.08 929.285,1742.13C915.577,1731.65 902.129,1720.06 889.617,1708.2C863.391,1683.35 837.081,1661.46 815.59,1631.22C790.031,1595.26 750.14,1572.17 727.496,1534.18C718.963,1519.86 712.785,1496.55 725.689,1482.91C735.048,1473.02 750.525,1473.1 762.59,1476.12Z" style="fill:rgb(16,252,245);fill-rule:nonzero;"/>
        <path d="M776.226,1615.03C765.752,1608.1 755.353,1600.88 747.592,1591.05C734.856,1574.9 725.097,1556.59 714.452,1539.1C704.845,1523.31 697.556,1506.39 687.453,1491.08C679.584,1479.15 670.294,1469.04 662.934,1456.54C656.553,1445.7 653.732,1421.97 671.384,1421.97L671.531,1421.97C692.203,1422.13 709.488,1439.48 729.161,1443.09C739.011,1444.89 749.317,1446.14 758.475,1450.84C761.633,1452.46 771.752,1458.98 772.564,1462.29C773.235,1465.02 771.189,1466.01 767.819,1466.01C759.63,1466.01 743.623,1460.16 739.776,1459.23C728.225,1456.42 714.798,1450.1 702.252,1450.1C699.925,1450.1 697.632,1450.32 695.383,1450.82C678.384,1454.58 692.761,1472.39 696.57,1481.47C701.697,1493.7 707.897,1505.86 714.714,1517.46C718.206,1523.4 722.616,1528.73 725.252,1534.97C727.713,1540.8 729.119,1547.08 732.495,1552.82C740.175,1565.87 747.757,1579.16 756.125,1591.58C761.987,1600.28 769.378,1606.08 777.238,1611.78C776.89,1612.86 776.553,1613.94 776.226,1615.03Z" style="fill:rgb(23,179,191);fill-rule:nonzero;"/>
        <path d="M776.869,1615.45C776.654,1615.31 776.44,1615.17 776.226,1615.03C776.553,1613.94 776.89,1612.86 777.238,1611.78C777.448,1611.93 777.656,1612.08 777.866,1612.23C777.523,1613.3 777.191,1614.37 776.869,1615.45Z" style="fill:rgb(34,224,197);fill-rule:nonzero;"/>
        <path d="M871.903,1712.55C869.968,1710.76 867.821,1710.42 866.357,1709.95L862.428,1702.59C859.659,1702.03 857.294,1700.47 855.193,1698.39C855.256,1697.52 855.241,1696.6 855.141,1695.62L856.01,1691.43C862.896,1696.91 873.461,1704.13 871.903,1712.55ZM802.769,1636.28C796.627,1629.99 790.047,1624.18 782.709,1619.3C780.773,1618.02 778.82,1616.74 776.869,1615.45C777.191,1614.37 777.523,1613.3 777.866,1612.23C780.524,1614.15 783.232,1616.06 785.95,1618.08C793.017,1623.33 797.76,1629.42 802.967,1635.75C802.9,1635.93 802.834,1636.1 802.769,1636.28Z" style="fill:rgb(41,228,208);fill-rule:nonzero;"/>
        <path d="M855.193,1698.39C850.737,1693.98 847.476,1687.26 844.1,1682.93C838.307,1675.51 831.037,1669.47 825.027,1662.09C817.879,1653.32 810.689,1644.39 802.769,1636.28C802.834,1636.1 802.9,1635.93 802.967,1635.75C804.557,1637.69 806.191,1639.65 807.947,1641.61C815.073,1649.59 823.318,1656.37 830.365,1664.82C837.74,1673.67 845.251,1682.05 853.58,1689.41C854.308,1690.06 855.129,1690.73 856.01,1691.43L855.141,1695.62C855.241,1696.6 855.256,1697.52 855.193,1698.39Z" style="fill:rgb(48,237,202);fill-rule:nonzero;"/>
        <path d="M1106.12,1861.77L1104.66,1860.92C1094.55,1855.77 1106.57,1849.36 1108.61,1843.18C1110.46,1837.56 1108.01,1829.22 1112.64,1825.08C1115.71,1830.99 1116.67,1864.74 1106.12,1861.77Z" style="fill:rgb(16,252,245);fill-rule:nonzero;"/>
        <path d="M661.13,1420.66L661.544,1421.29C665.906,1426.28 672.287,1442.11 661.046,1434.28C653.681,1429.14 652.097,1411.16 661.13,1420.66Z" style="fill:white;fill-rule:nonzero;"/>
        <path d="M822.604,1492.29L823.236,1492.7C829.226,1495.54 841.386,1507.51 827.955,1504.81C819.154,1503.04 810.534,1487.17 822.604,1492.29Z" style="fill:white;fill-rule:nonzero;"/>
        <path d="M689.365,1434.96L690.03,1435.32C696.241,1437.63 709.384,1448.52 695.771,1446.98C686.851,1445.97 676.899,1430.91 689.365,1434.96Z" style="fill:white;fill-rule:nonzero;"/>
        <path d="M765.895,1470.2L766.29,1470.41C770.159,1471.46 777.334,1479.13 768.256,1480.03C762.308,1480.63 758.03,1468.62 765.895,1470.2Z" style="fill:white;fill-rule:nonzero;"/>
        <path d="M775.555,1613.02L775.95,1613.23C779.819,1614.28 786.994,1621.95 777.916,1622.86C771.968,1623.45 767.69,1611.44 775.555,1613.02Z" style="fill:white;fill-rule:nonzero;"/>
        <path d="M767.951,1562.87L768.347,1563.08C772.216,1564.13 779.39,1571.8 770.313,1572.7C764.365,1573.29 760.086,1561.29 767.951,1562.87Z" style="fill:white;fill-rule:nonzero;"/>
        <path d="M764.08,1547.33L764.476,1547.54C768.345,1548.59 775.52,1556.26 766.442,1557.16C760.494,1557.75 756.216,1545.75 764.08,1547.33Z" style="fill:white;fill-rule:nonzero;"/>
        <path d="M907.481,1747.92L907.876,1748.13C911.746,1749.18 918.92,1756.85 909.842,1757.75C903.895,1758.35 899.617,1746.34 907.481,1747.92Z" style="fill:white;fill-rule:nonzero;"/>
        <path d="M887.398,1713.19L887.794,1713.4C891.663,1714.45 898.837,1722.12 889.76,1723.02C883.812,1723.61 879.534,1711.61 887.398,1713.19Z" style="fill:white;fill-rule:nonzero;"/>
        <path d="M968.437,1754.02L968.832,1754.23C972.701,1755.28 979.876,1762.95 970.798,1763.85C964.851,1764.45 960.572,1752.44 968.437,1754.02Z" style="fill:white;fill-rule:nonzero;"/>
        <path d="M983.524,1812.82L983.92,1813.03C987.789,1814.09 994.963,1821.75 985.886,1822.66C979.938,1823.25 975.66,1811.24 983.524,1812.82Z" style="fill:white;fill-rule:nonzero;"/>
        <path d="M914.708,1734.14L915.103,1734.35C918.972,1735.4 926.147,1743.07 917.069,1743.97C911.121,1744.56 906.843,1732.56 914.708,1734.14Z" style="fill:white;fill-rule:nonzero;"/>
        <path d="M844.923,1644.33L845.318,1644.55C849.188,1645.6 856.362,1653.27 847.284,1654.17C841.336,1654.76 837.059,1642.75 844.923,1644.33Z" style="fill:white;fill-rule:nonzero;"/>
        <path d="M677.273,1405.41L677.669,1405.63C681.538,1406.68 688.712,1414.35 679.635,1415.25C673.687,1415.84 669.409,1403.83 677.273,1405.41Z" style="fill:white;fill-rule:nonzero;"/>
        <path d="M1044.819,1818.36L1045.22,1818.57C1049.09,1819.62 1056.26,1827.29 1047.18,1828.19C1041.24,1828.78 1036.959,1816.78 1044.819,1818.36Z" style="fill:white;fill-rule:nonzero;"/>
        <path d="M1030.14,1821.25L1030.28,1821.67C1032.4,1825.08 1032.43,1835.58 1025.17,1830.06C1020.41,1826.44 1025.449,1814.73 1030.14,1821.25Z" style="fill:white;fill-rule:nonzero;"/>
        <path d="M1107.8,1865.2L1107.94,1865.62C1110.06,1869.03 1110.09,1879.53 1102.83,1874.01C1098.07,1870.39 1103.11,1858.68 1107.8,1865.2Z" style="fill:white;fill-rule:nonzero;"/>
        <path d="M1118.2,1846.62L1118.35,1847.04C1120.46,1850.45 1120.5,1860.95 1113.23,1855.43C1108.48,1851.81 1113.52,1840.1 1118.2,1846.62Z" style="fill:white;fill-rule:nonzero;"/>
        <path d="M847.241,1660.55L847.637,1660.77C851.506,1661.82 858.681,1669.49 849.603,1670.39C843.655,1670.98 839.377,1658.97 847.241,1660.55Z" style="fill:white;fill-rule:nonzero;"/>
    </g>
</svg>
