<?xml version="1.0" encoding="UTF-8" standalone="no"?>
<!DOCTYPE svg PUBLIC "-//W3C//DTD SVG 1.1//EN" "http://www.w3.org/Graphics/SVG/1.1/DTD/svg11.dtd">
<svg width="100%" height="100%" viewBox="0 0 339 487" version="1.1" xmlns="http://www.w3.org/2000/svg" xmlns:xlink="http://www.w3.org/1999/xlink" xml:space="preserve" xmlns:serif="http://www.serif.com/" style="fill-rule:evenodd;clip-rule:evenodd;stroke-linejoin:round;stroke-miterlimit:2;">
    <g transform="matrix(1,0,0,1,-1856.349976,-706.623544)">
        <path d="M2194.38,942.618C2194.38,1035.921 2118.75,1111.55 2025.45,1111.55C1932.15,1111.55 1856.51,1035.921 1856.51,942.618C1856.51,849.318 1932.15,773.684 2025.45,773.684C2118.75,773.684 2194.38,849.318 2194.38,942.618Z" style="fill:rgb(235,83,192);fill-rule:nonzero;"/>
        <path d="M2020.91,827.061C2020.91,832.383 2016.09,836.697 2010.14,836.697C2004.19,836.697 1999.37,832.383 1999.37,827.061C1999.37,821.74 2004.19,817.425 2010.14,817.425C2016.09,817.425 2020.91,821.74 2020.91,827.061Z" style="fill:rgb(156,232,230);fill-rule:nonzero;"/>
        <path d="M1914.35,889.411C1914.35,895.358 1911.05,900.179 1906.98,900.179C1902.91,900.179 1899.62,895.358 1899.62,889.411C1899.62,883.462 1902.91,878.641 1906.98,878.641C1911.05,878.641 1914.35,883.462 1914.35,889.411Z" style="fill:rgb(156,232,230);fill-rule:nonzero;"/>
        <path d="M2009.58,947.224C2009.58,953.172 2003.99,957.994 1997.11,957.994C1990.22,957.994 1984.64,953.172 1984.64,947.224C1984.64,941.276 1990.22,936.455 1997.11,936.455C2003.99,936.455 2009.58,941.276 2009.58,947.224Z" style="fill:rgb(156,232,230);fill-rule:nonzero;"/>
        <path d="M2122.94,835.563C2122.94,839.946 2119.64,843.498 2115.57,843.498C2111.5,843.498 2108.2,839.946 2108.2,835.563C2108.2,831.18 2111.5,827.628 2115.57,827.628C2119.64,827.628 2122.94,831.18 2122.94,835.563Z" style="fill:rgb(156,232,230);fill-rule:nonzero;"/>
        <path d="M2070.79,901.313C2070.79,905.695 2066.48,909.248 2061.149,909.248C2055.83,909.248 2051.52,905.695 2051.52,901.313C2051.52,896.93 2055.83,893.377 2061.149,893.377C2066.48,893.377 2070.79,896.93 2070.79,901.313Z" style="fill:rgb(156,232,230);fill-rule:nonzero;"/>
        <path d="M2173.95,967.062C2173.95,970.819 2168.87,973.865 2162.61,973.865C2156.35,973.865 2151.28,970.819 2151.28,967.062C2151.28,963.306 2156.35,960.261 2162.61,960.261C2168.87,960.261 2173.95,963.306 2173.95,967.062Z" style="fill:rgb(156,232,230);fill-rule:nonzero;"/>
        <path d="M1910.95,1011.27C1910.95,1015.03 1909.17,1018.08 1906.98,1018.08C1904.79,1018.08 1903.02,1015.03 1903.02,1011.27C1903.02,1007.52 1904.79,1004.47 1906.98,1004.47C1909.17,1004.47 1910.95,1007.52 1910.95,1011.27Z" style="fill:rgb(156,232,230);fill-rule:nonzero;"/>
        <path d="M2041.32,1095.16C2041.32,1097.67 2037.76,1099.7 2033.38,1099.7C2029,1099.7 2025.45,1097.67 2025.45,1095.16C2025.45,1092.66 2029,1090.63 2033.38,1090.63C2037.76,1090.63 2041.32,1092.66 2041.32,1095.16Z" style="fill:rgb(156,232,230);fill-rule:nonzero;"/>
        <path d="M2104.8,1022.04C2104.8,1025.49 2101.5,1028.28 2097.43,1028.28C2093.36,1028.28 2090.06,1025.49 2090.06,1022.04C2090.06,1018.6 2093.36,1015.81 2097.43,1015.81C2101.5,1015.81 2104.8,1018.6 2104.8,1022.04Z" style="fill:rgb(156,232,230);fill-rule:nonzero;"/>
        <path d="M2164.88,883.175C2164.88,886.305 2162.09,888.844 2158.65,888.844C2155.2,888.844 2152.41,886.305 2152.41,883.175C2152.41,880.045 2155.2,877.507 2158.65,877.507C2162.09,877.507 2164.88,880.045 2164.88,883.175Z" style="fill:rgb(156,232,230);fill-rule:nonzero;"/>
        <path d="M1950.63,824.227C1950.63,826.732 1948.6,828.761 1946.09,828.761C1943.59,828.761 1941.56,826.732 1941.56,824.227C1941.56,821.722 1943.59,819.692 1946.09,819.692C1948.6,819.692 1950.63,821.722 1950.63,824.227Z" style="fill:rgb(156,232,230);fill-rule:nonzero;"/>
        <path d="M1983.5,1041.88C1983.5,1045.64 1979.7,1048.68 1975,1048.68C1970.3,1048.68 1966.5,1045.64 1966.5,1041.88C1966.5,1038.12 1970.3,1035.08 1975,1035.08C1979.7,1035.08 1983.5,1038.12 1983.5,1041.88Z" style="fill:rgb(156,232,230);fill-rule:nonzero;"/>
        <path d="M1869.98,1008.81C1861.21,988.382 1856.35,965.871 1856.35,942.227C1856.35,888.33 1881.59,840.329 1920.89,809.398C1921.53,809.05 1922.16,808.732 1922.79,808.444C1882.5,839.319 1856.51,887.933 1856.51,942.618C1856.51,966.114 1861.31,988.484 1869.98,1008.81ZM2180.61,875.706C2160.16,828.349 2118.67,792.21 2067.919,779.068C2067.94,778.958 2067.96,778.849 2067.97,778.74C2118.76,791.966 2160.25,828.233 2180.61,875.706Z" style="fill:rgb(76,94,129);fill-rule:nonzero;"/>
        <path d="M2025.28,1111.16C1955.63,1111.16 1895.82,1069 1869.98,1008.81C1861.31,988.484 1856.51,966.114 1856.51,942.618C1856.51,887.933 1882.5,839.319 1922.79,808.444C1926.4,806.786 1929.93,806.077 1933.3,806.077C1943.2,806.077 1951.81,812.166 1957.57,818.343C1955.19,819.576 1952.74,820.908 1950.21,822.333C1949.5,820.774 1947.92,819.692 1946.09,819.692C1943.59,819.692 1941.56,821.722 1941.56,824.227C1941.56,825.233 1941.89,826.161 1942.44,826.913C1922.86,838.922 1901.87,855.468 1893.64,872.091C1884.74,890.074 1884.84,921.063 1886.89,940.108C1889.57,965.017 1894.06,989.201 1923.39,995.681C1926.65,996.4 1929.81,996.74 1932.86,996.74C1936.83,996.74 1940.63,996.163 1944.23,995.094C1945.33,1012.36 1951.07,1028.33 1966.6,1040.83C1966.53,1041.171 1966.5,1041.52 1966.5,1041.88C1966.5,1045.64 1970.3,1048.68 1975,1048.68C1975.94,1048.68 1976.85,1048.561 1977.69,1048.33C1995.05,1058.29 2016.23,1063.19 2037.04,1063.19C2047.9,1063.19 2058.659,1061.85 2068.71,1059.21C2149.88,1037.86 2157.67,959.098 2127.74,891.909C2113.47,859.871 2085.12,833.719 2071.55,801.272C2067.97,792.706 2066.98,785.298 2067.919,779.068C2118.67,792.21 2160.16,828.349 2180.61,875.706C2189.37,896.121 2194.22,918.606 2194.22,942.227C2194.22,1035.53 2118.58,1111.16 2025.28,1111.16ZM2033.38,1090.63C2029,1090.63 2025.45,1092.66 2025.45,1095.16C2025.45,1097.67 2029,1099.7 2033.38,1099.7C2037.76,1099.7 2041.32,1097.67 2041.32,1095.16C2041.32,1092.66 2037.76,1090.63 2033.38,1090.63ZM1906.98,1004.47C1904.79,1004.47 1903.02,1007.52 1903.02,1011.27C1903.02,1015.03 1904.79,1018.08 1906.98,1018.08C1909.17,1018.08 1910.95,1015.03 1910.95,1011.27C1910.95,1007.52 1909.17,1004.47 1906.98,1004.47ZM2162.61,960.261C2156.35,960.261 2151.28,963.306 2151.28,967.062C2151.28,970.819 2156.35,973.865 2162.61,973.865C2168.87,973.865 2173.95,970.819 2173.95,967.062C2173.95,963.306 2168.87,960.261 2162.61,960.261ZM2158.65,877.507C2155.2,877.507 2152.41,880.045 2152.41,883.175C2152.41,886.305 2155.2,888.844 2158.65,888.844C2162.09,888.844 2164.88,886.305 2164.88,883.175C2164.88,880.045 2162.09,877.507 2158.65,877.507ZM2115.57,827.628C2111.5,827.628 2108.2,831.18 2108.2,835.563C2108.2,839.946 2111.5,843.498 2115.57,843.498C2119.64,843.498 2122.94,839.946 2122.94,835.563C2122.94,831.18 2119.64,827.628 2115.57,827.628Z" style="fill:rgb(211,128,203);fill-rule:nonzero;"/>
        <path d="M2115.57,843.498C2111.5,843.498 2108.2,839.946 2108.2,835.563C2108.2,831.18 2111.5,827.628 2115.57,827.628C2119.64,827.628 2122.94,831.18 2122.94,835.563C2122.94,839.946 2119.64,843.498 2115.57,843.498Z" style="fill:rgb(156,232,230);fill-rule:nonzero;"/>
        <path d="M2162.61,973.865C2156.35,973.865 2151.28,970.819 2151.28,967.062C2151.28,963.306 2156.35,960.261 2162.61,960.261C2168.87,960.261 2173.95,963.306 2173.95,967.062C2173.95,970.819 2168.87,973.865 2162.61,973.865Z" style="fill:rgb(156,232,230);fill-rule:nonzero;"/>
        <path d="M1906.98,1018.08C1904.79,1018.08 1903.02,1015.03 1903.02,1011.27C1903.02,1007.52 1904.79,1004.47 1906.98,1004.47C1909.17,1004.47 1910.95,1007.52 1910.95,1011.27C1910.95,1015.03 1909.17,1018.08 1906.98,1018.08Z" style="fill:rgb(156,232,230);fill-rule:nonzero;"/>
        <path d="M2033.38,1099.7C2029,1099.7 2025.45,1097.67 2025.45,1095.16C2025.45,1092.66 2029,1090.63 2033.38,1090.63C2037.76,1090.63 2041.32,1092.66 2041.32,1095.16C2041.32,1097.67 2037.76,1099.7 2033.38,1099.7Z" style="fill:rgb(156,232,230);fill-rule:nonzero;"/>
        <path d="M2158.65,888.844C2155.2,888.844 2152.41,886.305 2152.41,883.175C2152.41,880.045 2155.2,877.507 2158.65,877.507C2162.09,877.507 2164.88,880.045 2164.88,883.175C2164.88,886.305 2162.09,888.844 2158.65,888.844Z" style="fill:rgb(156,232,230);fill-rule:nonzero;"/>
        <path d="M1942.44,826.913C1941.89,826.161 1941.56,825.233 1941.56,824.227C1941.56,821.722 1943.59,819.692 1946.09,819.692C1947.92,819.692 1949.5,820.774 1950.21,822.333C1947.67,823.77 1945.07,825.301 1942.44,826.913Z" style="fill:rgb(156,232,230);fill-rule:nonzero;"/>
        <path d="M1975,1048.68C1970.3,1048.68 1966.5,1045.64 1966.5,1041.88C1966.5,1041.52 1966.53,1041.171 1966.6,1040.83C1967.2,1041.311 1967.81,1041.78 1968.44,1042.25C1971.37,1044.46 1974.47,1046.48 1977.69,1048.33C1976.85,1048.561 1975.94,1048.68 1975,1048.68Z" style="fill:rgb(156,232,230);fill-rule:nonzero;"/>
        <path d="M2067.389,768.68C2067.389,768.68 2096.86,708.599 2120.67,718.801C2144.47,729.004 2129.74,836.697 2077.59,948.925C2025.45,1061.15 1983.5,1168.85 1949.49,1175.65C1915.49,1182.45 1947.23,1100.83 1947.23,1100.83L1940.42,1100.83C1940.42,1100.83 1912.08,1190.32 1941.56,1192.62C1971.03,1194.92 2048.71,1046.75 2086.659,954.593C2134.27,838.964 2154.71,718.716 2127.47,708.599C2087.79,693.862 2058.32,766.413 2058.32,766.413L2067.389,768.68Z" style="fill:rgb(16,252,245);fill-rule:nonzero;"/>
        <path d="M1944.23,995.094C1943.27,980.114 1945.81,964.16 1948.48,948.655C1954.31,914.773 1981.63,861.047 1963.89,826.983C1962.64,824.594 1960.46,821.457 1957.57,818.343C1959.78,817.19 1961.92,816.125 1963.95,815.158C1975.96,809.436 1994.88,800.379 2008.77,800.379C2009.36,800.379 2009.94,800.396 2010.51,800.429C2017.2,800.823 2032.26,803.773 2035.65,809.49L2043.58,812.891C2061.05,819.128 2058.179,843.659 2052.37,857.102C2044.36,875.629 2024.6,881.295 2008.47,889.125C1983.99,901.007 1985.95,929.033 1980.13,952.388C1975.24,971.977 1962.27,989.731 1944.23,995.094ZM2010.14,817.425C2004.19,817.425 1999.37,821.74 1999.37,827.061C1999.37,832.383 2004.19,836.697 2010.14,836.697C2016.09,836.697 2020.91,832.383 2020.91,827.061C2020.91,821.74 2016.09,817.425 2010.14,817.425Z" style="fill:rgb(211,128,203);fill-rule:nonzero;"/>
        <path d="M2010.14,836.697C2004.19,836.697 1999.37,832.383 1999.37,827.061C1999.37,821.74 2004.19,817.425 2010.14,817.425C2016.09,817.425 2020.91,821.74 2020.91,827.061C2020.91,832.383 2016.09,836.697 2010.14,836.697Z" style="fill:rgb(156,232,230);fill-rule:nonzero;"/>
        <path d="M1932.86,996.74C1929.81,996.74 1926.65,996.4 1923.39,995.681C1894.06,989.201 1889.57,965.017 1886.89,940.108C1884.84,921.063 1884.74,890.074 1893.64,872.091C1901.87,855.468 1922.86,838.922 1942.44,826.913C1943.26,828.034 1944.59,828.761 1946.09,828.761C1948.6,828.761 1950.63,826.732 1950.63,824.227C1950.63,823.551 1950.48,822.909 1950.21,822.333C1952.74,820.908 1955.19,819.576 1957.57,818.343C1960.46,821.457 1962.64,824.594 1963.89,826.983C1981.63,861.047 1954.31,914.773 1948.48,948.655C1945.81,964.16 1943.27,980.114 1944.23,995.094C1940.63,996.163 1936.83,996.74 1932.86,996.74ZM1906.98,878.641C1902.91,878.641 1899.62,883.462 1899.62,889.411C1899.62,895.358 1902.91,900.179 1906.98,900.179C1911.05,900.179 1914.35,895.358 1914.35,889.411C1914.35,883.462 1911.05,878.641 1906.98,878.641Z" style="fill:rgb(194,159,211);fill-rule:nonzero;"/>
        <path d="M1906.98,900.179C1902.91,900.179 1899.62,895.358 1899.62,889.411C1899.62,883.462 1902.91,878.641 1906.98,878.641C1911.05,878.641 1914.35,883.462 1914.35,889.411C1914.35,895.358 1911.05,900.179 1906.98,900.179Z" style="fill:rgb(156,232,230);fill-rule:nonzero;"/>
        <path d="M1946.09,828.761C1944.59,828.761 1943.26,828.034 1942.44,826.913C1945.07,825.301 1947.67,823.77 1950.21,822.333C1950.48,822.909 1950.63,823.551 1950.63,824.227C1950.63,826.732 1948.6,828.761 1946.09,828.761Z" style="fill:rgb(156,232,230);fill-rule:nonzero;"/>
    </g>
</svg>
