<?xml version="1.0" encoding="UTF-8" standalone="no"?>
<!DOCTYPE svg PUBLIC "-//W3C//DTD SVG 1.1//EN" "http://www.w3.org/Graphics/SVG/1.1/DTD/svg11.dtd">
<svg width="100%" height="100%" viewBox="0 0 396 389" version="1.1" xmlns="http://www.w3.org/2000/svg" xmlns:xlink="http://www.w3.org/1999/xlink" xml:space="preserve" xmlns:serif="http://www.serif.com/" style="fill-rule:evenodd;clip-rule:evenodd;stroke-linejoin:round;stroke-miterlimit:2;">
    <g transform="matrix(1,0,0,1,-2860.120117,-130.967041)">
        <path d="M3227.57,324.178C3227.57,417.477 3151.94,493.111 3058.64,493.111C2965.34,493.111 2889.71,417.477 2889.71,324.178C2889.71,230.878 2965.34,155.244 3058.64,155.244C3151.94,155.244 3227.57,230.878 3227.57,324.178Z" style="fill:rgb(237,99,38);fill-rule:nonzero;"/>
        <path d="M2931.66,263.496C2971.02,252.409 2999.7,225.593 3034.94,206.323C3048.19,199.081 3061.78,199.648 3075.26,195.89C3091.39,191.396 3106.16,182.31 3120.64,174.362C3123.27,172.922 3126.04,171.463 3128.91,170.051C3107.34,160.055 3083.31,154.467 3057.97,154.467C2981.16,154.467 2916.32,205.744 2895.81,275.936C2908.76,269.91 2923.36,265.836 2931.66,263.496Z" style="fill:rgb(239,138,52);fill-rule:nonzero;"/>
        <path d="M3052.55,363.009C3073.94,355.786 3090.45,342.231 3108.89,328.872C3130.24,313.408 3151.13,298.528 3170.91,281.6C3181.57,272.473 3197.46,260.61 3212.03,253.985C3207.73,244.443 3202.55,235.38 3196.62,226.882C3189.48,236.533 3178.4,244.538 3165.51,250.342C3127.59,267.413 3094.02,275.333 3061.33,302.872C3034.11,325.798 3005.36,348.07 2974.49,365.949C2956.28,376.495 2937.43,389.717 2916.55,393.569C2912.58,394.301 2908.69,394.627 2904.86,394.84C2910.77,407.482 2918.19,419.269 2926.9,429.971C2953.42,417.549 2974.87,399.072 3001.28,383.289C3017.88,373.374 3034.58,369.08 3052.55,363.009Z" style="fill:rgb(239,138,52);fill-rule:nonzero;"/>
        <path d="M3190.86,302.498C3143.72,336.025 3100.15,373.144 3055.62,409.789C3029.58,431.213 3005.33,453.705 2978.15,472.315C3001.93,485.084 3029.1,492.334 3057.97,492.334C3151.27,492.334 3226.91,416.7 3226.91,323.4C3226.91,309.437 3225.2,295.874 3222.01,282.897C3211.47,290.456 3198.06,297.378 3190.86,302.498Z" style="fill:rgb(239,138,52);fill-rule:nonzero;"/>
        <path d="M2904.59,301.755C2908.4,297.799 2913.41,296.141 2918.51,294.489C2923.84,292.761 2928.85,290.858 2933.31,287.395C2937.16,284.409 2931.76,279.101 2927.96,282.05C2923.79,285.289 2918.4,286.546 2913.48,288.192C2908.18,289.97 2903.17,292.331 2899.25,296.41C2895.87,299.92 2901.21,305.272 2904.59,301.755Z" style="fill:rgb(237,186,58);fill-rule:nonzero;"/>
        <path d="M2920.56,302.726C2935.76,306.699 2947.2,294.098 2955.06,282.851C2957.86,278.845 2951.31,275.074 2948.54,279.037C2942.8,287.251 2933.95,298.412 2922.57,295.438C2917.85,294.204 2915.85,301.494 2920.56,302.726Z" style="fill:rgb(237,186,58);fill-rule:nonzero;"/>
        <path d="M2904.18,327.802C2904.31,326.15 2907.84,324.724 2909.06,324.235C2911.41,323.292 2914.25,322.609 2916.78,323.132C2921.54,324.116 2923.56,316.832 2918.79,315.845C2910.8,314.192 2897.38,318.222 2896.63,327.802C2896.25,332.664 2903.81,332.628 2904.18,327.802Z" style="fill:rgb(237,186,58);fill-rule:nonzero;"/>
        <path d="M2909.48,339.138C2917.11,339.837 2924.59,338.061 2930.29,332.741C2933.85,329.408 2928.5,324.075 2924.94,327.397C2920.68,331.379 2915.08,332.093 2909.48,331.581C2904.62,331.137 2904.66,338.699 2909.48,339.138Z" style="fill:rgb(237,186,58);fill-rule:nonzero;"/>
        <path d="M2930.13,317.086C2933.49,315.79 2936.85,315.005 2940.46,314.954C2945.33,314.885 2945.34,307.326 2940.46,307.396C2936.21,307.457 2932.08,308.27 2928.12,309.798C2926.2,310.539 2924.89,312.311 2925.48,314.447C2925.99,316.284 2928.21,317.828 2930.13,317.086Z" style="fill:rgb(237,186,58);fill-rule:nonzero;"/>
        <path d="M2905.19,314.819C2908.21,314.063 2911.24,313.307 2914.26,312.552C2918.99,311.37 2916.98,304.081 2912.25,305.264C2909.23,306.02 2906.2,306.775 2903.18,307.531C2898.45,308.712 2900.46,316.001 2905.19,314.819Z" style="fill:rgb(237,186,58);fill-rule:nonzero;"/>
        <path d="M2946.76,327.667C2953.42,325.911 2959.8,323.097 2965.8,319.729C2970.05,317.343 2966.24,310.814 2961.98,313.202C2956.52,316.269 2950.82,318.781 2944.75,320.38C2940.04,321.62 2942.04,328.91 2946.76,327.667Z" style="fill:rgb(237,186,58);fill-rule:nonzero;"/>
        <path d="M2970.93,297.966C2974.97,292.397 2983.4,292.308 2989.59,292.28C2994.46,292.258 2994.46,284.701 2989.59,284.722C2980.21,284.765 2970.29,286.032 2964.41,294.152C2961.54,298.106 2968.1,301.871 2970.93,297.966Z" style="fill:rgb(237,186,58);fill-rule:nonzero;"/>
        <path d="M3014.02,295.924C3018.72,294.881 3022.85,292.231 3026.27,288.907C3029.77,285.504 3024.42,280.163 3020.93,283.562C3018.39,286.03 3015.49,287.864 3012.01,288.636C3007.26,289.693 3009.27,296.979 3014.02,295.924Z" style="fill:rgb(237,186,58);fill-rule:nonzero;"/>
        <path d="M2992.25,273.626C2995.49,272.032 2998.84,270.686 3002.08,269.091C3003.92,268.181 3004.42,265.602 3003.43,263.921C3002.34,262.051 3000.11,261.655 2998.26,262.565C2995.02,264.16 2991.67,265.506 2988.44,267.1C2986.59,268.01 2986.1,270.59 2987.08,272.27C2988.18,274.14 2990.4,274.536 2992.25,273.626Z" style="fill:rgb(237,186,58);fill-rule:nonzero;"/>
        <path d="M2969.58,268.335C2971.76,266.923 2974.2,265.969 2976.38,264.556C2978.11,263.44 2978.81,261.224 2977.74,259.386C2976.73,257.67 2974.3,256.911 2972.57,258.03C2970.38,259.443 2967.95,260.397 2965.76,261.809C2964.04,262.926 2963.33,265.142 2964.41,266.979C2965.41,268.696 2967.85,269.455 2969.58,268.335Z" style="fill:rgb(237,186,58);fill-rule:nonzero;"/>
        <path d="M3006.61,247.929C3009.41,245.832 3012.28,243.618 3015.53,242.263C3017.43,241.473 3018.77,239.791 3018.17,237.615C3017.68,235.817 3015.43,234.182 3013.52,234.976C3009.58,236.616 3006.2,238.853 3002.8,241.404C3001.15,242.636 3000.31,244.643 3001.44,246.574C3002.39,248.198 3004.96,249.168 3006.61,247.929Z" style="fill:rgb(237,186,58);fill-rule:nonzero;"/>
        <path d="M3024,257.164L3024.25,256.937C3024,257.135 3023.74,257.331 3023.49,257.529C3023.8,257.289 3024.15,257.112 3024.5,256.935C3025.15,256.609 3025.74,256.15 3026.27,255.652C3027.77,254.236 3027.7,251.733 3026.27,250.308C3024.78,248.821 3022.42,248.893 3020.93,250.308L3020.67,250.534C3020.93,250.337 3021.18,250.14 3021.44,249.943C3021.12,250.182 3020.78,250.359 3020.43,250.536C3019.78,250.862 3019.18,251.321 3018.66,251.819C3017.16,253.235 3017.23,255.737 3018.66,257.164C3020.14,258.65 3022.51,258.578 3024,257.164Z" style="fill:rgb(237,186,58);fill-rule:nonzero;"/>
        <path d="M3048.19,291.929C3051.09,289.101 3054.54,287.038 3058,284.962C3062.18,282.457 3058.38,275.921 3054.19,278.436C3050.19,280.838 3046.21,283.313 3042.84,286.585C3039.35,289.988 3044.69,295.328 3048.19,291.929Z" style="fill:rgb(237,186,58);fill-rule:nonzero;"/>
        <path d="M3097.3,263.045C3100.61,261.076 3104.02,259.283 3107.13,256.998C3108.78,255.78 3109.61,253.747 3108.49,251.829C3107.53,250.192 3104.98,249.249 3103.32,250.473C3100.21,252.757 3096.79,254.55 3093.49,256.518C3089.31,259.009 3093.11,265.545 3097.3,263.045Z" style="fill:rgb(237,186,58);fill-rule:nonzero;"/>
        <path d="M3102.45,236.973C3104.49,236.28 3106.46,235.4 3108.49,234.706C3110.44,234.043 3111.7,232.134 3111.13,230.058C3110.61,228.161 3108.44,226.754 3106.49,227.418C3104.44,228.113 3102.48,228.991 3100.44,229.686C3098.49,230.349 3097.23,232.258 3097.8,234.334C3098.32,236.23 3100.5,237.638 3102.45,236.973Z" style="fill:rgb(237,186,58);fill-rule:nonzero;"/>
        <path d="M3108.64,204.094C3111.46,202.664 3114.14,200.989 3116.96,199.559C3121.3,197.353 3117.47,190.833 3113.14,193.033C3110.32,194.463 3107.64,196.138 3104.83,197.568C3100.48,199.774 3104.31,206.294 3108.64,204.094Z" style="fill:rgb(237,186,58);fill-rule:nonzero;"/>
        <path d="M2907.83,370.375C2908.97,364.008 2914.79,364.526 2920.1,365.018C2925.55,365.523 2931.55,367.194 2936.93,365.456C2941.55,363.963 2939.57,356.664 2934.92,358.168C2929.04,360.07 2921.6,357.253 2915.54,357.214C2908.17,357.167 2901.91,360.74 2900.54,368.365C2899.69,373.13 2906.97,375.166 2907.83,370.375Z" style="fill:rgb(237,186,58);fill-rule:nonzero;"/>
        <path d="M2909.88,355.415C2916.15,350.147 2925.09,349.75 2932.9,349.72C2937.78,349.701 2937.78,342.143 2932.9,342.162C2922.84,342.201 2912.51,343.374 2904.54,350.07C2900.8,353.209 2906.17,358.527 2909.88,355.415Z" style="fill:rgb(237,186,58);fill-rule:nonzero;"/>
        <path d="M2944.49,354.875C2951.43,353.771 2957.53,349.304 2962.03,344.078C2965.19,340.406 2959.87,335.035 2956.68,338.734C2952.93,343.099 2948.29,346.663 2942.48,347.588C2937.68,348.351 2939.72,355.634 2944.49,354.875Z" style="fill:rgb(237,186,58);fill-rule:nonzero;"/>
        <path d="M2958.85,336.736C2962.21,335.44 2965.57,334.655 2969.18,334.604C2974.05,334.534 2974.06,326.977 2969.18,327.047C2964.93,327.107 2960.8,327.921 2956.84,329.448C2954.92,330.189 2953.61,331.961 2954.2,334.097C2954.71,335.934 2956.93,337.479 2958.85,336.736Z" style="fill:rgb(237,186,58);fill-rule:nonzero;"/>
        <path d="M2995.27,337.867C2997.21,336.897 2999.01,335.774 3000.57,334.253C3002.05,332.817 3002.01,330.349 3000.57,328.909C2999.1,327.438 2996.7,327.474 2995.23,328.909C2994.9,329.225 2994.57,329.524 2994.22,329.813C2994.89,329.261 2993.87,330.023 2993.73,330.113C2993,330.576 2992.23,330.957 2991.46,331.341C2989.62,332.262 2989.11,334.822 2990.1,336.512C2991.19,338.372 2993.43,338.789 2995.27,337.867Z" style="fill:rgb(237,186,58);fill-rule:nonzero;"/>
        <path d="M2987.73,319.893C2993.38,313.88 3004.45,310.821 3011.86,315.194C3016.07,317.675 3019.87,311.14 3015.68,308.668C3005.4,302.611 2990.34,306.084 2982.38,314.548C2979.05,318.097 2984.38,323.451 2987.73,319.893Z" style="fill:rgb(237,186,58);fill-rule:nonzero;"/>
        <path d="M2917.38,378.845C2930.61,389.208 2949.15,375.357 2960.51,368.098C2964.6,365.482 2960.81,358.939 2956.69,361.572C2951.44,364.933 2946.23,368.336 2940.63,371.12C2936,373.421 2927.57,377.296 2922.73,373.5C2918.94,370.531 2913.55,375.839 2917.38,378.845Z" style="fill:rgb(237,186,58);fill-rule:nonzero;"/>
        <path d="M2944.48,440.053C2948.94,433.064 2957.11,430.321 2964.9,428.941C2969.69,428.092 2967.65,420.809 2962.89,421.653C2953.05,423.397 2943.49,427.553 2937.95,436.238C2935.32,440.361 2941.87,444.148 2944.48,440.053Z" style="fill:rgb(237,186,58);fill-rule:nonzero;"/>
        <path d="M2961.12,445.568C2968.34,443.804 2974.67,440.019 2980.91,436.118C2985.04,433.544 2981.25,427.003 2977.1,429.592C2971.39,433.157 2965.71,436.668 2959.11,438.281C2954.38,439.437 2956.38,446.725 2961.12,445.568Z" style="fill:rgb(237,186,58);fill-rule:nonzero;"/>
        <path d="M2989.24,416.632C2991.39,414.556 2994.13,413.259 2996.78,411.933C2998.63,411.012 2999.13,408.452 2998.14,406.763C2997.05,404.902 2994.81,404.486 2992.97,405.407C2989.72,407.035 2986.53,408.742 2983.89,411.289C2980.38,414.677 2985.73,420.015 2989.24,416.632Z" style="fill:rgb(237,186,58);fill-rule:nonzero;"/>
        <path d="M3018.7,409.666C3022.77,407.207 3026.73,404.567 3030.8,402.108C3034.96,399.592 3031.16,393.054 3026.98,395.582C3022.91,398.042 3018.96,400.681 3014.89,403.14C3010.72,405.657 3014.52,412.195 3018.7,409.666Z" style="fill:rgb(237,186,58);fill-rule:nonzero;"/>
        <path d="M3001.32,436.118C3005.86,433.293 3009.66,429.464 3013.42,425.702C3016.87,422.254 3011.53,416.91 3008.08,420.358C3004.78,423.659 3001.49,427.112 2997.51,429.592C2993.38,432.159 2997.17,438.7 3001.32,436.118Z" style="fill:rgb(237,186,58);fill-rule:nonzero;"/>
        <path d="M2984.69,455.769C2986.89,454.642 2988.98,453.123 2990.75,451.399C2992.22,449.96 2992.19,447.497 2990.75,446.054C2989.28,444.585 2986.88,444.617 2985.4,446.054C2985.08,446.366 2984.76,446.665 2984.42,446.956C2984.24,447.105 2984.06,447.251 2983.88,447.395C2984.48,446.911 2983.57,447.601 2983.52,447.637C2982.68,448.234 2981.8,448.772 2980.88,449.243C2979.05,450.181 2978.52,452.711 2979.52,454.413C2980.61,456.262 2982.86,456.707 2984.69,455.769Z" style="fill:rgb(237,186,58);fill-rule:nonzero;"/>
        <path d="M3068.43,387.148C3069.96,383.684 3073.81,382.028 3076.9,380.19C3081.08,377.7 3077.28,371.165 3073.08,373.664C3068.91,376.151 3063.97,378.653 3061.9,383.334C3061.07,385.218 3061.33,387.377 3063.26,388.504C3064.88,389.456 3067.6,389.034 3068.43,387.148Z" style="fill:rgb(237,186,58);fill-rule:nonzero;"/>
        <path d="M3034.43,383.595C3039.36,381.834 3043.56,378.792 3048.18,376.412C3052.51,374.18 3048.69,367.659 3044.36,369.885C3040.36,371.948 3036.68,374.785 3032.42,376.306C3027.86,377.934 3029.83,385.238 3034.43,383.595Z" style="fill:rgb(237,186,58);fill-rule:nonzero;"/>
        <path d="M3095.79,356.006C3099.21,353.934 3102.43,351.597 3105.62,349.204C3107.26,347.971 3108.1,345.965 3106.97,344.033C3106.02,342.408 3103.45,341.439 3101.8,342.677C3098.61,345.072 3095.39,347.408 3091.98,349.48C3087.82,352.004 3091.62,358.541 3095.79,356.006Z" style="fill:rgb(237,186,58);fill-rule:nonzero;"/>
        <path d="M3126.02,329.553C3128.58,327.837 3131.03,325.979 3133.58,324.263C3135.29,323.116 3136.03,320.954 3134.94,319.093C3133.95,317.4 3131.48,316.586 3129.77,317.737C3127.21,319.453 3124.76,321.312 3122.21,323.028C3120.5,324.174 3119.76,326.336 3120.85,328.198C3121.85,329.89 3124.31,330.704 3126.02,329.553Z" style="fill:rgb(237,186,58);fill-rule:nonzero;"/>
        <path d="M3190.27,297.22C3191.11,296.395 3191.95,295.631 3192.91,294.977C3193.39,294.645 3193.91,294.358 3194.42,294.081C3194.67,293.952 3194.92,293.83 3195.18,293.716C3194.91,293.843 3194.99,293.824 3195.41,293.657C3197.35,292.974 3198.62,291.099 3198.05,289.009C3197.53,287.128 3195.34,285.685 3193.4,286.369C3190.13,287.518 3187.39,289.461 3184.93,291.875C3181.45,295.294 3186.79,300.635 3190.27,297.22Z" style="fill:rgb(237,186,58);fill-rule:nonzero;"/>
        <path d="M3202.36,275.137C3204.34,273.827 3206.42,272.668 3208.4,271.358C3210.12,270.225 3210.84,268.039 3209.76,266.188C3208.76,264.484 3206.31,263.696 3204.59,264.832C3202.6,266.142 3200.53,267.302 3198.54,268.612C3196.83,269.744 3196.1,271.931 3197.19,273.781C3198.19,275.486 3200.64,276.274 3202.36,275.137Z" style="fill:rgb(237,186,58);fill-rule:nonzero;"/>
        <path d="M3054.22,236.592C3059.37,234.02 3064.52,231.431 3069.34,228.279C3073.4,225.623 3069.62,219.076 3065.53,221.753C3060.71,224.906 3055.55,227.494 3050.41,230.066C3046.05,232.247 3049.88,238.766 3054.22,236.592Z" style="fill:rgb(237,186,58);fill-rule:nonzero;"/>
        <path d="M3036.09,221.477C3038.82,219.641 3041.47,217.693 3044.4,216.186C3048.74,213.96 3044.91,207.438 3040.59,209.661C3037.65,211.167 3035,213.115 3032.27,214.951C3030.57,216.098 3029.82,218.26 3030.92,220.121C3031.91,221.813 3034.37,222.628 3036.09,221.477Z" style="fill:rgb(237,186,58);fill-rule:nonzero;"/>
        <path d="M3066.32,211.651C3068.48,210.593 3070.59,209.736 3072.37,208.037C3073.86,206.617 3073.8,204.123 3072.37,202.693C3070.89,201.211 3068.52,201.274 3067.03,202.693C3066.88,202.845 3066.72,202.988 3066.55,203.125C3066.9,202.864 3066.89,202.858 3066.54,203.107C3066.1,203.407 3065.62,203.655 3065.15,203.897C3064.28,204.34 3063.38,204.699 3062.5,205.126C3060.65,206.03 3060.17,208.62 3061.15,210.296C3062.24,212.17 3064.47,212.556 3066.32,211.651Z" style="fill:rgb(237,186,58);fill-rule:nonzero;"/>
        <path d="M3043.65,262.454C3045.23,260.918 3046.96,259.826 3048.93,258.51C3050.64,257.37 3051.38,255.197 3050.29,253.34C3049.3,251.643 3046.84,250.839 3045.12,251.984C3042.76,253.555 3040.35,255.129 3038.31,257.11C3036.83,258.545 3036.87,261.013 3038.31,262.454C3039.78,263.925 3042.18,263.889 3043.65,262.454Z" style="fill:rgb(237,186,58);fill-rule:nonzero;"/>
        <path d="M3146.43,240.372C3151.21,237.981 3155.82,235.512 3160.04,232.223C3161.67,230.955 3161.36,228.2 3160.04,226.879C3158.45,225.288 3156.32,225.615 3154.7,226.879C3151.03,229.733 3146.75,231.776 3142.61,233.845C3138.26,236.026 3142.08,242.545 3146.43,240.372Z" style="fill:rgb(237,186,58);fill-rule:nonzero;"/>
        <path d="M3176.67,235.245C3177.88,234.07 3179.58,232.956 3181.05,232.439C3182.99,231.754 3184.26,229.882 3183.69,227.79C3183.17,225.91 3180.98,224.466 3179.04,225.151C3176.14,226.173 3173.53,227.756 3171.33,229.902C3169.85,231.336 3169.89,233.805 3171.33,235.245C3172.8,236.717 3175.19,236.681 3176.67,235.245Z" style="fill:rgb(237,186,58);fill-rule:nonzero;"/>
        <path d="M2964.3,356.927C2967.37,354.444 2971.38,354.479 2975.12,354.188C2979.11,353.879 2982.89,353.048 2986.21,350.716C2990.16,347.933 2986.39,341.377 2982.39,344.189C2978.87,346.663 2974.92,346.597 2970.8,346.971C2966.28,347.38 2962.49,348.719 2958.95,351.582C2955.16,354.647 2960.54,359.96 2964.3,356.927Z" style="fill:rgb(237,186,58);fill-rule:nonzero;"/>
        <path d="M2913.49,385.601C2911.95,383.453 2911.13,381.362 2911.61,378.688C2911.97,376.662 2911.09,374.623 2908.97,374.04C2907.12,373.532 2904.68,374.649 2904.32,376.678C2903.5,381.295 2904.19,385.563 2906.97,389.416C2908.17,391.083 2910.23,391.888 2912.14,390.772C2913.79,389.805 2914.7,387.276 2913.49,385.601Z" style="fill:rgb(237,186,58);fill-rule:nonzero;"/>
        <path d="M2903.29,350.982C2902.69,347.305 2902.11,343.48 2904.42,340.29C2907.29,336.338 2900.73,332.572 2897.9,336.476C2894.36,341.355 2895.09,347.4 2896.01,352.992C2896.79,357.792 2904.08,355.749 2903.29,350.982Z" style="fill:rgb(237,186,58);fill-rule:nonzero;"/>
        <path d="M2956.09,453.657C2959.82,459.213 2968.68,454.401 2971.85,450.643C2973.18,449.072 2973.4,446.845 2971.85,445.299C2970.49,443.933 2967.84,443.725 2966.51,445.299C2965.45,446.549 2964.29,447.361 2962.82,448.066C2962.43,448.252 2961.71,448.415 2961.19,448.534C2961.87,448.377 2960.91,448.547 2960.79,448.55C2960.93,448.576 2961.08,448.604 2961.22,448.631C2960.33,448.373 2960.79,448.777 2962.62,449.843C2959.92,445.818 2953.37,449.596 2956.09,453.657Z" style="fill:rgb(237,186,58);fill-rule:nonzero;"/>
        <path d="M2975.09,416.477C2975.16,416.278 2975.23,416.082 2975.31,415.887C2975.13,416.301 2975.13,416.311 2975.31,415.917C2975.54,415.436 2975.83,414.985 2976.13,414.546C2975.85,414.889 2975.85,414.898 2976.13,414.573C2976.33,414.337 2976.56,414.128 2976.8,413.922C2976.43,414.192 2976.43,414.208 2976.78,413.968C2976.93,413.867 2977.81,413.526 2976.99,413.825C2978.92,413.116 2980.21,411.289 2979.63,409.177C2979.12,407.317 2976.91,405.827 2974.98,406.538C2971.29,407.892 2969.07,410.842 2967.81,414.468C2967.13,416.414 2968.56,418.598 2970.45,419.116C2972.53,419.69 2974.42,418.421 2975.09,416.477Z" style="fill:rgb(237,186,58);fill-rule:nonzero;"/>
        <path d="M2986.32,441.034C2990.69,441.871 2995.18,443.4 2999.68,442.878C3005.29,442.227 3008.85,438.225 3010.99,433.251C3012.89,428.824 3006.38,424.97 3004.46,429.436C3003.18,432.417 3001.74,435.269 2998.18,435.443C2994.9,435.604 2991.52,434.358 2988.33,433.746C2983.56,432.835 2981.53,440.118 2986.32,441.034Z" style="fill:rgb(237,186,58);fill-rule:nonzero;"/>
        <path d="M3027.77,421.003C3030.63,418.834 3033.24,416.368 3036.09,414.201C3037.72,412.957 3038.58,410.971 3037.44,409.03C3036.5,407.414 3033.92,406.425 3032.27,407.675C3029.42,409.845 3026.81,412.309 3023.96,414.477C3022.32,415.721 3021.47,417.707 3022.6,419.647C3023.55,421.263 3026.13,422.253 3027.77,421.003Z" style="fill:rgb(237,186,58);fill-rule:nonzero;"/>
        <path d="M3007.59,415.721C3009.31,410.501 3010.62,405.129 3009.99,399.601C3009.45,394.815 3001.89,394.762 3002.44,399.601C3002.99,404.53 3001.83,409.061 3000.3,413.712C2998.78,418.355 3006.08,420.329 3007.59,415.721Z" style="fill:rgb(237,186,58);fill-rule:nonzero;"/>
        <path d="M3008.13,396.227C3008.97,395.183 3011.49,394.554 3013.11,394.06C3015.43,393.35 3017.8,392.775 3020.07,391.908C3024.57,390.189 3022.62,382.879 3018.06,384.621C3015.34,385.656 3012.5,386.321 3009.73,387.197C3007.37,387.943 3004.4,388.868 3002.79,390.883C3001.5,392.489 3001.21,394.651 3002.79,396.227C3004.12,397.562 3006.84,397.838 3008.13,396.227Z" style="fill:rgb(237,186,58);fill-rule:nonzero;"/>
        <path d="M3042.14,397.739C3044.39,395.532 3046.89,393.723 3049.69,392.284C3054.03,390.055 3050.2,383.534 3045.88,385.758C3042.54,387.472 3039.47,389.767 3036.8,392.394C3033.32,395.813 3038.66,401.154 3042.14,397.739Z" style="fill:rgb(237,186,58);fill-rule:nonzero;"/>
        <path d="M3046.68,408.319C3049.99,405.053 3053.63,402.154 3057.26,399.25C3058.87,397.961 3058.59,395.241 3057.26,393.906C3055.68,392.329 3053.52,392.62 3051.91,393.906C3048.28,396.809 3044.64,399.708 3041.33,402.975C3037.86,406.402 3043.21,411.744 3046.68,408.319Z" style="fill:rgb(237,186,58);fill-rule:nonzero;"/>
        <path d="M2929.63,278.541C2935.04,280 2940.12,277.911 2945.22,275.822C2949.35,274.135 2953.49,272.447 2957.85,272.63C2962.72,272.835 2962.7,265.277 2957.85,265.072C2953.06,264.871 2948.56,266.278 2944.15,267.983C2940.53,269.382 2935.64,272.331 2931.64,271.254C2926.93,269.982 2924.93,277.273 2929.63,278.541Z" style="fill:rgb(237,186,58);fill-rule:nonzero;"/>
        <path d="M2949.78,310.284C2952.23,309.479 2955.01,309.949 2957.54,310.103C2960.53,310.285 2963.48,310.236 2966.41,309.528C2971.14,308.382 2969.13,301.094 2964.4,302.24C2961.83,302.861 2959.19,302.671 2956.55,302.482C2953.59,302.269 2950.63,302.056 2947.77,302.996C2943.16,304.512 2945.14,311.81 2949.78,310.284Z" style="fill:rgb(237,186,58);fill-rule:nonzero;"/>
        <path d="M2980.16,304.613C2983.4,303.018 2986.75,301.672 2989.98,300.078C2991.83,299.168 2992.32,296.588 2991.34,294.908C2990.24,293.038 2988.02,292.641 2986.17,293.552C2982.93,295.146 2979.58,296.492 2976.34,298.087C2974.5,298.997 2974,301.576 2974.99,303.257C2976.08,305.126 2978.31,305.523 2980.16,304.613Z" style="fill:rgb(237,186,58);fill-rule:nonzero;"/>
        <path d="M2978.25,330.069C2980.88,330.068 2983.53,329.963 2986.06,329.179C2988.02,328.569 2989.26,326.564 2988.7,324.53C2988.16,322.593 2986.02,321.281 2984.05,321.89C2982.12,322.488 2980.3,322.51 2978.25,322.512C2976.19,322.513 2974.47,324.229 2974.47,326.291C2974.47,328.35 2976.19,330.07 2978.25,330.069Z" style="fill:rgb(237,186,58);fill-rule:nonzero;"/>
        <path d="M3001.68,327.047C3007.15,326.98 3012.25,325.864 3017.19,323.508C3021.59,321.411 3017.75,314.897 3013.38,316.981C3009.66,318.75 3005.77,319.438 3001.68,319.488C2996.81,319.548 2996.8,327.105 3001.68,327.047Z" style="fill:rgb(237,186,58);fill-rule:nonzero;"/>
        <path d="M3027.78,318.382C3031.56,314.603 3035.34,310.824 3039.12,307.045C3042.57,303.596 3037.22,298.251 3033.77,301.701C3030,305.479 3026.22,309.258 3022.44,313.038C3018.99,316.486 3024.33,321.831 3027.78,318.382Z" style="fill:rgb(237,186,58);fill-rule:nonzero;"/>
        <path d="M2902.32,286.639C2906.58,283.209 2911.69,281.053 2916.67,278.916C2918.57,278.104 2918.97,275.356 2918.03,273.746C2916.89,271.807 2914.75,271.578 2912.86,272.39C2907.19,274.822 2901.81,277.401 2896.98,281.295C2893.18,284.355 2898.57,289.667 2902.32,286.639Z" style="fill:rgb(237,186,58);fill-rule:nonzero;"/>
        <path d="M3057.77,519.758C2948.62,519.758 2860.12,432.724 2860.12,325.363C2860.12,218.001 2948.62,130.967 3057.77,130.967C3166.93,130.967 3255.42,218.001 3255.42,325.363C3255.42,432.724 3166.93,519.758 3057.77,519.758ZM3057.88,493.11C3058.13,493.111 3058.39,493.111 3058.64,493.111C3151.94,493.111 3227.57,417.477 3227.57,324.178C3227.57,255.763 3186.91,196.851 3128.43,170.289C3128.59,170.21 3128.75,170.13 3128.91,170.051C3107.34,160.055 3083.31,154.467 3057.97,154.467C3014.07,154.467 2974.07,171.221 2944.03,198.684C2909.75,229.603 2888.19,274.373 2888.19,324.178C2888.19,417.477 2963.83,493.111 3057.13,493.111C3057.38,493.111 3057.63,493.111 3057.88,493.11Z" style="fill:rgb(116,100,76);fill-rule:nonzero;"/>
        <path d="M3058.64,493.111C3058.39,493.111 3058.13,493.111 3057.88,493.11C3096.68,492.939 3132.38,479.687 3160.82,457.543C3160.78,457.542 3160.72,457.541 3160.68,457.54C3200.94,426.663 3226.91,378.062 3226.91,323.4C3226.91,309.437 3225.2,295.874 3222.01,282.897C3211.47,290.456 3198.06,297.378 3190.86,302.498C3176.36,312.813 3162.19,323.467 3148.23,334.344C3145.46,330.446 3142.17,326.882 3138.52,323.798C3137.5,322.945 3136.47,322.159 3135.42,321.437C3135.52,320.665 3135.38,319.854 3134.94,319.093C3134.26,317.944 3132.91,317.2 3131.58,317.2C3130.95,317.2 3130.32,317.367 3129.77,317.737C3129.62,317.835 3129.48,317.933 3129.33,318.032C3128.16,317.509 3126.98,317.046 3125.77,316.637C3141.25,305.367 3156.38,294.037 3170.91,281.6C3181.57,272.473 3197.46,260.61 3212.03,253.985C3207.73,244.443 3202.55,235.38 3196.62,226.882C3189.48,236.533 3178.4,244.538 3165.51,250.342C3127.59,267.413 3094.02,275.333 3061.33,302.872C3054.83,308.343 3048.25,313.775 3041.57,319.121C3037.13,318.782 3032.87,318.139 3029.08,317.079C3032.43,313.734 3035.77,310.389 3039.12,307.045C3041.78,304.381 3039.2,300.586 3036.3,300.586C3035.44,300.586 3034.56,300.916 3033.77,301.701C3030,305.479 3026.22,309.258 3022.44,313.038C3022.11,313.366 3021.86,313.711 3021.68,314.064C3019.99,313.078 3018.52,311.928 3017.32,310.593C3017.1,309.946 3016.67,309.344 3015.98,308.863C3014.35,306.363 3013.53,303.319 3013.78,299.629C3013.86,298.316 3014.06,297.059 3014.34,295.85C3018.91,294.759 3022.93,292.155 3026.27,288.907C3028.98,286.271 3026.38,282.474 3023.45,282.474C3022.78,282.474 3022.1,282.669 3021.46,283.119C3027.31,276.423 3035.12,270.729 3039.94,263.407C3040.28,263.498 3040.62,263.544 3040.96,263.544C3041.93,263.544 3042.91,263.176 3043.65,262.454C3045.23,260.918 3046.96,259.826 3048.93,258.51C3050.64,257.37 3051.38,255.197 3050.29,253.34C3049.62,252.189 3048.27,251.449 3046.93,251.449C3046.3,251.449 3045.67,251.616 3045.12,251.984C3044.79,252.204 3044.46,252.423 3044.13,252.643C3044.54,249.567 3044.39,246.186 3043.47,242.399C3041.65,234.836 3028.02,227.478 3028.08,221.237C3028.09,219.926 3029.08,218.508 3030.6,217.088C3030.27,218.052 3030.33,219.129 3030.92,220.121C3031.59,221.27 3032.94,222.014 3034.28,222.014C3034.91,222.014 3035.54,221.847 3036.09,221.477C3038.82,219.641 3041.47,217.693 3044.4,216.186C3047.93,214.376 3046.06,209.726 3042.91,209.246C3044.3,208.509 3045.5,207.889 3046.31,207.429C3049.88,205.412 3056.24,202.264 3060,198.945C3065.09,198.108 3070.18,197.306 3075.26,195.89C3091.39,191.396 3106.16,182.31 3120.64,174.362C3123.12,173.003 3125.73,171.627 3128.43,170.289C3186.91,196.851 3227.57,255.763 3227.57,324.178C3227.57,417.477 3151.94,493.111 3058.64,493.111ZM3194.42,286.196C3194.08,286.196 3193.73,286.251 3193.4,286.369C3190.13,287.518 3187.39,289.461 3184.93,291.875C3182.23,294.52 3184.83,298.316 3187.75,298.317C3188.6,298.317 3189.49,297.992 3190.27,297.22C3191.11,296.395 3191.95,295.631 3192.91,294.977C3193.39,294.645 3193.91,294.358 3194.42,294.081C3194.67,293.952 3194.92,293.83 3195.18,293.716C3195.06,293.771 3195.01,293.799 3195.02,293.799C3195.04,293.799 3195.17,293.751 3195.41,293.657C3197.35,292.974 3198.62,291.099 3198.05,289.009C3197.62,287.453 3196.05,286.196 3194.42,286.196ZM3056.1,277.871C3055.49,277.871 3054.85,278.042 3054.19,278.436C3050.19,280.838 3046.21,283.313 3042.84,286.585C3040.14,289.22 3042.73,293.018 3045.66,293.018C3046.52,293.018 3047.4,292.696 3048.19,291.929C3051.09,289.101 3054.54,287.038 3058,284.962C3061.52,282.85 3059.37,277.871 3056.1,277.871ZM3206.41,264.3C3205.78,264.3 3205.14,264.466 3204.59,264.832C3202.6,266.142 3200.53,267.302 3198.54,268.612C3196.83,269.744 3196.1,271.931 3197.19,273.781C3197.86,274.936 3199.21,275.67 3200.54,275.67C3201.17,275.67 3201.8,275.504 3202.36,275.137C3204.34,273.827 3206.42,272.668 3208.4,271.358C3210.12,270.225 3210.84,268.039 3209.76,266.188C3209.08,265.034 3207.74,264.3 3206.41,264.3ZM3105.08,249.915C3104.46,249.915 3103.84,250.085 3103.32,250.473C3100.21,252.757 3096.79,254.55 3093.49,256.518C3089.96,258.62 3092.12,263.605 3095.4,263.605C3096.01,263.605 3096.65,263.435 3097.3,263.045C3100.61,261.076 3104.02,259.283 3107.13,256.998C3108.78,255.78 3109.61,253.747 3108.49,251.829C3107.83,250.71 3106.43,249.915 3105.08,249.915ZM3157.54,225.805C3156.56,225.805 3155.56,226.211 3154.7,226.879C3151.03,229.733 3146.75,231.776 3142.61,233.845C3138.86,235.721 3141.18,240.809 3144.66,240.809C3145.23,240.809 3145.82,240.675 3146.43,240.372C3151.21,237.981 3155.82,235.512 3160.04,232.223C3161.67,230.955 3161.36,228.2 3160.04,226.879C3159.29,226.128 3158.42,225.805 3157.54,225.805ZM3107.5,227.251C3107.16,227.251 3106.82,227.304 3106.49,227.418C3104.44,228.113 3102.48,228.991 3100.44,229.686C3098.49,230.349 3097.23,232.258 3097.8,234.334C3098.23,235.905 3099.8,237.14 3101.43,237.14C3101.77,237.14 3102.11,237.087 3102.45,236.973C3104.49,236.28 3106.46,235.4 3108.49,234.706C3110.44,234.043 3111.7,232.134 3111.13,230.058C3110.7,228.487 3109.13,227.251 3107.5,227.251ZM3067.48,221.122C3066.86,221.122 3066.2,221.313 3065.53,221.753C3060.71,224.906 3055.55,227.494 3050.41,230.066C3046.66,231.942 3048.97,237.029 3052.46,237.03C3053.02,237.03 3053.62,236.896 3054.22,236.592C3059.37,234.02 3064.52,231.431 3069.34,228.279C3072.73,226.06 3070.65,221.122 3067.48,221.122ZM3180.06,224.978C3179.72,224.978 3179.38,225.032 3179.04,225.151C3176.14,226.173 3173.53,227.756 3171.33,229.902C3169.85,231.336 3169.89,233.805 3171.33,235.245C3172.06,235.977 3173.02,236.336 3173.98,236.336C3174.95,236.336 3175.93,235.968 3176.67,235.245C3177.88,234.07 3179.58,232.956 3181.05,232.439C3182.99,231.754 3184.26,229.882 3183.69,227.79C3183.26,226.235 3181.69,224.978 3180.06,224.978ZM3066.72,202.978C3066.68,203.008 3066.62,203.051 3066.54,203.107C3066.1,203.407 3065.62,203.655 3065.15,203.897C3064.28,204.34 3063.38,204.699 3062.5,205.126C3060.65,206.03 3060.17,208.62 3061.15,210.296C3061.87,211.53 3063.08,212.119 3064.35,212.119C3065.01,212.119 3065.69,211.96 3066.32,211.651C3068.48,210.593 3070.59,209.736 3072.37,208.037C3073.86,206.617 3073.8,204.123 3072.37,202.693C3071.64,201.96 3070.69,201.605 3069.74,201.605C3068.76,201.605 3067.78,201.976 3067.03,202.693C3066.93,202.791 3066.83,202.886 3066.72,202.978ZM3114.92,192.586C3114.35,192.586 3113.75,192.723 3113.14,193.033C3110.32,194.463 3107.64,196.138 3104.83,197.568C3101.09,199.463 3103.39,204.541 3106.86,204.541C3107.43,204.541 3108.03,204.404 3108.64,204.094C3111.46,202.664 3114.14,200.989 3116.96,199.559C3120.69,197.664 3118.39,192.586 3114.92,192.586Z" style="fill:rgb(239,133,44);fill-rule:nonzero;"/>
        <path d="M3060,198.945C3064.09,195.333 3065.11,191.519 3056.1,188.738L3047.03,179.669C3045.47,176.911 3042.76,175.521 3039.43,175.047C3045.96,167.869 3053.09,161.257 3060.76,155.29C3059.55,155.264 3058.34,155.244 3057.13,155.244C3013.63,155.244 2973.98,171.682 2944.03,198.684C2974.07,171.221 3014.07,154.467 3057.97,154.467C3083.31,154.467 3107.34,160.055 3128.91,170.051C3128.75,170.13 3128.59,170.21 3128.43,170.289C3125.73,171.627 3123.12,173.003 3120.64,174.362C3106.16,182.31 3091.39,191.396 3075.26,195.89C3070.18,197.306 3065.09,198.108 3060,198.945Z" style="fill:rgb(240,160,54);fill-rule:nonzero;"/>
        <path d="M3050.25,319.431C3047.32,319.431 3044.41,319.338 3041.57,319.121C3048.25,313.775 3054.83,308.343 3061.33,302.872C3094.02,275.333 3127.59,267.413 3165.51,250.342C3178.4,244.538 3189.48,236.533 3196.62,226.882C3202.55,235.38 3207.73,244.443 3212.03,253.985C3197.46,260.61 3181.57,272.473 3170.91,281.6C3156.38,294.037 3141.25,305.367 3125.77,316.637C3120.07,314.698 3114.02,313.992 3107.87,313.992C3100.17,313.992 3092.33,315.097 3084.82,316.278C3078.37,317.291 3064.23,319.431 3050.25,319.431Z" style="fill:rgb(240,160,54);fill-rule:nonzero;"/>
        <path d="M3160.68,457.54C3139.81,457.084 3119.89,452.847 3101.55,445.484C3107.52,441.678 3112.69,437.965 3115.8,435.123C3136.9,415.88 3143.53,404.472 3154.85,375.846C3160.46,361.665 3156.81,346.403 3148.23,334.344C3162.19,323.467 3176.36,312.813 3190.86,302.498C3198.06,297.378 3211.47,290.456 3222.01,282.897C3225.2,295.874 3226.91,309.437 3226.91,323.4C3226.91,378.062 3200.94,426.663 3160.68,457.54Z" style="fill:rgb(240,160,54);fill-rule:nonzero;"/>
        <path d="M3014.34,295.85C3015.5,290.977 3018.17,286.889 3021.46,283.119C3022.1,282.669 3022.78,282.474 3023.45,282.474C3026.38,282.474 3028.98,286.271 3026.27,288.907C3022.93,292.155 3018.91,294.759 3014.34,295.85Z" style="fill:rgb(239,194,58);fill-rule:nonzero;"/>
        <path d="M3045.66,293.018C3042.73,293.018 3040.14,289.22 3042.84,286.585C3046.21,283.313 3050.19,280.838 3054.19,278.436C3054.85,278.042 3055.49,277.871 3056.1,277.871C3059.37,277.871 3061.52,282.85 3058,284.962C3054.54,287.038 3051.09,289.101 3048.19,291.929C3047.4,292.696 3046.52,293.018 3045.66,293.018Z" style="fill:rgb(239,194,58);fill-rule:nonzero;"/>
        <path d="M3095.4,263.605C3092.12,263.605 3089.96,258.62 3093.49,256.518C3096.79,254.55 3100.21,252.757 3103.32,250.473C3103.84,250.085 3104.46,249.915 3105.08,249.915C3106.43,249.915 3107.83,250.71 3108.49,251.829C3109.61,253.747 3108.78,255.78 3107.13,256.998C3104.02,259.283 3100.61,261.076 3097.3,263.045C3096.65,263.435 3096.01,263.605 3095.4,263.605Z" style="fill:rgb(239,194,58);fill-rule:nonzero;"/>
        <path d="M3101.43,237.14C3099.8,237.14 3098.23,235.905 3097.8,234.334C3097.23,232.258 3098.49,230.349 3100.44,229.686C3102.48,228.991 3104.44,228.113 3106.49,227.418C3106.82,227.304 3107.16,227.251 3107.5,227.251C3109.13,227.251 3110.7,228.487 3111.13,230.058C3111.7,232.134 3110.44,234.043 3108.49,234.706C3106.46,235.4 3104.49,236.28 3102.45,236.973C3102.11,237.087 3101.77,237.14 3101.43,237.14Z" style="fill:rgb(239,194,58);fill-rule:nonzero;"/>
        <path d="M3106.86,204.541C3103.39,204.541 3101.09,199.463 3104.83,197.568C3107.64,196.138 3110.32,194.463 3113.14,193.033C3113.75,192.723 3114.35,192.586 3114.92,192.586C3118.39,192.586 3120.69,197.664 3116.96,199.559C3114.14,200.989 3111.46,202.664 3108.64,204.094C3108.03,204.404 3107.43,204.541 3106.86,204.541Z" style="fill:rgb(239,194,58);fill-rule:nonzero;"/>
        <path d="M3017.32,310.593C3016.83,310.048 3016.38,309.472 3015.98,308.863C3016.67,309.344 3017.1,309.946 3017.32,310.593Z" style="fill:rgb(239,194,58);fill-rule:nonzero;"/>
        <path d="M3135.42,321.437C3133.45,320.092 3131.42,318.967 3129.33,318.032C3129.48,317.933 3129.62,317.835 3129.77,317.737C3130.32,317.367 3130.95,317.2 3131.58,317.2C3132.91,317.2 3134.26,317.944 3134.94,319.093C3135.38,319.854 3135.52,320.665 3135.42,321.437Z" style="fill:rgb(239,194,58);fill-rule:nonzero;"/>
        <path d="M3187.75,298.317C3184.83,298.316 3182.23,294.52 3184.93,291.875C3187.39,289.461 3190.13,287.518 3193.4,286.369C3193.73,286.251 3194.08,286.196 3194.42,286.196C3196.05,286.196 3197.62,287.453 3198.05,289.009C3198.62,291.099 3197.35,292.974 3195.41,293.657C3195.17,293.751 3195.04,293.799 3195.02,293.799C3195.01,293.799 3195.06,293.771 3195.18,293.716C3194.92,293.83 3194.67,293.952 3194.42,294.081C3193.91,294.358 3193.39,294.645 3192.91,294.977C3191.95,295.631 3191.11,296.395 3190.27,297.22C3189.49,297.992 3188.6,298.317 3187.75,298.317Z" style="fill:rgb(239,194,58);fill-rule:nonzero;"/>
        <path d="M3200.54,275.67C3199.21,275.67 3197.86,274.936 3197.19,273.781C3196.1,271.931 3196.83,269.744 3198.54,268.612C3200.53,267.302 3202.6,266.142 3204.59,264.832C3205.14,264.466 3205.78,264.3 3206.41,264.3C3207.74,264.3 3209.08,265.034 3209.76,266.188C3210.84,268.039 3210.12,270.225 3208.4,271.358C3206.42,272.668 3204.34,273.827 3202.36,275.137C3201.8,275.504 3201.17,275.67 3200.54,275.67Z" style="fill:rgb(239,194,58);fill-rule:nonzero;"/>
        <path d="M3052.46,237.03C3048.97,237.029 3046.66,231.942 3050.41,230.066C3055.55,227.494 3060.71,224.906 3065.53,221.753C3066.2,221.313 3066.86,221.122 3067.48,221.122C3070.65,221.122 3072.73,226.06 3069.34,228.279C3064.52,231.431 3059.37,234.02 3054.22,236.592C3053.62,236.896 3053.02,237.03 3052.46,237.03Z" style="fill:rgb(239,194,58);fill-rule:nonzero;"/>
        <path d="M3034.28,222.014C3032.94,222.014 3031.59,221.27 3030.92,220.121C3030.33,219.129 3030.27,218.052 3030.6,217.088C3033.72,214.186 3039.07,211.274 3042.91,209.246C3046.06,209.726 3047.93,214.376 3044.4,216.186C3041.47,217.693 3038.82,219.641 3036.09,221.477C3035.54,221.847 3034.91,222.014 3034.28,222.014Z" style="fill:rgb(239,194,58);fill-rule:nonzero;"/>
        <path d="M3064.35,212.119C3063.08,212.119 3061.87,211.53 3061.15,210.296C3060.17,208.62 3060.65,206.03 3062.5,205.126C3063.38,204.699 3064.28,204.34 3065.15,203.897C3065.62,203.655 3066.1,203.407 3066.54,203.107C3066.62,203.051 3066.68,203.008 3066.72,202.978C3066.83,202.886 3066.93,202.791 3067.03,202.693C3067.78,201.976 3068.76,201.605 3069.74,201.605C3070.69,201.605 3071.64,201.96 3072.37,202.693C3073.8,204.123 3073.86,206.617 3072.37,208.037C3070.59,209.736 3068.48,210.593 3066.32,211.651C3065.69,211.96 3065.01,212.119 3064.35,212.119Z" style="fill:rgb(239,194,58);fill-rule:nonzero;"/>
        <path d="M3040.96,263.544C3040.62,263.544 3040.28,263.498 3039.94,263.407C3042.05,260.204 3043.59,256.688 3044.13,252.643C3044.46,252.423 3044.79,252.204 3045.12,251.984C3045.67,251.616 3046.3,251.449 3046.93,251.449C3048.27,251.449 3049.62,252.189 3050.29,253.34C3051.38,255.197 3050.64,257.37 3048.93,258.51C3046.96,259.826 3045.23,260.918 3043.65,262.454C3042.91,263.176 3041.93,263.544 3040.96,263.544Z" style="fill:rgb(239,194,58);fill-rule:nonzero;"/>
        <path d="M3144.66,240.809C3141.18,240.809 3138.86,235.721 3142.61,233.845C3146.75,231.776 3151.03,229.733 3154.7,226.879C3155.56,226.211 3156.56,225.805 3157.54,225.805C3158.42,225.805 3159.29,226.128 3160.04,226.879C3161.36,228.2 3161.67,230.955 3160.04,232.223C3155.82,235.512 3151.21,237.981 3146.43,240.372C3145.82,240.675 3145.23,240.809 3144.66,240.809Z" style="fill:rgb(239,194,58);fill-rule:nonzero;"/>
        <path d="M3173.98,236.336C3173.02,236.336 3172.06,235.977 3171.33,235.245C3169.89,233.805 3169.85,231.336 3171.33,229.902C3173.53,227.756 3176.14,226.173 3179.04,225.151C3179.38,225.032 3179.72,224.978 3180.06,224.978C3181.69,224.978 3183.26,226.235 3183.69,227.79C3184.26,229.882 3182.99,231.754 3181.05,232.439C3179.58,232.956 3177.88,234.07 3176.67,235.245C3175.93,235.968 3174.95,236.336 3173.98,236.336Z" style="fill:rgb(239,194,58);fill-rule:nonzero;"/>
        <path d="M3029.08,317.079C3026.34,316.309 3023.83,315.318 3021.68,314.064C3021.86,313.711 3022.11,313.366 3022.44,313.038C3026.22,309.258 3030,305.479 3033.77,301.701C3034.56,300.916 3035.44,300.586 3036.3,300.586C3039.2,300.586 3041.78,304.381 3039.12,307.045C3035.77,310.389 3032.43,313.734 3029.08,317.079Z" style="fill:rgb(239,194,58);fill-rule:nonzero;"/>
        <path d="M3057.13,493.111C2963.83,493.111 2888.19,417.477 2888.19,324.178C2888.19,274.373 2909.75,229.603 2944.03,198.684C2921.52,219.267 2904.6,245.865 2895.81,275.936C2896.15,275.778 2896.49,275.62 2896.84,275.465C2892.2,290.89 2889.71,307.242 2889.71,324.178C2889.71,349.399 2895.23,373.329 2905.14,394.824C2905.05,394.829 2904.95,394.834 2904.86,394.84C2910.77,407.482 2918.19,419.269 2926.9,429.971C2926.91,429.969 2926.92,429.965 2926.92,429.963C2957.74,468.286 3004.93,492.879 3057.88,493.11C3057.63,493.111 3057.38,493.111 3057.13,493.111Z" style="fill:rgb(157,143,72);fill-rule:nonzero;"/>
        <path d="M3057.88,493.11C3004.93,492.879 2957.74,468.286 2926.92,429.963C2941.16,423.29 2953.94,414.872 2966.81,406.061C2965.35,412.134 2965.13,417.551 2965.91,422.334C2965.29,421.873 2964.52,421.585 2963.64,421.585C2963.4,421.585 2963.15,421.607 2962.89,421.653C2953.05,423.397 2943.49,427.553 2937.95,436.238C2936.12,439.108 2938.74,441.814 2941.38,441.814C2942.53,441.814 2943.69,441.298 2944.48,440.053C2948.94,433.064 2957.11,430.321 2964.9,428.941C2966.02,428.742 2966.77,428.19 2967.19,427.473C2967.97,429.724 2968.99,431.806 2970.21,433.722C2966.7,435.66 2963.07,437.312 2959.11,438.281C2954.72,439.352 2956.13,445.692 2960.12,445.692C2960.44,445.692 2960.77,445.653 2961.12,445.568C2966.13,444.345 2970.7,442.149 2975.12,439.617C2978.02,442.341 2981.43,444.562 2985.14,446.303C2984.91,446.526 2984.67,446.743 2984.42,446.956C2984.24,447.105 2984.06,447.251 2983.88,447.395C2984.04,447.27 2984.09,447.223 2984.09,447.223C2984.07,447.223 2983.56,447.61 2983.52,447.637C2982.68,448.234 2981.8,448.772 2980.88,449.243C2979.05,450.181 2978.52,452.711 2979.52,454.413C2980.24,455.636 2981.47,456.245 2982.75,456.245C2983.4,456.245 2984.07,456.086 2984.69,455.769C2986.89,454.642 2988.98,453.123 2990.75,451.399C2991.46,450.707 2991.82,449.778 2991.84,448.839C2996.53,450.236 3001.47,450.988 3006.35,451.129C2997.18,458.536 2987.85,465.673 2978.15,472.315C3001.93,485.084 3029.1,492.334 3057.97,492.334C3096.61,492.334 3132.22,479.365 3160.68,457.54C3160.72,457.541 3160.78,457.542 3160.82,457.543C3132.38,479.687 3096.68,492.939 3057.88,493.11ZM2959.48,448.124C2956.81,448.124 2954.19,450.821 2956.09,453.657C2957.31,455.472 2959.08,456.181 2961.01,456.181C2965,456.181 2969.71,453.173 2971.85,450.643C2973.18,449.072 2973.4,446.845 2971.85,445.299C2971.15,444.592 2970.1,444.195 2969.06,444.195C2968.1,444.195 2967.15,444.539 2966.51,445.299C2965.45,446.549 2964.29,447.361 2962.82,448.066C2962.43,448.252 2961.71,448.415 2961.19,448.534C2961.4,448.484 2961.46,448.468 2961.42,448.468C2961.39,448.468 2961.26,448.485 2961.13,448.504C2960.61,448.243 2960.04,448.124 2959.48,448.124ZM2905.14,394.824C2895.23,373.329 2889.71,349.399 2889.71,324.178C2889.71,307.242 2892.2,290.89 2896.84,275.465C2909.52,269.697 2923.58,265.775 2931.66,263.496C2936.75,262.064 2941.66,260.369 2946.42,258.462C2945.74,259.14 2945.08,259.824 2944.43,260.519C2941.05,264.132 2937.69,267.722 2934.52,271.426C2934.17,271.465 2933.82,271.486 2933.48,271.486C2932.85,271.486 2932.24,271.414 2931.64,271.254C2931.27,271.152 2930.91,271.105 2930.57,271.105C2926.87,271.105 2925.46,276.703 2928.97,278.304C2927.6,280.129 2926.29,281.998 2925.05,283.925C2921.44,285.861 2917.32,286.908 2913.48,288.192C2908.18,289.97 2903.17,292.331 2899.25,296.41C2896.65,299.112 2899.21,302.904 2902.07,302.904C2902.93,302.904 2903.81,302.565 2904.59,301.755C2908.4,297.799 2913.41,296.141 2918.51,294.489C2918.84,294.382 2919.17,294.274 2919.5,294.165C2917.8,298.022 2916.52,302.052 2915.68,306.108C2915.06,305.516 2914.24,305.135 2913.26,305.135C2912.94,305.135 2912.6,305.176 2912.25,305.264C2909.23,306.02 2906.2,306.775 2903.18,307.531C2898.81,308.624 2900.2,314.948 2904.18,314.948C2904.5,314.948 2904.84,314.907 2905.19,314.819C2908.21,314.063 2911.24,313.307 2914.26,312.552C2914.43,312.509 2914.59,312.459 2914.74,312.402C2914.65,313.435 2914.58,314.464 2914.55,315.488C2906.78,315.645 2897.26,319.776 2896.63,327.802C2896.44,330.228 2898.22,331.435 2900.11,331.435C2902,331.435 2904,330.219 2904.18,327.802C2904.31,326.15 2907.84,324.724 2909.06,324.235C2910.84,323.521 2912.9,322.956 2914.9,322.951C2915.27,325.872 2915.94,328.689 2916.9,331.344C2915.48,331.612 2914.01,331.726 2912.52,331.726C2911.51,331.726 2910.49,331.674 2909.48,331.581C2909.34,331.568 2909.2,331.562 2909.07,331.562C2904.63,331.562 2904.8,338.712 2909.48,339.138C2910.52,339.234 2911.57,339.283 2912.6,339.283C2915.27,339.283 2917.9,338.957 2920.4,338.256C2921.45,339.815 2922.65,341.27 2924.01,342.604C2916.96,343.371 2910.16,345.347 2904.54,350.07C2903.87,350.626 2903.5,351.25 2903.35,351.884C2903.36,351.596 2903.35,351.295 2903.29,350.982C2902.69,347.305 2902.11,343.48 2904.42,340.29C2906.44,337.515 2903.8,334.831 2901.07,334.831C2899.92,334.831 2898.74,335.313 2897.9,336.476C2894.36,341.355 2895.09,347.4 2896.01,352.992C2896.32,354.905 2897.67,355.731 2899.12,355.731C2900.91,355.731 2902.85,354.49 2903.27,352.488C2903.23,354.468 2905.21,356.358 2907.39,356.359C2908.22,356.359 2909.09,356.078 2909.88,355.415C2916.15,350.147 2925.09,349.75 2932.9,349.72C2933.64,349.717 2934.26,349.544 2934.77,349.252C2936.33,349.807 2937.99,350.264 2939.74,350.614C2939.7,352.646 2941.3,354.93 2943.8,354.931C2944.03,354.931 2944.25,354.913 2944.49,354.875C2948,354.317 2951.29,352.898 2954.28,350.956C2954.54,350.936 2954.81,350.915 2955.08,350.894C2956.8,350.764 2958.57,350.634 2960.34,350.545C2959.87,350.866 2959.41,351.211 2958.95,351.582C2955.96,354.005 2958.69,357.831 2961.82,357.832C2962.65,357.832 2963.51,357.563 2964.3,356.927C2967.37,354.444 2971.38,354.479 2975.12,354.188C2976.24,354.101 2977.34,353.973 2978.43,353.783C2979.16,354.35 2979.82,355.007 2980.38,355.766C2981.57,357.358 2982.24,359.189 2982.52,361.173C2979.86,362.797 2977.18,364.389 2974.49,365.949C2956.28,376.495 2937.43,389.717 2916.55,393.569C2912.68,394.283 2908.88,394.61 2905.14,394.824ZM2908.04,373.918C2906.39,373.918 2904.62,374.978 2904.32,376.678C2903.5,381.295 2904.19,385.563 2906.97,389.416C2907.79,390.552 2909.01,391.288 2910.3,391.288C2910.91,391.288 2911.53,391.127 2912.14,390.772C2913.79,389.805 2914.7,387.276 2913.49,385.601C2911.95,383.453 2911.13,381.362 2911.61,378.688C2911.97,376.662 2911.09,374.623 2908.97,374.04C2908.67,373.958 2908.35,373.918 2908.04,373.918ZM2920.27,372.626C2917.11,372.626 2914.34,376.46 2917.38,378.845C2920.76,381.492 2924.49,382.56 2928.35,382.56C2939.62,382.56 2952.05,373.502 2960.51,368.098C2963.94,365.907 2961.83,360.959 2958.64,360.959C2958.02,360.959 2957.36,361.145 2956.69,361.572C2951.44,364.933 2946.23,368.336 2940.63,371.12C2937.4,372.725 2932.32,375.095 2927.9,375.095C2925.99,375.095 2924.19,374.649 2922.73,373.5C2921.95,372.887 2921.09,372.626 2920.27,372.626ZM2915.39,357.214C2908.09,357.214 2901.9,360.789 2900.54,368.365C2900.03,371.231 2902.46,373.109 2904.66,373.109C2906.12,373.11 2907.49,372.285 2907.83,370.375C2908.66,365.732 2911.99,364.75 2915.78,364.75C2917.19,364.75 2918.66,364.885 2920.1,365.018C2923.77,365.358 2927.69,366.227 2931.51,366.227C2933.35,366.227 2935.18,366.023 2936.93,365.456C2941.12,364.101 2939.88,357.965 2936.14,357.965C2935.76,357.965 2935.35,358.029 2934.92,358.168C2933.44,358.647 2931.86,358.827 2930.23,358.827C2925.38,358.827 2920.07,357.244 2915.54,357.214L2915.39,357.214ZM2914.89,271.949C2914.22,271.949 2913.52,272.105 2912.86,272.39C2907.19,274.822 2901.81,277.401 2896.98,281.295C2893.98,283.714 2896.71,287.541 2899.85,287.542C2900.68,287.542 2901.54,287.273 2902.32,286.639C2906.58,283.209 2911.69,281.053 2916.67,278.916C2918.57,278.104 2918.97,275.356 2918.03,273.746C2917.29,272.487 2916.13,271.949 2914.89,271.949Z" style="fill:rgb(242,166,51);fill-rule:nonzero;"/>
        <path d="M2895.81,275.936C2904.6,245.865 2921.52,219.267 2944.03,198.684C2973.98,171.682 3013.63,155.244 3057.13,155.244C3058.34,155.244 3059.55,155.264 3060.76,155.29C3053.09,161.257 3045.96,167.869 3039.43,175.047C3038.5,174.915 3037.53,174.854 3036.52,174.854C3026.43,174.854 3012.74,180.964 3006.97,183.451C2993.81,189.123 2980.26,198.642 2972.33,210.822C2967.37,218.451 2969.56,226.5 2966.2,234.86C2962.25,244.664 2953.71,251.156 2946.42,258.462C2941.66,260.369 2936.75,262.064 2931.66,263.496C2923.58,265.775 2909.52,269.697 2896.84,275.465C2896.49,275.62 2896.15,275.778 2895.81,275.936Z" style="fill:rgb(243,184,58);fill-rule:nonzero;"/>
        <path d="M2926.9,429.971C2918.19,419.269 2910.77,407.482 2904.86,394.84C2904.95,394.834 2905.05,394.829 2905.14,394.824C2908.88,394.61 2912.68,394.283 2916.55,393.569C2937.43,389.717 2956.28,376.495 2974.49,365.949C2977.18,364.389 2979.86,362.797 2982.52,361.173C2983.9,371.03 2975.55,384.657 2972.19,391.55C2969.65,396.751 2967.89,401.585 2966.81,406.061C2953.94,414.872 2941.16,423.29 2926.92,429.963C2926.92,429.965 2926.91,429.969 2926.9,429.971Z" style="fill:rgb(243,184,58);fill-rule:nonzero;"/>
        <path d="M3057.97,492.334C3029.1,492.334 3001.93,485.084 2978.15,472.315C2987.85,465.673 2997.18,458.536 3006.35,451.129C3006.92,451.146 3007.48,451.154 3008.04,451.154C3017.05,451.154 3025.69,449.066 3031.88,445.101C3033.58,444.007 3034.99,443.532 3036.2,443.532C3040.16,443.532 3041.89,448.691 3044.68,453.851C3047.46,459.01 3051.31,464.17 3059.52,464.17C3061.61,464.171 3063.97,463.838 3066.68,463.087C3075.11,460.745 3089.86,452.935 3101.55,445.484C3119.89,452.847 3139.81,457.084 3160.68,457.54C3132.22,479.365 3096.61,492.334 3057.97,492.334Z" style="fill:rgb(243,184,58);fill-rule:nonzero;"/>
        <path d="M2902.07,302.904C2899.21,302.904 2896.65,299.112 2899.25,296.41C2903.17,292.331 2908.18,289.97 2913.48,288.192C2917.32,286.908 2921.44,285.861 2925.05,283.925C2923.2,286.81 2921.5,289.823 2920.02,293.015C2919.84,293.396 2919.67,293.78 2919.5,294.165C2919.17,294.274 2918.84,294.382 2918.51,294.489C2913.41,296.141 2908.4,297.799 2904.59,301.755C2903.81,302.565 2902.93,302.904 2902.07,302.904Z" style="fill:rgb(242,208,60);fill-rule:nonzero;"/>
        <path d="M2900.11,331.435C2898.22,331.435 2896.44,330.228 2896.63,327.802C2897.26,319.776 2906.78,315.645 2914.55,315.488C2914.47,318.021 2914.59,320.522 2914.9,322.951C2912.9,322.956 2910.84,323.521 2909.06,324.235C2907.84,324.724 2904.31,326.15 2904.18,327.802C2904,330.219 2902,331.435 2900.11,331.435Z" style="fill:rgb(242,208,60);fill-rule:nonzero;"/>
        <path d="M2912.6,339.283C2911.57,339.283 2910.52,339.234 2909.48,339.138C2904.8,338.712 2904.63,331.562 2909.07,331.562C2909.2,331.562 2909.34,331.568 2909.48,331.581C2910.49,331.674 2911.51,331.726 2912.52,331.726C2914.01,331.726 2915.48,331.612 2916.9,331.344C2917.8,333.806 2918.96,336.128 2920.4,338.256C2917.9,338.957 2915.27,339.283 2912.6,339.283Z" style="fill:rgb(242,208,60);fill-rule:nonzero;"/>
        <path d="M2904.18,314.948C2900.2,314.948 2898.81,308.624 2903.18,307.531C2906.2,306.775 2909.23,306.02 2912.25,305.264C2912.6,305.176 2912.94,305.135 2913.26,305.135C2914.24,305.135 2915.06,305.516 2915.68,306.108C2915.24,308.206 2914.93,310.309 2914.74,312.402C2914.59,312.459 2914.43,312.509 2914.26,312.552C2911.24,313.307 2908.21,314.063 2905.19,314.819C2904.84,314.907 2904.5,314.948 2904.18,314.948Z" style="fill:rgb(242,208,60);fill-rule:nonzero;"/>
        <path d="M2904.66,373.109C2902.46,373.109 2900.03,371.231 2900.54,368.365C2901.9,360.789 2908.09,357.214 2915.39,357.214L2915.54,357.214C2920.07,357.244 2925.38,358.827 2930.23,358.827C2931.86,358.827 2933.44,358.647 2934.92,358.168C2935.35,358.029 2935.76,357.965 2936.14,357.965C2939.88,357.965 2941.12,364.101 2936.93,365.456C2935.18,366.023 2933.35,366.227 2931.51,366.227C2927.69,366.227 2923.77,365.358 2920.1,365.018C2918.66,364.885 2917.19,364.75 2915.78,364.75C2911.99,364.75 2908.66,365.732 2907.83,370.375C2907.49,372.285 2906.12,373.11 2904.66,373.109Z" style="fill:rgb(242,208,60);fill-rule:nonzero;"/>
        <path d="M2907.39,356.359C2905.21,356.358 2903.23,354.468 2903.27,352.488C2903.31,352.293 2903.34,352.092 2903.35,351.884C2903.5,351.25 2903.87,350.626 2904.54,350.07C2910.16,345.347 2916.96,343.371 2924.01,342.604C2926.88,345.439 2930.46,347.718 2934.77,349.252C2934.26,349.544 2933.64,349.717 2932.9,349.72C2925.09,349.75 2916.15,350.147 2909.88,355.415C2909.09,356.078 2908.22,356.359 2907.39,356.359Z" style="fill:rgb(242,208,60);fill-rule:nonzero;"/>
        <path d="M2943.8,354.931C2941.3,354.93 2939.7,352.646 2939.74,350.614C2941.23,350.911 2942.78,351.131 2944.41,351.27C2945.12,351.331 2945.9,351.357 2946.72,351.357C2948.95,351.357 2951.53,351.165 2954.28,350.956C2951.29,352.898 2948,354.317 2944.49,354.875C2944.25,354.913 2944.03,354.931 2943.8,354.931Z" style="fill:rgb(242,208,60);fill-rule:nonzero;"/>
        <path d="M2928.35,382.56C2924.49,382.56 2920.76,381.492 2917.38,378.845C2914.34,376.46 2917.11,372.626 2920.27,372.626C2921.09,372.626 2921.95,372.887 2922.73,373.5C2924.19,374.649 2925.99,375.095 2927.9,375.095C2932.32,375.095 2937.4,372.725 2940.63,371.12C2946.23,368.336 2951.44,364.933 2956.69,361.572C2957.36,361.145 2958.02,360.959 2958.64,360.959C2961.83,360.959 2963.94,365.907 2960.51,368.098C2952.05,373.502 2939.62,382.56 2928.35,382.56Z" style="fill:rgb(242,208,60);fill-rule:nonzero;"/>
        <path d="M2941.38,441.814C2938.74,441.814 2936.12,439.108 2937.95,436.238C2943.49,427.553 2953.05,423.397 2962.89,421.653C2963.15,421.607 2963.4,421.585 2963.64,421.585C2964.52,421.585 2965.29,421.873 2965.91,422.334C2966.2,424.137 2966.63,425.847 2967.19,427.473C2966.77,428.19 2966.02,428.742 2964.9,428.941C2957.11,430.321 2948.94,433.064 2944.48,440.053C2943.69,441.298 2942.53,441.814 2941.38,441.814Z" style="fill:rgb(242,208,60);fill-rule:nonzero;"/>
        <path d="M2960.12,445.692C2956.13,445.692 2954.72,439.352 2959.11,438.281C2963.07,437.312 2966.7,435.66 2970.21,433.722C2971.6,435.898 2973.26,437.863 2975.12,439.617C2970.7,442.149 2966.13,444.345 2961.12,445.568C2960.77,445.653 2960.44,445.692 2960.12,445.692Z" style="fill:rgb(242,208,60);fill-rule:nonzero;"/>
        <path d="M2982.75,456.245C2981.47,456.245 2980.24,455.636 2979.52,454.413C2978.52,452.711 2979.05,450.181 2980.88,449.243C2981.8,448.772 2982.68,448.234 2983.52,447.637C2983.56,447.61 2984.07,447.223 2984.09,447.223C2984.09,447.223 2984.04,447.27 2983.88,447.395C2984.06,447.251 2984.24,447.105 2984.42,446.956C2984.67,446.743 2984.91,446.526 2985.14,446.303C2987.29,447.307 2989.53,448.151 2991.84,448.839C2991.82,449.778 2991.46,450.707 2990.75,451.399C2988.98,453.123 2986.89,454.642 2984.69,455.769C2984.07,456.086 2983.4,456.245 2982.75,456.245Z" style="fill:rgb(242,208,60);fill-rule:nonzero;"/>
        <path d="M2961.82,357.832C2958.69,357.831 2955.96,354.005 2958.95,351.582C2959.41,351.211 2959.87,350.866 2960.34,350.545C2961.71,350.476 2963.08,350.433 2964.44,350.433C2969.87,350.433 2975,351.138 2978.43,353.783C2977.34,353.973 2976.24,354.101 2975.12,354.188C2971.38,354.479 2967.37,354.444 2964.3,356.927C2963.51,357.563 2962.65,357.832 2961.82,357.832Z" style="fill:rgb(242,208,60);fill-rule:nonzero;"/>
        <path d="M2910.3,391.288C2909.01,391.288 2907.79,390.552 2906.97,389.416C2904.19,385.563 2903.5,381.295 2904.32,376.678C2904.62,374.978 2906.39,373.918 2908.04,373.918C2908.35,373.918 2908.67,373.958 2908.97,374.04C2911.09,374.623 2911.97,376.662 2911.61,378.688C2911.13,381.362 2911.95,383.453 2913.49,385.601C2914.7,387.276 2913.79,389.805 2912.14,390.772C2911.53,391.127 2910.91,391.288 2910.3,391.288Z" style="fill:rgb(242,208,60);fill-rule:nonzero;"/>
        <path d="M2899.12,355.731C2897.67,355.731 2896.32,354.905 2896.01,352.992C2895.09,347.4 2894.36,341.355 2897.9,336.476C2898.74,335.313 2899.92,334.831 2901.07,334.831C2903.8,334.831 2906.44,337.515 2904.42,340.29C2902.11,343.48 2902.69,347.305 2903.29,350.982C2903.35,351.295 2903.36,351.596 2903.35,351.884C2903.34,352.092 2903.31,352.293 2903.27,352.488C2902.85,354.49 2900.91,355.731 2899.12,355.731Z" style="fill:rgb(242,208,60);fill-rule:nonzero;"/>
        <path d="M2961.01,456.181C2959.08,456.181 2957.31,455.472 2956.09,453.657C2954.19,450.821 2956.81,448.124 2959.48,448.124C2960.04,448.124 2960.61,448.243 2961.13,448.504C2961.26,448.485 2961.39,448.468 2961.42,448.468C2961.46,448.468 2961.4,448.484 2961.19,448.534C2961.71,448.415 2962.43,448.252 2962.82,448.066C2964.29,447.361 2965.45,446.549 2966.51,445.299C2967.15,444.539 2968.1,444.195 2969.06,444.195C2970.1,444.195 2971.15,444.592 2971.85,445.299C2973.4,446.845 2973.18,449.072 2971.85,450.643C2969.71,453.173 2965,456.181 2961.01,456.181Z" style="fill:rgb(242,208,60);fill-rule:nonzero;"/>
        <path d="M2928.97,278.304C2925.46,276.703 2926.87,271.105 2930.57,271.105C2930.91,271.105 2931.27,271.152 2931.64,271.254C2932.24,271.414 2932.85,271.486 2933.48,271.486C2933.82,271.486 2934.17,271.465 2934.52,271.426C2932.59,273.667 2930.73,275.948 2928.97,278.304Z" style="fill:rgb(242,208,60);fill-rule:nonzero;"/>
        <path d="M2899.85,287.542C2896.71,287.541 2893.98,283.714 2896.98,281.295C2901.81,277.401 2907.19,274.822 2912.86,272.39C2913.52,272.105 2914.22,271.949 2914.89,271.949C2916.13,271.949 2917.29,272.487 2918.03,273.746C2918.97,275.356 2918.57,278.104 2916.67,278.916C2911.69,281.053 2906.58,283.209 2902.32,286.639C2901.54,287.273 2900.68,287.542 2899.85,287.542Z" style="fill:rgb(242,208,60);fill-rule:nonzero;"/>
        <path d="M3050.88,413.714C3049.17,412.162 3047.49,410.576 3045.85,408.956C3046.13,408.791 3046.41,408.581 3046.68,408.319C3049.99,405.053 3053.63,402.154 3057.26,399.25C3058.87,397.961 3058.59,395.241 3057.26,393.906C3056.51,393.157 3055.63,392.83 3054.74,392.83C3053.75,392.83 3052.76,393.23 3051.91,393.906C3048.28,396.809 3044.64,399.708 3041.33,402.975C3041.1,403.208 3040.9,403.45 3040.74,403.697C3032.48,394.822 3025.17,385.056 3018.96,374.561C3029.84,370.12 3040.93,366.936 3052.55,363.009C3073.94,355.786 3090.45,342.231 3108.89,328.872C3114.55,324.769 3120.19,320.707 3125.77,316.637C3126.98,317.046 3128.16,317.509 3129.33,318.032C3126.93,319.665 3124.62,321.41 3122.21,323.028C3120.5,324.174 3119.76,326.336 3120.85,328.198C3121.53,329.346 3122.88,330.09 3124.21,330.09C3124.85,330.09 3125.47,329.923 3126.02,329.553C3128.58,327.837 3131.03,325.979 3133.58,324.263C3134.59,323.585 3135.26,322.552 3135.42,321.437C3136.47,322.159 3137.5,322.945 3138.52,323.798C3142.17,326.882 3145.46,330.446 3148.23,334.344C3116.82,358.82 3086.45,384.419 3055.62,409.789C3054.03,411.094 3052.45,412.403 3050.88,413.714ZM3047.67,385.302C3047.1,385.302 3046.49,385.442 3045.88,385.758C3042.54,387.472 3039.47,389.767 3036.8,392.394C3034.1,395.04 3036.69,398.836 3039.62,398.836C3040.47,398.836 3041.35,398.511 3042.14,397.739C3044.39,395.532 3046.89,393.723 3049.69,392.284C3053.41,390.372 3051.12,385.302 3047.67,385.302ZM3074.99,373.105C3074.38,373.105 3073.74,373.275 3073.08,373.664C3068.91,376.151 3063.97,378.653 3061.9,383.334C3061.07,385.218 3061.33,387.377 3063.26,388.504C3063.81,388.83 3064.5,388.995 3065.19,388.995C3066.52,388.995 3067.88,388.388 3068.43,387.148C3069.96,383.684 3073.81,382.028 3076.9,380.19C3080.43,378.088 3078.27,373.105 3074.99,373.105ZM3046.16,369.429C3045.59,369.429 3044.98,369.568 3044.36,369.885C3040.36,371.948 3036.68,374.785 3032.42,376.306C3028.32,377.771 3029.5,383.833 3033.13,383.834C3033.53,383.834 3033.97,383.759 3034.43,383.595C3039.36,381.834 3043.56,378.792 3048.18,376.412C3051.9,374.498 3049.61,369.429 3046.16,369.429ZM3103.56,342.116C3102.94,342.116 3102.32,342.287 3101.8,342.677C3098.61,345.072 3095.39,347.408 3091.98,349.48C3088.48,351.606 3090.62,356.579 3093.88,356.58C3094.49,356.58 3095.13,356.405 3095.79,356.006C3099.21,353.934 3102.43,351.597 3105.62,349.204C3107.26,347.971 3108.1,345.965 3106.97,344.033C3106.32,342.921 3104.91,342.116 3103.56,342.116ZM3005.55,346.14C3003.99,341.843 3002.61,337.464 3001.4,333.013C3001.94,331.646 3001.65,329.989 3000.57,328.909C3000.48,328.814 3000.38,328.725 3000.28,328.642C3000.11,327.962 2999.95,327.281 2999.79,326.598C3000.3,326.881 3000.91,327.047 3001.62,327.047L3001.68,327.047C3007.15,326.98 3012.25,325.864 3017.19,323.508C3021,321.694 3018.64,316.575 3015.1,316.575C3014.55,316.575 3013.97,316.7 3013.38,316.981C3009.66,318.75 3005.77,319.438 3001.68,319.488C3000.24,319.506 2999.22,320.182 2998.63,321.124C2998.18,318.794 2997.78,316.457 2997.42,314.095C2999.49,313.473 3001.64,313.132 3003.75,313.132C3006.64,313.132 3009.44,313.767 3011.86,315.194C3012.52,315.578 3013.16,315.746 3013.76,315.746C3016.26,315.746 3018.1,312.889 3017.32,310.593C3018.52,311.928 3019.99,313.078 3021.68,314.064C3020.41,316.579 3022.71,319.496 3025.26,319.496C3026.11,319.496 3027,319.167 3027.78,318.382C3028.22,317.948 3028.65,317.513 3029.08,317.079C3032.87,318.139 3037.13,318.782 3041.57,319.121C3029.87,328.488 3017.88,337.587 3005.55,346.14Z" style="fill:rgb(241,154,74);fill-rule:nonzero;"/>
        <path d="M3018.96,374.561C3013.65,365.586 3009.15,356.083 3005.55,346.14C3017.88,337.587 3029.87,328.488 3041.57,319.121C3044.41,319.338 3047.32,319.431 3050.25,319.431C3064.23,319.431 3078.37,317.291 3084.82,316.278C3092.33,315.097 3100.17,313.992 3107.87,313.992C3114.02,313.992 3120.07,314.698 3125.77,316.637C3120.19,320.707 3114.55,324.769 3108.89,328.872C3090.45,342.231 3073.94,355.786 3052.55,363.009C3040.93,366.936 3029.84,370.12 3018.96,374.561Z" style="fill:rgb(242,176,83);fill-rule:nonzero;"/>
        <path d="M3101.55,445.484C3082.75,437.939 3065.63,427.112 3050.88,413.714C3052.45,412.403 3054.03,411.094 3055.62,409.789C3086.45,384.419 3116.82,358.82 3148.23,334.344C3156.81,346.403 3160.46,361.665 3154.85,375.846C3143.53,404.472 3136.9,415.88 3115.8,435.123C3112.69,437.965 3107.52,441.678 3101.55,445.484Z" style="fill:rgb(242,176,83);fill-rule:nonzero;"/>
        <path d="M3015.98,308.863C3015.89,308.795 3015.79,308.73 3015.68,308.668C3012.12,306.57 3007.99,305.615 3003.77,305.615C3001.33,305.615 2998.85,305.937 2996.45,306.543C2995.83,300.665 2995.52,294.697 2995.52,288.655C2995.52,282.941 2995.8,277.289 2996.35,271.72C2998.27,270.863 3000.19,270.019 3002.08,269.091C3003.92,268.181 3004.42,265.602 3003.43,263.921C3002.71,262.688 3001.5,262.096 3000.22,262.096C2999.57,262.096 2998.89,262.255 2998.26,262.565C2997.99,262.697 2997.73,262.826 2997.46,262.955C2998.36,257.078 2999.56,251.3 3001.04,245.638C3001.13,245.95 3001.26,246.263 3001.44,246.574C3002.09,247.686 3003.5,248.491 3004.85,248.491C3005.48,248.491 3006.09,248.32 3006.61,247.929C3009.41,245.832 3012.28,243.618 3015.53,242.263C3017.43,241.473 3018.77,239.791 3018.17,237.615C3017.77,236.138 3016.17,234.77 3014.56,234.77C3014.21,234.77 3013.86,234.834 3013.52,234.976C3009.58,236.616 3006.2,238.853 3002.8,241.404C3002.51,241.621 3002.24,241.863 3002.01,242.124C3003.98,235.236 3006.37,228.526 3009.17,222.028C3017.52,216.561 3026.02,211.201 3034.94,206.323C3043.2,201.81 3051.59,200.329 3060,198.945C3056.24,202.264 3049.88,205.412 3046.31,207.429C3045.5,207.889 3044.3,208.509 3042.91,209.246C3042.73,209.219 3042.56,209.206 3042.38,209.206C3041.81,209.206 3041.2,209.345 3040.59,209.661C3037.65,211.167 3035,213.115 3032.27,214.951C3031.47,215.487 3030.89,216.244 3030.6,217.088C3029.08,218.508 3028.09,219.926 3028.08,221.237C3028.02,227.478 3041.65,234.836 3043.47,242.399C3044.39,246.186 3044.54,249.567 3044.13,252.643C3042.1,254.002 3040.06,255.406 3038.31,257.11C3036.83,258.545 3036.87,261.013 3038.31,262.454C3038.78,262.925 3039.34,263.241 3039.94,263.407C3035.12,270.729 3027.31,276.423 3021.46,283.119C3021.28,283.246 3021.1,283.393 3020.93,283.562C3018.39,286.03 3015.49,287.864 3012.01,288.636C3007.58,289.622 3009.03,296.028 3013.1,296.028C3013.4,296.028 3013.7,295.995 3014.02,295.924C3014.13,295.9 3014.24,295.876 3014.34,295.85C3014.06,297.059 3013.86,298.316 3013.78,299.629C3013.53,303.319 3014.35,306.363 3015.98,308.863ZM3021.02,250.223C3020.83,250.335 3020.63,250.435 3020.43,250.536C3019.78,250.862 3019.18,251.321 3018.66,251.819C3017.16,253.235 3017.23,255.737 3018.66,257.164C3019.39,257.897 3020.34,258.251 3021.29,258.251C3022.23,258.252 3023.17,257.909 3023.91,257.248C3024.1,257.136 3024.3,257.036 3024.5,256.935C3025.15,256.609 3025.74,256.15 3026.27,255.652C3027.77,254.236 3027.7,251.733 3026.27,250.308C3025.54,249.574 3024.59,249.22 3023.64,249.22C3022.7,249.22 3021.76,249.562 3021.02,250.223Z" style="fill:rgb(241,154,74);fill-rule:nonzero;"/>
        <path d="M3009.17,222.028C3016.62,204.676 3026.9,188.822 3039.43,175.047C3042.76,175.521 3045.47,176.911 3047.03,179.669L3056.1,188.738C3065.11,191.519 3064.09,195.333 3060,198.945C3051.59,200.329 3043.2,201.81 3034.94,206.323C3026.02,211.201 3017.52,216.561 3009.17,222.028Z" style="fill:rgb(242,176,83);fill-rule:nonzero;"/>
        <path d="M3013.1,296.028C3009.03,296.028 3007.58,289.622 3012.01,288.636C3015.49,287.864 3018.39,286.03 3020.93,283.562C3021.1,283.393 3021.28,283.246 3021.46,283.119C3018.17,286.889 3015.5,290.977 3014.34,295.85C3014.24,295.876 3014.13,295.9 3014.02,295.924C3013.7,295.995 3013.4,296.028 3013.1,296.028Z" style="fill:rgb(241,203,86);fill-rule:nonzero;"/>
        <path d="M2996.35,271.72C2996.65,268.773 2997.02,265.855 2997.46,262.955C2997.73,262.826 2997.99,262.697 2998.26,262.565C2998.89,262.255 2999.57,262.096 3000.22,262.096C3001.5,262.096 3002.71,262.688 3003.43,263.921C3004.42,265.602 3003.92,268.181 3002.08,269.091C3000.19,270.019 2998.27,270.863 2996.35,271.72Z" style="fill:rgb(241,203,86);fill-rule:nonzero;"/>
        <path d="M3004.85,248.491C3003.5,248.491 3002.09,247.686 3001.44,246.574C3001.26,246.263 3001.13,245.95 3001.04,245.638C3001.35,244.462 3001.67,243.291 3002.01,242.124C3002.24,241.863 3002.51,241.621 3002.8,241.404C3006.2,238.853 3009.58,236.616 3013.52,234.976C3013.86,234.834 3014.21,234.77 3014.56,234.77C3016.17,234.77 3017.77,236.138 3018.17,237.615C3018.77,239.791 3017.43,241.473 3015.53,242.263C3012.28,243.618 3009.41,245.832 3006.61,247.929C3006.09,248.32 3005.48,248.491 3004.85,248.491Z" style="fill:rgb(241,203,86);fill-rule:nonzero;"/>
        <path d="M3021.29,258.251C3020.34,258.251 3019.39,257.897 3018.66,257.164C3017.23,255.737 3017.16,253.235 3018.66,251.819C3019.18,251.321 3019.78,250.862 3020.43,250.536C3020.63,250.435 3020.83,250.335 3021.02,250.223C3021.76,249.562 3022.7,249.22 3023.64,249.22C3024.59,249.22 3025.54,249.574 3026.27,250.308C3027.7,251.733 3027.77,254.236 3026.27,255.652C3025.74,256.15 3025.15,256.609 3024.5,256.935C3024.3,257.036 3024.1,257.136 3023.91,257.248C3023.17,257.909 3022.23,258.252 3021.29,258.251Z" style="fill:rgb(241,203,86);fill-rule:nonzero;"/>
        <path d="M3001.4,333.013C3001.01,331.564 3000.63,330.107 3000.28,328.642C3000.38,328.725 3000.48,328.814 3000.57,328.909C3001.65,329.989 3001.94,331.646 3001.4,333.013Z" style="fill:rgb(241,203,86);fill-rule:nonzero;"/>
        <path d="M3013.76,315.746C3013.16,315.746 3012.52,315.578 3011.86,315.194C3009.44,313.767 3006.64,313.132 3003.75,313.132C3001.64,313.132 2999.49,313.473 2997.42,314.095C2997.04,311.598 2996.72,309.075 2996.45,306.543C2998.85,305.937 3001.33,305.615 3003.77,305.615C3007.99,305.615 3012.12,306.57 3015.68,308.668C3015.79,308.73 3015.89,308.795 3015.98,308.863C3016.38,309.472 3016.83,310.048 3017.32,310.593C3018.1,312.889 3016.26,315.746 3013.76,315.746Z" style="fill:rgb(241,203,86);fill-rule:nonzero;"/>
        <path d="M3065.19,388.995C3064.5,388.995 3063.81,388.83 3063.26,388.504C3061.33,387.377 3061.07,385.218 3061.9,383.334C3063.97,378.653 3068.91,376.151 3073.08,373.664C3073.74,373.275 3074.38,373.105 3074.99,373.105C3078.27,373.105 3080.43,378.088 3076.9,380.19C3073.81,382.028 3069.96,383.684 3068.43,387.148C3067.88,388.388 3066.52,388.995 3065.19,388.995Z" style="fill:rgb(241,203,86);fill-rule:nonzero;"/>
        <path d="M3033.13,383.834C3029.5,383.833 3028.32,377.771 3032.42,376.306C3036.68,374.785 3040.36,371.948 3044.36,369.885C3044.98,369.568 3045.59,369.429 3046.16,369.429C3049.61,369.429 3051.9,374.498 3048.18,376.412C3043.56,378.792 3039.36,381.834 3034.43,383.595C3033.97,383.759 3033.53,383.834 3033.13,383.834Z" style="fill:rgb(241,203,86);fill-rule:nonzero;"/>
        <path d="M3093.88,356.58C3090.62,356.579 3088.48,351.606 3091.98,349.48C3095.39,347.408 3098.61,345.072 3101.8,342.677C3102.32,342.287 3102.94,342.116 3103.56,342.116C3104.91,342.116 3106.32,342.921 3106.97,344.033C3108.1,345.965 3107.26,347.971 3105.62,349.204C3102.43,351.597 3099.21,353.934 3095.79,356.006C3095.13,356.405 3094.49,356.58 3093.88,356.58Z" style="fill:rgb(241,203,86);fill-rule:nonzero;"/>
        <path d="M3124.21,330.09C3122.88,330.09 3121.53,329.346 3120.85,328.198C3119.76,326.336 3120.5,324.174 3122.21,323.028C3124.62,321.41 3126.93,319.665 3129.33,318.032C3131.42,318.967 3133.45,320.092 3135.42,321.437C3135.26,322.552 3134.59,323.585 3133.58,324.263C3131.03,325.979 3128.58,327.837 3126.02,329.553C3125.47,329.923 3124.85,330.09 3124.21,330.09Z" style="fill:rgb(241,203,86);fill-rule:nonzero;"/>
        <path d="M3030.6,217.088C3030.89,216.244 3031.47,215.487 3032.27,214.951C3035,213.115 3037.65,211.167 3040.59,209.661C3041.2,209.345 3041.81,209.206 3042.38,209.206C3042.56,209.206 3042.73,209.219 3042.91,209.246C3039.07,211.274 3033.72,214.186 3030.6,217.088Z" style="fill:rgb(241,203,86);fill-rule:nonzero;"/>
        <path d="M3039.94,263.407C3039.34,263.241 3038.78,262.925 3038.31,262.454C3036.87,261.013 3036.83,258.545 3038.31,257.11C3040.06,255.406 3042.1,254.002 3044.13,252.643C3043.59,256.688 3042.05,260.204 3039.94,263.407Z" style="fill:rgb(241,203,86);fill-rule:nonzero;"/>
        <path d="M3039.62,398.836C3036.69,398.836 3034.1,395.04 3036.8,392.394C3039.47,389.767 3042.54,387.472 3045.88,385.758C3046.49,385.442 3047.1,385.302 3047.67,385.302C3051.12,385.302 3053.41,390.372 3049.69,392.284C3046.89,393.723 3044.39,395.532 3042.14,397.739C3041.35,398.511 3040.47,398.836 3039.62,398.836Z" style="fill:rgb(241,203,86);fill-rule:nonzero;"/>
        <path d="M3045.85,408.956C3044.11,407.24 3042.41,405.485 3040.74,403.697C3040.9,403.45 3041.1,403.208 3041.33,402.975C3044.64,399.708 3048.28,396.809 3051.91,393.906C3052.76,393.23 3053.75,392.83 3054.74,392.83C3055.63,392.83 3056.51,393.157 3057.26,393.906C3058.59,395.241 3058.87,397.961 3057.26,399.25C3053.63,402.154 3049.99,405.053 3046.68,408.319C3046.41,408.581 3046.13,408.791 3045.85,408.956Z" style="fill:rgb(241,203,86);fill-rule:nonzero;"/>
        <path d="M3001.62,327.047C3000.91,327.047 3000.3,326.881 2999.79,326.598C2999.38,324.785 2998.99,322.958 2998.63,321.124C2999.22,320.182 3000.24,319.506 3001.68,319.488C3005.77,319.438 3009.66,318.75 3013.38,316.981C3013.97,316.7 3014.55,316.575 3015.1,316.575C3018.64,316.575 3021,321.694 3017.19,323.508C3012.25,325.864 3007.15,326.98 3001.68,327.047L3001.62,327.047Z" style="fill:rgb(241,203,86);fill-rule:nonzero;"/>
        <path d="M3025.26,319.496C3022.71,319.496 3020.41,316.579 3021.68,314.064C3023.83,315.318 3026.34,316.309 3029.08,317.079C3028.65,317.513 3028.22,317.948 3027.78,318.382C3027,319.167 3026.11,319.496 3025.26,319.496Z" style="fill:rgb(241,203,86);fill-rule:nonzero;"/>
        <path d="M3006.35,451.129C3001.47,450.988 2996.53,450.236 2991.84,448.839C2991.87,447.827 2991.5,446.803 2990.75,446.054C2990.02,445.324 2989.06,444.964 2988.09,444.964C2987.12,444.964 2986.14,445.332 2985.4,446.054C2985.32,446.138 2985.23,446.221 2985.14,446.303C2981.43,444.562 2978.02,442.341 2975.12,439.617C2977.08,438.498 2979,437.314 2980.91,436.118C2984.38,433.956 2982.26,428.997 2979.03,428.997C2978.42,428.997 2977.76,429.177 2977.1,429.592C2974.82,431.017 2972.54,432.432 2970.21,433.722C2968.99,431.806 2967.97,429.724 2967.19,427.473C2968.13,425.9 2967.51,423.531 2965.91,422.334C2965.13,417.551 2965.35,412.134 2966.81,406.061C2977.9,398.472 2989.06,390.592 3001.28,383.289C3007.15,379.787 3013.02,376.987 3018.96,374.561C3025.17,385.056 3032.48,394.822 3040.74,403.697C3039.1,406.263 3041.49,409.421 3044.15,409.421C3044.72,409.421 3045.3,409.278 3045.85,408.956C3047.49,410.576 3049.17,412.162 3050.88,413.714C3035.84,426.251 3021.3,439.049 3006.35,451.129ZM2987.52,433.667C2983.35,433.667 2981.81,440.172 2986.32,441.034C2990.07,441.753 2993.92,442.984 2997.79,442.984C2998.42,442.984 2999.05,442.951 2999.68,442.878C3005.29,442.227 3008.85,438.225 3010.99,433.251C3011.71,431.566 3011.22,429.963 3010.22,428.871C3011.3,427.825 3012.36,426.761 3013.42,425.702C3016.09,423.038 3013.5,419.244 3010.6,419.244C3009.75,419.244 3008.86,419.573 3008.08,420.358C3004.78,423.659 3001.49,427.112 2997.51,429.592C2995.15,431.056 2995.37,433.812 2996.77,435.431C2993.93,435.26 2991.06,434.27 2988.33,433.746C2988.05,433.692 2987.78,433.667 2987.52,433.667ZM3034.02,407.11C3033.4,407.11 3032.79,407.281 3032.27,407.675C3029.42,409.845 3026.81,412.309 3023.96,414.477C3022.32,415.721 3021.47,417.707 3022.6,419.647C3023.25,420.754 3024.67,421.568 3026.02,421.568C3026.65,421.568 3027.25,421.396 3027.77,421.003C3030.63,418.834 3033.24,416.368 3036.09,414.201C3037.72,412.957 3038.58,410.971 3037.44,409.03C3036.79,407.923 3035.38,407.11 3034.02,407.11ZM2976,406.357C2975.66,406.357 2975.32,406.414 2974.98,406.538C2971.29,407.892 2969.07,410.842 2967.81,414.468C2967.13,416.414 2968.56,418.598 2970.45,419.116C2970.79,419.21 2971.12,419.255 2971.45,419.255C2973.12,419.255 2974.53,418.102 2975.09,416.477C2975.13,416.356 2975.18,416.236 2975.22,416.117C2975.24,416.069 2975.27,416.003 2975.31,415.917C2975.52,415.485 2975.77,415.077 2976.03,414.681C2976.06,414.651 2976.09,414.614 2976.13,414.573C2976.29,414.39 2976.46,414.223 2976.64,414.061C2976.68,414.036 2976.72,414.005 2976.78,413.968C2976.89,413.897 2977.36,413.705 2977.33,413.705C2977.32,413.705 2977.23,413.738 2976.99,413.825C2978.92,413.116 2980.21,411.289 2979.63,409.177C2979.2,407.641 2977.63,406.357 2976,406.357ZM3003.47,396.75C3002.73,397.347 3002.29,398.296 3002.44,399.601C3002.99,404.53 3001.83,409.061 3000.3,413.712C2999.38,416.512 3001.67,418.342 3003.97,418.342C3005.48,418.342 3006.99,417.55 3007.59,415.721C3009.31,410.501 3010.62,405.129 3009.99,399.601C3009.82,398.101 3008.96,397.065 3007.88,396.5C3007.97,396.416 3008.05,396.325 3008.13,396.227C3008.97,395.183 3011.49,394.554 3013.11,394.06C3015.43,393.35 3017.8,392.775 3020.07,391.908C3024.1,390.37 3022.96,384.354 3019.41,384.354C3018.99,384.354 3018.54,384.437 3018.06,384.621C3015.34,385.656 3012.5,386.321 3009.73,387.197C3007.37,387.943 3004.4,388.868 3002.79,390.883C3001.5,392.489 3001.21,394.651 3002.79,396.227C3002.99,396.426 3003.22,396.601 3003.47,396.75ZM2994.93,404.935C2994.27,404.935 2993.6,405.094 2992.97,405.407C2989.72,407.035 2986.53,408.742 2983.89,411.289C2981.17,413.915 2983.77,417.713 2986.71,417.713C2987.57,417.713 2988.45,417.393 2989.24,416.632C2991.39,414.556 2994.13,413.259 2996.78,411.933C2998.63,411.012 2999.13,408.452 2998.14,406.763C2997.42,405.534 2996.2,404.935 2994.93,404.935ZM3028.9,395.011C3028.29,395.011 3027.64,395.184 3026.98,395.582C3022.91,398.042 3018.96,400.681 3014.89,403.14C3011.38,405.261 3013.52,410.237 3016.79,410.237C3017.4,410.237 3018.04,410.064 3018.7,409.666C3022.77,407.207 3026.73,404.567 3030.8,402.108C3034.3,399.987 3032.16,395.011 3028.9,395.011ZM2982.52,361.173C2982.24,359.189 2981.57,357.358 2980.38,355.766C2979.82,355.007 2979.16,354.35 2978.43,353.783C2981.2,353.294 2983.82,352.393 2986.21,350.716C2989.48,348.408 2987.45,343.502 2984.38,343.502C2983.75,343.502 2983.07,343.71 2982.39,344.189C2978.87,346.663 2974.92,346.597 2970.8,346.971C2966.86,347.327 2963.49,348.388 2960.34,350.545C2958.57,350.634 2956.8,350.764 2955.08,350.894C2954.81,350.915 2954.54,350.936 2954.28,350.956C2957.19,349.058 2959.8,346.661 2962.03,344.078C2964.44,341.278 2961.92,337.489 2959.17,337.489C2958.32,337.489 2957.44,337.856 2956.68,338.734C2952.93,343.099 2948.29,346.663 2942.48,347.588C2940.6,347.887 2939.77,349.188 2939.74,350.614C2937.99,350.264 2936.33,349.807 2934.77,349.252C2937.66,347.604 2937.05,342.162 2932.92,342.162L2932.9,342.162C2929.94,342.173 2926.95,342.283 2924.01,342.604C2922.65,341.27 2921.45,339.815 2920.4,338.256C2924.02,337.245 2927.38,335.453 2930.29,332.741C2933.06,330.149 2930.44,326.348 2927.46,326.348C2926.61,326.348 2925.73,326.658 2924.94,327.397C2922.59,329.59 2919.84,330.792 2916.9,331.344C2915.94,328.689 2915.27,325.872 2914.9,322.951L2914.93,322.951C2915.56,322.951 2916.18,323.007 2916.78,323.132C2917.08,323.194 2917.37,323.223 2917.65,323.223C2921.77,323.223 2923.26,316.77 2918.79,315.845C2917.63,315.604 2916.35,315.484 2915.01,315.484C2914.86,315.484 2914.71,315.485 2914.55,315.488C2914.58,314.464 2914.65,313.435 2914.74,312.402C2917.56,311.342 2917.48,307.832 2915.68,306.108C2916.52,302.052 2917.8,298.022 2919.5,294.165C2924.46,292.519 2929.12,290.643 2933.31,287.395C2936.36,285.023 2933.59,281.187 2930.42,281.187C2929.59,281.187 2928.75,281.444 2927.96,282.05C2927.05,282.763 2926.07,283.379 2925.05,283.925C2926.29,281.998 2927.6,280.129 2928.97,278.304C2929.17,278.397 2929.39,278.477 2929.63,278.541C2930.89,278.881 2932.13,279.028 2933.36,279.028C2937.4,279.028 2941.3,277.425 2945.22,275.822C2949.14,274.219 2953.08,272.616 2957.19,272.616C2957.41,272.616 2957.63,272.621 2957.85,272.63C2957.91,272.633 2957.98,272.634 2958.04,272.634C2962.72,272.634 2962.64,265.274 2957.85,265.072C2957.54,265.06 2957.23,265.053 2956.92,265.053C2952.48,265.053 2948.28,266.387 2944.15,267.983C2941.36,269.06 2937.82,271.056 2934.52,271.426C2937.69,267.722 2941.05,264.132 2944.43,260.519C2945.08,259.824 2945.74,259.14 2946.42,258.462C2969.21,249.344 2988.77,235.37 3009.17,222.028C3006.37,228.526 3003.98,235.236 3002.01,242.124C3001.13,243.104 3000.69,244.358 3001.04,245.638C2999.56,251.3 2998.36,257.078 2997.46,262.955C2994.47,264.384 2991.41,265.637 2988.44,267.1C2986.59,268.01 2986.1,270.59 2987.08,272.27C2987.8,273.502 2989.02,274.095 2990.29,274.095C2990.95,274.095 2991.62,273.936 2992.25,273.626C2993.6,272.959 2994.98,272.336 2996.35,271.72C2995.8,277.289 2995.52,282.941 2995.52,288.655C2995.52,294.697 2995.83,300.665 2996.45,306.543C2991.04,307.908 2985.98,310.716 2982.38,314.548C2979.82,317.274 2982.37,321.064 2985.21,321.064C2986.07,321.064 2986.95,320.718 2987.73,319.893C2990.18,317.28 2993.66,315.225 2997.42,314.095C2997.78,316.457 2998.18,318.794 2998.63,321.124C2997.54,322.875 2997.92,325.544 2999.79,326.598C2999.95,327.281 3000.11,327.962 3000.28,328.642C2999.59,328.091 2998.76,327.819 2997.92,327.819C2996.95,327.819 2995.97,328.187 2995.23,328.909C2994.92,329.21 2994.6,329.497 2994.27,329.773C2994.41,329.658 2994.45,329.614 2994.44,329.614C2994.41,329.614 2993.83,330.047 2993.73,330.113C2993,330.576 2992.23,330.957 2991.46,331.341C2989.62,332.262 2989.11,334.822 2990.1,336.512C2990.82,337.74 2992.04,338.339 2993.32,338.339C2993.98,338.339 2994.65,338.181 2995.27,337.867C2997.21,336.897 2999.01,335.774 3000.57,334.253C3000.94,333.893 3001.22,333.469 3001.4,333.013C3002.61,337.464 3003.99,341.843 3005.55,346.14C2998,351.376 2990.33,356.407 2982.52,361.173ZM2969.25,327.046C2969.23,327.046 2969.2,327.046 2969.18,327.047C2964.93,327.107 2960.8,327.921 2956.84,329.448C2954.92,330.189 2953.61,331.961 2954.2,334.097C2954.62,335.611 2956.2,336.926 2957.82,336.927C2958.16,336.927 2958.51,336.867 2958.85,336.736C2962.21,335.44 2965.57,334.655 2969.18,334.604C2974.03,334.535 2974.06,327.046 2969.25,327.046ZM2985.05,321.74C2984.72,321.74 2984.38,321.788 2984.05,321.89C2982.12,322.488 2980.3,322.51 2978.25,322.512C2976.19,322.513 2974.47,324.229 2974.47,326.291C2974.47,328.35 2976.19,330.07 2978.25,330.069C2980.88,330.068 2983.53,329.963 2986.06,329.179C2988.02,328.569 2989.26,326.564 2988.7,324.53C2988.25,322.918 2986.69,321.74 2985.05,321.74ZM2963.85,312.685C2963.26,312.685 2962.63,312.842 2961.98,313.202C2956.52,316.269 2950.82,318.781 2944.75,320.38C2940.41,321.523 2941.77,327.809 2945.7,327.809C2946.04,327.809 2946.39,327.764 2946.76,327.667C2953.42,325.911 2959.8,323.097 2965.8,319.729C2969.41,317.702 2967.2,312.685 2963.85,312.685ZM2940.53,307.396L2940.46,307.396C2936.21,307.457 2932.08,308.27 2928.12,309.798C2926.2,310.539 2924.89,312.311 2925.48,314.447C2925.9,315.961 2927.48,317.276 2929.1,317.276C2929.44,317.276 2929.79,317.216 2930.13,317.086C2933.49,315.79 2936.85,315.005 2940.46,314.954C2945.31,314.885 2945.34,307.396 2940.53,307.396ZM2952.74,302.299C2951.06,302.299 2949.4,302.46 2947.77,302.996C2943.6,304.369 2944.82,310.493 2948.55,310.493C2948.93,310.493 2949.34,310.427 2949.78,310.284C2950.84,309.936 2951.96,309.826 2953.09,309.826C2954.58,309.826 2956.1,310.015 2957.54,310.103C2958.45,310.159 2959.37,310.193 2960.28,310.193C2962.34,310.193 2964.38,310.019 2966.41,309.528C2970.8,308.465 2969.39,302.118 2965.38,302.118C2965.07,302.118 2964.74,302.157 2964.4,302.24C2963.07,302.561 2961.73,302.665 2960.37,302.665C2959.1,302.665 2957.83,302.574 2956.55,302.482C2955.28,302.391 2954.01,302.299 2952.74,302.299ZM2988.13,293.083C2987.47,293.083 2986.8,293.242 2986.17,293.552C2982.93,295.146 2979.58,296.492 2976.34,298.087C2974.5,298.997 2974,301.576 2974.99,303.257C2975.71,304.489 2976.92,305.081 2978.2,305.081C2978.85,305.081 2979.53,304.923 2980.16,304.613C2983.4,303.018 2986.75,301.672 2989.98,300.078C2991.83,299.168 2992.32,296.588 2991.34,294.908C2990.62,293.676 2989.4,293.083 2988.13,293.083ZM2921.52,295.298C2917.58,295.298 2916.22,301.59 2920.56,302.726C2922.52,303.238 2924.42,303.475 2926.25,303.475C2938.65,303.475 2948.21,292.649 2955.06,282.851C2957.02,280.046 2954.4,277.356 2951.69,277.356C2950.54,277.356 2949.37,277.848 2948.54,279.037C2943.44,286.323 2935.91,295.93 2926.33,295.93C2925.11,295.93 2923.86,295.774 2922.57,295.438C2922.21,295.343 2921.86,295.298 2921.52,295.298ZM2989.61,284.722L2989.59,284.722C2980.21,284.765 2970.29,286.032 2964.41,294.152C2962.39,296.928 2965.03,299.611 2967.76,299.612C2968.92,299.612 2970.09,299.129 2970.93,297.966C2974.97,292.397 2983.4,292.308 2989.59,292.28C2994.45,292.258 2994.46,284.722 2989.61,284.722ZM2974.39,257.502C2973.76,257.502 2973.13,257.668 2972.57,258.03C2970.38,259.443 2967.95,260.397 2965.76,261.809C2964.04,262.926 2963.33,265.142 2964.41,266.979C2965.09,268.14 2966.42,268.863 2967.75,268.863C2968.38,268.863 2969.02,268.698 2969.58,268.335C2971.76,266.923 2974.2,265.969 2976.38,264.556C2978.11,263.44 2978.81,261.224 2977.74,259.386C2977.06,258.225 2975.72,257.502 2974.39,257.502Z" style="fill:rgb(244,181,80);fill-rule:nonzero;"/>
        <path d="M2946.42,258.462C2953.71,251.156 2962.25,244.664 2966.2,234.86C2969.56,226.5 2967.37,218.451 2972.33,210.822C2980.26,198.642 2993.81,189.123 3006.97,183.451C3012.74,180.964 3026.43,174.854 3036.52,174.854C3037.53,174.854 3038.5,174.915 3039.43,175.047C3026.9,188.822 3016.62,204.676 3009.17,222.028C2988.77,235.37 2969.21,249.344 2946.42,258.462Z" style="fill:rgb(245,196,86);fill-rule:nonzero;"/>
        <path d="M2966.81,406.061C2967.89,401.585 2969.65,396.751 2972.19,391.55C2975.55,384.657 2983.9,371.03 2982.52,361.173C2990.33,356.407 2998,351.376 3005.55,346.14C3009.15,356.083 3013.65,365.586 3018.96,374.561C3013.02,376.987 3007.15,379.787 3001.28,383.289C2989.06,390.592 2977.9,398.472 2966.81,406.061Z" style="fill:rgb(245,196,86);fill-rule:nonzero;"/>
        <path d="M3059.52,464.17C3051.31,464.17 3047.46,459.01 3044.68,453.851C3041.89,448.691 3040.16,443.532 3036.2,443.532C3034.99,443.532 3033.58,444.007 3031.88,445.101C3025.69,449.066 3017.05,451.154 3008.04,451.154C3007.48,451.154 3006.92,451.146 3006.35,451.129C3021.3,439.049 3035.84,426.251 3050.88,413.714C3065.63,427.112 3082.75,437.939 3101.55,445.484C3089.86,452.935 3075.11,460.745 3066.68,463.087C3063.97,463.838 3061.61,464.171 3059.52,464.17Z" style="fill:rgb(245,196,86);fill-rule:nonzero;"/>
        <path d="M2919.5,294.165C2919.67,293.78 2919.84,293.396 2920.02,293.015C2921.5,289.823 2923.2,286.81 2925.05,283.925C2926.07,283.379 2927.05,282.763 2927.96,282.05C2928.75,281.444 2929.59,281.187 2930.42,281.187C2933.59,281.187 2936.36,285.023 2933.31,287.395C2929.12,290.643 2924.46,292.519 2919.5,294.165Z" style="fill:rgb(244,215,88);fill-rule:nonzero;"/>
        <path d="M2926.25,303.475C2924.42,303.475 2922.52,303.238 2920.56,302.726C2916.22,301.59 2917.58,295.298 2921.52,295.298C2921.86,295.298 2922.21,295.343 2922.57,295.438C2923.86,295.774 2925.11,295.93 2926.33,295.93C2935.91,295.93 2943.44,286.323 2948.54,279.037C2949.37,277.848 2950.54,277.356 2951.69,277.356C2954.4,277.356 2957.02,280.046 2955.06,282.851C2948.21,292.649 2938.65,303.475 2926.25,303.475Z" style="fill:rgb(244,215,88);fill-rule:nonzero;"/>
        <path d="M2917.65,323.223C2917.37,323.223 2917.08,323.194 2916.78,323.132C2916.18,323.007 2915.56,322.951 2914.93,322.951L2914.9,322.951C2914.59,320.522 2914.47,318.021 2914.55,315.488C2914.71,315.485 2914.86,315.484 2915.01,315.484C2916.35,315.484 2917.63,315.604 2918.79,315.845C2923.26,316.77 2921.77,323.223 2917.65,323.223Z" style="fill:rgb(244,215,88);fill-rule:nonzero;"/>
        <path d="M2920.4,338.256C2918.96,336.128 2917.8,333.806 2916.9,331.344C2919.84,330.792 2922.59,329.59 2924.94,327.397C2925.73,326.658 2926.61,326.348 2927.46,326.348C2930.44,326.348 2933.06,330.149 2930.29,332.741C2927.38,335.453 2924.02,337.245 2920.4,338.256Z" style="fill:rgb(244,215,88);fill-rule:nonzero;"/>
        <path d="M2929.1,317.276C2927.48,317.276 2925.9,315.961 2925.48,314.447C2924.89,312.311 2926.2,310.539 2928.12,309.798C2932.08,308.27 2936.21,307.457 2940.46,307.396L2940.53,307.396C2945.34,307.396 2945.31,314.885 2940.46,314.954C2936.85,315.005 2933.49,315.79 2930.13,317.086C2929.79,317.216 2929.44,317.276 2929.1,317.276Z" style="fill:rgb(244,215,88);fill-rule:nonzero;"/>
        <path d="M2914.74,312.402C2914.93,310.309 2915.24,308.206 2915.68,306.108C2917.48,307.832 2917.56,311.342 2914.74,312.402Z" style="fill:rgb(244,215,88);fill-rule:nonzero;"/>
        <path d="M2945.7,327.809C2941.77,327.809 2940.41,321.523 2944.75,320.38C2950.82,318.781 2956.52,316.269 2961.98,313.202C2962.63,312.842 2963.26,312.685 2963.85,312.685C2967.2,312.685 2969.41,317.702 2965.8,319.729C2959.8,323.097 2953.42,325.911 2946.76,327.667C2946.39,327.764 2946.04,327.809 2945.7,327.809Z" style="fill:rgb(244,215,88);fill-rule:nonzero;"/>
        <path d="M2967.76,299.612C2965.03,299.611 2962.39,296.928 2964.41,294.152C2970.29,286.032 2980.21,284.765 2989.59,284.722L2989.61,284.722C2994.46,284.722 2994.45,292.258 2989.59,292.28C2983.4,292.308 2974.97,292.397 2970.93,297.966C2970.09,299.129 2968.92,299.612 2967.76,299.612Z" style="fill:rgb(244,215,88);fill-rule:nonzero;"/>
        <path d="M2990.29,274.095C2989.02,274.095 2987.8,273.502 2987.08,272.27C2986.1,270.59 2986.59,268.01 2988.44,267.1C2991.41,265.637 2994.47,264.384 2997.46,262.955C2997.02,265.855 2996.65,268.773 2996.35,271.72C2994.98,272.336 2993.6,272.959 2992.25,273.626C2991.62,273.936 2990.95,274.095 2990.29,274.095Z" style="fill:rgb(244,215,88);fill-rule:nonzero;"/>
        <path d="M2967.75,268.863C2966.42,268.863 2965.09,268.14 2964.41,266.979C2963.33,265.142 2964.04,262.926 2965.76,261.809C2967.95,260.397 2970.38,259.443 2972.57,258.03C2973.13,257.668 2973.76,257.502 2974.39,257.502C2975.72,257.502 2977.06,258.225 2977.74,259.386C2978.81,261.224 2978.11,263.44 2976.38,264.556C2974.2,265.969 2971.76,266.923 2969.58,268.335C2969.02,268.698 2968.38,268.863 2967.75,268.863Z" style="fill:rgb(244,215,88);fill-rule:nonzero;"/>
        <path d="M3001.04,245.638C3000.69,244.358 3001.13,243.104 3002.01,242.124C3001.67,243.291 3001.35,244.462 3001.04,245.638Z" style="fill:rgb(244,215,88);fill-rule:nonzero;"/>
        <path d="M2934.77,349.252C2930.46,347.718 2926.88,345.439 2924.01,342.604C2926.95,342.283 2929.94,342.173 2932.9,342.162L2932.92,342.162C2937.05,342.162 2937.66,347.604 2934.77,349.252Z" style="fill:rgb(244,215,88);fill-rule:nonzero;"/>
        <path d="M2946.72,351.357C2945.9,351.357 2945.12,351.331 2944.41,351.27C2942.78,351.131 2941.23,350.911 2939.74,350.614C2939.77,349.188 2940.6,347.887 2942.48,347.588C2948.29,346.663 2952.93,343.099 2956.68,338.734C2957.44,337.856 2958.32,337.489 2959.17,337.489C2961.92,337.489 2964.44,341.278 2962.03,344.078C2959.8,346.661 2957.19,349.058 2954.28,350.956C2951.53,351.165 2948.95,351.357 2946.72,351.357Z" style="fill:rgb(244,215,88);fill-rule:nonzero;"/>
        <path d="M2957.82,336.927C2956.2,336.926 2954.62,335.611 2954.2,334.097C2953.61,331.961 2954.92,330.189 2956.84,329.448C2960.8,327.921 2964.93,327.107 2969.18,327.047C2969.2,327.046 2969.23,327.046 2969.25,327.046C2974.06,327.046 2974.03,334.535 2969.18,334.604C2965.57,334.655 2962.21,335.44 2958.85,336.736C2958.51,336.867 2958.16,336.927 2957.82,336.927Z" style="fill:rgb(244,215,88);fill-rule:nonzero;"/>
        <path d="M2993.32,338.339C2992.04,338.339 2990.82,337.74 2990.1,336.512C2989.11,334.822 2989.62,332.262 2991.46,331.341C2992.23,330.957 2993,330.576 2993.73,330.113C2993.83,330.047 2994.41,329.614 2994.44,329.614C2994.45,329.614 2994.41,329.658 2994.27,329.773C2994.6,329.497 2994.92,329.21 2995.23,328.909C2995.97,328.187 2996.95,327.819 2997.92,327.819C2998.76,327.819 2999.59,328.091 3000.28,328.642C3000.63,330.107 3001.01,331.564 3001.4,333.013C3001.22,333.469 3000.94,333.893 3000.57,334.253C2999.01,335.774 2997.21,336.897 2995.27,337.867C2994.65,338.181 2993.98,338.339 2993.32,338.339Z" style="fill:rgb(244,215,88);fill-rule:nonzero;"/>
        <path d="M2985.21,321.064C2982.37,321.064 2979.82,317.274 2982.38,314.548C2985.98,310.716 2991.04,307.908 2996.45,306.543C2996.72,309.075 2997.04,311.598 2997.42,314.095C2993.66,315.225 2990.18,317.28 2987.73,319.893C2986.95,320.718 2986.07,321.064 2985.21,321.064Z" style="fill:rgb(244,215,88);fill-rule:nonzero;"/>
        <path d="M2967.19,427.473C2966.63,425.847 2966.2,424.137 2965.91,422.334C2967.51,423.531 2968.13,425.9 2967.19,427.473Z" style="fill:rgb(244,215,88);fill-rule:nonzero;"/>
        <path d="M2975.12,439.617C2973.26,437.863 2971.6,435.898 2970.21,433.722C2972.54,432.432 2974.82,431.017 2977.1,429.592C2977.76,429.177 2978.42,428.997 2979.03,428.997C2982.26,428.997 2984.38,433.956 2980.91,436.118C2979,437.314 2977.08,438.498 2975.12,439.617Z" style="fill:rgb(244,215,88);fill-rule:nonzero;"/>
        <path d="M2986.71,417.713C2983.77,417.713 2981.17,413.915 2983.89,411.289C2986.53,408.742 2989.72,407.035 2992.97,405.407C2993.6,405.094 2994.27,404.935 2994.93,404.935C2996.2,404.935 2997.42,405.534 2998.14,406.763C2999.13,408.452 2998.63,411.012 2996.78,411.933C2994.13,413.259 2991.39,414.556 2989.24,416.632C2988.45,417.393 2987.57,417.713 2986.71,417.713Z" style="fill:rgb(244,215,88);fill-rule:nonzero;"/>
        <path d="M3016.79,410.237C3013.52,410.237 3011.38,405.261 3014.89,403.14C3018.96,400.681 3022.91,398.042 3026.98,395.582C3027.64,395.184 3028.29,395.011 3028.9,395.011C3032.16,395.011 3034.3,399.987 3030.8,402.108C3026.73,404.567 3022.77,407.207 3018.7,409.666C3018.04,410.064 3017.4,410.237 3016.79,410.237Z" style="fill:rgb(244,215,88);fill-rule:nonzero;"/>
        <path d="M2997.59,435.457C2997.32,435.457 2997.04,435.448 2996.77,435.431C2995.37,433.812 2995.15,431.056 2997.51,429.592C3001.49,427.112 3004.78,423.659 3008.08,420.358C3008.86,419.573 3009.75,419.244 3010.6,419.244C3013.5,419.244 3016.09,423.038 3013.42,425.702C3012.36,426.761 3011.3,427.825 3010.22,428.871C3009.42,427.997 3008.3,427.45 3007.23,427.45C3006.12,427.45 3005.07,428.032 3004.46,429.436C3003.18,432.417 3001.74,435.269 2998.18,435.443C2997.99,435.453 2997.79,435.457 2997.59,435.457Z" style="fill:rgb(244,215,88);fill-rule:nonzero;"/>
        <path d="M2991.84,448.839C2989.53,448.151 2987.29,447.307 2985.14,446.303C2985.23,446.221 2985.32,446.138 2985.4,446.054C2986.14,445.332 2987.12,444.964 2988.09,444.964C2989.06,444.964 2990.02,445.324 2990.75,446.054C2991.5,446.803 2991.87,447.827 2991.84,448.839Z" style="fill:rgb(244,215,88);fill-rule:nonzero;"/>
        <path d="M2978.43,353.783C2975,351.138 2969.87,350.433 2964.44,350.433C2963.08,350.433 2961.71,350.476 2960.34,350.545C2963.49,348.388 2966.86,347.327 2970.8,346.971C2974.92,346.597 2978.87,346.663 2982.39,344.189C2983.07,343.71 2983.75,343.502 2984.38,343.502C2987.45,343.502 2989.48,348.408 2986.21,350.716C2983.82,352.393 2981.2,353.294 2978.43,353.783Z" style="fill:rgb(244,215,88);fill-rule:nonzero;"/>
        <path d="M2971.45,419.255C2971.12,419.255 2970.79,419.21 2970.45,419.116C2968.56,418.598 2967.13,416.414 2967.81,414.468C2969.07,410.842 2971.29,407.892 2974.98,406.538C2975.32,406.414 2975.66,406.357 2976,406.357C2977.63,406.357 2979.2,407.641 2979.63,409.177C2980.21,411.289 2978.92,413.116 2976.99,413.825C2977.23,413.738 2977.32,413.705 2977.33,413.705C2977.36,413.705 2976.89,413.897 2976.78,413.968C2976.72,414.005 2976.68,414.036 2976.64,414.061C2976.46,414.223 2976.29,414.39 2976.13,414.573C2976.09,414.614 2976.06,414.651 2976.03,414.681C2975.77,415.077 2975.52,415.485 2975.31,415.917C2975.27,416.003 2975.24,416.069 2975.22,416.117C2975.18,416.236 2975.13,416.356 2975.09,416.477C2974.53,418.102 2973.12,419.255 2971.45,419.255Z" style="fill:rgb(244,215,88);fill-rule:nonzero;"/>
        <path d="M2997.79,442.984C2993.92,442.984 2990.07,441.753 2986.32,441.034C2981.81,440.172 2983.35,433.667 2987.52,433.667C2987.78,433.667 2988.05,433.692 2988.33,433.746C2991.06,434.27 2993.93,435.26 2996.77,435.431C2997.04,435.448 2997.32,435.457 2997.59,435.457C2997.79,435.457 2997.99,435.453 2998.18,435.443C3001.74,435.269 3003.18,432.417 3004.46,429.436C3005.07,428.032 3006.12,427.45 3007.23,427.45C3008.3,427.45 3009.42,427.997 3010.22,428.871C3011.22,429.963 3011.71,431.566 3010.99,433.251C3008.85,438.225 3005.29,442.227 2999.68,442.878C2999.05,442.951 2998.42,442.984 2997.79,442.984Z" style="fill:rgb(244,215,88);fill-rule:nonzero;"/>
        <path d="M3026.02,421.568C3024.67,421.568 3023.25,420.754 3022.6,419.647C3021.47,417.707 3022.32,415.721 3023.96,414.477C3026.81,412.309 3029.42,409.845 3032.27,407.675C3032.79,407.281 3033.4,407.11 3034.02,407.11C3035.38,407.11 3036.79,407.923 3037.44,409.03C3038.58,410.971 3037.72,412.957 3036.09,414.201C3033.24,416.368 3030.63,418.834 3027.77,421.003C3027.25,421.396 3026.65,421.568 3026.02,421.568Z" style="fill:rgb(244,215,88);fill-rule:nonzero;"/>
        <path d="M3003.97,418.342C3001.67,418.342 2999.38,416.512 3000.3,413.712C3001.83,409.061 3002.99,404.53 3002.44,399.601C3002.29,398.296 3002.73,397.347 3003.47,396.75C3004.1,397.125 3004.86,397.334 3005.62,397.334C3006.45,397.334 3007.28,397.076 3007.88,396.5C3008.96,397.065 3009.82,398.101 3009.99,399.601C3010.62,405.129 3009.31,410.501 3007.59,415.721C3006.99,417.55 3005.48,418.342 3003.97,418.342Z" style="fill:rgb(244,215,88);fill-rule:nonzero;"/>
        <path d="M3005.62,397.334C3004.86,397.334 3004.1,397.125 3003.47,396.75C3003.22,396.601 3002.99,396.426 3002.79,396.227C3001.21,394.651 3001.5,392.489 3002.79,390.883C3004.4,388.868 3007.37,387.943 3009.73,387.197C3012.5,386.321 3015.34,385.656 3018.06,384.621C3018.54,384.437 3018.99,384.354 3019.41,384.354C3022.96,384.354 3024.1,390.37 3020.07,391.908C3017.8,392.775 3015.43,393.35 3013.11,394.06C3011.49,394.554 3008.97,395.183 3008.13,396.227C3008.05,396.325 3007.97,396.416 3007.88,396.5C3007.28,397.076 3006.45,397.334 3005.62,397.334Z" style="fill:rgb(244,215,88);fill-rule:nonzero;"/>
        <path d="M3044.15,409.421C3041.49,409.421 3039.1,406.263 3040.74,403.697C3042.41,405.485 3044.11,407.24 3045.85,408.956C3045.3,409.278 3044.72,409.421 3044.15,409.421Z" style="fill:rgb(244,215,88);fill-rule:nonzero;"/>
        <path d="M2933.36,279.028C2932.13,279.028 2930.89,278.881 2929.63,278.541C2929.39,278.477 2929.17,278.397 2928.97,278.304C2930.73,275.948 2932.59,273.667 2934.52,271.426C2937.82,271.056 2941.36,269.06 2944.15,267.983C2948.28,266.387 2952.48,265.053 2956.92,265.053C2957.23,265.053 2957.54,265.06 2957.85,265.072C2962.64,265.274 2962.72,272.634 2958.04,272.634C2957.98,272.634 2957.91,272.633 2957.85,272.63C2957.63,272.621 2957.41,272.616 2957.19,272.616C2953.08,272.616 2949.14,274.219 2945.22,275.822C2941.3,277.425 2937.4,279.028 2933.36,279.028Z" style="fill:rgb(244,215,88);fill-rule:nonzero;"/>
        <path d="M2948.55,310.493C2944.82,310.493 2943.6,304.369 2947.77,302.996C2949.4,302.46 2951.06,302.299 2952.74,302.299C2954.01,302.299 2955.28,302.391 2956.55,302.482C2957.83,302.574 2959.1,302.665 2960.37,302.665C2961.73,302.665 2963.07,302.561 2964.4,302.24C2964.74,302.157 2965.07,302.118 2965.38,302.118C2969.39,302.118 2970.8,308.465 2966.41,309.528C2964.38,310.019 2962.34,310.193 2960.28,310.193C2959.37,310.193 2958.45,310.159 2957.54,310.103C2956.1,310.015 2954.58,309.826 2953.09,309.826C2951.96,309.826 2950.84,309.936 2949.78,310.284C2949.34,310.427 2948.93,310.493 2948.55,310.493Z" style="fill:rgb(244,215,88);fill-rule:nonzero;"/>
        <path d="M2978.2,305.081C2976.92,305.081 2975.71,304.489 2974.99,303.257C2974,301.576 2974.5,298.997 2976.34,298.087C2979.58,296.492 2982.93,295.146 2986.17,293.552C2986.8,293.242 2987.47,293.083 2988.13,293.083C2989.4,293.083 2990.62,293.676 2991.34,294.908C2992.32,296.588 2991.83,299.168 2989.98,300.078C2986.75,301.672 2983.4,303.018 2980.16,304.613C2979.53,304.923 2978.85,305.081 2978.2,305.081Z" style="fill:rgb(244,215,88);fill-rule:nonzero;"/>
        <path d="M2978.25,330.069C2976.19,330.07 2974.47,328.35 2974.47,326.291C2974.47,324.229 2976.19,322.513 2978.25,322.512C2980.3,322.51 2982.12,322.488 2984.05,321.89C2984.38,321.788 2984.72,321.74 2985.05,321.74C2986.69,321.74 2988.25,322.918 2988.7,324.53C2989.26,326.564 2988.02,328.569 2986.06,329.179C2983.53,329.963 2980.88,330.068 2978.25,330.069Z" style="fill:rgb(244,215,88);fill-rule:nonzero;"/>
        <path d="M2999.79,326.598C2997.92,325.544 2997.54,322.875 2998.63,321.124C2998.99,322.958 2999.38,324.785 2999.79,326.598Z" style="fill:rgb(244,215,88);fill-rule:nonzero;"/>
    </g>
</svg>
