<svg viewBox="0 0 68 96" fill="none" xmlns="http://www.w3.org/2000/svg">
<path d="M40.6606 87.928C42.9305 83.0857 44.2322 76.6098 44.2322 70.1605V28.0749C45.1979 27.3453 45.9968 26.5155 46.5893 25.6117V56.0177C51.0462 34.3846 66.625 32.9477 66.625 14.7683V14.7678L47.7679 14.7678V12.4107L66.625 12.4107C66.625 8.5052 62.4037 5.33927 57.1965 5.33927H47.7679C47.7679 1.92187 46.29 0.625 44.2322 0.625L38.3394 0.625C36.2794 0.625 34.8037 1.92422 34.8037 5.33927H32.4465C32.4465 1.92187 30.9686 0.625 28.9108 0.625L23.018 0.625C20.958 0.625 19.4823 1.92422 19.4823 5.33927L10.0537 5.33927C4.84653 5.33927 0.625198 8.5052 0.625198 12.4107H19.4823V14.7678H0.625198V14.7683C0.625198 32.9477 16.2039 34.3846 20.6609 56.0177V25.6115C21.2534 26.5153 22.0523 27.3452 23.018 28.0747L23.018 70.1605C23.018 76.6098 24.3197 83.0857 26.5896 87.928C28.639 92.3002 31.2691 94.9104 33.6251 94.9104C35.9811 94.9104 38.6112 92.3002 40.6606 87.928ZM27.7323 72.5176C27.7323 72.2051 27.8564 71.9053 28.0775 71.6843C28.2985 71.4632 28.5983 71.3391 28.9108 71.3391H38.3394C38.6519 71.3391 38.9517 71.4632 39.1727 71.6843C39.3938 71.9053 39.5179 72.2051 39.5179 72.5176C39.5179 77.2185 27.7323 77.2234 27.7323 72.5176Z" fill="#FFD154" stroke="#FFD154" stroke-width="1.25"/>
</svg>
