<svg width="44" height="36" viewBox="0 0 44 36" fill="none" xmlns="http://www.w3.org/2000/svg">
<path d="M14.3501 36C12.4167 36 10.6334 35.9667 9.00005 35.9C7.36672 35.8667 5.80005 35.8167 4.30005 35.75C2.83338 35.6833 1.40005 35.6167 4.89503e-05 35.55V0.549997C1.63338 0.416665 3.18338 0.316666 4.65005 0.249998C6.15005 0.149999 7.65005 0.0833323 9.15005 0.0499974C10.65 0.0166645 12.2334 -1.90735e-06 13.9 -1.90735e-06C18.1334 -1.90735e-06 21.55 0.633331 24.15 1.9C26.75 3.13333 28.6334 5.08333 29.8001 7.75C31.0001 10.3833 31.6001 13.8 31.6001 18C31.6001 22.1333 30.9667 25.5333 29.7 28.2C28.4334 30.8333 26.5334 32.8 24.0001 34.1C21.4667 35.3667 18.25 36 14.3501 36ZM15.25 28.05C16.5167 28.05 17.5834 27.7333 18.45 27.1C19.3167 26.4333 19.9834 25.3667 20.4501 23.9C20.9167 22.4 21.1501 20.45 21.1501 18.05C21.1501 15.4833 20.9167 13.4833 20.4501 12.05C20.0167 10.5833 19.35 9.55 18.45 8.95C17.5501 8.31667 16.4167 8 15.0501 8C14.4167 8 13.8001 8.01667 13.2 8.05C12.6 8.05 12.05 8.06667 11.55 8.1C11.05 8.1 10.5834 8.11666 10.15 8.15V27.9C10.5834 27.9 11 27.9167 11.4 27.95C11.8 27.95 12.2 27.9667 12.6001 28C13.0001 28 13.4 28.0167 13.8 28.05C14.2334 28.05 14.7167 28.05 15.25 28.05ZM32.7844 30.75C32.7844 29.05 33.1844 27.7833 33.9844 26.95C34.8178 26.0833 36.1844 25.65 38.0844 25.65C40.0178 25.65 41.3844 26.0833 42.1844 26.95C43.0178 27.7833 43.4344 29.05 43.4344 30.75C43.4344 32.45 43.0178 33.7333 42.1844 34.6C41.3844 35.4333 40.0178 35.85 38.0844 35.85C36.1844 35.85 34.8178 35.4333 33.9844 34.6C33.1844 33.7333 32.7844 32.45 32.7844 30.75Z" fill="#FFD154"/>
</svg>
