<svg width="9" height="9" viewBox="0 0 9 9" fill="none" xmlns="http://www.w3.org/2000/svg">
<path d="M4.28572 8.5C1.92857 8.5 0 6.5875 0 4.25C0 1.9125 1.92857 0 4.28572 0C6.64286 0 8.57143 1.9125 8.57143 4.25C8.57143 6.5875 6.64286 8.5 4.28572 8.5ZM3.39286 6.02083C3.60714 7.11875 4 7.79167 4.28572 7.79167C4.57143 7.79167 4.96429 7.11875 5.17857 6.02083H3.39286ZM5.92857 6.02083C5.82143 6.62292 5.64286 7.18958 5.42857 7.61458C6.25 7.33125 6.96429 6.76458 7.39286 6.02083H5.92857ZM1.17857 6.02083C1.60714 6.76458 2.32143 7.33125 3.14286 7.61458C2.92857 7.18958 2.75 6.62292 2.64286 6.02083H1.17857ZM6.03572 5.3125H7.71429C7.78572 4.99375 7.85714 4.60417 7.85714 4.25C7.85714 3.89583 7.78572 3.50625 7.67857 3.1875H6C6.07143 3.54167 6.07143 3.89583 6.07143 4.25C6.07143 4.60417 6.07143 4.95833 6.03572 5.3125ZM3.28571 5.3125H5.32143C5.35714 4.99375 5.39286 4.63958 5.39286 4.25C5.39286 3.86042 5.35714 3.50625 5.32143 3.1875H3.28571C3.25 3.50625 3.21429 3.86042 3.21429 4.25C3.21429 4.63958 3.25 4.99375 3.28571 5.3125ZM0.892857 5.3125H2.57143C2.53571 4.95833 2.53571 4.60417 2.53571 4.25C2.53571 3.89583 2.53571 3.54167 2.57143 3.1875H0.892857C0.785714 3.50625 0.714286 3.89583 0.714286 4.25C0.714286 4.60417 0.785714 4.99375 0.892857 5.3125ZM5.92857 2.47917H7.39286C6.96429 1.73542 6.25 1.16875 5.42857 0.885417C5.64286 1.31042 5.82143 1.87708 5.92857 2.47917ZM3.39286 2.47917H5.21429C5 1.38125 4.60714 0.708333 4.32143 0.708333C4.03572 0.708333 3.60714 1.38125 3.39286 2.47917ZM1.17857 2.47917H2.64286C2.75 1.87708 2.92857 1.31042 3.14286 0.885417C2.32143 1.16875 1.64286 1.73542 1.17857 2.47917Z" fill="#696969"/>
</svg>
